%TF.GenerationSoftware,KiCad,Pcbnew,9.0.4*%
%TF.CreationDate,2025-09-10T21:24:44+08:00*%
%TF.ProjectId,smart_shunt_v0.0.1,736d6172-745f-4736-9875-6e745f76302e,v0.0.4*%
%TF.SameCoordinates,Original*%
%TF.FileFunction,Legend,Top*%
%TF.FilePolarity,Positive*%
%FSLAX46Y46*%
G04 Gerber Fmt 4.6, Leading zero omitted, Abs format (unit mm)*
G04 Created by KiCad (PCBNEW 9.0.4) date 2025-09-10 21:24:44*
%MOMM*%
%LPD*%
G01*
G04 APERTURE LIST*
%ADD10C,0.150000*%
%ADD11C,0.080000*%
%ADD12C,0.100000*%
%ADD13C,0.090000*%
%ADD14C,0.200000*%
%ADD15C,0.127000*%
%ADD16C,0.120000*%
%ADD17C,0.000000*%
G04 APERTURE END LIST*
D10*
X146991079Y-68665603D02*
X146991079Y-69237031D01*
X146991079Y-69237031D02*
X147029174Y-69351317D01*
X147029174Y-69351317D02*
X147105365Y-69427508D01*
X147105365Y-69427508D02*
X147219650Y-69465603D01*
X147219650Y-69465603D02*
X147295841Y-69465603D01*
X146229174Y-69465603D02*
X146610126Y-69465603D01*
X146610126Y-69465603D02*
X146610126Y-68665603D01*
X145505364Y-69389412D02*
X145543460Y-69427508D01*
X145543460Y-69427508D02*
X145657745Y-69465603D01*
X145657745Y-69465603D02*
X145733936Y-69465603D01*
X145733936Y-69465603D02*
X145848222Y-69427508D01*
X145848222Y-69427508D02*
X145924412Y-69351317D01*
X145924412Y-69351317D02*
X145962507Y-69275127D01*
X145962507Y-69275127D02*
X146000603Y-69122746D01*
X146000603Y-69122746D02*
X146000603Y-69008460D01*
X146000603Y-69008460D02*
X145962507Y-68856079D01*
X145962507Y-68856079D02*
X145924412Y-68779888D01*
X145924412Y-68779888D02*
X145848222Y-68703698D01*
X145848222Y-68703698D02*
X145733936Y-68665603D01*
X145733936Y-68665603D02*
X145657745Y-68665603D01*
X145657745Y-68665603D02*
X145543460Y-68703698D01*
X145543460Y-68703698D02*
X145505364Y-68741793D01*
X144933936Y-68665603D02*
X144933936Y-69237031D01*
X144933936Y-69237031D02*
X144972031Y-69351317D01*
X144972031Y-69351317D02*
X145048222Y-69427508D01*
X145048222Y-69427508D02*
X145162507Y-69465603D01*
X145162507Y-69465603D02*
X145238698Y-69465603D01*
X144172031Y-69465603D02*
X144552983Y-69465603D01*
X144552983Y-69465603D02*
X144552983Y-68665603D01*
X143448221Y-69389412D02*
X143486317Y-69427508D01*
X143486317Y-69427508D02*
X143600602Y-69465603D01*
X143600602Y-69465603D02*
X143676793Y-69465603D01*
X143676793Y-69465603D02*
X143791079Y-69427508D01*
X143791079Y-69427508D02*
X143867269Y-69351317D01*
X143867269Y-69351317D02*
X143905364Y-69275127D01*
X143905364Y-69275127D02*
X143943460Y-69122746D01*
X143943460Y-69122746D02*
X143943460Y-69008460D01*
X143943460Y-69008460D02*
X143905364Y-68856079D01*
X143905364Y-68856079D02*
X143867269Y-68779888D01*
X143867269Y-68779888D02*
X143791079Y-68703698D01*
X143791079Y-68703698D02*
X143676793Y-68665603D01*
X143676793Y-68665603D02*
X143600602Y-68665603D01*
X143600602Y-68665603D02*
X143486317Y-68703698D01*
X143486317Y-68703698D02*
X143448221Y-68741793D01*
X142876793Y-68665603D02*
X142876793Y-69237031D01*
X142876793Y-69237031D02*
X142914888Y-69351317D01*
X142914888Y-69351317D02*
X142991079Y-69427508D01*
X142991079Y-69427508D02*
X143105364Y-69465603D01*
X143105364Y-69465603D02*
X143181555Y-69465603D01*
X142114888Y-69465603D02*
X142495840Y-69465603D01*
X142495840Y-69465603D02*
X142495840Y-68665603D01*
X141391078Y-69389412D02*
X141429174Y-69427508D01*
X141429174Y-69427508D02*
X141543459Y-69465603D01*
X141543459Y-69465603D02*
X141619650Y-69465603D01*
X141619650Y-69465603D02*
X141733936Y-69427508D01*
X141733936Y-69427508D02*
X141810126Y-69351317D01*
X141810126Y-69351317D02*
X141848221Y-69275127D01*
X141848221Y-69275127D02*
X141886317Y-69122746D01*
X141886317Y-69122746D02*
X141886317Y-69008460D01*
X141886317Y-69008460D02*
X141848221Y-68856079D01*
X141848221Y-68856079D02*
X141810126Y-68779888D01*
X141810126Y-68779888D02*
X141733936Y-68703698D01*
X141733936Y-68703698D02*
X141619650Y-68665603D01*
X141619650Y-68665603D02*
X141543459Y-68665603D01*
X141543459Y-68665603D02*
X141429174Y-68703698D01*
X141429174Y-68703698D02*
X141391078Y-68741793D01*
X140819650Y-68665603D02*
X140819650Y-69237031D01*
X140819650Y-69237031D02*
X140857745Y-69351317D01*
X140857745Y-69351317D02*
X140933936Y-69427508D01*
X140933936Y-69427508D02*
X141048221Y-69465603D01*
X141048221Y-69465603D02*
X141124412Y-69465603D01*
X140057745Y-69465603D02*
X140438697Y-69465603D01*
X140438697Y-69465603D02*
X140438697Y-68665603D01*
X139333935Y-69389412D02*
X139372031Y-69427508D01*
X139372031Y-69427508D02*
X139486316Y-69465603D01*
X139486316Y-69465603D02*
X139562507Y-69465603D01*
X139562507Y-69465603D02*
X139676793Y-69427508D01*
X139676793Y-69427508D02*
X139752983Y-69351317D01*
X139752983Y-69351317D02*
X139791078Y-69275127D01*
X139791078Y-69275127D02*
X139829174Y-69122746D01*
X139829174Y-69122746D02*
X139829174Y-69008460D01*
X139829174Y-69008460D02*
X139791078Y-68856079D01*
X139791078Y-68856079D02*
X139752983Y-68779888D01*
X139752983Y-68779888D02*
X139676793Y-68703698D01*
X139676793Y-68703698D02*
X139562507Y-68665603D01*
X139562507Y-68665603D02*
X139486316Y-68665603D01*
X139486316Y-68665603D02*
X139372031Y-68703698D01*
X139372031Y-68703698D02*
X139333935Y-68741793D01*
G36*
X113091286Y-91841695D02*
G01*
X113210848Y-91961257D01*
X113275000Y-92217862D01*
X113275000Y-92699393D01*
X113210848Y-92955998D01*
X113091286Y-93075560D01*
X112975152Y-93133628D01*
X112724848Y-93133628D01*
X112608712Y-93075560D01*
X112489150Y-92955998D01*
X112425000Y-92699394D01*
X112425000Y-92217861D01*
X112489150Y-91961257D01*
X112608712Y-91841695D01*
X112724848Y-91783628D01*
X112975152Y-91783628D01*
X113091286Y-91841695D01*
G37*
G36*
X121238057Y-92559894D02*
G01*
X121288360Y-92610197D01*
X121346428Y-92726332D01*
X121346428Y-92905209D01*
X121288360Y-93021344D01*
X121234144Y-93075560D01*
X121118009Y-93133628D01*
X120639285Y-93133628D01*
X120639285Y-92497914D01*
X121052115Y-92497914D01*
X121238057Y-92559894D01*
G37*
G36*
X121162716Y-91841696D02*
G01*
X121216932Y-91895912D01*
X121275000Y-92012047D01*
X121275000Y-92119494D01*
X121216932Y-92235629D01*
X121162716Y-92289846D01*
X121046580Y-92347914D01*
X120639285Y-92347914D01*
X120639285Y-91783628D01*
X121046580Y-91783628D01*
X121162716Y-91841696D01*
G37*
G36*
X115674515Y-92705057D02*
G01*
X115168343Y-92705057D01*
X115421429Y-91945798D01*
X115674515Y-92705057D01*
G37*
G36*
X122603086Y-92705057D02*
G01*
X122096914Y-92705057D01*
X122350000Y-91945798D01*
X122603086Y-92705057D01*
G37*
G36*
X128161654Y-93450295D02*
G01*
X110824060Y-93450295D01*
X110824060Y-91693996D01*
X110990727Y-91693996D01*
X110990727Y-91723260D01*
X111001926Y-91750296D01*
X111022618Y-91770988D01*
X111049654Y-91782187D01*
X111064286Y-91783628D01*
X111417857Y-91783628D01*
X111417857Y-93208628D01*
X111419298Y-93223260D01*
X111430497Y-93250296D01*
X111451189Y-93270988D01*
X111478225Y-93282187D01*
X111507489Y-93282187D01*
X111534525Y-93270988D01*
X111555217Y-93250296D01*
X111566416Y-93223260D01*
X111567857Y-93208628D01*
X111567857Y-92208628D01*
X112275000Y-92208628D01*
X112275000Y-92708628D01*
X112275251Y-92711181D01*
X112275089Y-92712273D01*
X112275897Y-92717745D01*
X112276441Y-92723260D01*
X112276864Y-92724281D01*
X112277239Y-92726818D01*
X112348667Y-93012532D01*
X112353614Y-93026378D01*
X112356934Y-93030859D01*
X112359068Y-93036010D01*
X112368395Y-93047375D01*
X112511253Y-93190233D01*
X112517002Y-93194951D01*
X112518302Y-93196450D01*
X112520560Y-93197871D01*
X112522619Y-93199561D01*
X112524448Y-93200318D01*
X112530745Y-93204282D01*
X112673602Y-93275710D01*
X112687334Y-93280965D01*
X112690021Y-93281155D01*
X112692511Y-93282187D01*
X112707143Y-93283628D01*
X112992857Y-93283628D01*
X113007489Y-93282187D01*
X113009978Y-93281155D01*
X113012666Y-93280965D01*
X113026398Y-93275710D01*
X113169255Y-93204282D01*
X113175554Y-93200317D01*
X113177382Y-93199560D01*
X113177762Y-93199248D01*
X114847018Y-93199248D01*
X114849093Y-93228438D01*
X114862179Y-93254611D01*
X114884286Y-93273785D01*
X114912049Y-93283039D01*
X114941239Y-93280964D01*
X114967412Y-93267878D01*
X114986586Y-93245771D01*
X114992580Y-93232345D01*
X115118343Y-92855057D01*
X115724515Y-92855057D01*
X115850278Y-93232345D01*
X115856272Y-93245771D01*
X115875446Y-93267878D01*
X115901619Y-93280965D01*
X115930809Y-93283039D01*
X115958572Y-93273785D01*
X115980679Y-93254611D01*
X115993766Y-93228438D01*
X115995840Y-93199248D01*
X115992580Y-93184911D01*
X115500486Y-91708628D01*
X116346428Y-91708628D01*
X116346428Y-92922914D01*
X116347869Y-92937546D01*
X116348899Y-92940034D01*
X116349091Y-92942724D01*
X116354346Y-92956455D01*
X116425775Y-93099312D01*
X116429739Y-93105611D01*
X116430497Y-93107439D01*
X116432185Y-93109495D01*
X116433607Y-93111755D01*
X116435105Y-93113054D01*
X116439824Y-93118804D01*
X116511253Y-93190233D01*
X116517003Y-93194953D01*
X116518302Y-93196450D01*
X116520556Y-93197869D01*
X116522618Y-93199561D01*
X116524450Y-93200319D01*
X116530745Y-93204282D01*
X116673602Y-93275710D01*
X116687334Y-93280965D01*
X116690021Y-93281155D01*
X116692511Y-93282187D01*
X116707143Y-93283628D01*
X116992857Y-93283628D01*
X117007489Y-93282187D01*
X117009978Y-93281155D01*
X117012666Y-93280965D01*
X117026398Y-93275710D01*
X117169255Y-93204282D01*
X117175554Y-93200317D01*
X117177382Y-93199560D01*
X117179438Y-93197871D01*
X117181698Y-93196450D01*
X117182997Y-93194951D01*
X117188747Y-93190233D01*
X117260176Y-93118804D01*
X117264896Y-93113053D01*
X117266393Y-93111755D01*
X117267812Y-93109500D01*
X117269504Y-93107439D01*
X117270262Y-93105606D01*
X117274225Y-93099312D01*
X117345653Y-92956455D01*
X117350908Y-92942723D01*
X117351098Y-92940035D01*
X117352130Y-92937546D01*
X117353571Y-92922914D01*
X117353571Y-91708628D01*
X117353563Y-91708549D01*
X117775000Y-91708549D01*
X117780679Y-91737257D01*
X117787596Y-91750231D01*
X118259860Y-92458628D01*
X117787596Y-93167025D01*
X117780679Y-93179999D01*
X117775000Y-93208707D01*
X117780739Y-93237401D01*
X117797022Y-93261716D01*
X117821371Y-93277949D01*
X117850079Y-93283628D01*
X117878773Y-93277889D01*
X117903088Y-93261606D01*
X117912404Y-93250231D01*
X118349999Y-92593836D01*
X118787596Y-93250231D01*
X118796912Y-93261606D01*
X118821227Y-93277889D01*
X118849921Y-93283628D01*
X118878629Y-93277949D01*
X118902978Y-93261717D01*
X118919261Y-93237402D01*
X118925000Y-93208707D01*
X118919321Y-93180000D01*
X118912404Y-93167026D01*
X118440138Y-92458628D01*
X118912404Y-91750230D01*
X118919321Y-91737256D01*
X118924984Y-91708628D01*
X120489285Y-91708628D01*
X120489285Y-93208628D01*
X120490726Y-93223260D01*
X120501925Y-93250296D01*
X120522617Y-93270988D01*
X120549653Y-93282187D01*
X120564285Y-93283628D01*
X121135714Y-93283628D01*
X121150346Y-93282187D01*
X121152835Y-93281155D01*
X121155523Y-93280965D01*
X121169255Y-93275710D01*
X121312112Y-93204282D01*
X121318411Y-93200317D01*
X121320239Y-93199560D01*
X121320619Y-93199248D01*
X121775589Y-93199248D01*
X121777664Y-93228438D01*
X121790750Y-93254611D01*
X121812857Y-93273785D01*
X121840620Y-93283039D01*
X121869810Y-93280964D01*
X121895983Y-93267878D01*
X121915157Y-93245771D01*
X121921151Y-93232345D01*
X122046914Y-92855057D01*
X122653086Y-92855057D01*
X122778849Y-93232345D01*
X122784843Y-93245771D01*
X122804017Y-93267878D01*
X122830190Y-93280965D01*
X122859380Y-93283039D01*
X122887143Y-93273785D01*
X122909250Y-93254611D01*
X122922337Y-93228438D01*
X122924411Y-93199248D01*
X122921151Y-93184911D01*
X122424179Y-91693996D01*
X123062155Y-91693996D01*
X123062155Y-91723260D01*
X123073354Y-91750296D01*
X123094046Y-91770988D01*
X123121082Y-91782187D01*
X123135714Y-91783628D01*
X123489285Y-91783628D01*
X123489285Y-93208628D01*
X123490726Y-93223260D01*
X123501925Y-93250296D01*
X123522617Y-93270988D01*
X123549653Y-93282187D01*
X123578917Y-93282187D01*
X123605953Y-93270988D01*
X123626645Y-93250296D01*
X123637844Y-93223260D01*
X123639285Y-93208628D01*
X123639285Y-91783628D01*
X123992857Y-91783628D01*
X124007489Y-91782187D01*
X124034525Y-91770988D01*
X124055217Y-91750296D01*
X124066416Y-91723260D01*
X124066416Y-91693996D01*
X124205012Y-91693996D01*
X124205012Y-91723260D01*
X124216211Y-91750296D01*
X124236903Y-91770988D01*
X124263939Y-91782187D01*
X124278571Y-91783628D01*
X124632142Y-91783628D01*
X124632142Y-93208628D01*
X124633583Y-93223260D01*
X124644782Y-93250296D01*
X124665474Y-93270988D01*
X124692510Y-93282187D01*
X124721774Y-93282187D01*
X124748810Y-93270988D01*
X124769502Y-93250296D01*
X124780701Y-93223260D01*
X124782142Y-93208628D01*
X124782142Y-92622568D01*
X126705011Y-92622568D01*
X126705011Y-92651832D01*
X126716210Y-92678868D01*
X126736902Y-92699560D01*
X126763938Y-92710759D01*
X126778570Y-92712200D01*
X127274999Y-92712200D01*
X127274999Y-93208628D01*
X127276440Y-93223260D01*
X127287639Y-93250296D01*
X127308331Y-93270988D01*
X127335367Y-93282187D01*
X127364631Y-93282187D01*
X127391667Y-93270988D01*
X127412359Y-93250296D01*
X127423558Y-93223260D01*
X127424999Y-93208628D01*
X127424999Y-92712200D01*
X127921428Y-92712200D01*
X127936060Y-92710759D01*
X127963096Y-92699560D01*
X127983788Y-92678868D01*
X127994987Y-92651832D01*
X127994987Y-92622568D01*
X127983788Y-92595532D01*
X127963096Y-92574840D01*
X127936060Y-92563641D01*
X127921428Y-92562200D01*
X127424999Y-92562200D01*
X127424999Y-92065771D01*
X127423558Y-92051139D01*
X127412359Y-92024103D01*
X127391667Y-92003411D01*
X127364631Y-91992212D01*
X127335367Y-91992212D01*
X127308331Y-92003411D01*
X127287639Y-92024103D01*
X127276440Y-92051139D01*
X127274999Y-92065771D01*
X127274999Y-92562200D01*
X126778570Y-92562200D01*
X126763938Y-92563641D01*
X126736902Y-92574840D01*
X126716210Y-92595532D01*
X126705011Y-92622568D01*
X124782142Y-92622568D01*
X124782142Y-91783628D01*
X125135714Y-91783628D01*
X125150346Y-91782187D01*
X125177382Y-91770988D01*
X125198074Y-91750296D01*
X125209273Y-91723260D01*
X125209273Y-91693996D01*
X125198074Y-91666960D01*
X125177382Y-91646268D01*
X125150346Y-91635069D01*
X125135714Y-91633628D01*
X124278571Y-91633628D01*
X124263939Y-91635069D01*
X124236903Y-91646268D01*
X124216211Y-91666960D01*
X124205012Y-91693996D01*
X124066416Y-91693996D01*
X124055217Y-91666960D01*
X124034525Y-91646268D01*
X124007489Y-91635069D01*
X123992857Y-91633628D01*
X123135714Y-91633628D01*
X123121082Y-91635069D01*
X123094046Y-91646268D01*
X123073354Y-91666960D01*
X123062155Y-91693996D01*
X122424179Y-91693996D01*
X122421151Y-91684911D01*
X122415157Y-91671485D01*
X122411646Y-91667437D01*
X122409250Y-91662645D01*
X122402145Y-91656482D01*
X122395983Y-91649378D01*
X122391191Y-91646982D01*
X122387143Y-91643471D01*
X122378219Y-91640496D01*
X122369810Y-91636292D01*
X122364465Y-91635912D01*
X122359380Y-91634217D01*
X122349997Y-91634883D01*
X122340620Y-91634217D01*
X122335537Y-91635911D01*
X122330190Y-91636291D01*
X122321776Y-91640497D01*
X122312857Y-91643471D01*
X122308809Y-91646981D01*
X122304017Y-91649378D01*
X122297854Y-91656482D01*
X122290750Y-91662645D01*
X122288354Y-91667436D01*
X122284843Y-91671485D01*
X122278849Y-91684911D01*
X121778849Y-93184911D01*
X121775589Y-93199248D01*
X121320619Y-93199248D01*
X121322295Y-93197871D01*
X121324555Y-93196450D01*
X121325854Y-93194951D01*
X121331604Y-93190233D01*
X121403033Y-93118804D01*
X121407753Y-93113053D01*
X121409250Y-93111755D01*
X121410669Y-93109500D01*
X121412361Y-93107439D01*
X121413119Y-93105606D01*
X121417082Y-93099312D01*
X121488510Y-92956455D01*
X121493765Y-92942723D01*
X121493955Y-92940035D01*
X121494987Y-92937546D01*
X121496428Y-92922914D01*
X121496428Y-92708628D01*
X121494987Y-92693996D01*
X121493955Y-92691506D01*
X121493765Y-92688819D01*
X121488510Y-92675087D01*
X121417082Y-92532230D01*
X121413119Y-92525935D01*
X121412361Y-92524103D01*
X121410669Y-92522041D01*
X121409250Y-92519787D01*
X121407753Y-92518488D01*
X121403033Y-92512738D01*
X121331604Y-92441309D01*
X121320239Y-92431982D01*
X121317748Y-92430950D01*
X121315713Y-92429185D01*
X121302288Y-92423191D01*
X121256158Y-92407814D01*
X121260176Y-92404518D01*
X121331604Y-92333090D01*
X121336324Y-92327337D01*
X121337820Y-92326041D01*
X121339239Y-92323786D01*
X121340931Y-92321725D01*
X121341689Y-92319894D01*
X121345653Y-92313598D01*
X121417082Y-92170741D01*
X121422337Y-92157010D01*
X121422528Y-92154320D01*
X121423559Y-92151832D01*
X121425000Y-92137200D01*
X121425000Y-91994342D01*
X121423559Y-91979710D01*
X121422528Y-91977221D01*
X121422337Y-91974532D01*
X121417082Y-91960801D01*
X121345653Y-91817944D01*
X121341689Y-91811647D01*
X121340931Y-91809817D01*
X121339239Y-91807755D01*
X121337820Y-91805501D01*
X121336324Y-91804204D01*
X121331604Y-91798452D01*
X121260176Y-91727024D01*
X121254426Y-91722305D01*
X121253127Y-91720807D01*
X121250867Y-91719385D01*
X121248811Y-91717697D01*
X121246983Y-91716939D01*
X121240684Y-91712975D01*
X121097826Y-91641546D01*
X121084094Y-91636291D01*
X121081406Y-91636100D01*
X121078917Y-91635069D01*
X121064285Y-91633628D01*
X120564285Y-91633628D01*
X120549653Y-91635069D01*
X120522617Y-91646268D01*
X120501925Y-91666960D01*
X120490726Y-91693996D01*
X120489285Y-91708628D01*
X118924984Y-91708628D01*
X118925000Y-91708549D01*
X118919261Y-91679854D01*
X118902978Y-91655539D01*
X118878629Y-91639307D01*
X118849921Y-91633628D01*
X118821227Y-91639367D01*
X118796912Y-91655650D01*
X118787596Y-91667025D01*
X118349999Y-92323419D01*
X117912404Y-91667025D01*
X117903088Y-91655650D01*
X117878773Y-91639367D01*
X117850079Y-91633628D01*
X117821371Y-91639307D01*
X117797022Y-91655540D01*
X117780739Y-91679855D01*
X117775000Y-91708549D01*
X117353563Y-91708549D01*
X117352130Y-91693996D01*
X117340931Y-91666960D01*
X117320239Y-91646268D01*
X117293203Y-91635069D01*
X117263939Y-91635069D01*
X117236903Y-91646268D01*
X117216211Y-91666960D01*
X117205012Y-91693996D01*
X117203571Y-91708628D01*
X117203571Y-92905209D01*
X117145503Y-93021344D01*
X117091287Y-93075560D01*
X116975152Y-93133628D01*
X116724848Y-93133628D01*
X116608712Y-93075560D01*
X116554495Y-93021343D01*
X116496428Y-92905208D01*
X116496428Y-91708628D01*
X116494987Y-91693996D01*
X116483788Y-91666960D01*
X116463096Y-91646268D01*
X116436060Y-91635069D01*
X116406796Y-91635069D01*
X116379760Y-91646268D01*
X116359068Y-91666960D01*
X116347869Y-91693996D01*
X116346428Y-91708628D01*
X115500486Y-91708628D01*
X115492580Y-91684911D01*
X115486586Y-91671485D01*
X115483075Y-91667437D01*
X115480679Y-91662645D01*
X115473574Y-91656482D01*
X115467412Y-91649378D01*
X115462620Y-91646982D01*
X115458572Y-91643471D01*
X115449648Y-91640496D01*
X115441239Y-91636292D01*
X115435894Y-91635912D01*
X115430809Y-91634217D01*
X115421426Y-91634883D01*
X115412049Y-91634217D01*
X115406966Y-91635911D01*
X115401619Y-91636291D01*
X115393205Y-91640497D01*
X115384286Y-91643471D01*
X115380238Y-91646981D01*
X115375446Y-91649378D01*
X115369283Y-91656482D01*
X115362179Y-91662645D01*
X115359783Y-91667436D01*
X115356272Y-91671485D01*
X115350278Y-91684911D01*
X114850278Y-93184911D01*
X114847018Y-93199248D01*
X113177762Y-93199248D01*
X113179438Y-93197871D01*
X113181698Y-93196450D01*
X113182997Y-93194951D01*
X113188747Y-93190233D01*
X113331604Y-93047375D01*
X113340932Y-93036009D01*
X113343065Y-93030858D01*
X113346385Y-93026378D01*
X113351332Y-93012532D01*
X113422761Y-92726819D01*
X113423136Y-92724280D01*
X113423559Y-92723260D01*
X113424101Y-92717748D01*
X113424911Y-92712274D01*
X113424748Y-92711181D01*
X113425000Y-92708628D01*
X113425000Y-92208628D01*
X113424748Y-92206074D01*
X113424911Y-92204982D01*
X113424101Y-92199507D01*
X113423559Y-92193996D01*
X113423136Y-92192975D01*
X113422761Y-92190437D01*
X113351332Y-91904724D01*
X113346385Y-91890878D01*
X113343064Y-91886396D01*
X113340931Y-91881246D01*
X113331604Y-91869881D01*
X113188747Y-91727024D01*
X113182997Y-91722305D01*
X113181698Y-91720807D01*
X113179438Y-91719385D01*
X113177382Y-91717697D01*
X113175554Y-91716939D01*
X113169255Y-91712975D01*
X113026398Y-91641546D01*
X113012667Y-91636291D01*
X113009977Y-91636099D01*
X113007489Y-91635069D01*
X112992857Y-91633628D01*
X112707143Y-91633628D01*
X112692511Y-91635069D01*
X112690022Y-91636099D01*
X112687333Y-91636291D01*
X112673602Y-91641546D01*
X112530745Y-91712975D01*
X112524450Y-91716937D01*
X112522619Y-91717696D01*
X112520556Y-91719389D01*
X112518302Y-91720808D01*
X112517005Y-91722303D01*
X112511253Y-91727024D01*
X112368395Y-91869881D01*
X112359068Y-91881246D01*
X112356934Y-91886397D01*
X112353614Y-91890878D01*
X112348667Y-91904724D01*
X112277239Y-92190438D01*
X112276864Y-92192974D01*
X112276441Y-92193996D01*
X112275897Y-92199510D01*
X112275089Y-92204983D01*
X112275251Y-92206074D01*
X112275000Y-92208628D01*
X111567857Y-92208628D01*
X111567857Y-91783628D01*
X111921429Y-91783628D01*
X111936061Y-91782187D01*
X111963097Y-91770988D01*
X111983789Y-91750296D01*
X111994988Y-91723260D01*
X111994988Y-91693996D01*
X111983789Y-91666960D01*
X111963097Y-91646268D01*
X111936061Y-91635069D01*
X111921429Y-91633628D01*
X111064286Y-91633628D01*
X111049654Y-91635069D01*
X111022618Y-91646268D01*
X111001926Y-91666960D01*
X110990727Y-91693996D01*
X110824060Y-91693996D01*
X110824060Y-91466961D01*
X128161654Y-91466961D01*
X128161654Y-93450295D01*
G37*
D11*
G36*
X116425908Y-69380372D02*
G01*
X116454822Y-69409287D01*
X116485792Y-69471226D01*
X116485792Y-69726545D01*
X116146745Y-69726545D01*
X116146745Y-69471226D01*
X116177714Y-69409286D01*
X116206629Y-69380371D01*
X116268568Y-69349402D01*
X116363968Y-69349402D01*
X116425908Y-69380372D01*
G37*
G36*
X117035634Y-69895434D02*
G01*
X115977856Y-69895434D01*
X115977856Y-69461783D01*
X116066745Y-69461783D01*
X116066745Y-69766545D01*
X116069790Y-69781852D01*
X116091438Y-69803500D01*
X116106745Y-69806545D01*
X116906745Y-69806545D01*
X116922052Y-69803500D01*
X116943700Y-69781852D01*
X116943700Y-69751238D01*
X116922052Y-69729590D01*
X116906745Y-69726545D01*
X116565792Y-69726545D01*
X116565792Y-69596894D01*
X116929683Y-69342171D01*
X116940477Y-69330899D01*
X116945797Y-69300750D01*
X116928241Y-69275670D01*
X116898092Y-69270349D01*
X116883806Y-69276633D01*
X116565792Y-69499243D01*
X116565792Y-69461783D01*
X116565400Y-69459817D01*
X116565691Y-69458947D01*
X116563997Y-69452763D01*
X116562747Y-69446476D01*
X116562098Y-69445827D01*
X116561569Y-69443894D01*
X116523474Y-69367704D01*
X116519541Y-69362637D01*
X116515981Y-69357308D01*
X116477886Y-69319214D01*
X116472555Y-69315652D01*
X116467490Y-69311721D01*
X116391300Y-69273625D01*
X116389366Y-69273095D01*
X116388718Y-69272447D01*
X116382430Y-69271196D01*
X116376247Y-69269503D01*
X116375376Y-69269793D01*
X116373411Y-69269402D01*
X116259126Y-69269402D01*
X116257160Y-69269793D01*
X116256290Y-69269503D01*
X116250106Y-69271196D01*
X116243819Y-69272447D01*
X116243170Y-69273095D01*
X116241237Y-69273625D01*
X116165046Y-69311721D01*
X116159979Y-69315653D01*
X116154650Y-69319214D01*
X116116556Y-69357309D01*
X116112997Y-69362634D01*
X116109063Y-69367704D01*
X116070968Y-69443894D01*
X116070438Y-69445827D01*
X116069790Y-69446476D01*
X116068539Y-69452763D01*
X116066846Y-69458947D01*
X116067136Y-69459817D01*
X116066745Y-69461783D01*
X115977856Y-69461783D01*
X115977856Y-68661783D01*
X116066745Y-68661783D01*
X116066745Y-68852260D01*
X116067136Y-68854225D01*
X116066846Y-68855096D01*
X116068539Y-68861279D01*
X116069790Y-68867567D01*
X116070438Y-68868215D01*
X116070968Y-68870149D01*
X116109063Y-68946339D01*
X116112997Y-68951408D01*
X116116556Y-68956734D01*
X116154650Y-68994829D01*
X116159979Y-68998389D01*
X116165046Y-69002322D01*
X116241237Y-69040418D01*
X116243170Y-69040947D01*
X116243819Y-69041596D01*
X116250106Y-69042846D01*
X116256290Y-69044540D01*
X116257160Y-69044249D01*
X116259126Y-69044641D01*
X116335316Y-69044641D01*
X116337281Y-69044249D01*
X116338152Y-69044540D01*
X116344335Y-69042846D01*
X116350623Y-69041596D01*
X116351271Y-69040947D01*
X116353205Y-69040418D01*
X116429395Y-69002322D01*
X116434460Y-68998390D01*
X116439791Y-68994829D01*
X116477886Y-68956735D01*
X116481446Y-68951405D01*
X116485379Y-68946339D01*
X116523474Y-68870149D01*
X116524631Y-68865922D01*
X116526503Y-68861961D01*
X116563532Y-68713840D01*
X116596762Y-68647381D01*
X116625677Y-68618467D01*
X116687616Y-68587498D01*
X116744921Y-68587498D01*
X116806859Y-68618467D01*
X116835777Y-68647384D01*
X116866745Y-68709320D01*
X116866745Y-68883865D01*
X116830703Y-68991992D01*
X116828751Y-69007476D01*
X116842442Y-69034859D01*
X116871485Y-69044540D01*
X116898868Y-69030849D01*
X116906597Y-69017290D01*
X116944692Y-68903004D01*
X116945493Y-68896646D01*
X116946745Y-68890355D01*
X116946745Y-68699879D01*
X116946354Y-68697913D01*
X116946644Y-68697044D01*
X116944951Y-68690863D01*
X116943700Y-68684572D01*
X116943051Y-68683923D01*
X116942522Y-68681991D01*
X116904427Y-68605800D01*
X116900497Y-68600736D01*
X116896934Y-68595403D01*
X116858838Y-68557308D01*
X116853506Y-68553746D01*
X116848443Y-68549816D01*
X116772253Y-68511721D01*
X116770319Y-68511191D01*
X116769671Y-68510543D01*
X116763383Y-68509292D01*
X116757200Y-68507599D01*
X116756329Y-68507889D01*
X116754364Y-68507498D01*
X116678173Y-68507498D01*
X116676207Y-68507889D01*
X116675337Y-68507599D01*
X116669153Y-68509292D01*
X116662866Y-68510543D01*
X116662217Y-68511191D01*
X116660284Y-68511721D01*
X116584094Y-68549816D01*
X116579027Y-68553748D01*
X116573698Y-68557309D01*
X116535604Y-68595404D01*
X116532042Y-68600734D01*
X116528111Y-68605800D01*
X116490015Y-68681990D01*
X116488858Y-68686214D01*
X116486986Y-68690177D01*
X116449955Y-68838299D01*
X116416727Y-68904755D01*
X116387813Y-68933670D01*
X116325873Y-68964641D01*
X116268568Y-68964641D01*
X116206629Y-68933671D01*
X116177714Y-68904756D01*
X116146745Y-68842817D01*
X116146745Y-68668273D01*
X116182787Y-68560147D01*
X116184739Y-68544663D01*
X116171048Y-68517280D01*
X116142005Y-68507599D01*
X116114622Y-68521290D01*
X116106893Y-68534849D01*
X116068798Y-68649134D01*
X116067996Y-68655491D01*
X116066745Y-68661783D01*
X115977856Y-68661783D01*
X115977856Y-67861783D01*
X116066745Y-67861783D01*
X116066745Y-68318926D01*
X116069790Y-68334233D01*
X116091438Y-68355881D01*
X116122052Y-68355881D01*
X116143700Y-68334233D01*
X116146745Y-68318926D01*
X116146745Y-68130355D01*
X116906745Y-68130355D01*
X116922052Y-68127310D01*
X116943700Y-68105662D01*
X116943700Y-68075048D01*
X116922052Y-68053400D01*
X116906745Y-68050355D01*
X116146745Y-68050355D01*
X116146745Y-67861783D01*
X116143700Y-67846476D01*
X116122052Y-67824828D01*
X116091438Y-67824828D01*
X116069790Y-67846476D01*
X116066745Y-67861783D01*
X115977856Y-67861783D01*
X115977856Y-67735939D01*
X117035634Y-67735939D01*
X117035634Y-69895434D01*
G37*
X149137382Y-87664762D02*
X149518335Y-87664762D01*
X149061192Y-87893334D02*
X149327859Y-87093334D01*
X149327859Y-87093334D02*
X149594525Y-87893334D01*
X149861192Y-87474286D02*
X150127858Y-87474286D01*
X150242144Y-87893334D02*
X149861192Y-87893334D01*
X149861192Y-87893334D02*
X149861192Y-87093334D01*
X149861192Y-87093334D02*
X150242144Y-87093334D01*
X150585002Y-87588572D02*
X151194526Y-87588572D01*
X151537382Y-87855239D02*
X151651668Y-87893334D01*
X151651668Y-87893334D02*
X151842144Y-87893334D01*
X151842144Y-87893334D02*
X151918335Y-87855239D01*
X151918335Y-87855239D02*
X151956430Y-87817143D01*
X151956430Y-87817143D02*
X151994525Y-87740953D01*
X151994525Y-87740953D02*
X151994525Y-87664762D01*
X151994525Y-87664762D02*
X151956430Y-87588572D01*
X151956430Y-87588572D02*
X151918335Y-87550477D01*
X151918335Y-87550477D02*
X151842144Y-87512381D01*
X151842144Y-87512381D02*
X151689763Y-87474286D01*
X151689763Y-87474286D02*
X151613573Y-87436191D01*
X151613573Y-87436191D02*
X151575478Y-87398096D01*
X151575478Y-87398096D02*
X151537382Y-87321905D01*
X151537382Y-87321905D02*
X151537382Y-87245715D01*
X151537382Y-87245715D02*
X151575478Y-87169524D01*
X151575478Y-87169524D02*
X151613573Y-87131429D01*
X151613573Y-87131429D02*
X151689763Y-87093334D01*
X151689763Y-87093334D02*
X151880240Y-87093334D01*
X151880240Y-87093334D02*
X151994525Y-87131429D01*
X152337383Y-87893334D02*
X152337383Y-87093334D01*
X152337383Y-87093334D02*
X152604049Y-87664762D01*
X152604049Y-87664762D02*
X152870716Y-87093334D01*
X152870716Y-87093334D02*
X152870716Y-87893334D01*
X153213573Y-87664762D02*
X153594526Y-87664762D01*
X153137383Y-87893334D02*
X153404050Y-87093334D01*
X153404050Y-87093334D02*
X153670716Y-87893334D01*
X154394526Y-87893334D02*
X154127859Y-87512381D01*
X153937383Y-87893334D02*
X153937383Y-87093334D01*
X153937383Y-87093334D02*
X154242145Y-87093334D01*
X154242145Y-87093334D02*
X154318335Y-87131429D01*
X154318335Y-87131429D02*
X154356430Y-87169524D01*
X154356430Y-87169524D02*
X154394526Y-87245715D01*
X154394526Y-87245715D02*
X154394526Y-87360000D01*
X154394526Y-87360000D02*
X154356430Y-87436191D01*
X154356430Y-87436191D02*
X154318335Y-87474286D01*
X154318335Y-87474286D02*
X154242145Y-87512381D01*
X154242145Y-87512381D02*
X153937383Y-87512381D01*
X154623097Y-87093334D02*
X155080240Y-87093334D01*
X154851668Y-87893334D02*
X154851668Y-87093334D01*
X155346907Y-87588572D02*
X155956431Y-87588572D01*
X156299287Y-87855239D02*
X156413573Y-87893334D01*
X156413573Y-87893334D02*
X156604049Y-87893334D01*
X156604049Y-87893334D02*
X156680240Y-87855239D01*
X156680240Y-87855239D02*
X156718335Y-87817143D01*
X156718335Y-87817143D02*
X156756430Y-87740953D01*
X156756430Y-87740953D02*
X156756430Y-87664762D01*
X156756430Y-87664762D02*
X156718335Y-87588572D01*
X156718335Y-87588572D02*
X156680240Y-87550477D01*
X156680240Y-87550477D02*
X156604049Y-87512381D01*
X156604049Y-87512381D02*
X156451668Y-87474286D01*
X156451668Y-87474286D02*
X156375478Y-87436191D01*
X156375478Y-87436191D02*
X156337383Y-87398096D01*
X156337383Y-87398096D02*
X156299287Y-87321905D01*
X156299287Y-87321905D02*
X156299287Y-87245715D01*
X156299287Y-87245715D02*
X156337383Y-87169524D01*
X156337383Y-87169524D02*
X156375478Y-87131429D01*
X156375478Y-87131429D02*
X156451668Y-87093334D01*
X156451668Y-87093334D02*
X156642145Y-87093334D01*
X156642145Y-87093334D02*
X156756430Y-87131429D01*
X157099288Y-87893334D02*
X157099288Y-87093334D01*
X157099288Y-87474286D02*
X157556431Y-87474286D01*
X157556431Y-87893334D02*
X157556431Y-87093334D01*
X157937383Y-87093334D02*
X157937383Y-87740953D01*
X157937383Y-87740953D02*
X157975478Y-87817143D01*
X157975478Y-87817143D02*
X158013573Y-87855239D01*
X158013573Y-87855239D02*
X158089764Y-87893334D01*
X158089764Y-87893334D02*
X158242145Y-87893334D01*
X158242145Y-87893334D02*
X158318335Y-87855239D01*
X158318335Y-87855239D02*
X158356430Y-87817143D01*
X158356430Y-87817143D02*
X158394526Y-87740953D01*
X158394526Y-87740953D02*
X158394526Y-87093334D01*
X158775478Y-87893334D02*
X158775478Y-87093334D01*
X158775478Y-87093334D02*
X159232621Y-87893334D01*
X159232621Y-87893334D02*
X159232621Y-87093334D01*
X159499287Y-87093334D02*
X159956430Y-87093334D01*
X159727858Y-87893334D02*
X159727858Y-87093334D01*
X150375477Y-89181289D02*
X150375477Y-88381289D01*
X150375477Y-88762241D02*
X150832620Y-88762241D01*
X150832620Y-89181289D02*
X150832620Y-88381289D01*
X151213572Y-89181289D02*
X151213572Y-88647955D01*
X151213572Y-88381289D02*
X151175476Y-88419384D01*
X151175476Y-88419384D02*
X151213572Y-88457479D01*
X151213572Y-88457479D02*
X151251667Y-88419384D01*
X151251667Y-88419384D02*
X151213572Y-88381289D01*
X151213572Y-88381289D02*
X151213572Y-88457479D01*
X151594524Y-88876527D02*
X152204048Y-88876527D01*
X152546904Y-89143194D02*
X152623095Y-89181289D01*
X152623095Y-89181289D02*
X152775476Y-89181289D01*
X152775476Y-89181289D02*
X152851666Y-89143194D01*
X152851666Y-89143194D02*
X152889762Y-89067003D01*
X152889762Y-89067003D02*
X152889762Y-89028908D01*
X152889762Y-89028908D02*
X152851666Y-88952717D01*
X152851666Y-88952717D02*
X152775476Y-88914622D01*
X152775476Y-88914622D02*
X152661190Y-88914622D01*
X152661190Y-88914622D02*
X152585000Y-88876527D01*
X152585000Y-88876527D02*
X152546904Y-88800336D01*
X152546904Y-88800336D02*
X152546904Y-88762241D01*
X152546904Y-88762241D02*
X152585000Y-88686051D01*
X152585000Y-88686051D02*
X152661190Y-88647955D01*
X152661190Y-88647955D02*
X152775476Y-88647955D01*
X152775476Y-88647955D02*
X152851666Y-88686051D01*
X153232619Y-89181289D02*
X153232619Y-88647955D01*
X153232619Y-88381289D02*
X153194523Y-88419384D01*
X153194523Y-88419384D02*
X153232619Y-88457479D01*
X153232619Y-88457479D02*
X153270714Y-88419384D01*
X153270714Y-88419384D02*
X153232619Y-88381289D01*
X153232619Y-88381289D02*
X153232619Y-88457479D01*
X153956428Y-89181289D02*
X153956428Y-88381289D01*
X153956428Y-89143194D02*
X153880237Y-89181289D01*
X153880237Y-89181289D02*
X153727856Y-89181289D01*
X153727856Y-89181289D02*
X153651666Y-89143194D01*
X153651666Y-89143194D02*
X153613571Y-89105098D01*
X153613571Y-89105098D02*
X153575475Y-89028908D01*
X153575475Y-89028908D02*
X153575475Y-88800336D01*
X153575475Y-88800336D02*
X153613571Y-88724146D01*
X153613571Y-88724146D02*
X153651666Y-88686051D01*
X153651666Y-88686051D02*
X153727856Y-88647955D01*
X153727856Y-88647955D02*
X153880237Y-88647955D01*
X153880237Y-88647955D02*
X153956428Y-88686051D01*
X154642143Y-89143194D02*
X154565952Y-89181289D01*
X154565952Y-89181289D02*
X154413571Y-89181289D01*
X154413571Y-89181289D02*
X154337381Y-89143194D01*
X154337381Y-89143194D02*
X154299285Y-89067003D01*
X154299285Y-89067003D02*
X154299285Y-88762241D01*
X154299285Y-88762241D02*
X154337381Y-88686051D01*
X154337381Y-88686051D02*
X154413571Y-88647955D01*
X154413571Y-88647955D02*
X154565952Y-88647955D01*
X154565952Y-88647955D02*
X154642143Y-88686051D01*
X154642143Y-88686051D02*
X154680238Y-88762241D01*
X154680238Y-88762241D02*
X154680238Y-88838432D01*
X154680238Y-88838432D02*
X154299285Y-88914622D01*
X155594523Y-89143194D02*
X155708809Y-89181289D01*
X155708809Y-89181289D02*
X155899285Y-89181289D01*
X155899285Y-89181289D02*
X155975476Y-89143194D01*
X155975476Y-89143194D02*
X156013571Y-89105098D01*
X156013571Y-89105098D02*
X156051666Y-89028908D01*
X156051666Y-89028908D02*
X156051666Y-88952717D01*
X156051666Y-88952717D02*
X156013571Y-88876527D01*
X156013571Y-88876527D02*
X155975476Y-88838432D01*
X155975476Y-88838432D02*
X155899285Y-88800336D01*
X155899285Y-88800336D02*
X155746904Y-88762241D01*
X155746904Y-88762241D02*
X155670714Y-88724146D01*
X155670714Y-88724146D02*
X155632619Y-88686051D01*
X155632619Y-88686051D02*
X155594523Y-88609860D01*
X155594523Y-88609860D02*
X155594523Y-88533670D01*
X155594523Y-88533670D02*
X155632619Y-88457479D01*
X155632619Y-88457479D02*
X155670714Y-88419384D01*
X155670714Y-88419384D02*
X155746904Y-88381289D01*
X155746904Y-88381289D02*
X155937381Y-88381289D01*
X155937381Y-88381289D02*
X156051666Y-88419384D01*
X156394524Y-89181289D02*
X156394524Y-88381289D01*
X156737381Y-89181289D02*
X156737381Y-88762241D01*
X156737381Y-88762241D02*
X156699286Y-88686051D01*
X156699286Y-88686051D02*
X156623095Y-88647955D01*
X156623095Y-88647955D02*
X156508809Y-88647955D01*
X156508809Y-88647955D02*
X156432619Y-88686051D01*
X156432619Y-88686051D02*
X156394524Y-88724146D01*
X157461191Y-88647955D02*
X157461191Y-89181289D01*
X157118334Y-88647955D02*
X157118334Y-89067003D01*
X157118334Y-89067003D02*
X157156429Y-89143194D01*
X157156429Y-89143194D02*
X157232619Y-89181289D01*
X157232619Y-89181289D02*
X157346905Y-89181289D01*
X157346905Y-89181289D02*
X157423096Y-89143194D01*
X157423096Y-89143194D02*
X157461191Y-89105098D01*
X157842144Y-88647955D02*
X157842144Y-89181289D01*
X157842144Y-88724146D02*
X157880239Y-88686051D01*
X157880239Y-88686051D02*
X157956429Y-88647955D01*
X157956429Y-88647955D02*
X158070715Y-88647955D01*
X158070715Y-88647955D02*
X158146906Y-88686051D01*
X158146906Y-88686051D02*
X158185001Y-88762241D01*
X158185001Y-88762241D02*
X158185001Y-89181289D01*
X158451668Y-88647955D02*
X158756430Y-88647955D01*
X158565954Y-88381289D02*
X158565954Y-89067003D01*
X158565954Y-89067003D02*
X158604049Y-89143194D01*
X158604049Y-89143194D02*
X158680239Y-89181289D01*
X158680239Y-89181289D02*
X158756430Y-89181289D01*
X152794525Y-89935910D02*
X152985001Y-90469244D01*
X152985001Y-90469244D02*
X153175478Y-89935910D01*
X153632621Y-89669244D02*
X153708811Y-89669244D01*
X153708811Y-89669244D02*
X153785002Y-89707339D01*
X153785002Y-89707339D02*
X153823097Y-89745434D01*
X153823097Y-89745434D02*
X153861192Y-89821625D01*
X153861192Y-89821625D02*
X153899287Y-89974006D01*
X153899287Y-89974006D02*
X153899287Y-90164482D01*
X153899287Y-90164482D02*
X153861192Y-90316863D01*
X153861192Y-90316863D02*
X153823097Y-90393053D01*
X153823097Y-90393053D02*
X153785002Y-90431149D01*
X153785002Y-90431149D02*
X153708811Y-90469244D01*
X153708811Y-90469244D02*
X153632621Y-90469244D01*
X153632621Y-90469244D02*
X153556430Y-90431149D01*
X153556430Y-90431149D02*
X153518335Y-90393053D01*
X153518335Y-90393053D02*
X153480240Y-90316863D01*
X153480240Y-90316863D02*
X153442144Y-90164482D01*
X153442144Y-90164482D02*
X153442144Y-89974006D01*
X153442144Y-89974006D02*
X153480240Y-89821625D01*
X153480240Y-89821625D02*
X153518335Y-89745434D01*
X153518335Y-89745434D02*
X153556430Y-89707339D01*
X153556430Y-89707339D02*
X153632621Y-89669244D01*
X154242145Y-90393053D02*
X154280240Y-90431149D01*
X154280240Y-90431149D02*
X154242145Y-90469244D01*
X154242145Y-90469244D02*
X154204049Y-90431149D01*
X154204049Y-90431149D02*
X154242145Y-90393053D01*
X154242145Y-90393053D02*
X154242145Y-90469244D01*
X154775478Y-89669244D02*
X154851668Y-89669244D01*
X154851668Y-89669244D02*
X154927859Y-89707339D01*
X154927859Y-89707339D02*
X154965954Y-89745434D01*
X154965954Y-89745434D02*
X155004049Y-89821625D01*
X155004049Y-89821625D02*
X155042144Y-89974006D01*
X155042144Y-89974006D02*
X155042144Y-90164482D01*
X155042144Y-90164482D02*
X155004049Y-90316863D01*
X155004049Y-90316863D02*
X154965954Y-90393053D01*
X154965954Y-90393053D02*
X154927859Y-90431149D01*
X154927859Y-90431149D02*
X154851668Y-90469244D01*
X154851668Y-90469244D02*
X154775478Y-90469244D01*
X154775478Y-90469244D02*
X154699287Y-90431149D01*
X154699287Y-90431149D02*
X154661192Y-90393053D01*
X154661192Y-90393053D02*
X154623097Y-90316863D01*
X154623097Y-90316863D02*
X154585001Y-90164482D01*
X154585001Y-90164482D02*
X154585001Y-89974006D01*
X154585001Y-89974006D02*
X154623097Y-89821625D01*
X154623097Y-89821625D02*
X154661192Y-89745434D01*
X154661192Y-89745434D02*
X154699287Y-89707339D01*
X154699287Y-89707339D02*
X154775478Y-89669244D01*
X155385002Y-90393053D02*
X155423097Y-90431149D01*
X155423097Y-90431149D02*
X155385002Y-90469244D01*
X155385002Y-90469244D02*
X155346906Y-90431149D01*
X155346906Y-90431149D02*
X155385002Y-90393053D01*
X155385002Y-90393053D02*
X155385002Y-90469244D01*
X156108811Y-89935910D02*
X156108811Y-90469244D01*
X155918335Y-89631149D02*
X155727858Y-90202577D01*
X155727858Y-90202577D02*
X156223097Y-90202577D01*
G36*
X170687813Y-70075610D02*
G01*
X170716729Y-70104527D01*
X170747698Y-70166464D01*
X170747698Y-70383689D01*
X170446746Y-70383689D01*
X170446746Y-70166464D01*
X170477714Y-70104526D01*
X170506631Y-70075610D01*
X170568569Y-70044642D01*
X170625875Y-70044642D01*
X170687813Y-70075610D01*
G37*
G36*
X171106860Y-70037515D02*
G01*
X171135777Y-70066432D01*
X171166746Y-70128370D01*
X171166746Y-70383689D01*
X170827698Y-70383689D01*
X170827698Y-70163512D01*
X170860753Y-70064345D01*
X170887583Y-70037515D01*
X170949522Y-70006546D01*
X171044922Y-70006546D01*
X171106860Y-70037515D01*
G37*
G36*
X171072010Y-69202664D02*
G01*
X171135776Y-69266431D01*
X171166746Y-69328370D01*
X171166746Y-69461866D01*
X171135777Y-69523803D01*
X171072011Y-69587569D01*
X170935153Y-69621785D01*
X170678338Y-69621785D01*
X170541479Y-69587569D01*
X170477715Y-69523805D01*
X170446746Y-69461866D01*
X170446746Y-69328370D01*
X170477716Y-69266430D01*
X170541481Y-69202664D01*
X170678338Y-69168451D01*
X170935154Y-69168451D01*
X171072010Y-69202664D01*
G37*
G36*
X171072010Y-68364569D02*
G01*
X171135776Y-68428336D01*
X171166746Y-68490275D01*
X171166746Y-68623771D01*
X171135777Y-68685708D01*
X171072011Y-68749474D01*
X170935153Y-68783690D01*
X170678338Y-68783690D01*
X170541479Y-68749474D01*
X170477715Y-68685710D01*
X170446746Y-68623771D01*
X170446746Y-68490275D01*
X170477716Y-68428335D01*
X170541481Y-68364569D01*
X170678338Y-68330356D01*
X170935154Y-68330356D01*
X171072010Y-68364569D01*
G37*
G36*
X171335635Y-70552578D02*
G01*
X170277857Y-70552578D01*
X170277857Y-70157023D01*
X170366746Y-70157023D01*
X170366746Y-70423689D01*
X170369791Y-70438996D01*
X170391439Y-70460644D01*
X170406746Y-70463689D01*
X171206746Y-70463689D01*
X171222053Y-70460644D01*
X171243701Y-70438996D01*
X171246746Y-70423689D01*
X171246746Y-70118927D01*
X171246354Y-70116961D01*
X171246645Y-70116091D01*
X171244951Y-70109907D01*
X171243701Y-70103620D01*
X171243052Y-70102971D01*
X171242523Y-70101038D01*
X171204428Y-70024848D01*
X171200495Y-70019781D01*
X171196935Y-70014452D01*
X171158839Y-69976357D01*
X171153507Y-69972795D01*
X171148444Y-69968865D01*
X171072254Y-69930769D01*
X171070320Y-69930239D01*
X171069672Y-69929591D01*
X171063384Y-69928340D01*
X171057201Y-69926647D01*
X171056330Y-69926937D01*
X171054365Y-69926546D01*
X170940079Y-69926546D01*
X170938112Y-69926937D01*
X170937242Y-69926647D01*
X170931057Y-69928340D01*
X170924772Y-69929591D01*
X170924123Y-69930239D01*
X170922190Y-69930769D01*
X170846000Y-69968865D01*
X170840936Y-69972795D01*
X170835605Y-69976357D01*
X170797509Y-70014452D01*
X170796395Y-70016118D01*
X170795575Y-70016529D01*
X170792403Y-70022093D01*
X170788838Y-70027429D01*
X170788838Y-70028347D01*
X170787846Y-70030088D01*
X170779536Y-70055016D01*
X170777887Y-70052547D01*
X170739792Y-70014453D01*
X170734461Y-70010891D01*
X170729396Y-70006960D01*
X170653205Y-69968865D01*
X170651272Y-69968335D01*
X170650624Y-69967687D01*
X170644334Y-69966435D01*
X170638153Y-69964743D01*
X170637282Y-69965033D01*
X170635317Y-69964642D01*
X170559127Y-69964642D01*
X170557161Y-69965032D01*
X170556292Y-69964743D01*
X170550111Y-69966435D01*
X170543820Y-69967687D01*
X170543171Y-69968335D01*
X170541239Y-69968865D01*
X170465048Y-70006960D01*
X170459984Y-70010889D01*
X170454651Y-70014453D01*
X170416557Y-70052548D01*
X170412995Y-70057878D01*
X170409064Y-70062944D01*
X170370969Y-70139135D01*
X170370439Y-70141067D01*
X170369791Y-70141716D01*
X170368539Y-70148005D01*
X170366847Y-70154187D01*
X170367137Y-70155057D01*
X170366746Y-70157023D01*
X170277857Y-70157023D01*
X170277857Y-69318927D01*
X170366746Y-69318927D01*
X170366746Y-69471308D01*
X170367137Y-69473273D01*
X170366847Y-69474144D01*
X170368539Y-69480325D01*
X170369791Y-69486615D01*
X170370439Y-69487263D01*
X170370969Y-69489196D01*
X170409064Y-69565387D01*
X170412995Y-69570452D01*
X170416557Y-69575783D01*
X170492747Y-69651973D01*
X170496349Y-69654379D01*
X170497218Y-69655828D01*
X170501650Y-69657922D01*
X170505724Y-69660644D01*
X170507411Y-69660644D01*
X170511329Y-69662495D01*
X170663710Y-69700591D01*
X170668606Y-69700829D01*
X170673412Y-69701785D01*
X170940079Y-69701785D01*
X170944884Y-69700829D01*
X170949781Y-69700591D01*
X171102162Y-69662495D01*
X171106080Y-69660644D01*
X171107767Y-69660644D01*
X171111840Y-69657922D01*
X171116273Y-69655828D01*
X171117141Y-69654379D01*
X171120744Y-69651973D01*
X171196935Y-69575783D01*
X171200496Y-69570452D01*
X171204428Y-69565387D01*
X171242523Y-69489196D01*
X171243052Y-69487263D01*
X171243701Y-69486615D01*
X171244952Y-69480323D01*
X171246645Y-69474143D01*
X171246355Y-69473273D01*
X171246746Y-69471308D01*
X171246746Y-69318927D01*
X171246354Y-69316961D01*
X171246645Y-69316091D01*
X171244951Y-69309907D01*
X171243701Y-69303620D01*
X171243052Y-69302971D01*
X171242523Y-69301038D01*
X171204428Y-69224848D01*
X171200498Y-69219784D01*
X171196935Y-69214452D01*
X171120744Y-69138262D01*
X171117141Y-69135855D01*
X171116273Y-69134407D01*
X171111840Y-69132312D01*
X171107767Y-69129591D01*
X171106080Y-69129591D01*
X171102162Y-69127740D01*
X170949780Y-69089645D01*
X170944884Y-69089406D01*
X170940079Y-69088451D01*
X170673412Y-69088451D01*
X170668606Y-69089406D01*
X170663711Y-69089645D01*
X170511330Y-69127740D01*
X170507412Y-69129591D01*
X170505724Y-69129591D01*
X170501650Y-69132313D01*
X170497218Y-69134407D01*
X170496349Y-69135855D01*
X170492747Y-69138262D01*
X170416557Y-69214453D01*
X170412998Y-69219778D01*
X170409064Y-69224848D01*
X170370969Y-69301038D01*
X170370439Y-69302971D01*
X170369791Y-69303620D01*
X170368540Y-69309907D01*
X170366847Y-69316091D01*
X170367137Y-69316961D01*
X170366746Y-69318927D01*
X170277857Y-69318927D01*
X170277857Y-68480832D01*
X170366746Y-68480832D01*
X170366746Y-68633213D01*
X170367137Y-68635178D01*
X170366847Y-68636049D01*
X170368539Y-68642230D01*
X170369791Y-68648520D01*
X170370439Y-68649168D01*
X170370969Y-68651101D01*
X170409064Y-68727292D01*
X170412995Y-68732357D01*
X170416557Y-68737688D01*
X170492747Y-68813878D01*
X170496349Y-68816284D01*
X170497218Y-68817733D01*
X170501650Y-68819827D01*
X170505724Y-68822549D01*
X170507411Y-68822549D01*
X170511329Y-68824400D01*
X170663710Y-68862496D01*
X170668606Y-68862734D01*
X170673412Y-68863690D01*
X170940079Y-68863690D01*
X170944884Y-68862734D01*
X170949781Y-68862496D01*
X171102162Y-68824400D01*
X171106080Y-68822549D01*
X171107767Y-68822549D01*
X171111840Y-68819827D01*
X171116273Y-68817733D01*
X171117141Y-68816284D01*
X171120744Y-68813878D01*
X171196935Y-68737688D01*
X171200496Y-68732357D01*
X171204428Y-68727292D01*
X171242523Y-68651101D01*
X171243052Y-68649168D01*
X171243701Y-68648520D01*
X171244952Y-68642228D01*
X171246645Y-68636048D01*
X171246355Y-68635178D01*
X171246746Y-68633213D01*
X171246746Y-68480832D01*
X171246354Y-68478866D01*
X171246645Y-68477996D01*
X171244951Y-68471812D01*
X171243701Y-68465525D01*
X171243052Y-68464876D01*
X171242523Y-68462943D01*
X171204428Y-68386753D01*
X171200498Y-68381689D01*
X171196935Y-68376357D01*
X171120744Y-68300167D01*
X171117141Y-68297760D01*
X171116273Y-68296312D01*
X171111840Y-68294217D01*
X171107767Y-68291496D01*
X171106080Y-68291496D01*
X171102162Y-68289645D01*
X170949780Y-68251550D01*
X170944884Y-68251311D01*
X170940079Y-68250356D01*
X170673412Y-68250356D01*
X170668606Y-68251311D01*
X170663711Y-68251550D01*
X170511330Y-68289645D01*
X170507412Y-68291496D01*
X170505724Y-68291496D01*
X170501650Y-68294218D01*
X170497218Y-68296312D01*
X170496349Y-68297760D01*
X170492747Y-68300167D01*
X170416557Y-68376358D01*
X170412998Y-68381683D01*
X170409064Y-68386753D01*
X170370969Y-68462943D01*
X170370439Y-68464876D01*
X170369791Y-68465525D01*
X170368540Y-68471812D01*
X170366847Y-68477996D01*
X170367137Y-68478866D01*
X170366746Y-68480832D01*
X170277857Y-68480832D01*
X170277857Y-67604642D01*
X170366746Y-67604642D01*
X170366746Y-68061785D01*
X170369791Y-68077092D01*
X170391439Y-68098740D01*
X170422053Y-68098740D01*
X170443701Y-68077092D01*
X170446746Y-68061785D01*
X170446746Y-67873214D01*
X171206746Y-67873214D01*
X171222053Y-67870169D01*
X171243701Y-67848521D01*
X171243701Y-67817907D01*
X171222053Y-67796259D01*
X171206746Y-67793214D01*
X170446746Y-67793214D01*
X170446746Y-67604642D01*
X170443701Y-67589335D01*
X170422053Y-67567687D01*
X170391439Y-67567687D01*
X170369791Y-67589335D01*
X170366746Y-67604642D01*
X170277857Y-67604642D01*
X170277857Y-67478798D01*
X171335635Y-67478798D01*
X171335635Y-70552578D01*
G37*
D10*
G36*
X196955571Y-68141695D02*
G01*
X197075133Y-68261257D01*
X197139285Y-68517862D01*
X197139285Y-68999393D01*
X197075133Y-69255998D01*
X196955571Y-69375560D01*
X196839437Y-69433628D01*
X196589133Y-69433628D01*
X196472997Y-69375560D01*
X196353435Y-69255998D01*
X196289285Y-68999394D01*
X196289285Y-68517861D01*
X196353435Y-68261257D01*
X196472997Y-68141695D01*
X196589133Y-68083628D01*
X196839437Y-68083628D01*
X196955571Y-68141695D01*
G37*
G36*
X200884143Y-68141695D02*
G01*
X201003705Y-68261257D01*
X201067857Y-68517862D01*
X201067857Y-68999393D01*
X201003705Y-69255998D01*
X200884143Y-69375560D01*
X200768009Y-69433628D01*
X200517705Y-69433628D01*
X200401569Y-69375560D01*
X200282007Y-69255998D01*
X200217857Y-68999394D01*
X200217857Y-68517861D01*
X200282007Y-68261257D01*
X200401569Y-68141695D01*
X200517705Y-68083628D01*
X200768009Y-68083628D01*
X200884143Y-68141695D01*
G37*
G36*
X203602343Y-68145609D02*
G01*
X203724075Y-68267341D01*
X203786378Y-68391947D01*
X203853571Y-68660718D01*
X203853571Y-68856537D01*
X203786378Y-69125308D01*
X203724075Y-69249915D01*
X203602342Y-69371647D01*
X203416401Y-69433628D01*
X203146428Y-69433628D01*
X203146428Y-68083628D01*
X203416401Y-68083628D01*
X203602343Y-68145609D01*
G37*
G36*
X202324515Y-69005057D02*
G01*
X201818343Y-69005057D01*
X202071429Y-68245798D01*
X202324515Y-69005057D01*
G37*
G36*
X207097369Y-69750295D02*
G01*
X194688345Y-69750295D01*
X194688345Y-67993996D01*
X194855012Y-67993996D01*
X194855012Y-68023260D01*
X194866211Y-68050296D01*
X194886903Y-68070988D01*
X194913939Y-68082187D01*
X194928571Y-68083628D01*
X195282142Y-68083628D01*
X195282142Y-69508628D01*
X195283583Y-69523260D01*
X195294782Y-69550296D01*
X195315474Y-69570988D01*
X195342510Y-69582187D01*
X195371774Y-69582187D01*
X195398810Y-69570988D01*
X195419502Y-69550296D01*
X195430701Y-69523260D01*
X195432142Y-69508628D01*
X195432142Y-68508628D01*
X196139285Y-68508628D01*
X196139285Y-69008628D01*
X196139536Y-69011181D01*
X196139374Y-69012273D01*
X196140182Y-69017745D01*
X196140726Y-69023260D01*
X196141149Y-69024281D01*
X196141524Y-69026818D01*
X196212952Y-69312532D01*
X196217899Y-69326378D01*
X196221219Y-69330859D01*
X196223353Y-69336010D01*
X196232680Y-69347375D01*
X196375538Y-69490233D01*
X196381287Y-69494951D01*
X196382587Y-69496450D01*
X196384845Y-69497871D01*
X196386904Y-69499561D01*
X196388733Y-69500318D01*
X196395030Y-69504282D01*
X196537887Y-69575710D01*
X196551619Y-69580965D01*
X196554306Y-69581155D01*
X196556796Y-69582187D01*
X196571428Y-69583628D01*
X196857142Y-69583628D01*
X196871774Y-69582187D01*
X196874263Y-69581155D01*
X196876951Y-69580965D01*
X196890683Y-69575710D01*
X197033540Y-69504282D01*
X197039839Y-69500317D01*
X197041667Y-69499560D01*
X197043723Y-69497871D01*
X197045983Y-69496450D01*
X197047282Y-69494951D01*
X197053032Y-69490233D01*
X197195889Y-69347375D01*
X197205217Y-69336009D01*
X197207350Y-69330858D01*
X197210670Y-69326378D01*
X197215617Y-69312532D01*
X197287046Y-69026819D01*
X197287421Y-69024280D01*
X197287844Y-69023260D01*
X197288386Y-69017748D01*
X197289196Y-69012274D01*
X197289033Y-69011181D01*
X197289285Y-69008628D01*
X197289285Y-68508628D01*
X197289033Y-68506074D01*
X197289196Y-68504982D01*
X197288386Y-68499507D01*
X197287844Y-68493996D01*
X197287421Y-68492975D01*
X197287046Y-68490437D01*
X197215617Y-68204724D01*
X197210670Y-68190878D01*
X197207349Y-68186396D01*
X197205216Y-68181246D01*
X197195889Y-68169881D01*
X197053032Y-68027024D01*
X197047282Y-68022305D01*
X197045983Y-68020807D01*
X197043723Y-68019385D01*
X197041667Y-68017697D01*
X197039839Y-68016939D01*
X197033540Y-68012975D01*
X197024846Y-68008628D01*
X198924999Y-68008628D01*
X198924999Y-69508628D01*
X198926440Y-69523260D01*
X198937639Y-69550296D01*
X198958331Y-69570988D01*
X198985367Y-69582187D01*
X198999999Y-69583628D01*
X199714285Y-69583628D01*
X199728917Y-69582187D01*
X199755953Y-69570988D01*
X199776645Y-69550296D01*
X199787844Y-69523260D01*
X199787844Y-69493996D01*
X199776645Y-69466960D01*
X199755953Y-69446268D01*
X199728917Y-69435069D01*
X199714285Y-69433628D01*
X199074999Y-69433628D01*
X199074999Y-68508628D01*
X200067857Y-68508628D01*
X200067857Y-69008628D01*
X200068108Y-69011181D01*
X200067946Y-69012273D01*
X200068754Y-69017745D01*
X200069298Y-69023260D01*
X200069721Y-69024281D01*
X200070096Y-69026818D01*
X200141524Y-69312532D01*
X200146471Y-69326378D01*
X200149791Y-69330859D01*
X200151925Y-69336010D01*
X200161252Y-69347375D01*
X200304110Y-69490233D01*
X200309859Y-69494951D01*
X200311159Y-69496450D01*
X200313417Y-69497871D01*
X200315476Y-69499561D01*
X200317305Y-69500318D01*
X200323602Y-69504282D01*
X200466459Y-69575710D01*
X200480191Y-69580965D01*
X200482878Y-69581155D01*
X200485368Y-69582187D01*
X200500000Y-69583628D01*
X200785714Y-69583628D01*
X200800346Y-69582187D01*
X200802835Y-69581155D01*
X200805523Y-69580965D01*
X200819255Y-69575710D01*
X200962112Y-69504282D01*
X200968411Y-69500317D01*
X200970239Y-69499560D01*
X200970619Y-69499248D01*
X201497018Y-69499248D01*
X201499093Y-69528438D01*
X201512179Y-69554611D01*
X201534286Y-69573785D01*
X201562049Y-69583039D01*
X201591239Y-69580964D01*
X201617412Y-69567878D01*
X201636586Y-69545771D01*
X201642580Y-69532345D01*
X201768343Y-69155057D01*
X202374515Y-69155057D01*
X202500278Y-69532345D01*
X202506272Y-69545771D01*
X202525446Y-69567878D01*
X202551619Y-69580965D01*
X202580809Y-69583039D01*
X202608572Y-69573785D01*
X202630679Y-69554611D01*
X202643766Y-69528438D01*
X202645840Y-69499248D01*
X202642580Y-69484911D01*
X202150486Y-68008628D01*
X202996428Y-68008628D01*
X202996428Y-69508628D01*
X202997869Y-69523260D01*
X203009068Y-69550296D01*
X203029760Y-69570988D01*
X203056796Y-69582187D01*
X203071428Y-69583628D01*
X203428571Y-69583628D01*
X203435976Y-69582898D01*
X203437951Y-69583039D01*
X203440548Y-69582448D01*
X203443203Y-69582187D01*
X203445034Y-69581428D01*
X203452288Y-69579779D01*
X203666574Y-69508351D01*
X203679999Y-69502357D01*
X203682034Y-69500591D01*
X203684525Y-69499560D01*
X203695890Y-69490233D01*
X203838747Y-69347375D01*
X203843467Y-69341622D01*
X203844963Y-69340326D01*
X203846381Y-69338071D01*
X203848075Y-69336009D01*
X203848833Y-69334177D01*
X203852796Y-69327883D01*
X203924225Y-69185026D01*
X203924634Y-69183956D01*
X203924957Y-69183521D01*
X203927149Y-69177384D01*
X203929480Y-69171295D01*
X203929518Y-69170754D01*
X203929904Y-69169675D01*
X203991680Y-68922568D01*
X205640726Y-68922568D01*
X205640726Y-68951832D01*
X205651925Y-68978868D01*
X205672617Y-68999560D01*
X205699653Y-69010759D01*
X205714285Y-69012200D01*
X206210714Y-69012200D01*
X206210714Y-69508628D01*
X206212155Y-69523260D01*
X206223354Y-69550296D01*
X206244046Y-69570988D01*
X206271082Y-69582187D01*
X206300346Y-69582187D01*
X206327382Y-69570988D01*
X206348074Y-69550296D01*
X206359273Y-69523260D01*
X206360714Y-69508628D01*
X206360714Y-69012200D01*
X206857143Y-69012200D01*
X206871775Y-69010759D01*
X206898811Y-68999560D01*
X206919503Y-68978868D01*
X206930702Y-68951832D01*
X206930702Y-68922568D01*
X206919503Y-68895532D01*
X206898811Y-68874840D01*
X206871775Y-68863641D01*
X206857143Y-68862200D01*
X206360714Y-68862200D01*
X206360714Y-68365771D01*
X206359273Y-68351139D01*
X206348074Y-68324103D01*
X206327382Y-68303411D01*
X206300346Y-68292212D01*
X206271082Y-68292212D01*
X206244046Y-68303411D01*
X206223354Y-68324103D01*
X206212155Y-68351139D01*
X206210714Y-68365771D01*
X206210714Y-68862200D01*
X205714285Y-68862200D01*
X205699653Y-68863641D01*
X205672617Y-68874840D01*
X205651925Y-68895532D01*
X205640726Y-68922568D01*
X203991680Y-68922568D01*
X204001332Y-68883961D01*
X204001707Y-68881424D01*
X204002130Y-68880403D01*
X204002672Y-68874890D01*
X204003482Y-68869417D01*
X204003319Y-68868324D01*
X204003571Y-68865771D01*
X204003571Y-68651485D01*
X204003319Y-68648931D01*
X204003482Y-68647839D01*
X204002672Y-68642365D01*
X204002130Y-68636853D01*
X204001707Y-68635831D01*
X204001332Y-68633295D01*
X203929904Y-68347581D01*
X203929518Y-68346501D01*
X203929480Y-68345961D01*
X203927149Y-68339871D01*
X203924957Y-68333735D01*
X203924634Y-68333299D01*
X203924225Y-68332230D01*
X203852796Y-68189373D01*
X203848832Y-68183076D01*
X203848074Y-68181246D01*
X203846382Y-68179184D01*
X203844963Y-68176930D01*
X203843467Y-68175633D01*
X203838747Y-68169881D01*
X203695890Y-68027024D01*
X203684525Y-68017697D01*
X203682034Y-68016665D01*
X203679999Y-68014900D01*
X203666574Y-68008906D01*
X203452288Y-67937477D01*
X203445034Y-67935827D01*
X203443203Y-67935069D01*
X203440548Y-67934807D01*
X203437951Y-67934217D01*
X203435976Y-67934357D01*
X203428571Y-67933628D01*
X203071428Y-67933628D01*
X203056796Y-67935069D01*
X203029760Y-67946268D01*
X203009068Y-67966960D01*
X202997869Y-67993996D01*
X202996428Y-68008628D01*
X202150486Y-68008628D01*
X202142580Y-67984911D01*
X202136586Y-67971485D01*
X202133075Y-67967437D01*
X202130679Y-67962645D01*
X202123574Y-67956482D01*
X202117412Y-67949378D01*
X202112620Y-67946982D01*
X202108572Y-67943471D01*
X202099648Y-67940496D01*
X202091239Y-67936292D01*
X202085894Y-67935912D01*
X202080809Y-67934217D01*
X202071426Y-67934883D01*
X202062049Y-67934217D01*
X202056966Y-67935911D01*
X202051619Y-67936291D01*
X202043205Y-67940497D01*
X202034286Y-67943471D01*
X202030238Y-67946981D01*
X202025446Y-67949378D01*
X202019283Y-67956482D01*
X202012179Y-67962645D01*
X202009783Y-67967436D01*
X202006272Y-67971485D01*
X202000278Y-67984911D01*
X201500278Y-69484911D01*
X201497018Y-69499248D01*
X200970619Y-69499248D01*
X200972295Y-69497871D01*
X200974555Y-69496450D01*
X200975854Y-69494951D01*
X200981604Y-69490233D01*
X201124461Y-69347375D01*
X201133789Y-69336009D01*
X201135922Y-69330858D01*
X201139242Y-69326378D01*
X201144189Y-69312532D01*
X201215618Y-69026819D01*
X201215993Y-69024280D01*
X201216416Y-69023260D01*
X201216958Y-69017748D01*
X201217768Y-69012274D01*
X201217605Y-69011181D01*
X201217857Y-69008628D01*
X201217857Y-68508628D01*
X201217605Y-68506074D01*
X201217768Y-68504982D01*
X201216958Y-68499507D01*
X201216416Y-68493996D01*
X201215993Y-68492975D01*
X201215618Y-68490437D01*
X201144189Y-68204724D01*
X201139242Y-68190878D01*
X201135921Y-68186396D01*
X201133788Y-68181246D01*
X201124461Y-68169881D01*
X200981604Y-68027024D01*
X200975854Y-68022305D01*
X200974555Y-68020807D01*
X200972295Y-68019385D01*
X200970239Y-68017697D01*
X200968411Y-68016939D01*
X200962112Y-68012975D01*
X200819255Y-67941546D01*
X200805524Y-67936291D01*
X200802834Y-67936099D01*
X200800346Y-67935069D01*
X200785714Y-67933628D01*
X200500000Y-67933628D01*
X200485368Y-67935069D01*
X200482879Y-67936099D01*
X200480190Y-67936291D01*
X200466459Y-67941546D01*
X200323602Y-68012975D01*
X200317307Y-68016937D01*
X200315476Y-68017696D01*
X200313413Y-68019389D01*
X200311159Y-68020808D01*
X200309862Y-68022303D01*
X200304110Y-68027024D01*
X200161252Y-68169881D01*
X200151925Y-68181246D01*
X200149791Y-68186397D01*
X200146471Y-68190878D01*
X200141524Y-68204724D01*
X200070096Y-68490438D01*
X200069721Y-68492974D01*
X200069298Y-68493996D01*
X200068754Y-68499510D01*
X200067946Y-68504983D01*
X200068108Y-68506074D01*
X200067857Y-68508628D01*
X199074999Y-68508628D01*
X199074999Y-68008628D01*
X199073558Y-67993996D01*
X199062359Y-67966960D01*
X199041667Y-67946268D01*
X199014631Y-67935069D01*
X198985367Y-67935069D01*
X198958331Y-67946268D01*
X198937639Y-67966960D01*
X198926440Y-67993996D01*
X198924999Y-68008628D01*
X197024846Y-68008628D01*
X196890683Y-67941546D01*
X196876952Y-67936291D01*
X196874262Y-67936099D01*
X196871774Y-67935069D01*
X196857142Y-67933628D01*
X196571428Y-67933628D01*
X196556796Y-67935069D01*
X196554307Y-67936099D01*
X196551618Y-67936291D01*
X196537887Y-67941546D01*
X196395030Y-68012975D01*
X196388735Y-68016937D01*
X196386904Y-68017696D01*
X196384841Y-68019389D01*
X196382587Y-68020808D01*
X196381290Y-68022303D01*
X196375538Y-68027024D01*
X196232680Y-68169881D01*
X196223353Y-68181246D01*
X196221219Y-68186397D01*
X196217899Y-68190878D01*
X196212952Y-68204724D01*
X196141524Y-68490438D01*
X196141149Y-68492974D01*
X196140726Y-68493996D01*
X196140182Y-68499510D01*
X196139374Y-68504983D01*
X196139536Y-68506074D01*
X196139285Y-68508628D01*
X195432142Y-68508628D01*
X195432142Y-68083628D01*
X195785714Y-68083628D01*
X195800346Y-68082187D01*
X195827382Y-68070988D01*
X195848074Y-68050296D01*
X195859273Y-68023260D01*
X195859273Y-67993996D01*
X195848074Y-67966960D01*
X195827382Y-67946268D01*
X195800346Y-67935069D01*
X195785714Y-67933628D01*
X194928571Y-67933628D01*
X194913939Y-67935069D01*
X194886903Y-67946268D01*
X194866211Y-67966960D01*
X194855012Y-67993996D01*
X194688345Y-67993996D01*
X194688345Y-67766961D01*
X207097369Y-67766961D01*
X207097369Y-69750295D01*
G37*
D12*
G36*
X133387276Y-100239929D02*
G01*
X133420811Y-100273465D01*
X133459523Y-100350888D01*
X133459523Y-100470138D01*
X133420811Y-100547561D01*
X133384665Y-100583708D01*
X133307244Y-100622419D01*
X132988095Y-100622419D01*
X132988095Y-100198609D01*
X133263315Y-100198609D01*
X133387276Y-100239929D01*
G37*
G36*
X133337048Y-99761130D02*
G01*
X133373192Y-99797275D01*
X133411904Y-99874698D01*
X133411904Y-99946329D01*
X133373192Y-100023752D01*
X133337048Y-100059897D01*
X133259625Y-100098609D01*
X132988095Y-100098609D01*
X132988095Y-99722419D01*
X133259625Y-99722419D01*
X133337048Y-99761130D01*
G37*
G36*
X130678247Y-100336704D02*
G01*
X130340799Y-100336704D01*
X130509523Y-99830532D01*
X130678247Y-100336704D01*
G37*
G36*
X134297295Y-100336704D02*
G01*
X133959847Y-100336704D01*
X134128571Y-99830532D01*
X134297295Y-100336704D01*
G37*
G36*
X131622762Y-99761130D02*
G01*
X131658906Y-99797275D01*
X131697618Y-99874698D01*
X131697618Y-99993948D01*
X131658906Y-100071371D01*
X131622762Y-100107516D01*
X131545339Y-100146228D01*
X131226190Y-100146228D01*
X131226190Y-99722419D01*
X131545339Y-99722419D01*
X131622762Y-99761130D01*
G37*
G36*
X137238258Y-100833530D02*
G01*
X129110317Y-100833530D01*
X129110317Y-100100990D01*
X129221428Y-100100990D01*
X129221428Y-100243847D01*
X129222623Y-100249856D01*
X129222921Y-100255974D01*
X129270540Y-100446450D01*
X129272879Y-100451402D01*
X129274326Y-100456684D01*
X129321944Y-100551921D01*
X129326855Y-100558249D01*
X129331310Y-100564916D01*
X129426549Y-100660155D01*
X129428630Y-100661545D01*
X129429144Y-100662573D01*
X129436109Y-100666543D01*
X129442770Y-100670994D01*
X129443918Y-100670994D01*
X129446093Y-100672234D01*
X129588949Y-100719853D01*
X129596899Y-100720855D01*
X129604761Y-100722419D01*
X129699999Y-100722419D01*
X129707861Y-100720855D01*
X129715810Y-100719853D01*
X129847480Y-100675963D01*
X130126316Y-100675963D01*
X130143430Y-100710192D01*
X130179734Y-100722293D01*
X130213963Y-100705179D01*
X130223624Y-100688230D01*
X130307466Y-100436704D01*
X130711580Y-100436704D01*
X130795422Y-100688230D01*
X130805083Y-100705178D01*
X130839312Y-100722293D01*
X130875616Y-100710191D01*
X130892730Y-100675963D01*
X130890290Y-100656607D01*
X130562227Y-99672419D01*
X131126190Y-99672419D01*
X131126190Y-100672419D01*
X131129996Y-100691553D01*
X131157056Y-100718613D01*
X131195324Y-100718613D01*
X131222384Y-100691553D01*
X131226190Y-100672419D01*
X131226190Y-100246228D01*
X131388252Y-100246228D01*
X131706656Y-100701092D01*
X131720747Y-100714585D01*
X131758433Y-100721235D01*
X131789784Y-100699290D01*
X131796434Y-100661604D01*
X131788580Y-100643746D01*
X131510318Y-100246228D01*
X131557142Y-100246228D01*
X131559598Y-100245739D01*
X131560687Y-100246102D01*
X131568414Y-100243985D01*
X131576276Y-100242422D01*
X131577087Y-100241610D01*
X131579503Y-100240949D01*
X131674740Y-100193331D01*
X131681073Y-100188415D01*
X131687735Y-100183964D01*
X131735354Y-100136346D01*
X131739808Y-100129679D01*
X131744720Y-100123351D01*
X131792339Y-100028113D01*
X131793000Y-100025697D01*
X131793812Y-100024886D01*
X131795375Y-100017024D01*
X131797492Y-100009297D01*
X131797129Y-100008208D01*
X131797618Y-100005752D01*
X131797618Y-99862895D01*
X131797129Y-99860438D01*
X131797492Y-99859350D01*
X131795375Y-99851622D01*
X131793812Y-99843761D01*
X131793000Y-99842949D01*
X131792339Y-99840534D01*
X131744720Y-99745296D01*
X131739808Y-99738967D01*
X131735354Y-99732301D01*
X131687735Y-99684683D01*
X131681073Y-99680231D01*
X131674740Y-99675316D01*
X131668946Y-99672419D01*
X132888095Y-99672419D01*
X132888095Y-100672419D01*
X132891901Y-100691553D01*
X132918961Y-100718613D01*
X132938095Y-100722419D01*
X133319047Y-100722419D01*
X133321503Y-100721930D01*
X133322592Y-100722293D01*
X133330319Y-100720176D01*
X133338181Y-100718613D01*
X133338992Y-100717801D01*
X133341408Y-100717140D01*
X133423763Y-100675963D01*
X133745364Y-100675963D01*
X133762478Y-100710192D01*
X133798782Y-100722293D01*
X133833011Y-100705179D01*
X133842672Y-100688230D01*
X133926514Y-100436704D01*
X134330628Y-100436704D01*
X134414470Y-100688230D01*
X134424131Y-100705178D01*
X134458360Y-100722293D01*
X134494664Y-100710191D01*
X134511778Y-100675963D01*
X134509338Y-100656607D01*
X134176005Y-99656608D01*
X134174111Y-99653285D01*
X134606187Y-99653285D01*
X134606187Y-99691553D01*
X134633247Y-99718613D01*
X134652381Y-99722419D01*
X134888095Y-99722419D01*
X134888095Y-100672419D01*
X134891901Y-100691553D01*
X134918961Y-100718613D01*
X134957229Y-100718613D01*
X134984289Y-100691553D01*
X134988095Y-100672419D01*
X134988095Y-99722419D01*
X135223809Y-99722419D01*
X135242943Y-99718613D01*
X135270003Y-99691553D01*
X135270003Y-99653285D01*
X135368092Y-99653285D01*
X135368092Y-99691553D01*
X135395152Y-99718613D01*
X135414286Y-99722419D01*
X135650000Y-99722419D01*
X135650000Y-100672419D01*
X135653806Y-100691553D01*
X135680866Y-100718613D01*
X135719134Y-100718613D01*
X135746194Y-100691553D01*
X135750000Y-100672419D01*
X135750000Y-100272332D01*
X136272854Y-100272332D01*
X136272854Y-100310600D01*
X136299914Y-100337660D01*
X136319048Y-100341466D01*
X136650000Y-100341466D01*
X136650000Y-100672419D01*
X136653806Y-100691553D01*
X136680866Y-100718613D01*
X136719134Y-100718613D01*
X136746194Y-100691553D01*
X136750000Y-100672419D01*
X136750000Y-100341466D01*
X137080953Y-100341466D01*
X137100087Y-100337660D01*
X137127147Y-100310600D01*
X137127147Y-100272332D01*
X137100087Y-100245272D01*
X137080953Y-100241466D01*
X136750000Y-100241466D01*
X136750000Y-99910514D01*
X136746194Y-99891380D01*
X136719134Y-99864320D01*
X136680866Y-99864320D01*
X136653806Y-99891380D01*
X136650000Y-99910514D01*
X136650000Y-100241466D01*
X136319048Y-100241466D01*
X136299914Y-100245272D01*
X136272854Y-100272332D01*
X135750000Y-100272332D01*
X135750000Y-99722419D01*
X135985714Y-99722419D01*
X136004848Y-99718613D01*
X136031908Y-99691553D01*
X136031908Y-99653285D01*
X136004848Y-99626225D01*
X135985714Y-99622419D01*
X135414286Y-99622419D01*
X135395152Y-99626225D01*
X135368092Y-99653285D01*
X135270003Y-99653285D01*
X135242943Y-99626225D01*
X135223809Y-99622419D01*
X134652381Y-99622419D01*
X134633247Y-99626225D01*
X134606187Y-99653285D01*
X134174111Y-99653285D01*
X134166344Y-99639659D01*
X134163001Y-99637987D01*
X134161331Y-99634647D01*
X134146294Y-99629634D01*
X134132115Y-99622545D01*
X134128570Y-99623726D01*
X134125027Y-99622545D01*
X134110853Y-99629632D01*
X134095811Y-99634646D01*
X134094139Y-99637989D01*
X134090798Y-99639660D01*
X134081137Y-99656608D01*
X133747804Y-100656608D01*
X133745364Y-100675963D01*
X133423763Y-100675963D01*
X133436645Y-100669522D01*
X133442972Y-100664611D01*
X133449641Y-100660155D01*
X133497260Y-100612535D01*
X133501713Y-100605869D01*
X133506625Y-100599541D01*
X133554244Y-100504303D01*
X133554905Y-100501887D01*
X133555717Y-100501076D01*
X133557280Y-100493214D01*
X133559397Y-100485487D01*
X133559034Y-100484398D01*
X133559523Y-100481942D01*
X133559523Y-100339085D01*
X133559034Y-100336628D01*
X133559397Y-100335540D01*
X133557280Y-100327812D01*
X133555717Y-100319951D01*
X133554905Y-100319139D01*
X133554244Y-100316724D01*
X133506625Y-100221486D01*
X133501713Y-100215157D01*
X133497259Y-100208491D01*
X133449640Y-100160873D01*
X133447557Y-100159481D01*
X133447044Y-100158455D01*
X133440083Y-100154487D01*
X133433419Y-100150034D01*
X133432271Y-100150034D01*
X133430096Y-100148794D01*
X133398935Y-100138407D01*
X133402021Y-100136345D01*
X133449640Y-100088727D01*
X133454094Y-100082060D01*
X133459006Y-100075732D01*
X133506625Y-99980494D01*
X133507286Y-99978078D01*
X133508098Y-99977267D01*
X133509661Y-99969405D01*
X133511778Y-99961678D01*
X133511415Y-99960589D01*
X133511904Y-99958133D01*
X133511904Y-99862895D01*
X133511415Y-99860438D01*
X133511778Y-99859350D01*
X133509661Y-99851622D01*
X133508098Y-99843761D01*
X133507286Y-99842949D01*
X133506625Y-99840534D01*
X133459006Y-99745296D01*
X133454094Y-99738967D01*
X133449640Y-99732301D01*
X133402021Y-99684683D01*
X133395359Y-99680231D01*
X133389026Y-99675316D01*
X133293789Y-99627698D01*
X133291373Y-99627036D01*
X133290562Y-99626225D01*
X133282700Y-99624661D01*
X133274973Y-99622545D01*
X133273884Y-99622907D01*
X133271428Y-99622419D01*
X132938095Y-99622419D01*
X132918961Y-99626225D01*
X132891901Y-99653285D01*
X132888095Y-99672419D01*
X131668946Y-99672419D01*
X131579503Y-99627698D01*
X131577087Y-99627036D01*
X131576276Y-99626225D01*
X131568414Y-99624661D01*
X131560687Y-99622545D01*
X131559598Y-99622907D01*
X131557142Y-99622419D01*
X131176190Y-99622419D01*
X131157056Y-99626225D01*
X131129996Y-99653285D01*
X131126190Y-99672419D01*
X130562227Y-99672419D01*
X130556957Y-99656608D01*
X130547296Y-99639659D01*
X130543953Y-99637987D01*
X130542283Y-99634647D01*
X130527246Y-99629634D01*
X130513067Y-99622545D01*
X130509522Y-99623726D01*
X130505979Y-99622545D01*
X130491805Y-99629632D01*
X130476763Y-99634646D01*
X130475091Y-99637989D01*
X130471750Y-99639660D01*
X130462089Y-99656608D01*
X130128756Y-100656608D01*
X130126316Y-100675963D01*
X129847480Y-100675963D01*
X129858667Y-100672234D01*
X129860842Y-100670994D01*
X129861991Y-100670994D01*
X129868661Y-100666536D01*
X129875615Y-100662573D01*
X129876127Y-100661547D01*
X129878212Y-100660155D01*
X129925831Y-100612535D01*
X129936669Y-100596314D01*
X129936669Y-100558045D01*
X129909609Y-100530986D01*
X129871340Y-100530986D01*
X129855119Y-100541825D01*
X129815846Y-100581098D01*
X129691886Y-100622419D01*
X129612874Y-100622419D01*
X129488914Y-100581099D01*
X129407758Y-100499942D01*
X129366223Y-100416872D01*
X129321428Y-100237692D01*
X129321428Y-100107145D01*
X129366223Y-99927965D01*
X129407759Y-99844893D01*
X129488912Y-99763739D01*
X129612874Y-99722419D01*
X129691886Y-99722419D01*
X129815847Y-99763739D01*
X129855119Y-99803012D01*
X129871340Y-99813851D01*
X129909609Y-99813851D01*
X129936669Y-99786791D01*
X129936669Y-99748522D01*
X129925830Y-99732301D01*
X129878211Y-99684683D01*
X129876128Y-99683291D01*
X129875615Y-99682265D01*
X129868654Y-99678297D01*
X129861990Y-99673844D01*
X129860842Y-99673844D01*
X129858667Y-99672604D01*
X129715810Y-99624985D01*
X129707861Y-99623982D01*
X129699999Y-99622419D01*
X129604761Y-99622419D01*
X129596899Y-99623982D01*
X129588949Y-99624985D01*
X129446093Y-99672604D01*
X129443918Y-99673844D01*
X129442770Y-99673844D01*
X129436109Y-99678294D01*
X129429144Y-99682265D01*
X129428630Y-99683292D01*
X129426549Y-99684683D01*
X129331311Y-99779921D01*
X129326859Y-99786582D01*
X129321944Y-99792916D01*
X129274326Y-99888153D01*
X129272879Y-99893434D01*
X129270540Y-99898387D01*
X129222921Y-100088863D01*
X129222623Y-100094980D01*
X129221428Y-100100990D01*
X129110317Y-100100990D01*
X129110317Y-99511308D01*
X137238258Y-99511308D01*
X137238258Y-100833530D01*
G37*
D13*
G36*
X144665080Y-91982613D02*
G01*
X142492540Y-91982613D01*
X142492540Y-91201105D01*
X142581429Y-91201105D01*
X142581429Y-91277295D01*
X142581868Y-91279505D01*
X142581542Y-91280485D01*
X142583446Y-91287438D01*
X142584854Y-91294516D01*
X142585584Y-91295246D01*
X142586180Y-91297420D01*
X142624276Y-91373611D01*
X142628696Y-91379306D01*
X142632705Y-91385306D01*
X142670800Y-91423400D01*
X142676794Y-91427405D01*
X142682495Y-91431830D01*
X142758685Y-91469925D01*
X142763440Y-91471227D01*
X142767896Y-91473332D01*
X142915486Y-91510230D01*
X142980725Y-91542850D01*
X143008493Y-91570617D01*
X143038572Y-91630775D01*
X143038572Y-91685720D01*
X143008492Y-91745878D01*
X142980725Y-91773646D01*
X142920569Y-91803724D01*
X142748018Y-91803724D01*
X142640659Y-91767938D01*
X142623239Y-91765742D01*
X142592433Y-91781145D01*
X142581542Y-91813819D01*
X142596945Y-91844625D01*
X142612199Y-91853320D01*
X142726485Y-91891415D01*
X142733641Y-91892317D01*
X142740715Y-91893724D01*
X142931191Y-91893724D01*
X142933401Y-91893284D01*
X142934381Y-91893611D01*
X142941333Y-91891706D01*
X142948412Y-91890299D01*
X142949143Y-91889567D01*
X142951315Y-91888973D01*
X143027506Y-91850878D01*
X143033203Y-91846456D01*
X143039202Y-91842448D01*
X143077297Y-91804353D01*
X143081303Y-91798355D01*
X143085726Y-91792658D01*
X143123821Y-91716468D01*
X143124416Y-91714294D01*
X143125147Y-91713564D01*
X143126554Y-91706486D01*
X143128459Y-91699533D01*
X143128132Y-91698553D01*
X143128572Y-91696343D01*
X143128572Y-91620152D01*
X143128132Y-91617941D01*
X143128459Y-91616962D01*
X143126554Y-91610008D01*
X143125147Y-91602931D01*
X143124416Y-91602200D01*
X143123821Y-91600027D01*
X143085726Y-91523837D01*
X143081301Y-91518136D01*
X143077296Y-91512142D01*
X143039202Y-91474047D01*
X143033202Y-91470038D01*
X143027507Y-91465618D01*
X142951316Y-91427522D01*
X142946560Y-91426219D01*
X142942105Y-91424115D01*
X142794517Y-91387218D01*
X142729275Y-91354597D01*
X142701508Y-91326829D01*
X142671429Y-91266671D01*
X142671429Y-91211728D01*
X142701508Y-91151570D01*
X142729275Y-91123802D01*
X142789433Y-91093724D01*
X142961984Y-91093724D01*
X143069342Y-91129510D01*
X143086762Y-91131706D01*
X143117568Y-91116303D01*
X143128459Y-91083629D01*
X143114902Y-91056516D01*
X143267823Y-91056516D01*
X143274179Y-91072883D01*
X143533811Y-91480876D01*
X143533811Y-91848724D01*
X143537236Y-91865945D01*
X143561590Y-91890299D01*
X143596032Y-91890299D01*
X143620386Y-91865945D01*
X143623811Y-91848724D01*
X143623811Y-91480875D01*
X143801847Y-91201105D01*
X144029048Y-91201105D01*
X144029048Y-91277295D01*
X144029487Y-91279505D01*
X144029161Y-91280485D01*
X144031065Y-91287438D01*
X144032473Y-91294516D01*
X144033203Y-91295246D01*
X144033799Y-91297420D01*
X144071895Y-91373611D01*
X144076315Y-91379306D01*
X144080324Y-91385306D01*
X144118419Y-91423400D01*
X144124413Y-91427405D01*
X144130114Y-91431830D01*
X144206304Y-91469925D01*
X144211059Y-91471227D01*
X144215515Y-91473332D01*
X144363105Y-91510230D01*
X144428344Y-91542850D01*
X144456112Y-91570617D01*
X144486191Y-91630775D01*
X144486191Y-91685720D01*
X144456111Y-91745878D01*
X144428344Y-91773646D01*
X144368188Y-91803724D01*
X144195637Y-91803724D01*
X144088278Y-91767938D01*
X144070858Y-91765742D01*
X144040052Y-91781145D01*
X144029161Y-91813819D01*
X144044564Y-91844625D01*
X144059818Y-91853320D01*
X144174104Y-91891415D01*
X144181260Y-91892317D01*
X144188334Y-91893724D01*
X144378810Y-91893724D01*
X144381020Y-91893284D01*
X144382000Y-91893611D01*
X144388952Y-91891706D01*
X144396031Y-91890299D01*
X144396762Y-91889567D01*
X144398934Y-91888973D01*
X144475125Y-91850878D01*
X144480822Y-91846456D01*
X144486821Y-91842448D01*
X144524916Y-91804353D01*
X144528922Y-91798355D01*
X144533345Y-91792658D01*
X144571440Y-91716468D01*
X144572035Y-91714294D01*
X144572766Y-91713564D01*
X144574173Y-91706486D01*
X144576078Y-91699533D01*
X144575751Y-91698553D01*
X144576191Y-91696343D01*
X144576191Y-91620152D01*
X144575751Y-91617941D01*
X144576078Y-91616962D01*
X144574173Y-91610008D01*
X144572766Y-91602931D01*
X144572035Y-91602200D01*
X144571440Y-91600027D01*
X144533345Y-91523837D01*
X144528920Y-91518136D01*
X144524915Y-91512142D01*
X144486821Y-91474047D01*
X144480821Y-91470038D01*
X144475126Y-91465618D01*
X144398935Y-91427522D01*
X144394179Y-91426219D01*
X144389724Y-91424115D01*
X144242136Y-91387218D01*
X144176894Y-91354597D01*
X144149127Y-91326829D01*
X144119048Y-91266671D01*
X144119048Y-91211728D01*
X144149127Y-91151570D01*
X144176894Y-91123802D01*
X144237052Y-91093724D01*
X144409603Y-91093724D01*
X144516961Y-91129510D01*
X144534381Y-91131706D01*
X144565187Y-91116303D01*
X144576078Y-91083629D01*
X144560675Y-91052823D01*
X144545421Y-91044128D01*
X144431136Y-91006033D01*
X144423979Y-91005130D01*
X144416906Y-91003724D01*
X144226429Y-91003724D01*
X144224218Y-91004163D01*
X144223239Y-91003837D01*
X144216285Y-91005741D01*
X144209208Y-91007149D01*
X144208477Y-91007879D01*
X144206304Y-91008475D01*
X144130114Y-91046570D01*
X144124413Y-91050994D01*
X144118419Y-91055000D01*
X144080324Y-91093094D01*
X144076315Y-91099093D01*
X144071895Y-91104789D01*
X144033799Y-91180980D01*
X144033203Y-91183153D01*
X144032473Y-91183884D01*
X144031065Y-91190961D01*
X144029161Y-91197915D01*
X144029487Y-91198894D01*
X144029048Y-91201105D01*
X143801847Y-91201105D01*
X143883442Y-91072884D01*
X143889798Y-91056516D01*
X143882326Y-91022895D01*
X143853269Y-91004403D01*
X143819647Y-91011875D01*
X143807512Y-91024565D01*
X143578810Y-91383952D01*
X143350109Y-91024565D01*
X143337974Y-91011875D01*
X143304352Y-91004403D01*
X143275295Y-91022894D01*
X143267823Y-91056516D01*
X143114902Y-91056516D01*
X143113056Y-91052823D01*
X143097802Y-91044128D01*
X142983517Y-91006033D01*
X142976360Y-91005130D01*
X142969287Y-91003724D01*
X142778810Y-91003724D01*
X142776599Y-91004163D01*
X142775620Y-91003837D01*
X142768666Y-91005741D01*
X142761589Y-91007149D01*
X142760858Y-91007879D01*
X142758685Y-91008475D01*
X142682495Y-91046570D01*
X142676794Y-91050994D01*
X142670800Y-91055000D01*
X142632705Y-91093094D01*
X142628696Y-91099093D01*
X142624276Y-91104789D01*
X142586180Y-91180980D01*
X142585584Y-91183153D01*
X142584854Y-91183884D01*
X142583446Y-91190961D01*
X142581542Y-91197915D01*
X142581868Y-91198894D01*
X142581429Y-91201105D01*
X142492540Y-91201105D01*
X142492540Y-90914835D01*
X144665080Y-90914835D01*
X144665080Y-91982613D01*
G37*
D12*
G36*
X154387276Y-100239929D02*
G01*
X154420811Y-100273465D01*
X154459523Y-100350888D01*
X154459523Y-100470138D01*
X154420811Y-100547561D01*
X154384665Y-100583708D01*
X154307244Y-100622419D01*
X153988095Y-100622419D01*
X153988095Y-100198609D01*
X154263315Y-100198609D01*
X154387276Y-100239929D01*
G37*
G36*
X154337048Y-99761130D02*
G01*
X154373192Y-99797275D01*
X154411904Y-99874698D01*
X154411904Y-99946329D01*
X154373192Y-100023752D01*
X154337048Y-100059897D01*
X154259625Y-100098609D01*
X153988095Y-100098609D01*
X153988095Y-99722419D01*
X154259625Y-99722419D01*
X154337048Y-99761130D01*
G37*
G36*
X150678247Y-100336704D02*
G01*
X150340799Y-100336704D01*
X150509523Y-99830532D01*
X150678247Y-100336704D01*
G37*
G36*
X155297295Y-100336704D02*
G01*
X154959847Y-100336704D01*
X155128571Y-99830532D01*
X155297295Y-100336704D01*
G37*
G36*
X158238258Y-100833530D02*
G01*
X150015205Y-100833530D01*
X150015205Y-100675963D01*
X150126316Y-100675963D01*
X150143430Y-100710192D01*
X150179734Y-100722293D01*
X150213963Y-100705179D01*
X150223624Y-100688230D01*
X150307466Y-100436704D01*
X150711580Y-100436704D01*
X150795422Y-100688230D01*
X150805083Y-100705178D01*
X150839312Y-100722293D01*
X150875616Y-100710191D01*
X150892730Y-100675963D01*
X150890290Y-100656607D01*
X150562227Y-99672419D01*
X151126190Y-99672419D01*
X151126190Y-100481942D01*
X151126678Y-100484398D01*
X151126316Y-100485487D01*
X151128432Y-100493214D01*
X151129996Y-100501076D01*
X151130807Y-100501887D01*
X151131469Y-100504303D01*
X151179087Y-100599540D01*
X151183998Y-100605868D01*
X151188453Y-100612535D01*
X151236072Y-100660155D01*
X151242738Y-100664609D01*
X151249067Y-100669521D01*
X151344305Y-100717140D01*
X151346720Y-100717801D01*
X151347532Y-100718613D01*
X151355393Y-100720176D01*
X151363121Y-100722293D01*
X151364209Y-100721930D01*
X151366666Y-100722419D01*
X151557142Y-100722419D01*
X151559598Y-100721930D01*
X151560687Y-100722293D01*
X151568414Y-100720176D01*
X151576276Y-100718613D01*
X151577087Y-100717801D01*
X151579503Y-100717140D01*
X151674740Y-100669522D01*
X151681067Y-100664611D01*
X151687736Y-100660155D01*
X151735355Y-100612535D01*
X151739808Y-100605869D01*
X151744720Y-100599541D01*
X151792339Y-100504303D01*
X151793000Y-100501887D01*
X151793812Y-100501076D01*
X151795375Y-100493214D01*
X151797492Y-100485487D01*
X151797129Y-100484398D01*
X151797618Y-100481942D01*
X151797618Y-99682122D01*
X152079522Y-99682122D01*
X152086968Y-99700154D01*
X152401811Y-100172419D01*
X152086968Y-100644684D01*
X152079522Y-100662716D01*
X152087027Y-100700241D01*
X152118868Y-100721468D01*
X152156393Y-100713963D01*
X152170174Y-100700154D01*
X152461903Y-100262558D01*
X152753634Y-100700154D01*
X152767415Y-100713963D01*
X152804940Y-100721468D01*
X152836781Y-100700241D01*
X152844286Y-100662716D01*
X152836839Y-100644684D01*
X152521996Y-100172419D01*
X152836839Y-99700154D01*
X152844286Y-99682122D01*
X152842345Y-99672419D01*
X153888095Y-99672419D01*
X153888095Y-100672419D01*
X153891901Y-100691553D01*
X153918961Y-100718613D01*
X153938095Y-100722419D01*
X154319047Y-100722419D01*
X154321503Y-100721930D01*
X154322592Y-100722293D01*
X154330319Y-100720176D01*
X154338181Y-100718613D01*
X154338992Y-100717801D01*
X154341408Y-100717140D01*
X154423763Y-100675963D01*
X154745364Y-100675963D01*
X154762478Y-100710192D01*
X154798782Y-100722293D01*
X154833011Y-100705179D01*
X154842672Y-100688230D01*
X154926514Y-100436704D01*
X155330628Y-100436704D01*
X155414470Y-100688230D01*
X155424131Y-100705178D01*
X155458360Y-100722293D01*
X155494664Y-100710191D01*
X155511778Y-100675963D01*
X155509338Y-100656607D01*
X155176005Y-99656608D01*
X155174111Y-99653285D01*
X155606187Y-99653285D01*
X155606187Y-99691553D01*
X155633247Y-99718613D01*
X155652381Y-99722419D01*
X155888095Y-99722419D01*
X155888095Y-100672419D01*
X155891901Y-100691553D01*
X155918961Y-100718613D01*
X155957229Y-100718613D01*
X155984289Y-100691553D01*
X155988095Y-100672419D01*
X155988095Y-99722419D01*
X156223809Y-99722419D01*
X156242943Y-99718613D01*
X156270003Y-99691553D01*
X156270003Y-99653285D01*
X156368092Y-99653285D01*
X156368092Y-99691553D01*
X156395152Y-99718613D01*
X156414286Y-99722419D01*
X156650000Y-99722419D01*
X156650000Y-100672419D01*
X156653806Y-100691553D01*
X156680866Y-100718613D01*
X156719134Y-100718613D01*
X156746194Y-100691553D01*
X156750000Y-100672419D01*
X156750000Y-100272332D01*
X157272854Y-100272332D01*
X157272854Y-100310600D01*
X157299914Y-100337660D01*
X157319048Y-100341466D01*
X158080953Y-100341466D01*
X158100087Y-100337660D01*
X158127147Y-100310600D01*
X158127147Y-100272332D01*
X158100087Y-100245272D01*
X158080953Y-100241466D01*
X157319048Y-100241466D01*
X157299914Y-100245272D01*
X157272854Y-100272332D01*
X156750000Y-100272332D01*
X156750000Y-99722419D01*
X156985714Y-99722419D01*
X157004848Y-99718613D01*
X157031908Y-99691553D01*
X157031908Y-99653285D01*
X157004848Y-99626225D01*
X156985714Y-99622419D01*
X156414286Y-99622419D01*
X156395152Y-99626225D01*
X156368092Y-99653285D01*
X156270003Y-99653285D01*
X156242943Y-99626225D01*
X156223809Y-99622419D01*
X155652381Y-99622419D01*
X155633247Y-99626225D01*
X155606187Y-99653285D01*
X155174111Y-99653285D01*
X155166344Y-99639659D01*
X155163001Y-99637987D01*
X155161331Y-99634647D01*
X155146294Y-99629634D01*
X155132115Y-99622545D01*
X155128570Y-99623726D01*
X155125027Y-99622545D01*
X155110853Y-99629632D01*
X155095811Y-99634646D01*
X155094139Y-99637989D01*
X155090798Y-99639660D01*
X155081137Y-99656608D01*
X154747804Y-100656608D01*
X154745364Y-100675963D01*
X154423763Y-100675963D01*
X154436645Y-100669522D01*
X154442972Y-100664611D01*
X154449641Y-100660155D01*
X154497260Y-100612535D01*
X154501713Y-100605869D01*
X154506625Y-100599541D01*
X154554244Y-100504303D01*
X154554905Y-100501887D01*
X154555717Y-100501076D01*
X154557280Y-100493214D01*
X154559397Y-100485487D01*
X154559034Y-100484398D01*
X154559523Y-100481942D01*
X154559523Y-100339085D01*
X154559034Y-100336628D01*
X154559397Y-100335540D01*
X154557280Y-100327812D01*
X154555717Y-100319951D01*
X154554905Y-100319139D01*
X154554244Y-100316724D01*
X154506625Y-100221486D01*
X154501713Y-100215157D01*
X154497259Y-100208491D01*
X154449640Y-100160873D01*
X154447557Y-100159481D01*
X154447044Y-100158455D01*
X154440083Y-100154487D01*
X154433419Y-100150034D01*
X154432271Y-100150034D01*
X154430096Y-100148794D01*
X154398935Y-100138407D01*
X154402021Y-100136345D01*
X154449640Y-100088727D01*
X154454094Y-100082060D01*
X154459006Y-100075732D01*
X154506625Y-99980494D01*
X154507286Y-99978078D01*
X154508098Y-99977267D01*
X154509661Y-99969405D01*
X154511778Y-99961678D01*
X154511415Y-99960589D01*
X154511904Y-99958133D01*
X154511904Y-99862895D01*
X154511415Y-99860438D01*
X154511778Y-99859350D01*
X154509661Y-99851622D01*
X154508098Y-99843761D01*
X154507286Y-99842949D01*
X154506625Y-99840534D01*
X154459006Y-99745296D01*
X154454094Y-99738967D01*
X154449640Y-99732301D01*
X154402021Y-99684683D01*
X154395359Y-99680231D01*
X154389026Y-99675316D01*
X154293789Y-99627698D01*
X154291373Y-99627036D01*
X154290562Y-99626225D01*
X154282700Y-99624661D01*
X154274973Y-99622545D01*
X154273884Y-99622907D01*
X154271428Y-99622419D01*
X153938095Y-99622419D01*
X153918961Y-99626225D01*
X153891901Y-99653285D01*
X153888095Y-99672419D01*
X152842345Y-99672419D01*
X152836781Y-99644597D01*
X152804940Y-99623370D01*
X152767415Y-99630875D01*
X152753634Y-99644684D01*
X152461903Y-100082279D01*
X152170174Y-99644684D01*
X152156393Y-99630875D01*
X152118868Y-99623370D01*
X152087027Y-99644597D01*
X152079522Y-99682122D01*
X151797618Y-99682122D01*
X151797618Y-99672419D01*
X151793812Y-99653285D01*
X151766752Y-99626225D01*
X151728484Y-99626225D01*
X151701424Y-99653285D01*
X151697618Y-99672419D01*
X151697618Y-100470138D01*
X151658906Y-100547561D01*
X151622760Y-100583708D01*
X151545339Y-100622419D01*
X151378470Y-100622419D01*
X151301047Y-100583708D01*
X151264901Y-100547561D01*
X151226190Y-100470139D01*
X151226190Y-99672419D01*
X151222384Y-99653285D01*
X151195324Y-99626225D01*
X151157056Y-99626225D01*
X151129996Y-99653285D01*
X151126190Y-99672419D01*
X150562227Y-99672419D01*
X150556957Y-99656608D01*
X150547296Y-99639659D01*
X150543953Y-99637987D01*
X150542283Y-99634647D01*
X150527246Y-99629634D01*
X150513067Y-99622545D01*
X150509522Y-99623726D01*
X150505979Y-99622545D01*
X150491805Y-99629632D01*
X150476763Y-99634646D01*
X150475091Y-99637989D01*
X150471750Y-99639660D01*
X150462089Y-99656608D01*
X150128756Y-100656608D01*
X150126316Y-100675963D01*
X150015205Y-100675963D01*
X150015205Y-99511308D01*
X158238258Y-99511308D01*
X158238258Y-100833530D01*
G37*
D10*
X138696905Y-64490412D02*
X139173095Y-64490412D01*
X138601667Y-64776127D02*
X138935000Y-63776127D01*
X138935000Y-63776127D02*
X139268333Y-64776127D01*
X139601667Y-64109460D02*
X139601667Y-64776127D01*
X139601667Y-64204698D02*
X139649286Y-64157079D01*
X139649286Y-64157079D02*
X139744524Y-64109460D01*
X139744524Y-64109460D02*
X139887381Y-64109460D01*
X139887381Y-64109460D02*
X139982619Y-64157079D01*
X139982619Y-64157079D02*
X140030238Y-64252317D01*
X140030238Y-64252317D02*
X140030238Y-64776127D01*
X140363572Y-64109460D02*
X140744524Y-64109460D01*
X140506429Y-63776127D02*
X140506429Y-64633269D01*
X140506429Y-64633269D02*
X140554048Y-64728508D01*
X140554048Y-64728508D02*
X140649286Y-64776127D01*
X140649286Y-64776127D02*
X140744524Y-64776127D01*
X141458810Y-64728508D02*
X141363572Y-64776127D01*
X141363572Y-64776127D02*
X141173096Y-64776127D01*
X141173096Y-64776127D02*
X141077858Y-64728508D01*
X141077858Y-64728508D02*
X141030239Y-64633269D01*
X141030239Y-64633269D02*
X141030239Y-64252317D01*
X141030239Y-64252317D02*
X141077858Y-64157079D01*
X141077858Y-64157079D02*
X141173096Y-64109460D01*
X141173096Y-64109460D02*
X141363572Y-64109460D01*
X141363572Y-64109460D02*
X141458810Y-64157079D01*
X141458810Y-64157079D02*
X141506429Y-64252317D01*
X141506429Y-64252317D02*
X141506429Y-64347555D01*
X141506429Y-64347555D02*
X141030239Y-64442793D01*
X141935001Y-64109460D02*
X141935001Y-64776127D01*
X141935001Y-64204698D02*
X141982620Y-64157079D01*
X141982620Y-64157079D02*
X142077858Y-64109460D01*
X142077858Y-64109460D02*
X142220715Y-64109460D01*
X142220715Y-64109460D02*
X142315953Y-64157079D01*
X142315953Y-64157079D02*
X142363572Y-64252317D01*
X142363572Y-64252317D02*
X142363572Y-64776127D01*
X142839763Y-64109460D02*
X142839763Y-64776127D01*
X142839763Y-64204698D02*
X142887382Y-64157079D01*
X142887382Y-64157079D02*
X142982620Y-64109460D01*
X142982620Y-64109460D02*
X143125477Y-64109460D01*
X143125477Y-64109460D02*
X143220715Y-64157079D01*
X143220715Y-64157079D02*
X143268334Y-64252317D01*
X143268334Y-64252317D02*
X143268334Y-64776127D01*
X144173096Y-64776127D02*
X144173096Y-64252317D01*
X144173096Y-64252317D02*
X144125477Y-64157079D01*
X144125477Y-64157079D02*
X144030239Y-64109460D01*
X144030239Y-64109460D02*
X143839763Y-64109460D01*
X143839763Y-64109460D02*
X143744525Y-64157079D01*
X144173096Y-64728508D02*
X144077858Y-64776127D01*
X144077858Y-64776127D02*
X143839763Y-64776127D01*
X143839763Y-64776127D02*
X143744525Y-64728508D01*
X143744525Y-64728508D02*
X143696906Y-64633269D01*
X143696906Y-64633269D02*
X143696906Y-64538031D01*
X143696906Y-64538031D02*
X143744525Y-64442793D01*
X143744525Y-64442793D02*
X143839763Y-64395174D01*
X143839763Y-64395174D02*
X144077858Y-64395174D01*
X144077858Y-64395174D02*
X144173096Y-64347555D01*
X145363573Y-64490412D02*
X145839763Y-64490412D01*
X145268335Y-64776127D02*
X145601668Y-63776127D01*
X145601668Y-63776127D02*
X145935001Y-64776127D01*
X146268335Y-64776127D02*
X146268335Y-64109460D01*
X146268335Y-64299936D02*
X146315954Y-64204698D01*
X146315954Y-64204698D02*
X146363573Y-64157079D01*
X146363573Y-64157079D02*
X146458811Y-64109460D01*
X146458811Y-64109460D02*
X146554049Y-64109460D01*
X147268335Y-64728508D02*
X147173097Y-64776127D01*
X147173097Y-64776127D02*
X146982621Y-64776127D01*
X146982621Y-64776127D02*
X146887383Y-64728508D01*
X146887383Y-64728508D02*
X146839764Y-64633269D01*
X146839764Y-64633269D02*
X146839764Y-64252317D01*
X146839764Y-64252317D02*
X146887383Y-64157079D01*
X146887383Y-64157079D02*
X146982621Y-64109460D01*
X146982621Y-64109460D02*
X147173097Y-64109460D01*
X147173097Y-64109460D02*
X147268335Y-64157079D01*
X147268335Y-64157079D02*
X147315954Y-64252317D01*
X147315954Y-64252317D02*
X147315954Y-64347555D01*
X147315954Y-64347555D02*
X146839764Y-64442793D01*
X148173097Y-64776127D02*
X148173097Y-64252317D01*
X148173097Y-64252317D02*
X148125478Y-64157079D01*
X148125478Y-64157079D02*
X148030240Y-64109460D01*
X148030240Y-64109460D02*
X147839764Y-64109460D01*
X147839764Y-64109460D02*
X147744526Y-64157079D01*
X148173097Y-64728508D02*
X148077859Y-64776127D01*
X148077859Y-64776127D02*
X147839764Y-64776127D01*
X147839764Y-64776127D02*
X147744526Y-64728508D01*
X147744526Y-64728508D02*
X147696907Y-64633269D01*
X147696907Y-64633269D02*
X147696907Y-64538031D01*
X147696907Y-64538031D02*
X147744526Y-64442793D01*
X147744526Y-64442793D02*
X147839764Y-64395174D01*
X147839764Y-64395174D02*
X148077859Y-64395174D01*
X148077859Y-64395174D02*
X148173097Y-64347555D01*
X175038095Y-93154819D02*
X175038095Y-93964342D01*
X175038095Y-93964342D02*
X175085714Y-94059580D01*
X175085714Y-94059580D02*
X175133333Y-94107200D01*
X175133333Y-94107200D02*
X175228571Y-94154819D01*
X175228571Y-94154819D02*
X175419047Y-94154819D01*
X175419047Y-94154819D02*
X175514285Y-94107200D01*
X175514285Y-94107200D02*
X175561904Y-94059580D01*
X175561904Y-94059580D02*
X175609523Y-93964342D01*
X175609523Y-93964342D02*
X175609523Y-93154819D01*
X176038095Y-93250057D02*
X176085714Y-93202438D01*
X176085714Y-93202438D02*
X176180952Y-93154819D01*
X176180952Y-93154819D02*
X176419047Y-93154819D01*
X176419047Y-93154819D02*
X176514285Y-93202438D01*
X176514285Y-93202438D02*
X176561904Y-93250057D01*
X176561904Y-93250057D02*
X176609523Y-93345295D01*
X176609523Y-93345295D02*
X176609523Y-93440533D01*
X176609523Y-93440533D02*
X176561904Y-93583390D01*
X176561904Y-93583390D02*
X175990476Y-94154819D01*
X175990476Y-94154819D02*
X176609523Y-94154819D01*
D14*
%TO.C,Q1*%
X191299999Y-88900001D02*
G75*
G02*
X191099999Y-88900001I-100000J0D01*
G01*
X191099999Y-88900001D02*
G75*
G02*
X191299999Y-88900001I100000J0D01*
G01*
D15*
X189137499Y-79750001D02*
X185619999Y-79750001D01*
X185619999Y-89650001D02*
X189137499Y-89650001D01*
X179019999Y-89650001D02*
X181279998Y-89650001D01*
X179019999Y-79750001D02*
X181279998Y-79750001D01*
%TO.C,Q2*%
X179019999Y-68150001D02*
X181279998Y-68150001D01*
X179019999Y-78050001D02*
X181279998Y-78050001D01*
X185619999Y-78050001D02*
X189137499Y-78050001D01*
X189137499Y-68150001D02*
X185619999Y-68150001D01*
D14*
X191299999Y-77300001D02*
G75*
G02*
X191099999Y-77300001I-100000J0D01*
G01*
X191099999Y-77300001D02*
G75*
G02*
X191299999Y-77300001I100000J0D01*
G01*
D16*
%TO.C,U1*%
X136658811Y-77871308D02*
X136658811Y-78671309D01*
X136658811Y-78671309D02*
X137458811Y-78671308D01*
X136858811Y-61871308D02*
X150058811Y-61871308D01*
X136858811Y-67271308D02*
X150058811Y-67271308D01*
X136858811Y-78471308D02*
X136858811Y-61871308D01*
X137533811Y-61671308D02*
X136683811Y-61671308D01*
X149508811Y-61671307D02*
X150258811Y-61671307D01*
X150058811Y-61871308D02*
X150058811Y-78471308D01*
X150058811Y-78471308D02*
X136858811Y-78471308D01*
X150258811Y-61671307D02*
X150258812Y-62271308D01*
X150258811Y-77871308D02*
X150258811Y-78671309D01*
X150258811Y-78671309D02*
X149458811Y-78671308D01*
%TO.C,C5*%
X135348811Y-69611890D02*
X135348811Y-69330728D01*
X136368811Y-69611890D02*
X136368811Y-69330728D01*
%TO.C,R3*%
X139896068Y-88823808D02*
X139421552Y-88823808D01*
X139896068Y-89868808D02*
X139421552Y-89868808D01*
%TO.C,L1*%
X130548810Y-80011308D02*
X130698810Y-80011308D01*
X130548810Y-84531308D02*
X130548810Y-80011308D01*
X130548810Y-84531308D02*
X130698810Y-84531308D01*
X135068810Y-80011308D02*
X134918810Y-80011308D01*
X135068810Y-84531308D02*
X134918810Y-84531308D01*
X135068810Y-84531308D02*
X135068810Y-80011308D01*
%TO.C,R11*%
X140661310Y-79909049D02*
X140661310Y-80383565D01*
X141706310Y-79909049D02*
X141706310Y-80383565D01*
%TO.C,R14*%
X133487258Y-90577500D02*
X133012742Y-90577500D01*
X133487258Y-91622500D02*
X133012742Y-91622500D01*
%TO.C,R1*%
X143808176Y-88805423D02*
X143333660Y-88805423D01*
X143808176Y-89850423D02*
X143333660Y-89850423D01*
D12*
%TO.C,D1*%
X144718809Y-92481308D02*
G75*
G02*
X144618811Y-92481308I-49999J0D01*
G01*
X144618811Y-92481308D02*
G75*
G02*
X144718809Y-92481308I49999J0D01*
G01*
D16*
%TO.C,R10*%
X147446069Y-91888809D02*
X146971553Y-91888809D01*
X147446069Y-92933809D02*
X146971553Y-92933809D01*
%TO.C,C10*%
X138448811Y-80055727D02*
X138448811Y-80336889D01*
X139468811Y-80055727D02*
X139468811Y-80336889D01*
%TO.C,R4*%
X145436311Y-80408567D02*
X145436311Y-79934051D01*
X146481311Y-80408567D02*
X146481311Y-79934051D01*
%TO.C,R7*%
X147036311Y-80408567D02*
X147036311Y-79934051D01*
X148081311Y-80408567D02*
X148081311Y-79934051D01*
%TO.C,C11*%
X178290000Y-98734419D02*
X178290000Y-99015581D01*
X179310000Y-98734419D02*
X179310000Y-99015581D01*
%TO.C,U5*%
X142033811Y-82461308D02*
X141233811Y-82461309D01*
X142033811Y-82461308D02*
X142833811Y-82461309D01*
X142033811Y-85581310D02*
X141233811Y-85581309D01*
X142033811Y-85581310D02*
X142833811Y-85581309D01*
X140733811Y-82511309D02*
X140493811Y-82181309D01*
X140973811Y-82181309D01*
X140733811Y-82511309D01*
G36*
X140733811Y-82511309D02*
G01*
X140493811Y-82181309D01*
X140973811Y-82181309D01*
X140733811Y-82511309D01*
G37*
%TO.C,C13*%
X161040000Y-91840000D02*
X161040000Y-94690000D01*
X161040000Y-100560000D02*
X161040000Y-97710000D01*
X168695563Y-91839999D02*
X161040000Y-91840000D01*
X168695563Y-100560001D02*
X161040000Y-100560000D01*
X169760001Y-92904437D02*
X168695563Y-91839999D01*
X169760001Y-92904437D02*
X169760000Y-94690000D01*
X169760001Y-99495563D02*
X168695563Y-100560001D01*
X169760001Y-99495563D02*
X169760000Y-97710000D01*
X170500000Y-99210000D02*
X170500000Y-98210000D01*
X171000000Y-98710000D02*
X170000000Y-98710000D01*
%TO.C,C6*%
X138041344Y-83628454D02*
X138041344Y-83105948D01*
X139511344Y-83628454D02*
X139511344Y-83105948D01*
%TO.C,D5*%
X135248811Y-91321309D02*
X135248811Y-93021309D01*
X135248811Y-91321309D02*
X137908811Y-91321309D01*
X135248811Y-93021309D02*
X137908811Y-93021309D01*
%TO.C,SW2*%
X165458810Y-70571307D02*
X165458810Y-70021307D01*
X166321311Y-67471307D02*
X165458810Y-67471307D01*
X168208810Y-66821307D02*
X166427560Y-66821307D01*
X169158810Y-67471307D02*
X168296309Y-67471307D01*
X169158810Y-70571307D02*
X165458810Y-70571307D01*
X169158810Y-70571307D02*
X169158810Y-70021307D01*
%TO.C,C8*%
X129690000Y-88890581D02*
X129690000Y-88609419D01*
X130710000Y-88890581D02*
X130710000Y-88609419D01*
%TO.C,C7*%
X144890000Y-83640581D02*
X144890000Y-83359419D01*
X145910000Y-83640581D02*
X145910000Y-83359419D01*
%TO.C,C3*%
X135398811Y-80055728D02*
X135398811Y-80336890D01*
X136418811Y-80055728D02*
X136418811Y-80336890D01*
%TO.C,C4*%
X135966344Y-83628453D02*
X135966344Y-83105947D01*
X137436344Y-83628453D02*
X137436344Y-83105947D01*
%TO.C,R8*%
X148836311Y-80408567D02*
X148836311Y-79934051D01*
X149881311Y-80408567D02*
X149881311Y-79934051D01*
%TO.C,C1*%
X136418230Y-85386309D02*
X136699392Y-85386309D01*
X136418230Y-86406309D02*
X136699392Y-86406309D01*
D17*
%TO.C,G\u002A\u002A\u002A*%
G36*
X154407230Y-82907881D02*
G01*
X154824136Y-82910701D01*
X154824136Y-83826696D01*
X154406551Y-83829516D01*
X153988965Y-83832337D01*
X153988454Y-83522389D01*
X153988102Y-83436303D01*
X153987372Y-83351502D01*
X153986327Y-83272047D01*
X153985029Y-83201999D01*
X153983544Y-83145421D01*
X153981949Y-83106655D01*
X153980041Y-83054722D01*
X153979995Y-83005088D01*
X153981751Y-82965557D01*
X153983139Y-82952965D01*
X153990323Y-82905062D01*
X154407230Y-82907881D01*
G37*
G36*
X154826946Y-85919888D02*
G01*
X154824136Y-86380705D01*
X154413588Y-86383797D01*
X154304118Y-86384479D01*
X154214434Y-86384691D01*
X154142773Y-86384386D01*
X154087371Y-86383519D01*
X154046465Y-86382046D01*
X154018293Y-86379921D01*
X154001092Y-86377098D01*
X153993097Y-86373534D01*
X153992647Y-86373020D01*
X153990078Y-86358851D01*
X153987851Y-86324614D01*
X153985996Y-86271796D01*
X153984545Y-86201878D01*
X153983528Y-86116344D01*
X153982979Y-86016679D01*
X153982915Y-85911931D01*
X153983576Y-85464710D01*
X154829756Y-85459072D01*
X154826946Y-85919888D01*
G37*
G36*
X153676449Y-83832084D02*
G01*
X153473653Y-83832084D01*
X153384277Y-83832878D01*
X153313313Y-83835640D01*
X153257668Y-83840934D01*
X153214247Y-83849329D01*
X153179956Y-83861387D01*
X153151699Y-83877679D01*
X153130536Y-83894891D01*
X153094268Y-83934399D01*
X153069020Y-83978551D01*
X153052997Y-84032172D01*
X153044405Y-84100088D01*
X153042698Y-84131067D01*
X153038202Y-84241463D01*
X153931169Y-84244219D01*
X154824136Y-84246976D01*
X154824136Y-85044430D01*
X153935083Y-85049818D01*
X153046029Y-85055207D01*
X153046200Y-85162971D01*
X153046849Y-85214420D01*
X153049388Y-85250661D01*
X153054995Y-85278031D01*
X153064849Y-85302862D01*
X153076283Y-85324617D01*
X153120251Y-85383147D01*
X153177126Y-85424878D01*
X153245102Y-85448489D01*
X153246070Y-85448674D01*
X153275819Y-85452248D01*
X153322127Y-85455312D01*
X153380004Y-85457645D01*
X153444455Y-85459032D01*
X153489332Y-85459322D01*
X153676449Y-85459322D01*
X153676449Y-85916682D01*
X153676264Y-86013776D01*
X153675738Y-86103997D01*
X153674908Y-86185112D01*
X153673815Y-86254882D01*
X153672497Y-86311071D01*
X153670994Y-86351439D01*
X153669345Y-86373752D01*
X153668366Y-86377530D01*
X153655389Y-86378307D01*
X153624643Y-86378230D01*
X153579894Y-86377369D01*
X153524907Y-86375787D01*
X153482473Y-86374291D01*
X153309949Y-86360750D01*
X153151967Y-86333041D01*
X153005907Y-86290037D01*
X152869154Y-86230614D01*
X152739089Y-86153645D01*
X152613096Y-86058003D01*
X152495958Y-85949993D01*
X152420893Y-85871422D01*
X152360243Y-85799142D01*
X152310183Y-85727956D01*
X152266890Y-85652672D01*
X152245787Y-85610192D01*
X152220595Y-85554829D01*
X152200460Y-85504145D01*
X152183619Y-85452392D01*
X152168308Y-85393825D01*
X152152764Y-85322694D01*
X152143837Y-85277984D01*
X152138263Y-85248680D01*
X152133601Y-85221302D01*
X152129769Y-85193651D01*
X152126688Y-85163530D01*
X152124274Y-85128739D01*
X152122447Y-85087080D01*
X152121126Y-85036356D01*
X152120228Y-84974368D01*
X152119676Y-84898917D01*
X152119383Y-84807805D01*
X152119272Y-84698835D01*
X152119257Y-84613374D01*
X152119257Y-84074553D01*
X152149951Y-83940885D01*
X152185912Y-83809138D01*
X152230898Y-83692411D01*
X152287795Y-83585066D01*
X152359483Y-83481464D01*
X152425630Y-83401765D01*
X152543677Y-83281229D01*
X152669396Y-83178622D01*
X152804145Y-83093338D01*
X152949279Y-83024774D01*
X153106157Y-82972325D01*
X153276135Y-82935387D01*
X153460571Y-82913357D01*
X153533120Y-82908845D01*
X153676449Y-82901971D01*
X153676449Y-83832084D01*
G37*
G36*
X153705260Y-81139232D02*
G01*
X153863980Y-81139591D01*
X154041784Y-81140108D01*
X154239867Y-81140745D01*
X154253408Y-81140790D01*
X155535380Y-81145020D01*
X155659308Y-81172454D01*
X155790352Y-81207459D01*
X155906609Y-81252107D01*
X156013668Y-81309023D01*
X156117123Y-81380832D01*
X156137847Y-81397191D01*
X156250207Y-81498472D01*
X156348183Y-81609222D01*
X156429824Y-81726744D01*
X156493172Y-81848338D01*
X156524184Y-81930047D01*
X156538243Y-81974892D01*
X156548606Y-82012280D01*
X156556634Y-82048762D01*
X156563692Y-82090886D01*
X156571142Y-82145204D01*
X156574625Y-82172517D01*
X156575862Y-82193092D01*
X156577063Y-82234294D01*
X156578219Y-82295199D01*
X156579325Y-82374880D01*
X156580375Y-82472413D01*
X156581364Y-82586872D01*
X156582286Y-82717331D01*
X156583135Y-82862866D01*
X156583905Y-83022551D01*
X156584591Y-83195461D01*
X156585187Y-83380670D01*
X156585687Y-83577254D01*
X156586085Y-83784285D01*
X156586376Y-84000841D01*
X156586443Y-84069164D01*
X156586648Y-84300868D01*
X156586820Y-84512014D01*
X156586952Y-84703599D01*
X156587031Y-84876619D01*
X156587043Y-85032069D01*
X156586982Y-85170945D01*
X156586835Y-85294244D01*
X156586591Y-85402961D01*
X156586239Y-85498091D01*
X156585769Y-85580631D01*
X156585170Y-85651576D01*
X156584429Y-85711923D01*
X156583538Y-85762667D01*
X156582485Y-85804804D01*
X156581258Y-85839329D01*
X156579848Y-85867239D01*
X156578242Y-85889529D01*
X156576431Y-85907196D01*
X156574404Y-85921235D01*
X156572148Y-85932641D01*
X156569655Y-85942412D01*
X156566912Y-85951541D01*
X156565806Y-85955037D01*
X156528564Y-86045673D01*
X156477689Y-86130531D01*
X156417488Y-86202688D01*
X156403245Y-86216330D01*
X156348371Y-86263372D01*
X156297968Y-86298227D01*
X156243593Y-86325969D01*
X156179470Y-86350736D01*
X156095753Y-86380019D01*
X155643143Y-86381888D01*
X155545355Y-86382174D01*
X155453420Y-86382216D01*
X155369762Y-86382031D01*
X155296805Y-86381634D01*
X155236976Y-86381040D01*
X155192698Y-86380265D01*
X155166395Y-86379323D01*
X155160899Y-86378821D01*
X155131265Y-86373885D01*
X155131265Y-85461809D01*
X155311769Y-85457108D01*
X155388043Y-85454553D01*
X155446605Y-85450771D01*
X155491294Y-85444833D01*
X155525945Y-85435811D01*
X155554399Y-85422777D01*
X155580495Y-85404804D01*
X155601312Y-85387088D01*
X155616585Y-85373562D01*
X155629603Y-85361350D01*
X155640555Y-85348706D01*
X155649628Y-85333880D01*
X155657012Y-85315123D01*
X155662893Y-85290688D01*
X155667461Y-85258826D01*
X155670903Y-85217788D01*
X155673408Y-85165827D01*
X155675163Y-85101192D01*
X155676357Y-85022137D01*
X155677177Y-84926913D01*
X155677813Y-84813770D01*
X155678452Y-84680962D01*
X155678508Y-84669672D01*
X155679035Y-84521182D01*
X155679062Y-84390586D01*
X155678595Y-84278443D01*
X155677642Y-84185310D01*
X155676209Y-84111746D01*
X155674303Y-84058309D01*
X155671931Y-84025559D01*
X155670448Y-84016633D01*
X155642420Y-83951895D01*
X155596040Y-83898241D01*
X155557577Y-83870137D01*
X155537726Y-83858235D01*
X155519933Y-83849538D01*
X155500306Y-83843419D01*
X155474952Y-83839254D01*
X155439979Y-83836417D01*
X155391496Y-83834283D01*
X155325609Y-83832228D01*
X155320699Y-83832084D01*
X155136652Y-83826696D01*
X155136652Y-82910702D01*
X155406063Y-82905313D01*
X155675473Y-82899924D01*
X155674172Y-82716725D01*
X155673434Y-82647712D01*
X155671990Y-82595560D01*
X155669311Y-82555581D01*
X155664866Y-82523083D01*
X155658126Y-82493378D01*
X155648560Y-82461774D01*
X155643745Y-82447315D01*
X155600780Y-82351691D01*
X155540820Y-82265137D01*
X155466839Y-82190856D01*
X155381812Y-82132045D01*
X155325815Y-82105146D01*
X155265969Y-82080917D01*
X152895159Y-82070141D01*
X152826958Y-82045494D01*
X152733757Y-82003222D01*
X152657627Y-81949088D01*
X152596657Y-81881125D01*
X152548935Y-81797365D01*
X152524183Y-81733717D01*
X152505297Y-81644616D01*
X152506253Y-81554642D01*
X152525676Y-81466707D01*
X152562189Y-81383718D01*
X152614416Y-81308583D01*
X152680980Y-81244209D01*
X152760505Y-81193505D01*
X152785336Y-81181969D01*
X152801348Y-81175282D01*
X152817310Y-81169286D01*
X152834419Y-81163949D01*
X152853870Y-81159237D01*
X152876859Y-81155117D01*
X152904582Y-81151554D01*
X152938235Y-81148516D01*
X152979015Y-81145968D01*
X153028113Y-81143878D01*
X153086731Y-81142211D01*
X153156061Y-81140935D01*
X153237300Y-81140015D01*
X153331643Y-81139419D01*
X153440287Y-81139112D01*
X153564427Y-81139061D01*
X153705260Y-81139232D01*
G37*
D16*
%TO.C,C2*%
X133599392Y-85386309D02*
X133318230Y-85386309D01*
X133599392Y-86406309D02*
X133318230Y-86406309D01*
%TO.C,R6*%
X135386311Y-72384051D02*
X135386311Y-72858567D01*
X136431311Y-72384051D02*
X136431311Y-72858567D01*
%TO.C,J4*%
X139078810Y-97556308D02*
X139078811Y-96146308D01*
X139898811Y-93476307D02*
X139898811Y-93626307D01*
X140698811Y-93476308D02*
X139898811Y-93476307D01*
X148238812Y-97556308D02*
X148238811Y-96146308D01*
%TO.C,U4*%
X134558810Y-86861308D02*
X133058810Y-86861308D01*
X134558810Y-86861308D02*
X136058810Y-86861308D01*
X134558810Y-90081308D02*
X133058810Y-90081308D01*
X134558810Y-90081308D02*
X136058810Y-90081308D01*
X137011310Y-90211308D02*
X136531310Y-90211308D01*
X136771310Y-89881308D01*
X137011310Y-90211308D01*
G36*
X137011310Y-90211308D02*
G01*
X136531310Y-90211308D01*
X136771310Y-89881308D01*
X137011310Y-90211308D01*
G37*
%TO.C,SW1*%
X118058811Y-70571309D02*
X118058811Y-70021309D01*
X118921312Y-67471309D02*
X118058811Y-67471309D01*
X120808811Y-66821309D02*
X119027561Y-66821309D01*
X121758811Y-67471309D02*
X120896310Y-67471309D01*
X121758811Y-70571309D02*
X118058811Y-70571309D01*
X121758811Y-70571309D02*
X121758811Y-70021309D01*
%TO.C,R12*%
X142261311Y-79934051D02*
X142261311Y-80408567D01*
X143306311Y-79934051D02*
X143306311Y-80408567D01*
%TO.C,U2*%
X175800000Y-94540000D02*
X175000000Y-94540000D01*
X175800000Y-94540000D02*
X176600000Y-94540000D01*
X175800000Y-97660000D02*
X175000000Y-97660000D01*
X175800000Y-97660000D02*
X176600000Y-97660000D01*
X174500000Y-94615000D02*
X174260000Y-94285000D01*
X174740000Y-94285000D01*
X174500000Y-94615000D01*
G36*
X174500000Y-94615000D02*
G01*
X174260000Y-94285000D01*
X174740000Y-94285000D01*
X174500000Y-94615000D01*
G37*
%TO.C,R9*%
X140001552Y-91888809D02*
X140476068Y-91888809D01*
X140001552Y-92933809D02*
X140476068Y-92933809D01*
%TO.C,R13*%
X130237258Y-90577500D02*
X129762742Y-90577500D01*
X130237258Y-91622500D02*
X129762742Y-91622500D01*
%TO.C,R5*%
X135336311Y-75484049D02*
X135336311Y-75958565D01*
X136381311Y-75484049D02*
X136381311Y-75958565D01*
%TO.C,R2*%
X139871069Y-87073809D02*
X139396553Y-87073809D01*
X139871069Y-88118809D02*
X139396553Y-88118809D01*
%TO.C,C12*%
X176061253Y-98365000D02*
X175538747Y-98365000D01*
X176061253Y-99835000D02*
X175538747Y-99835000D01*
%TO.C,C9*%
X136923810Y-80055727D02*
X136923810Y-80336889D01*
X137943810Y-80055727D02*
X137943810Y-80336889D01*
%TD*%
M02*
