M48
; DRILL file {KiCad 9.0.4} date 2025-09-10T21:24:42+0800
; FORMAT={-:-/ absolute / inch / decimal}
; #@! TF.CreationDate,2025-09-10T21:24:42+08:00
; #@! TF.GenerationSoftware,Kicad,Pcbnew,9.0.4
; #@! TF.FileFunction,Plated,1,2,PTH
FMAT,2
INCH
; #@! TA.AperFunction,Plated,PTH,ViaDrill
T1C0.0118
; #@! TA.AperFunction,Plated,PTH,ComponentDrill
T2C0.0197
; #@! TA.AperFunction,Plated,PTH,ViaDrill
T3C0.0236
; #@! TA.AperFunction,Plated,PTH,ComponentDrill
T4C0.0394
; #@! TA.AperFunction,Plated,PTH,ComponentDrill
T5C0.1260
; #@! TA.AperFunction,Plated,PTH,ComponentDrill
T6C0.3543
%
G90
G05
T1
X4.8311Y-2.7351
X5.1411Y-3.4213
X5.1831Y-3.5866
X5.1929Y-3.5512
X5.2385Y-3.4083
X5.272Y-3.4556
X5.2956Y-2.6682
X5.3106Y-2.9467
X5.3114Y-2.8217
X5.3433Y-3.4831
X5.3566Y-3.2154
X5.3792Y-3.3612
X5.3921Y-2.9378
X5.4076Y-3.2191
X5.4275Y-3.4989
X5.4275Y-3.5225
X5.4388Y-3.2199
X5.4482Y-2.9813
X5.4694Y-3.3665
X5.4728Y-3.2144
X5.4833Y-3.483
X5.5023Y-3.4142
X5.5259Y-2.8315
X5.5259Y-2.9083
X5.5261Y-3.0253
X5.5309Y-3.1544
X5.5377Y-2.7626
X5.5417Y-3.8119
X5.5417Y-3.8709
X5.5417Y-3.9331
X5.5555Y-3.0284
X5.585Y-3.0934
X5.585Y-3.5067
X5.6066Y-3.6445
X5.6086Y-2.7489
X5.6086Y-2.8315
X5.6086Y-2.9064
X5.6253Y-3.1652
X5.6303Y-3.8119
X5.6303Y-3.8709
X5.6303Y-3.9331
X5.648Y-3.0934
X5.65Y-3.4064
X5.6633Y-3.6249
X5.6854Y-2.7469
X5.6854Y-2.8296
X5.6876Y-2.9064
X5.6992Y-3.8119
X5.6992Y-3.8709
X5.6992Y-3.9331
X5.7021Y-3.6249
X5.7116Y-3.3616
X5.7251Y-3.6428
X5.7673Y-3.9331
X5.7681Y-2.9064
X5.7681Y-3.8119
X5.7681Y-3.8709
X5.77Y-2.7508
X5.772Y-2.8335
X5.7795Y-3.4942
X5.8074Y-3.4969
X5.8268Y-3.2863
X5.835Y-2.9949
X5.8448Y-2.9634
X5.8468Y-2.7272
X5.8583Y-3.2874
X5.9094Y-3.3616
X5.9291Y-3.0512
X5.9449Y-2.7047
X5.9531Y-2.6682
X5.9724Y-3.3228
X6.0748Y-2.7402
X6.0748Y-2.7795
X6.0748Y-2.8189
X6.0748Y-2.8583
X6.0748Y-2.8976
X6.0748Y-2.937
X6.0748Y-2.9764
X6.0748Y-3.0157
X6.0748Y-3.0551
X6.0748Y-3.0945
X6.0748Y-3.1339
X6.0748Y-3.1732
X6.0748Y-3.2126
X6.0748Y-3.252
X6.0748Y-3.2913
X6.126Y-2.7402
X6.126Y-2.7795
X6.126Y-2.8189
X6.126Y-2.8583
X6.126Y-2.8976
X6.126Y-2.937
X6.126Y-2.9764
X6.126Y-3.0157
X6.126Y-3.0551
X6.126Y-3.0945
X6.126Y-3.1339
X6.126Y-3.1732
X6.126Y-3.2126
X6.126Y-3.252
X6.126Y-3.2913
X6.126Y-3.3307
X6.1654Y-2.7402
X6.1654Y-2.7795
X6.1654Y-2.8189
X6.1654Y-2.8583
X6.1654Y-2.8976
X6.1654Y-2.937
X6.1654Y-2.9764
X6.1654Y-3.0157
X6.1654Y-3.0551
X6.1654Y-3.0945
X6.1654Y-3.1339
X6.1654Y-3.1732
X6.1654Y-3.2126
X6.1654Y-3.252
X6.1654Y-3.2913
X6.1654Y-3.3307
X6.1654Y-3.3701
X6.2047Y-2.7402
X6.2047Y-2.7795
X6.2047Y-2.8189
X6.2047Y-2.8583
X6.2047Y-2.8976
X6.2047Y-2.937
X6.2047Y-2.9764
X6.2047Y-3.0157
X6.2047Y-3.0551
X6.2047Y-3.0945
X6.2047Y-3.1339
X6.2047Y-3.1732
X6.2047Y-3.2126
X6.2047Y-3.252
X6.2047Y-3.2913
X6.2047Y-3.3307
X6.2047Y-3.3701
X6.2323Y-3.6024
X6.2441Y-2.7402
X6.2441Y-2.7795
X6.2441Y-2.8189
X6.2441Y-2.8583
X6.2441Y-2.8976
X6.2441Y-2.937
X6.2441Y-2.9764
X6.2441Y-3.0157
X6.2441Y-3.3701
X6.2441Y-3.4094
X6.2835Y-2.7402
X6.2835Y-2.7795
X6.2835Y-2.8189
X6.2835Y-2.8583
X6.2835Y-2.8976
X6.2835Y-2.937
X6.2835Y-2.9764
X6.3228Y-2.7402
X6.3228Y-2.7795
X6.3228Y-2.8189
X6.3228Y-2.8583
X6.3228Y-2.8976
X6.3228Y-2.937
X6.3228Y-3.5276
X6.3228Y-3.5669
X6.3228Y-3.6063
X6.3228Y-3.6457
X6.3622Y-2.7402
X6.3622Y-2.7795
X6.3622Y-2.8189
X6.3622Y-2.8583
X6.3622Y-2.8976
X6.3622Y-3.5276
X6.3622Y-3.5669
X6.3622Y-3.6063
X6.3622Y-3.6457
X6.4016Y-2.7402
X6.4016Y-2.7795
X6.4016Y-2.8189
X6.4016Y-2.8583
X6.4016Y-3.5669
X6.4016Y-3.6063
X6.4016Y-3.6457
X6.4409Y-2.7402
X6.4409Y-2.7795
X6.4409Y-2.8189
X6.4409Y-2.8583
X6.4409Y-3.5669
X6.4409Y-3.6063
X6.4409Y-3.6457
X6.4803Y-2.7795
X6.4803Y-2.8189
X6.4803Y-3.6063
X6.4803Y-3.6457
X6.5197Y-2.7795
X6.5197Y-2.8189
X6.5197Y-3.6063
X6.5197Y-3.6457
X6.5197Y-3.685
X6.5197Y-3.7244
X6.5197Y-3.7638
X6.5197Y-3.8031
X6.5197Y-3.8622
X6.5591Y-2.8189
X6.5591Y-3.6063
X6.5591Y-3.6457
X6.5591Y-3.685
X6.5591Y-3.8622
X6.5984Y-3.6063
X6.5984Y-3.6457
X6.5984Y-3.685
X6.5984Y-3.8622
X6.6024Y-2.8189
X6.6378Y-3.8622
X6.6378Y-3.6063
X6.6378Y-3.6457
X6.6378Y-3.685
X6.6417Y-2.8189
X6.6772Y-2.7795
X6.6772Y-3.6063
X6.6772Y-3.6457
X6.6772Y-3.685
X6.6772Y-3.8622
X6.6811Y-2.8189
X6.7165Y-3.6063
X6.7165Y-3.6457
X6.7165Y-3.685
X6.7165Y-3.8622
X6.7205Y-2.8189
X6.7205Y-2.8583
X6.7559Y-2.7795
X6.7559Y-2.8189
X6.7559Y-2.8583
X6.7559Y-3.5669
X6.7559Y-3.6063
X6.7559Y-3.6457
X6.7559Y-3.685
X6.7559Y-3.8622
X6.7953Y-2.7008
X6.7953Y-2.7402
X6.7953Y-2.7795
X6.7953Y-2.8189
X6.7953Y-2.8583
X6.7953Y-2.8976
X6.7953Y-3.5669
X6.7953Y-3.6063
X6.7953Y-3.6457
X6.7953Y-3.685
X6.8346Y-3.9174
X6.8346Y-2.7008
X6.8346Y-2.7402
X6.8346Y-2.7795
X6.8346Y-2.8189
X6.8346Y-2.8583
X6.8346Y-2.8976
X6.8346Y-3.5276
X6.8346Y-3.5669
X6.8346Y-3.6063
X6.8346Y-3.6457
X6.8346Y-3.685
X6.874Y-2.7008
X6.874Y-2.7402
X6.874Y-2.7795
X6.874Y-2.8189
X6.874Y-2.8583
X6.874Y-2.8976
X6.874Y-2.937
X6.874Y-3.4882
X6.874Y-3.5276
X6.874Y-3.5669
X6.874Y-3.6063
X6.874Y-3.6457
X6.874Y-3.685
X6.9134Y-2.7008
X6.9134Y-2.7402
X6.9134Y-2.7795
X6.9134Y-2.8189
X6.9134Y-2.8583
X6.9134Y-2.8976
X6.9134Y-2.937
X6.9134Y-3.4488
X6.9134Y-3.4882
X6.9134Y-3.5276
X6.9134Y-3.5669
X6.9134Y-3.6063
X6.9134Y-3.6457
X6.9134Y-3.685
X6.9528Y-3.4488
X6.9528Y-3.4882
X6.9528Y-3.5276
X6.9528Y-3.5669
X6.9528Y-3.6063
X6.9528Y-3.6457
X6.9528Y-3.685
X6.9921Y-3.5669
X6.9921Y-3.6063
X6.9921Y-3.6457
X6.9921Y-3.685
X7.0315Y-3.5669
X7.0315Y-3.6063
X7.0315Y-3.6457
X7.0315Y-3.685
X7.0866Y-3.8189
X7.0866Y-3.8622
X7.0941Y-3.5666
X7.1303Y-3.6027
X7.4331Y-3.5669
X7.5394Y-2.9921
X7.5394Y-3.0315
X7.5394Y-3.0709
X7.5394Y-3.1102
X7.5394Y-3.1496
X7.5394Y-3.189
X7.5394Y-3.252
X7.5394Y-3.2913
X7.5394Y-3.3307
X7.5394Y-3.3701
X7.5394Y-3.4094
X7.5394Y-3.4488
X7.5394Y-3.4882
X7.5433Y-2.7008
X7.5433Y-2.7402
X7.5433Y-2.7795
X7.5433Y-2.8189
X7.5433Y-2.8583
X7.5433Y-2.8976
X7.5433Y-2.937
X7.5827Y-2.7008
X7.5827Y-2.7402
X7.5827Y-2.7795
X7.5827Y-2.8189
X7.5827Y-2.8583
X7.5827Y-2.8976
X7.5827Y-2.937
X7.5827Y-2.9764
X7.5827Y-3.2913
X7.5827Y-3.3307
X7.5827Y-3.3701
X7.5827Y-3.4094
X7.5827Y-3.4488
X7.5827Y-3.4882
X7.5827Y-3.5276
X7.622Y-2.7008
X7.622Y-2.7402
X7.622Y-2.7795
X7.622Y-2.8189
X7.622Y-2.8583
X7.622Y-2.8976
X7.622Y-3.3701
X7.622Y-3.4094
X7.622Y-3.4488
X7.622Y-3.4882
X7.622Y-3.5276
X7.6614Y-2.7795
X7.6614Y-2.8189
X7.6614Y-3.4094
X7.6614Y-3.4488
X7.6614Y-3.4882
X7.6614Y-3.5276
X7.7008Y-2.7795
X7.7008Y-2.8189
X7.7008Y-3.4488
X7.7008Y-3.4882
X7.7008Y-3.5276
X7.7402Y-2.7795
X7.7402Y-3.4488
X7.7402Y-3.4882
X7.7402Y-3.5276
X7.7795Y-2.7795
X7.7795Y-3.4882
X7.7795Y-3.5276
X7.8189Y-3.4882
X7.8189Y-3.5276
X7.8583Y-3.4882
X7.8583Y-3.5276
X7.8976Y-3.4882
X7.8976Y-3.5276
X7.937Y-3.4882
X7.937Y-3.5276
X7.9764Y-3.4882
X7.9764Y-3.5276
X8.0157Y-2.7795
X8.0157Y-3.4882
X8.0157Y-3.5276
X8.0551Y-2.7795
X8.0551Y-3.4882
X8.0551Y-3.5276
X8.0945Y-2.7795
X8.0945Y-3.4488
X8.0945Y-3.4882
X8.0945Y-3.5276
X8.1339Y-2.7795
X8.1339Y-2.8189
X8.1339Y-3.4094
X8.1339Y-3.4488
X8.1339Y-3.4882
X8.1339Y-3.5276
X8.1732Y-2.7008
X8.1732Y-2.7402
X8.1732Y-2.7795
X8.1732Y-2.8189
X8.1732Y-2.8583
X8.1732Y-3.3701
X8.1732Y-3.4094
X8.1732Y-3.4488
X8.1732Y-3.4882
X8.1732Y-3.5276
X8.2126Y-2.7008
X8.2126Y-2.7402
X8.2126Y-2.7795
X8.2126Y-2.8189
X8.2126Y-2.8583
X8.2126Y-2.8976
X8.2126Y-3.3307
X8.2126Y-3.3701
X8.2126Y-3.4094
X8.2126Y-3.4488
X8.2126Y-3.4882
X8.2126Y-3.5276
T2
X5.1303Y-3.7784
X5.1579Y-3.7116
X5.1579Y-3.8452
X5.2248Y-3.6839
X5.2248Y-3.8729
X5.2916Y-3.7116
X5.2916Y-3.8452
X5.3192Y-3.7784
X5.9885Y-3.7804
X6.0162Y-3.7136
X6.0162Y-3.8472
X6.083Y-3.6859
X6.083Y-3.8749
X6.1498Y-3.7136
X6.1498Y-3.8472
X6.1775Y-3.7804
T3
X7.0591Y-2.7677
X7.0591Y-2.8465
X7.0591Y-2.9252
X7.0591Y-3.0039
X7.0591Y-3.2205
X7.0591Y-3.2992
X7.0591Y-3.378
X7.0591Y-3.4567
X7.1378Y-2.7677
X7.1378Y-2.8465
X7.1378Y-3.0039
X7.1378Y-3.2205
X7.1378Y-3.2992
X7.1378Y-3.4567
X7.1378Y-2.9252
X7.1378Y-3.378
X7.2165Y-2.9252
X7.2165Y-3.2992
X7.2165Y-3.378
X7.2165Y-2.7677
X7.2165Y-2.8465
X7.2165Y-3.0039
X7.2165Y-3.2205
X7.2165Y-3.4567
T4
X4.4629Y-3.2154
X4.522Y-3.3926
X4.5417Y-3.0284
X4.7189Y-2.9497
X4.7189Y-3.4831
X4.9059Y-3.0284
X4.9059Y-3.3926
X4.9748Y-3.2154
X6.333Y-3.2154
X6.3921Y-3.3926
X6.4118Y-3.0284
X6.5889Y-2.9497
X6.5889Y-3.4831
X6.7759Y-3.0284
X6.7759Y-3.3926
X6.8448Y-3.2154
X7.6575Y-3.126
X7.7264Y-2.9488
X7.7264Y-3.313
X7.9134Y-2.8583
X7.9134Y-3.3917
X8.0906Y-3.313
X8.1102Y-2.9488
X8.1693Y-3.126
T5
X5.2248Y-3.7784
X6.083Y-3.7804
T6
G00X4.7189Y-3.2351
M15
G01X4.7189Y-3.1957
M16
G05
G00X6.5889Y-3.2351
M15
G01X6.5889Y-3.1957
M16
G05
G00X7.9134Y-3.1063
M15
G01X7.9134Y-3.1457
M16
G05
M30
