%TF.GenerationSoftware,KiCad,Pcbnew,9.0.1*%
%TF.CreationDate,2025-08-30T09:45:20+10:00*%
%TF.ProjectId,smart_shunt_v0.0.1,736d6172-745f-4736-9875-6e745f76302e,v0.0.2*%
%TF.SameCoordinates,Original*%
%TF.FileFunction,Legend,Top*%
%TF.FilePolarity,Positive*%
%FSLAX46Y46*%
G04 Gerber Fmt 4.6, Leading zero omitted, Abs format (unit mm)*
G04 Created by KiCad (PCBNEW 9.0.1) date 2025-08-30 09:45:20*
%MOMM*%
%LPD*%
G01*
G04 APERTURE LIST*
G04 Aperture macros list*
%AMRoundRect*
0 Rectangle with rounded corners*
0 $1 Rounding radius*
0 $2 $3 $4 $5 $6 $7 $8 $9 X,Y pos of 4 corners*
0 Add a 4 corners polygon primitive as box body*
4,1,4,$2,$3,$4,$5,$6,$7,$8,$9,$2,$3,0*
0 Add four circle primitives for the rounded corners*
1,1,$1+$1,$2,$3*
1,1,$1+$1,$4,$5*
1,1,$1+$1,$6,$7*
1,1,$1+$1,$8,$9*
0 Add four rect primitives between the rounded corners*
20,1,$1+$1,$2,$3,$4,$5,0*
20,1,$1+$1,$4,$5,$6,$7,0*
20,1,$1+$1,$6,$7,$8,$9,0*
20,1,$1+$1,$8,$9,$2,$3,0*%
%AMFreePoly0*
4,1,6,0.725000,-0.725000,-0.725000,-0.725000,-0.725000,0.125000,-0.125000,0.725000,0.725000,0.725000,0.725000,-0.725000,0.725000,-0.725000,$1*%
G04 Aperture macros list end*
%ADD10C,0.100000*%
%ADD11C,0.080000*%
%ADD12C,0.090000*%
%ADD13C,0.150000*%
%ADD14C,0.120000*%
%ADD15C,0.000000*%
%ADD16C,2.000000*%
%ADD17O,17.000000X17.500000*%
%ADD18RoundRect,0.112500X-0.187500X-0.112500X0.187500X-0.112500X0.187500X0.112500X-0.187500X0.112500X0*%
%ADD19R,1.400000X0.900000*%
%ADD20C,0.750000*%
%ADD21RoundRect,0.250000X-0.840000X-0.750000X0.840000X-0.750000X0.840000X0.750000X-0.840000X0.750000X0*%
%ADD22RoundRect,0.150000X-0.150000X-0.425000X0.150000X-0.425000X0.150000X0.425000X-0.150000X0.425000X0*%
%ADD23RoundRect,0.075000X-0.075000X-0.500000X0.075000X-0.500000X0.075000X0.500000X-0.075000X0.500000X0*%
%ADD24C,0.650000*%
%ADD25R,0.800000X0.400000*%
%ADD26R,0.400000X0.800000*%
%ADD27R,1.450000X1.450000*%
%ADD28FreePoly0,0.000000*%
%ADD29R,0.700000X0.700000*%
%ADD30RoundRect,0.225000X0.250000X-0.225000X0.250000X0.225000X-0.250000X0.225000X-0.250000X-0.225000X0*%
%ADD31RoundRect,0.200000X0.200000X0.275000X-0.200000X0.275000X-0.200000X-0.275000X0.200000X-0.275000X0*%
%ADD32RoundRect,0.250000X1.600000X-0.300000X1.600000X0.300000X-1.600000X0.300000X-1.600000X-0.300000X0*%
%ADD33RoundRect,0.200000X-0.275000X0.200000X-0.275000X-0.200000X0.275000X-0.200000X0.275000X0.200000X0*%
%ADD34RoundRect,0.147500X0.147500X0.172500X-0.147500X0.172500X-0.147500X-0.172500X0.147500X-0.172500X0*%
%ADD35RoundRect,0.225000X-0.250000X0.225000X-0.250000X-0.225000X0.250000X-0.225000X0.250000X0.225000X0*%
%ADD36RoundRect,0.200000X0.275000X-0.200000X0.275000X0.200000X-0.275000X0.200000X-0.275000X-0.200000X0*%
%ADD37C,0.800000*%
%ADD38C,6.400000*%
%ADD39RoundRect,0.150000X-0.512500X-0.150000X0.512500X-0.150000X0.512500X0.150000X-0.512500X0.150000X0*%
%ADD40RoundRect,0.250000X0.475000X-0.250000X0.475000X0.250000X-0.475000X0.250000X-0.475000X-0.250000X0*%
%ADD41RoundRect,0.225000X-0.225000X-0.250000X0.225000X-0.250000X0.225000X0.250000X-0.225000X0.250000X0*%
%ADD42RoundRect,0.225000X0.225000X0.250000X-0.225000X0.250000X-0.225000X-0.250000X0.225000X-0.250000X0*%
%ADD43RoundRect,0.075000X0.650000X0.075000X-0.650000X0.075000X-0.650000X-0.075000X0.650000X-0.075000X0*%
%ADD44RoundRect,0.200000X-0.200000X-0.275000X0.200000X-0.275000X0.200000X0.275000X-0.200000X0.275000X0*%
G04 APERTURE END LIST*
D10*
G36*
X154387276Y-100239929D02*
G01*
X154420811Y-100273465D01*
X154459523Y-100350888D01*
X154459523Y-100470138D01*
X154420811Y-100547561D01*
X154384665Y-100583708D01*
X154307244Y-100622419D01*
X153988095Y-100622419D01*
X153988095Y-100198609D01*
X154263315Y-100198609D01*
X154387276Y-100239929D01*
G37*
G36*
X154337048Y-99761130D02*
G01*
X154373192Y-99797275D01*
X154411904Y-99874698D01*
X154411904Y-99946329D01*
X154373192Y-100023752D01*
X154337048Y-100059897D01*
X154259625Y-100098609D01*
X153988095Y-100098609D01*
X153988095Y-99722419D01*
X154259625Y-99722419D01*
X154337048Y-99761130D01*
G37*
G36*
X150678247Y-100336704D02*
G01*
X150340799Y-100336704D01*
X150509523Y-99830532D01*
X150678247Y-100336704D01*
G37*
G36*
X155297295Y-100336704D02*
G01*
X154959847Y-100336704D01*
X155128571Y-99830532D01*
X155297295Y-100336704D01*
G37*
G36*
X158238258Y-100833530D02*
G01*
X150015205Y-100833530D01*
X150015205Y-100675963D01*
X150126316Y-100675963D01*
X150143430Y-100710192D01*
X150179734Y-100722293D01*
X150213963Y-100705179D01*
X150223624Y-100688230D01*
X150307466Y-100436704D01*
X150711580Y-100436704D01*
X150795422Y-100688230D01*
X150805083Y-100705178D01*
X150839312Y-100722293D01*
X150875616Y-100710191D01*
X150892730Y-100675963D01*
X150890290Y-100656607D01*
X150562227Y-99672419D01*
X151126190Y-99672419D01*
X151126190Y-100481942D01*
X151126678Y-100484398D01*
X151126316Y-100485487D01*
X151128432Y-100493214D01*
X151129996Y-100501076D01*
X151130807Y-100501887D01*
X151131469Y-100504303D01*
X151179087Y-100599540D01*
X151183998Y-100605868D01*
X151188453Y-100612535D01*
X151236072Y-100660155D01*
X151242738Y-100664609D01*
X151249067Y-100669521D01*
X151344305Y-100717140D01*
X151346720Y-100717801D01*
X151347532Y-100718613D01*
X151355393Y-100720176D01*
X151363121Y-100722293D01*
X151364209Y-100721930D01*
X151366666Y-100722419D01*
X151557142Y-100722419D01*
X151559598Y-100721930D01*
X151560687Y-100722293D01*
X151568414Y-100720176D01*
X151576276Y-100718613D01*
X151577087Y-100717801D01*
X151579503Y-100717140D01*
X151674740Y-100669522D01*
X151681067Y-100664611D01*
X151687736Y-100660155D01*
X151735355Y-100612535D01*
X151739808Y-100605869D01*
X151744720Y-100599541D01*
X151792339Y-100504303D01*
X151793000Y-100501887D01*
X151793812Y-100501076D01*
X151795375Y-100493214D01*
X151797492Y-100485487D01*
X151797129Y-100484398D01*
X151797618Y-100481942D01*
X151797618Y-99682122D01*
X152079522Y-99682122D01*
X152086968Y-99700154D01*
X152401811Y-100172419D01*
X152086968Y-100644684D01*
X152079522Y-100662716D01*
X152087027Y-100700241D01*
X152118868Y-100721468D01*
X152156393Y-100713963D01*
X152170174Y-100700154D01*
X152461903Y-100262558D01*
X152753634Y-100700154D01*
X152767415Y-100713963D01*
X152804940Y-100721468D01*
X152836781Y-100700241D01*
X152844286Y-100662716D01*
X152836839Y-100644684D01*
X152521996Y-100172419D01*
X152836839Y-99700154D01*
X152844286Y-99682122D01*
X152842345Y-99672419D01*
X153888095Y-99672419D01*
X153888095Y-100672419D01*
X153891901Y-100691553D01*
X153918961Y-100718613D01*
X153938095Y-100722419D01*
X154319047Y-100722419D01*
X154321503Y-100721930D01*
X154322592Y-100722293D01*
X154330319Y-100720176D01*
X154338181Y-100718613D01*
X154338992Y-100717801D01*
X154341408Y-100717140D01*
X154423763Y-100675963D01*
X154745364Y-100675963D01*
X154762478Y-100710192D01*
X154798782Y-100722293D01*
X154833011Y-100705179D01*
X154842672Y-100688230D01*
X154926514Y-100436704D01*
X155330628Y-100436704D01*
X155414470Y-100688230D01*
X155424131Y-100705178D01*
X155458360Y-100722293D01*
X155494664Y-100710191D01*
X155511778Y-100675963D01*
X155509338Y-100656607D01*
X155176005Y-99656608D01*
X155174111Y-99653285D01*
X155606187Y-99653285D01*
X155606187Y-99691553D01*
X155633247Y-99718613D01*
X155652381Y-99722419D01*
X155888095Y-99722419D01*
X155888095Y-100672419D01*
X155891901Y-100691553D01*
X155918961Y-100718613D01*
X155957229Y-100718613D01*
X155984289Y-100691553D01*
X155988095Y-100672419D01*
X155988095Y-99722419D01*
X156223809Y-99722419D01*
X156242943Y-99718613D01*
X156270003Y-99691553D01*
X156270003Y-99653285D01*
X156368092Y-99653285D01*
X156368092Y-99691553D01*
X156395152Y-99718613D01*
X156414286Y-99722419D01*
X156650000Y-99722419D01*
X156650000Y-100672419D01*
X156653806Y-100691553D01*
X156680866Y-100718613D01*
X156719134Y-100718613D01*
X156746194Y-100691553D01*
X156750000Y-100672419D01*
X156750000Y-100272332D01*
X157272854Y-100272332D01*
X157272854Y-100310600D01*
X157299914Y-100337660D01*
X157319048Y-100341466D01*
X158080953Y-100341466D01*
X158100087Y-100337660D01*
X158127147Y-100310600D01*
X158127147Y-100272332D01*
X158100087Y-100245272D01*
X158080953Y-100241466D01*
X157319048Y-100241466D01*
X157299914Y-100245272D01*
X157272854Y-100272332D01*
X156750000Y-100272332D01*
X156750000Y-99722419D01*
X156985714Y-99722419D01*
X157004848Y-99718613D01*
X157031908Y-99691553D01*
X157031908Y-99653285D01*
X157004848Y-99626225D01*
X156985714Y-99622419D01*
X156414286Y-99622419D01*
X156395152Y-99626225D01*
X156368092Y-99653285D01*
X156270003Y-99653285D01*
X156242943Y-99626225D01*
X156223809Y-99622419D01*
X155652381Y-99622419D01*
X155633247Y-99626225D01*
X155606187Y-99653285D01*
X155174111Y-99653285D01*
X155166344Y-99639659D01*
X155163001Y-99637987D01*
X155161331Y-99634647D01*
X155146294Y-99629634D01*
X155132115Y-99622545D01*
X155128570Y-99623726D01*
X155125027Y-99622545D01*
X155110853Y-99629632D01*
X155095811Y-99634646D01*
X155094139Y-99637989D01*
X155090798Y-99639660D01*
X155081137Y-99656608D01*
X154747804Y-100656608D01*
X154745364Y-100675963D01*
X154423763Y-100675963D01*
X154436645Y-100669522D01*
X154442972Y-100664611D01*
X154449641Y-100660155D01*
X154497260Y-100612535D01*
X154501713Y-100605869D01*
X154506625Y-100599541D01*
X154554244Y-100504303D01*
X154554905Y-100501887D01*
X154555717Y-100501076D01*
X154557280Y-100493214D01*
X154559397Y-100485487D01*
X154559034Y-100484398D01*
X154559523Y-100481942D01*
X154559523Y-100339085D01*
X154559034Y-100336628D01*
X154559397Y-100335540D01*
X154557280Y-100327812D01*
X154555717Y-100319951D01*
X154554905Y-100319139D01*
X154554244Y-100316724D01*
X154506625Y-100221486D01*
X154501713Y-100215157D01*
X154497259Y-100208491D01*
X154449640Y-100160873D01*
X154447557Y-100159481D01*
X154447044Y-100158455D01*
X154440083Y-100154487D01*
X154433419Y-100150034D01*
X154432271Y-100150034D01*
X154430096Y-100148794D01*
X154398935Y-100138407D01*
X154402021Y-100136345D01*
X154449640Y-100088727D01*
X154454094Y-100082060D01*
X154459006Y-100075732D01*
X154506625Y-99980494D01*
X154507286Y-99978078D01*
X154508098Y-99977267D01*
X154509661Y-99969405D01*
X154511778Y-99961678D01*
X154511415Y-99960589D01*
X154511904Y-99958133D01*
X154511904Y-99862895D01*
X154511415Y-99860438D01*
X154511778Y-99859350D01*
X154509661Y-99851622D01*
X154508098Y-99843761D01*
X154507286Y-99842949D01*
X154506625Y-99840534D01*
X154459006Y-99745296D01*
X154454094Y-99738967D01*
X154449640Y-99732301D01*
X154402021Y-99684683D01*
X154395359Y-99680231D01*
X154389026Y-99675316D01*
X154293789Y-99627698D01*
X154291373Y-99627036D01*
X154290562Y-99626225D01*
X154282700Y-99624661D01*
X154274973Y-99622545D01*
X154273884Y-99622907D01*
X154271428Y-99622419D01*
X153938095Y-99622419D01*
X153918961Y-99626225D01*
X153891901Y-99653285D01*
X153888095Y-99672419D01*
X152842345Y-99672419D01*
X152836781Y-99644597D01*
X152804940Y-99623370D01*
X152767415Y-99630875D01*
X152753634Y-99644684D01*
X152461903Y-100082279D01*
X152170174Y-99644684D01*
X152156393Y-99630875D01*
X152118868Y-99623370D01*
X152087027Y-99644597D01*
X152079522Y-99682122D01*
X151797618Y-99682122D01*
X151797618Y-99672419D01*
X151793812Y-99653285D01*
X151766752Y-99626225D01*
X151728484Y-99626225D01*
X151701424Y-99653285D01*
X151697618Y-99672419D01*
X151697618Y-100470138D01*
X151658906Y-100547561D01*
X151622760Y-100583708D01*
X151545339Y-100622419D01*
X151378470Y-100622419D01*
X151301047Y-100583708D01*
X151264901Y-100547561D01*
X151226190Y-100470139D01*
X151226190Y-99672419D01*
X151222384Y-99653285D01*
X151195324Y-99626225D01*
X151157056Y-99626225D01*
X151129996Y-99653285D01*
X151126190Y-99672419D01*
X150562227Y-99672419D01*
X150556957Y-99656608D01*
X150547296Y-99639659D01*
X150543953Y-99637987D01*
X150542283Y-99634647D01*
X150527246Y-99629634D01*
X150513067Y-99622545D01*
X150509522Y-99623726D01*
X150505979Y-99622545D01*
X150491805Y-99629632D01*
X150476763Y-99634646D01*
X150475091Y-99637989D01*
X150471750Y-99639660D01*
X150462089Y-99656608D01*
X150128756Y-100656608D01*
X150126316Y-100675963D01*
X150015205Y-100675963D01*
X150015205Y-99511308D01*
X158238258Y-99511308D01*
X158238258Y-100833530D01*
G37*
G36*
X133387276Y-100239929D02*
G01*
X133420811Y-100273465D01*
X133459523Y-100350888D01*
X133459523Y-100470138D01*
X133420811Y-100547561D01*
X133384665Y-100583708D01*
X133307244Y-100622419D01*
X132988095Y-100622419D01*
X132988095Y-100198609D01*
X133263315Y-100198609D01*
X133387276Y-100239929D01*
G37*
G36*
X133337048Y-99761130D02*
G01*
X133373192Y-99797275D01*
X133411904Y-99874698D01*
X133411904Y-99946329D01*
X133373192Y-100023752D01*
X133337048Y-100059897D01*
X133259625Y-100098609D01*
X132988095Y-100098609D01*
X132988095Y-99722419D01*
X133259625Y-99722419D01*
X133337048Y-99761130D01*
G37*
G36*
X130678247Y-100336704D02*
G01*
X130340799Y-100336704D01*
X130509523Y-99830532D01*
X130678247Y-100336704D01*
G37*
G36*
X134297295Y-100336704D02*
G01*
X133959847Y-100336704D01*
X134128571Y-99830532D01*
X134297295Y-100336704D01*
G37*
G36*
X131622762Y-99761130D02*
G01*
X131658906Y-99797275D01*
X131697618Y-99874698D01*
X131697618Y-99993948D01*
X131658906Y-100071371D01*
X131622762Y-100107516D01*
X131545339Y-100146228D01*
X131226190Y-100146228D01*
X131226190Y-99722419D01*
X131545339Y-99722419D01*
X131622762Y-99761130D01*
G37*
G36*
X137238258Y-100833530D02*
G01*
X129110317Y-100833530D01*
X129110317Y-100100990D01*
X129221428Y-100100990D01*
X129221428Y-100243847D01*
X129222623Y-100249856D01*
X129222921Y-100255974D01*
X129270540Y-100446450D01*
X129272879Y-100451402D01*
X129274326Y-100456684D01*
X129321944Y-100551921D01*
X129326855Y-100558249D01*
X129331310Y-100564916D01*
X129426549Y-100660155D01*
X129428630Y-100661545D01*
X129429144Y-100662573D01*
X129436109Y-100666543D01*
X129442770Y-100670994D01*
X129443918Y-100670994D01*
X129446093Y-100672234D01*
X129588949Y-100719853D01*
X129596899Y-100720855D01*
X129604761Y-100722419D01*
X129699999Y-100722419D01*
X129707861Y-100720855D01*
X129715810Y-100719853D01*
X129847480Y-100675963D01*
X130126316Y-100675963D01*
X130143430Y-100710192D01*
X130179734Y-100722293D01*
X130213963Y-100705179D01*
X130223624Y-100688230D01*
X130307466Y-100436704D01*
X130711580Y-100436704D01*
X130795422Y-100688230D01*
X130805083Y-100705178D01*
X130839312Y-100722293D01*
X130875616Y-100710191D01*
X130892730Y-100675963D01*
X130890290Y-100656607D01*
X130562227Y-99672419D01*
X131126190Y-99672419D01*
X131126190Y-100672419D01*
X131129996Y-100691553D01*
X131157056Y-100718613D01*
X131195324Y-100718613D01*
X131222384Y-100691553D01*
X131226190Y-100672419D01*
X131226190Y-100246228D01*
X131388252Y-100246228D01*
X131706656Y-100701092D01*
X131720747Y-100714585D01*
X131758433Y-100721235D01*
X131789784Y-100699290D01*
X131796434Y-100661604D01*
X131788580Y-100643746D01*
X131510318Y-100246228D01*
X131557142Y-100246228D01*
X131559598Y-100245739D01*
X131560687Y-100246102D01*
X131568414Y-100243985D01*
X131576276Y-100242422D01*
X131577087Y-100241610D01*
X131579503Y-100240949D01*
X131674740Y-100193331D01*
X131681073Y-100188415D01*
X131687735Y-100183964D01*
X131735354Y-100136346D01*
X131739808Y-100129679D01*
X131744720Y-100123351D01*
X131792339Y-100028113D01*
X131793000Y-100025697D01*
X131793812Y-100024886D01*
X131795375Y-100017024D01*
X131797492Y-100009297D01*
X131797129Y-100008208D01*
X131797618Y-100005752D01*
X131797618Y-99862895D01*
X131797129Y-99860438D01*
X131797492Y-99859350D01*
X131795375Y-99851622D01*
X131793812Y-99843761D01*
X131793000Y-99842949D01*
X131792339Y-99840534D01*
X131744720Y-99745296D01*
X131739808Y-99738967D01*
X131735354Y-99732301D01*
X131687735Y-99684683D01*
X131681073Y-99680231D01*
X131674740Y-99675316D01*
X131668946Y-99672419D01*
X132888095Y-99672419D01*
X132888095Y-100672419D01*
X132891901Y-100691553D01*
X132918961Y-100718613D01*
X132938095Y-100722419D01*
X133319047Y-100722419D01*
X133321503Y-100721930D01*
X133322592Y-100722293D01*
X133330319Y-100720176D01*
X133338181Y-100718613D01*
X133338992Y-100717801D01*
X133341408Y-100717140D01*
X133423763Y-100675963D01*
X133745364Y-100675963D01*
X133762478Y-100710192D01*
X133798782Y-100722293D01*
X133833011Y-100705179D01*
X133842672Y-100688230D01*
X133926514Y-100436704D01*
X134330628Y-100436704D01*
X134414470Y-100688230D01*
X134424131Y-100705178D01*
X134458360Y-100722293D01*
X134494664Y-100710191D01*
X134511778Y-100675963D01*
X134509338Y-100656607D01*
X134176005Y-99656608D01*
X134174111Y-99653285D01*
X134606187Y-99653285D01*
X134606187Y-99691553D01*
X134633247Y-99718613D01*
X134652381Y-99722419D01*
X134888095Y-99722419D01*
X134888095Y-100672419D01*
X134891901Y-100691553D01*
X134918961Y-100718613D01*
X134957229Y-100718613D01*
X134984289Y-100691553D01*
X134988095Y-100672419D01*
X134988095Y-99722419D01*
X135223809Y-99722419D01*
X135242943Y-99718613D01*
X135270003Y-99691553D01*
X135270003Y-99653285D01*
X135368092Y-99653285D01*
X135368092Y-99691553D01*
X135395152Y-99718613D01*
X135414286Y-99722419D01*
X135650000Y-99722419D01*
X135650000Y-100672419D01*
X135653806Y-100691553D01*
X135680866Y-100718613D01*
X135719134Y-100718613D01*
X135746194Y-100691553D01*
X135750000Y-100672419D01*
X135750000Y-100272332D01*
X136272854Y-100272332D01*
X136272854Y-100310600D01*
X136299914Y-100337660D01*
X136319048Y-100341466D01*
X136650000Y-100341466D01*
X136650000Y-100672419D01*
X136653806Y-100691553D01*
X136680866Y-100718613D01*
X136719134Y-100718613D01*
X136746194Y-100691553D01*
X136750000Y-100672419D01*
X136750000Y-100341466D01*
X137080953Y-100341466D01*
X137100087Y-100337660D01*
X137127147Y-100310600D01*
X137127147Y-100272332D01*
X137100087Y-100245272D01*
X137080953Y-100241466D01*
X136750000Y-100241466D01*
X136750000Y-99910514D01*
X136746194Y-99891380D01*
X136719134Y-99864320D01*
X136680866Y-99864320D01*
X136653806Y-99891380D01*
X136650000Y-99910514D01*
X136650000Y-100241466D01*
X136319048Y-100241466D01*
X136299914Y-100245272D01*
X136272854Y-100272332D01*
X135750000Y-100272332D01*
X135750000Y-99722419D01*
X135985714Y-99722419D01*
X136004848Y-99718613D01*
X136031908Y-99691553D01*
X136031908Y-99653285D01*
X136004848Y-99626225D01*
X135985714Y-99622419D01*
X135414286Y-99622419D01*
X135395152Y-99626225D01*
X135368092Y-99653285D01*
X135270003Y-99653285D01*
X135242943Y-99626225D01*
X135223809Y-99622419D01*
X134652381Y-99622419D01*
X134633247Y-99626225D01*
X134606187Y-99653285D01*
X134174111Y-99653285D01*
X134166344Y-99639659D01*
X134163001Y-99637987D01*
X134161331Y-99634647D01*
X134146294Y-99629634D01*
X134132115Y-99622545D01*
X134128570Y-99623726D01*
X134125027Y-99622545D01*
X134110853Y-99629632D01*
X134095811Y-99634646D01*
X134094139Y-99637989D01*
X134090798Y-99639660D01*
X134081137Y-99656608D01*
X133747804Y-100656608D01*
X133745364Y-100675963D01*
X133423763Y-100675963D01*
X133436645Y-100669522D01*
X133442972Y-100664611D01*
X133449641Y-100660155D01*
X133497260Y-100612535D01*
X133501713Y-100605869D01*
X133506625Y-100599541D01*
X133554244Y-100504303D01*
X133554905Y-100501887D01*
X133555717Y-100501076D01*
X133557280Y-100493214D01*
X133559397Y-100485487D01*
X133559034Y-100484398D01*
X133559523Y-100481942D01*
X133559523Y-100339085D01*
X133559034Y-100336628D01*
X133559397Y-100335540D01*
X133557280Y-100327812D01*
X133555717Y-100319951D01*
X133554905Y-100319139D01*
X133554244Y-100316724D01*
X133506625Y-100221486D01*
X133501713Y-100215157D01*
X133497259Y-100208491D01*
X133449640Y-100160873D01*
X133447557Y-100159481D01*
X133447044Y-100158455D01*
X133440083Y-100154487D01*
X133433419Y-100150034D01*
X133432271Y-100150034D01*
X133430096Y-100148794D01*
X133398935Y-100138407D01*
X133402021Y-100136345D01*
X133449640Y-100088727D01*
X133454094Y-100082060D01*
X133459006Y-100075732D01*
X133506625Y-99980494D01*
X133507286Y-99978078D01*
X133508098Y-99977267D01*
X133509661Y-99969405D01*
X133511778Y-99961678D01*
X133511415Y-99960589D01*
X133511904Y-99958133D01*
X133511904Y-99862895D01*
X133511415Y-99860438D01*
X133511778Y-99859350D01*
X133509661Y-99851622D01*
X133508098Y-99843761D01*
X133507286Y-99842949D01*
X133506625Y-99840534D01*
X133459006Y-99745296D01*
X133454094Y-99738967D01*
X133449640Y-99732301D01*
X133402021Y-99684683D01*
X133395359Y-99680231D01*
X133389026Y-99675316D01*
X133293789Y-99627698D01*
X133291373Y-99627036D01*
X133290562Y-99626225D01*
X133282700Y-99624661D01*
X133274973Y-99622545D01*
X133273884Y-99622907D01*
X133271428Y-99622419D01*
X132938095Y-99622419D01*
X132918961Y-99626225D01*
X132891901Y-99653285D01*
X132888095Y-99672419D01*
X131668946Y-99672419D01*
X131579503Y-99627698D01*
X131577087Y-99627036D01*
X131576276Y-99626225D01*
X131568414Y-99624661D01*
X131560687Y-99622545D01*
X131559598Y-99622907D01*
X131557142Y-99622419D01*
X131176190Y-99622419D01*
X131157056Y-99626225D01*
X131129996Y-99653285D01*
X131126190Y-99672419D01*
X130562227Y-99672419D01*
X130556957Y-99656608D01*
X130547296Y-99639659D01*
X130543953Y-99637987D01*
X130542283Y-99634647D01*
X130527246Y-99629634D01*
X130513067Y-99622545D01*
X130509522Y-99623726D01*
X130505979Y-99622545D01*
X130491805Y-99629632D01*
X130476763Y-99634646D01*
X130475091Y-99637989D01*
X130471750Y-99639660D01*
X130462089Y-99656608D01*
X130128756Y-100656608D01*
X130126316Y-100675963D01*
X129847480Y-100675963D01*
X129858667Y-100672234D01*
X129860842Y-100670994D01*
X129861991Y-100670994D01*
X129868661Y-100666536D01*
X129875615Y-100662573D01*
X129876127Y-100661547D01*
X129878212Y-100660155D01*
X129925831Y-100612535D01*
X129936669Y-100596314D01*
X129936669Y-100558045D01*
X129909609Y-100530986D01*
X129871340Y-100530986D01*
X129855119Y-100541825D01*
X129815846Y-100581098D01*
X129691886Y-100622419D01*
X129612874Y-100622419D01*
X129488914Y-100581099D01*
X129407758Y-100499942D01*
X129366223Y-100416872D01*
X129321428Y-100237692D01*
X129321428Y-100107145D01*
X129366223Y-99927965D01*
X129407759Y-99844893D01*
X129488912Y-99763739D01*
X129612874Y-99722419D01*
X129691886Y-99722419D01*
X129815847Y-99763739D01*
X129855119Y-99803012D01*
X129871340Y-99813851D01*
X129909609Y-99813851D01*
X129936669Y-99786791D01*
X129936669Y-99748522D01*
X129925830Y-99732301D01*
X129878211Y-99684683D01*
X129876128Y-99683291D01*
X129875615Y-99682265D01*
X129868654Y-99678297D01*
X129861990Y-99673844D01*
X129860842Y-99673844D01*
X129858667Y-99672604D01*
X129715810Y-99624985D01*
X129707861Y-99623982D01*
X129699999Y-99622419D01*
X129604761Y-99622419D01*
X129596899Y-99623982D01*
X129588949Y-99624985D01*
X129446093Y-99672604D01*
X129443918Y-99673844D01*
X129442770Y-99673844D01*
X129436109Y-99678294D01*
X129429144Y-99682265D01*
X129428630Y-99683292D01*
X129426549Y-99684683D01*
X129331311Y-99779921D01*
X129326859Y-99786582D01*
X129321944Y-99792916D01*
X129274326Y-99888153D01*
X129272879Y-99893434D01*
X129270540Y-99898387D01*
X129222921Y-100088863D01*
X129222623Y-100094980D01*
X129221428Y-100100990D01*
X129110317Y-100100990D01*
X129110317Y-99511308D01*
X137238258Y-99511308D01*
X137238258Y-100833530D01*
G37*
G36*
X164712527Y-71732439D02*
G01*
X164792233Y-71812145D01*
X164835001Y-71983215D01*
X164835001Y-72304238D01*
X164792233Y-72475307D01*
X164712525Y-72555016D01*
X164635103Y-72593727D01*
X164468234Y-72593727D01*
X164390811Y-72555015D01*
X164311102Y-72475306D01*
X164268335Y-72304238D01*
X164268335Y-71983215D01*
X164311102Y-71812145D01*
X164390808Y-71732439D01*
X164468234Y-71693727D01*
X164635103Y-71693727D01*
X164712527Y-71732439D01*
G37*
G36*
X167331575Y-71732439D02*
G01*
X167411281Y-71812145D01*
X167454049Y-71983215D01*
X167454049Y-72304238D01*
X167411281Y-72475307D01*
X167331573Y-72555016D01*
X167254151Y-72593727D01*
X167087282Y-72593727D01*
X167009859Y-72555015D01*
X166930150Y-72475306D01*
X166887383Y-72304238D01*
X166887383Y-71983215D01*
X166930150Y-71812145D01*
X167009856Y-71732439D01*
X167087282Y-71693727D01*
X167254151Y-71693727D01*
X167331575Y-71732439D01*
G37*
G36*
X169143707Y-71735047D02*
G01*
X169224860Y-71816200D01*
X169266397Y-71899274D01*
X169311192Y-72078453D01*
X169311192Y-72209000D01*
X169266397Y-72388178D01*
X169224860Y-72471252D01*
X169143706Y-72552406D01*
X169019746Y-72593727D01*
X168839764Y-72593727D01*
X168839764Y-71693727D01*
X169019746Y-71693727D01*
X169143707Y-71735047D01*
G37*
G36*
X168291821Y-72308012D02*
G01*
X167954373Y-72308012D01*
X168123097Y-71801840D01*
X168291821Y-72308012D01*
G37*
G36*
X171470879Y-72804838D02*
G01*
X163203887Y-72804838D01*
X163203887Y-71624593D01*
X163314998Y-71624593D01*
X163314998Y-71662861D01*
X163342058Y-71689921D01*
X163361192Y-71693727D01*
X163596906Y-71693727D01*
X163596906Y-72643727D01*
X163600712Y-72662861D01*
X163627772Y-72689921D01*
X163666040Y-72689921D01*
X163693100Y-72662861D01*
X163696906Y-72643727D01*
X163696906Y-71977060D01*
X164168335Y-71977060D01*
X164168335Y-72310393D01*
X164169530Y-72316402D01*
X164169828Y-72322520D01*
X164217447Y-72512996D01*
X164219760Y-72517892D01*
X164219760Y-72520003D01*
X164223164Y-72525098D01*
X164225780Y-72530635D01*
X164227588Y-72531720D01*
X164230598Y-72536224D01*
X164325837Y-72631463D01*
X164332496Y-72635913D01*
X164338831Y-72640829D01*
X164434069Y-72688448D01*
X164436484Y-72689109D01*
X164437296Y-72689921D01*
X164445157Y-72691484D01*
X164452885Y-72693601D01*
X164453973Y-72693238D01*
X164456430Y-72693727D01*
X164646906Y-72693727D01*
X164649362Y-72693238D01*
X164650451Y-72693601D01*
X164658178Y-72691484D01*
X164666040Y-72689921D01*
X164666851Y-72689109D01*
X164669267Y-72688448D01*
X164764504Y-72640830D01*
X164770831Y-72635919D01*
X164777500Y-72631463D01*
X164872738Y-72536224D01*
X164875747Y-72531720D01*
X164877556Y-72530635D01*
X164880171Y-72525098D01*
X164883576Y-72520003D01*
X164883576Y-72517892D01*
X164885889Y-72512996D01*
X164933508Y-72322520D01*
X164933805Y-72316402D01*
X164935001Y-72310393D01*
X164935001Y-71977060D01*
X164933805Y-71971050D01*
X164933508Y-71964933D01*
X164885889Y-71774457D01*
X164883576Y-71769560D01*
X164883576Y-71767450D01*
X164880172Y-71762356D01*
X164877556Y-71756818D01*
X164875745Y-71755731D01*
X164872737Y-71751229D01*
X164777499Y-71655991D01*
X164770837Y-71651539D01*
X164764504Y-71646624D01*
X164758710Y-71643727D01*
X166025478Y-71643727D01*
X166025478Y-72643727D01*
X166029284Y-72662861D01*
X166056344Y-72689921D01*
X166075478Y-72693727D01*
X166551668Y-72693727D01*
X166570802Y-72689921D01*
X166597862Y-72662861D01*
X166597862Y-72624593D01*
X166570802Y-72597533D01*
X166551668Y-72593727D01*
X166125478Y-72593727D01*
X166125478Y-71977060D01*
X166787383Y-71977060D01*
X166787383Y-72310393D01*
X166788578Y-72316402D01*
X166788876Y-72322520D01*
X166836495Y-72512996D01*
X166838808Y-72517892D01*
X166838808Y-72520003D01*
X166842212Y-72525098D01*
X166844828Y-72530635D01*
X166846636Y-72531720D01*
X166849646Y-72536224D01*
X166944885Y-72631463D01*
X166951544Y-72635913D01*
X166957879Y-72640829D01*
X167053117Y-72688448D01*
X167055532Y-72689109D01*
X167056344Y-72689921D01*
X167064205Y-72691484D01*
X167071933Y-72693601D01*
X167073021Y-72693238D01*
X167075478Y-72693727D01*
X167265954Y-72693727D01*
X167268410Y-72693238D01*
X167269499Y-72693601D01*
X167277226Y-72691484D01*
X167285088Y-72689921D01*
X167285899Y-72689109D01*
X167288315Y-72688448D01*
X167370670Y-72647271D01*
X167739890Y-72647271D01*
X167757004Y-72681500D01*
X167793308Y-72693601D01*
X167827537Y-72676487D01*
X167837198Y-72659538D01*
X167921040Y-72408012D01*
X168325154Y-72408012D01*
X168408996Y-72659538D01*
X168418657Y-72676486D01*
X168452886Y-72693601D01*
X168489190Y-72681499D01*
X168506304Y-72647271D01*
X168503864Y-72627915D01*
X168175801Y-71643727D01*
X168739764Y-71643727D01*
X168739764Y-72643727D01*
X168743570Y-72662861D01*
X168770630Y-72689921D01*
X168789764Y-72693727D01*
X169027859Y-72693727D01*
X169035721Y-72692163D01*
X169043670Y-72691161D01*
X169186527Y-72643542D01*
X169188702Y-72642302D01*
X169189851Y-72642302D01*
X169196521Y-72637844D01*
X169203475Y-72633881D01*
X169203987Y-72632855D01*
X169206072Y-72631463D01*
X169301310Y-72536224D01*
X169305763Y-72529558D01*
X169310675Y-72523230D01*
X169358294Y-72427992D01*
X169359740Y-72422710D01*
X169362080Y-72417758D01*
X169405610Y-72243640D01*
X170505475Y-72243640D01*
X170505475Y-72281908D01*
X170532535Y-72308968D01*
X170551669Y-72312774D01*
X170882621Y-72312774D01*
X170882621Y-72643727D01*
X170886427Y-72662861D01*
X170913487Y-72689921D01*
X170951755Y-72689921D01*
X170978815Y-72662861D01*
X170982621Y-72643727D01*
X170982621Y-72312774D01*
X171313574Y-72312774D01*
X171332708Y-72308968D01*
X171359768Y-72281908D01*
X171359768Y-72243640D01*
X171332708Y-72216580D01*
X171313574Y-72212774D01*
X170982621Y-72212774D01*
X170982621Y-71881822D01*
X170978815Y-71862688D01*
X170951755Y-71835628D01*
X170913487Y-71835628D01*
X170886427Y-71862688D01*
X170882621Y-71881822D01*
X170882621Y-72212774D01*
X170551669Y-72212774D01*
X170532535Y-72216580D01*
X170505475Y-72243640D01*
X169405610Y-72243640D01*
X169409699Y-72227282D01*
X169409996Y-72221164D01*
X169411192Y-72215155D01*
X169411192Y-72072298D01*
X169409996Y-72066288D01*
X169409699Y-72060171D01*
X169362080Y-71869695D01*
X169359740Y-71864742D01*
X169358294Y-71859461D01*
X169310675Y-71764223D01*
X169305759Y-71757888D01*
X169301309Y-71751229D01*
X169206071Y-71655991D01*
X169203988Y-71654599D01*
X169203475Y-71653573D01*
X169196514Y-71649605D01*
X169189850Y-71645152D01*
X169188702Y-71645152D01*
X169186527Y-71643912D01*
X169043670Y-71596293D01*
X169035721Y-71595290D01*
X169027859Y-71593727D01*
X168789764Y-71593727D01*
X168770630Y-71597533D01*
X168743570Y-71624593D01*
X168739764Y-71643727D01*
X168175801Y-71643727D01*
X168170531Y-71627916D01*
X168160870Y-71610967D01*
X168157527Y-71609295D01*
X168155857Y-71605955D01*
X168140820Y-71600942D01*
X168126641Y-71593853D01*
X168123096Y-71595034D01*
X168119553Y-71593853D01*
X168105379Y-71600940D01*
X168090337Y-71605954D01*
X168088665Y-71609297D01*
X168085324Y-71610968D01*
X168075663Y-71627916D01*
X167742330Y-72627916D01*
X167739890Y-72647271D01*
X167370670Y-72647271D01*
X167383552Y-72640830D01*
X167389879Y-72635919D01*
X167396548Y-72631463D01*
X167491786Y-72536224D01*
X167494795Y-72531720D01*
X167496604Y-72530635D01*
X167499219Y-72525098D01*
X167502624Y-72520003D01*
X167502624Y-72517892D01*
X167504937Y-72512996D01*
X167552556Y-72322520D01*
X167552853Y-72316402D01*
X167554049Y-72310393D01*
X167554049Y-71977060D01*
X167552853Y-71971050D01*
X167552556Y-71964933D01*
X167504937Y-71774457D01*
X167502624Y-71769560D01*
X167502624Y-71767450D01*
X167499220Y-71762356D01*
X167496604Y-71756818D01*
X167494793Y-71755731D01*
X167491785Y-71751229D01*
X167396547Y-71655991D01*
X167389885Y-71651539D01*
X167383552Y-71646624D01*
X167288315Y-71599006D01*
X167285899Y-71598344D01*
X167285088Y-71597533D01*
X167277226Y-71595969D01*
X167269499Y-71593853D01*
X167268410Y-71594215D01*
X167265954Y-71593727D01*
X167075478Y-71593727D01*
X167073021Y-71594215D01*
X167071933Y-71593853D01*
X167064205Y-71595969D01*
X167056344Y-71597533D01*
X167055532Y-71598344D01*
X167053117Y-71599006D01*
X166957879Y-71646625D01*
X166951544Y-71651540D01*
X166944885Y-71655991D01*
X166849647Y-71751229D01*
X166846638Y-71755731D01*
X166844828Y-71756818D01*
X166842211Y-71762356D01*
X166838808Y-71767450D01*
X166838808Y-71769560D01*
X166836495Y-71774457D01*
X166788876Y-71964933D01*
X166788578Y-71971050D01*
X166787383Y-71977060D01*
X166125478Y-71977060D01*
X166125478Y-71643727D01*
X166121672Y-71624593D01*
X166094612Y-71597533D01*
X166056344Y-71597533D01*
X166029284Y-71624593D01*
X166025478Y-71643727D01*
X164758710Y-71643727D01*
X164669267Y-71599006D01*
X164666851Y-71598344D01*
X164666040Y-71597533D01*
X164658178Y-71595969D01*
X164650451Y-71593853D01*
X164649362Y-71594215D01*
X164646906Y-71593727D01*
X164456430Y-71593727D01*
X164453973Y-71594215D01*
X164452885Y-71593853D01*
X164445157Y-71595969D01*
X164437296Y-71597533D01*
X164436484Y-71598344D01*
X164434069Y-71599006D01*
X164338831Y-71646625D01*
X164332496Y-71651540D01*
X164325837Y-71655991D01*
X164230599Y-71751229D01*
X164227590Y-71755731D01*
X164225780Y-71756818D01*
X164223163Y-71762356D01*
X164219760Y-71767450D01*
X164219760Y-71769560D01*
X164217447Y-71774457D01*
X164169828Y-71964933D01*
X164169530Y-71971050D01*
X164168335Y-71977060D01*
X163696906Y-71977060D01*
X163696906Y-71693727D01*
X163932620Y-71693727D01*
X163951754Y-71689921D01*
X163978814Y-71662861D01*
X163978814Y-71624593D01*
X163951754Y-71597533D01*
X163932620Y-71593727D01*
X163361192Y-71593727D01*
X163342058Y-71597533D01*
X163314998Y-71624593D01*
X163203887Y-71624593D01*
X163203887Y-71482616D01*
X171470879Y-71482616D01*
X171470879Y-72804838D01*
G37*
G36*
X115669669Y-71532440D02*
G01*
X115749375Y-71612146D01*
X115792143Y-71783216D01*
X115792143Y-72104239D01*
X115749375Y-72275308D01*
X115669667Y-72355017D01*
X115592245Y-72393728D01*
X115425376Y-72393728D01*
X115347953Y-72355016D01*
X115268244Y-72275307D01*
X115225477Y-72104239D01*
X115225477Y-71783216D01*
X115268244Y-71612146D01*
X115347950Y-71532440D01*
X115425376Y-71493728D01*
X115592245Y-71493728D01*
X115669669Y-71532440D01*
G37*
G36*
X121100849Y-72011238D02*
G01*
X121134384Y-72044774D01*
X121173096Y-72122197D01*
X121173096Y-72241447D01*
X121134384Y-72318870D01*
X121098238Y-72355017D01*
X121020817Y-72393728D01*
X120701668Y-72393728D01*
X120701668Y-71969918D01*
X120976888Y-71969918D01*
X121100849Y-72011238D01*
G37*
G36*
X121050621Y-71532439D02*
G01*
X121086765Y-71568584D01*
X121125477Y-71646007D01*
X121125477Y-71717638D01*
X121086765Y-71795061D01*
X121050621Y-71831206D01*
X120973198Y-71869918D01*
X120701668Y-71869918D01*
X120701668Y-71493728D01*
X120973198Y-71493728D01*
X121050621Y-71532439D01*
G37*
G36*
X117391820Y-72108013D02*
G01*
X117054372Y-72108013D01*
X117223096Y-71601841D01*
X117391820Y-72108013D01*
G37*
G36*
X122010868Y-72108013D02*
G01*
X121673420Y-72108013D01*
X121842144Y-71601841D01*
X122010868Y-72108013D01*
G37*
G36*
X125713736Y-72604839D02*
G01*
X114161029Y-72604839D01*
X114161029Y-71424594D01*
X114272140Y-71424594D01*
X114272140Y-71462862D01*
X114299200Y-71489922D01*
X114318334Y-71493728D01*
X114554048Y-71493728D01*
X114554048Y-72443728D01*
X114557854Y-72462862D01*
X114584914Y-72489922D01*
X114623182Y-72489922D01*
X114650242Y-72462862D01*
X114654048Y-72443728D01*
X114654048Y-71777061D01*
X115125477Y-71777061D01*
X115125477Y-72110394D01*
X115126672Y-72116403D01*
X115126970Y-72122521D01*
X115174589Y-72312997D01*
X115176902Y-72317893D01*
X115176902Y-72320004D01*
X115180306Y-72325099D01*
X115182922Y-72330636D01*
X115184730Y-72331721D01*
X115187740Y-72336225D01*
X115282979Y-72431464D01*
X115289638Y-72435914D01*
X115295973Y-72440830D01*
X115391211Y-72488449D01*
X115393626Y-72489110D01*
X115394438Y-72489922D01*
X115402299Y-72491485D01*
X115410027Y-72493602D01*
X115411115Y-72493239D01*
X115413572Y-72493728D01*
X115604048Y-72493728D01*
X115606504Y-72493239D01*
X115607593Y-72493602D01*
X115615320Y-72491485D01*
X115623182Y-72489922D01*
X115623993Y-72489110D01*
X115626409Y-72488449D01*
X115708764Y-72447272D01*
X116839889Y-72447272D01*
X116857003Y-72481501D01*
X116893307Y-72493602D01*
X116927536Y-72476488D01*
X116937197Y-72459539D01*
X117021039Y-72208013D01*
X117425153Y-72208013D01*
X117508995Y-72459539D01*
X117518656Y-72476487D01*
X117552885Y-72493602D01*
X117589189Y-72481500D01*
X117606303Y-72447272D01*
X117603863Y-72427916D01*
X117275800Y-71443728D01*
X117839763Y-71443728D01*
X117839763Y-72253251D01*
X117840251Y-72255707D01*
X117839889Y-72256796D01*
X117842005Y-72264523D01*
X117843569Y-72272385D01*
X117844380Y-72273196D01*
X117845042Y-72275612D01*
X117892660Y-72370849D01*
X117897571Y-72377177D01*
X117902026Y-72383844D01*
X117949645Y-72431464D01*
X117956311Y-72435918D01*
X117962640Y-72440830D01*
X118057878Y-72488449D01*
X118060293Y-72489110D01*
X118061105Y-72489922D01*
X118068966Y-72491485D01*
X118076694Y-72493602D01*
X118077782Y-72493239D01*
X118080239Y-72493728D01*
X118270715Y-72493728D01*
X118273171Y-72493239D01*
X118274260Y-72493602D01*
X118281987Y-72491485D01*
X118289849Y-72489922D01*
X118290660Y-72489110D01*
X118293076Y-72488449D01*
X118388313Y-72440831D01*
X118394640Y-72435920D01*
X118401309Y-72431464D01*
X118448928Y-72383844D01*
X118453381Y-72377178D01*
X118458293Y-72370850D01*
X118505912Y-72275612D01*
X118506573Y-72273196D01*
X118507385Y-72272385D01*
X118508948Y-72264523D01*
X118511065Y-72256796D01*
X118510702Y-72255707D01*
X118511191Y-72253251D01*
X118511191Y-71453431D01*
X118793095Y-71453431D01*
X118800541Y-71471463D01*
X119115384Y-71943728D01*
X118800541Y-72415993D01*
X118793095Y-72434025D01*
X118800600Y-72471550D01*
X118832441Y-72492777D01*
X118869966Y-72485272D01*
X118883747Y-72471463D01*
X119175476Y-72033867D01*
X119467207Y-72471463D01*
X119480988Y-72485272D01*
X119518513Y-72492777D01*
X119550354Y-72471550D01*
X119557859Y-72434025D01*
X119550412Y-72415993D01*
X119235569Y-71943728D01*
X119550412Y-71471463D01*
X119557859Y-71453431D01*
X119555918Y-71443728D01*
X120601668Y-71443728D01*
X120601668Y-72443728D01*
X120605474Y-72462862D01*
X120632534Y-72489922D01*
X120651668Y-72493728D01*
X121032620Y-72493728D01*
X121035076Y-72493239D01*
X121036165Y-72493602D01*
X121043892Y-72491485D01*
X121051754Y-72489922D01*
X121052565Y-72489110D01*
X121054981Y-72488449D01*
X121137336Y-72447272D01*
X121458937Y-72447272D01*
X121476051Y-72481501D01*
X121512355Y-72493602D01*
X121546584Y-72476488D01*
X121556245Y-72459539D01*
X121640087Y-72208013D01*
X122044201Y-72208013D01*
X122128043Y-72459539D01*
X122137704Y-72476487D01*
X122171933Y-72493602D01*
X122208237Y-72481500D01*
X122225351Y-72447272D01*
X122222911Y-72427916D01*
X121889578Y-71427917D01*
X121887684Y-71424594D01*
X122319760Y-71424594D01*
X122319760Y-71462862D01*
X122346820Y-71489922D01*
X122365954Y-71493728D01*
X122601668Y-71493728D01*
X122601668Y-72443728D01*
X122605474Y-72462862D01*
X122632534Y-72489922D01*
X122670802Y-72489922D01*
X122697862Y-72462862D01*
X122701668Y-72443728D01*
X122701668Y-71493728D01*
X122937382Y-71493728D01*
X122956516Y-71489922D01*
X122983576Y-71462862D01*
X122983576Y-71424594D01*
X123081665Y-71424594D01*
X123081665Y-71462862D01*
X123108725Y-71489922D01*
X123127859Y-71493728D01*
X123363573Y-71493728D01*
X123363573Y-72443728D01*
X123367379Y-72462862D01*
X123394439Y-72489922D01*
X123432707Y-72489922D01*
X123459767Y-72462862D01*
X123463573Y-72443728D01*
X123463573Y-72043641D01*
X124748332Y-72043641D01*
X124748332Y-72081909D01*
X124775392Y-72108969D01*
X124794526Y-72112775D01*
X125125478Y-72112775D01*
X125125478Y-72443728D01*
X125129284Y-72462862D01*
X125156344Y-72489922D01*
X125194612Y-72489922D01*
X125221672Y-72462862D01*
X125225478Y-72443728D01*
X125225478Y-72112775D01*
X125556431Y-72112775D01*
X125575565Y-72108969D01*
X125602625Y-72081909D01*
X125602625Y-72043641D01*
X125575565Y-72016581D01*
X125556431Y-72012775D01*
X125225478Y-72012775D01*
X125225478Y-71681823D01*
X125221672Y-71662689D01*
X125194612Y-71635629D01*
X125156344Y-71635629D01*
X125129284Y-71662689D01*
X125125478Y-71681823D01*
X125125478Y-72012775D01*
X124794526Y-72012775D01*
X124775392Y-72016581D01*
X124748332Y-72043641D01*
X123463573Y-72043641D01*
X123463573Y-71493728D01*
X123699287Y-71493728D01*
X123718421Y-71489922D01*
X123745481Y-71462862D01*
X123745481Y-71424594D01*
X123718421Y-71397534D01*
X123699287Y-71393728D01*
X123127859Y-71393728D01*
X123108725Y-71397534D01*
X123081665Y-71424594D01*
X122983576Y-71424594D01*
X122956516Y-71397534D01*
X122937382Y-71393728D01*
X122365954Y-71393728D01*
X122346820Y-71397534D01*
X122319760Y-71424594D01*
X121887684Y-71424594D01*
X121879917Y-71410968D01*
X121876574Y-71409296D01*
X121874904Y-71405956D01*
X121859867Y-71400943D01*
X121845688Y-71393854D01*
X121842143Y-71395035D01*
X121838600Y-71393854D01*
X121824426Y-71400941D01*
X121809384Y-71405955D01*
X121807712Y-71409298D01*
X121804371Y-71410969D01*
X121794710Y-71427917D01*
X121461377Y-72427917D01*
X121458937Y-72447272D01*
X121137336Y-72447272D01*
X121150218Y-72440831D01*
X121156545Y-72435920D01*
X121163214Y-72431464D01*
X121210833Y-72383844D01*
X121215286Y-72377178D01*
X121220198Y-72370850D01*
X121267817Y-72275612D01*
X121268478Y-72273196D01*
X121269290Y-72272385D01*
X121270853Y-72264523D01*
X121272970Y-72256796D01*
X121272607Y-72255707D01*
X121273096Y-72253251D01*
X121273096Y-72110394D01*
X121272607Y-72107937D01*
X121272970Y-72106849D01*
X121270853Y-72099121D01*
X121269290Y-72091260D01*
X121268478Y-72090448D01*
X121267817Y-72088033D01*
X121220198Y-71992795D01*
X121215286Y-71986466D01*
X121210832Y-71979800D01*
X121163213Y-71932182D01*
X121161130Y-71930790D01*
X121160617Y-71929764D01*
X121153656Y-71925796D01*
X121146992Y-71921343D01*
X121145844Y-71921343D01*
X121143669Y-71920103D01*
X121112508Y-71909716D01*
X121115594Y-71907654D01*
X121163213Y-71860036D01*
X121167667Y-71853369D01*
X121172579Y-71847041D01*
X121220198Y-71751803D01*
X121220859Y-71749387D01*
X121221671Y-71748576D01*
X121223234Y-71740714D01*
X121225351Y-71732987D01*
X121224988Y-71731898D01*
X121225477Y-71729442D01*
X121225477Y-71634204D01*
X121224988Y-71631747D01*
X121225351Y-71630659D01*
X121223234Y-71622931D01*
X121221671Y-71615070D01*
X121220859Y-71614258D01*
X121220198Y-71611843D01*
X121172579Y-71516605D01*
X121167667Y-71510276D01*
X121163213Y-71503610D01*
X121115594Y-71455992D01*
X121108932Y-71451540D01*
X121102599Y-71446625D01*
X121007362Y-71399007D01*
X121004946Y-71398345D01*
X121004135Y-71397534D01*
X120996273Y-71395970D01*
X120988546Y-71393854D01*
X120987457Y-71394216D01*
X120985001Y-71393728D01*
X120651668Y-71393728D01*
X120632534Y-71397534D01*
X120605474Y-71424594D01*
X120601668Y-71443728D01*
X119555918Y-71443728D01*
X119550354Y-71415906D01*
X119518513Y-71394679D01*
X119480988Y-71402184D01*
X119467207Y-71415993D01*
X119175476Y-71853588D01*
X118883747Y-71415993D01*
X118869966Y-71402184D01*
X118832441Y-71394679D01*
X118800600Y-71415906D01*
X118793095Y-71453431D01*
X118511191Y-71453431D01*
X118511191Y-71443728D01*
X118507385Y-71424594D01*
X118480325Y-71397534D01*
X118442057Y-71397534D01*
X118414997Y-71424594D01*
X118411191Y-71443728D01*
X118411191Y-72241447D01*
X118372479Y-72318870D01*
X118336333Y-72355017D01*
X118258912Y-72393728D01*
X118092043Y-72393728D01*
X118014620Y-72355017D01*
X117978474Y-72318870D01*
X117939763Y-72241448D01*
X117939763Y-71443728D01*
X117935957Y-71424594D01*
X117908897Y-71397534D01*
X117870629Y-71397534D01*
X117843569Y-71424594D01*
X117839763Y-71443728D01*
X117275800Y-71443728D01*
X117270530Y-71427917D01*
X117260869Y-71410968D01*
X117257526Y-71409296D01*
X117255856Y-71405956D01*
X117240819Y-71400943D01*
X117226640Y-71393854D01*
X117223095Y-71395035D01*
X117219552Y-71393854D01*
X117205378Y-71400941D01*
X117190336Y-71405955D01*
X117188664Y-71409298D01*
X117185323Y-71410969D01*
X117175662Y-71427917D01*
X116842329Y-72427917D01*
X116839889Y-72447272D01*
X115708764Y-72447272D01*
X115721646Y-72440831D01*
X115727973Y-72435920D01*
X115734642Y-72431464D01*
X115829880Y-72336225D01*
X115832889Y-72331721D01*
X115834698Y-72330636D01*
X115837313Y-72325099D01*
X115840718Y-72320004D01*
X115840718Y-72317893D01*
X115843031Y-72312997D01*
X115890650Y-72122521D01*
X115890947Y-72116403D01*
X115892143Y-72110394D01*
X115892143Y-71777061D01*
X115890947Y-71771051D01*
X115890650Y-71764934D01*
X115843031Y-71574458D01*
X115840718Y-71569561D01*
X115840718Y-71567451D01*
X115837314Y-71562357D01*
X115834698Y-71556819D01*
X115832887Y-71555732D01*
X115829879Y-71551230D01*
X115734641Y-71455992D01*
X115727979Y-71451540D01*
X115721646Y-71446625D01*
X115626409Y-71399007D01*
X115623993Y-71398345D01*
X115623182Y-71397534D01*
X115615320Y-71395970D01*
X115607593Y-71393854D01*
X115606504Y-71394216D01*
X115604048Y-71393728D01*
X115413572Y-71393728D01*
X115411115Y-71394216D01*
X115410027Y-71393854D01*
X115402299Y-71395970D01*
X115394438Y-71397534D01*
X115393626Y-71398345D01*
X115391211Y-71399007D01*
X115295973Y-71446626D01*
X115289638Y-71451541D01*
X115282979Y-71455992D01*
X115187741Y-71551230D01*
X115184732Y-71555732D01*
X115182922Y-71556819D01*
X115180305Y-71562357D01*
X115176902Y-71567451D01*
X115176902Y-71569561D01*
X115174589Y-71574458D01*
X115126970Y-71764934D01*
X115126672Y-71771051D01*
X115125477Y-71777061D01*
X114654048Y-71777061D01*
X114654048Y-71493728D01*
X114889762Y-71493728D01*
X114908896Y-71489922D01*
X114935956Y-71462862D01*
X114935956Y-71424594D01*
X114908896Y-71397534D01*
X114889762Y-71393728D01*
X114318334Y-71393728D01*
X114299200Y-71397534D01*
X114272140Y-71424594D01*
X114161029Y-71424594D01*
X114161029Y-71282617D01*
X125713736Y-71282617D01*
X125713736Y-72604839D01*
G37*
D11*
G36*
X116425908Y-69380372D02*
G01*
X116454822Y-69409287D01*
X116485792Y-69471226D01*
X116485792Y-69726545D01*
X116146745Y-69726545D01*
X116146745Y-69471226D01*
X116177714Y-69409286D01*
X116206629Y-69380371D01*
X116268568Y-69349402D01*
X116363968Y-69349402D01*
X116425908Y-69380372D01*
G37*
G36*
X117035634Y-69895434D02*
G01*
X115977856Y-69895434D01*
X115977856Y-69461783D01*
X116066745Y-69461783D01*
X116066745Y-69766545D01*
X116069790Y-69781852D01*
X116091438Y-69803500D01*
X116106745Y-69806545D01*
X116906745Y-69806545D01*
X116922052Y-69803500D01*
X116943700Y-69781852D01*
X116943700Y-69751238D01*
X116922052Y-69729590D01*
X116906745Y-69726545D01*
X116565792Y-69726545D01*
X116565792Y-69596894D01*
X116929683Y-69342171D01*
X116940477Y-69330899D01*
X116945797Y-69300750D01*
X116928241Y-69275670D01*
X116898092Y-69270349D01*
X116883806Y-69276633D01*
X116565792Y-69499243D01*
X116565792Y-69461783D01*
X116565400Y-69459817D01*
X116565691Y-69458947D01*
X116563997Y-69452763D01*
X116562747Y-69446476D01*
X116562098Y-69445827D01*
X116561569Y-69443894D01*
X116523474Y-69367704D01*
X116519541Y-69362637D01*
X116515981Y-69357308D01*
X116477886Y-69319214D01*
X116472555Y-69315652D01*
X116467490Y-69311721D01*
X116391300Y-69273625D01*
X116389366Y-69273095D01*
X116388718Y-69272447D01*
X116382430Y-69271196D01*
X116376247Y-69269503D01*
X116375376Y-69269793D01*
X116373411Y-69269402D01*
X116259126Y-69269402D01*
X116257160Y-69269793D01*
X116256290Y-69269503D01*
X116250106Y-69271196D01*
X116243819Y-69272447D01*
X116243170Y-69273095D01*
X116241237Y-69273625D01*
X116165046Y-69311721D01*
X116159979Y-69315653D01*
X116154650Y-69319214D01*
X116116556Y-69357309D01*
X116112997Y-69362634D01*
X116109063Y-69367704D01*
X116070968Y-69443894D01*
X116070438Y-69445827D01*
X116069790Y-69446476D01*
X116068539Y-69452763D01*
X116066846Y-69458947D01*
X116067136Y-69459817D01*
X116066745Y-69461783D01*
X115977856Y-69461783D01*
X115977856Y-68661783D01*
X116066745Y-68661783D01*
X116066745Y-68852260D01*
X116067136Y-68854225D01*
X116066846Y-68855096D01*
X116068539Y-68861279D01*
X116069790Y-68867567D01*
X116070438Y-68868215D01*
X116070968Y-68870149D01*
X116109063Y-68946339D01*
X116112997Y-68951408D01*
X116116556Y-68956734D01*
X116154650Y-68994829D01*
X116159979Y-68998389D01*
X116165046Y-69002322D01*
X116241237Y-69040418D01*
X116243170Y-69040947D01*
X116243819Y-69041596D01*
X116250106Y-69042846D01*
X116256290Y-69044540D01*
X116257160Y-69044249D01*
X116259126Y-69044641D01*
X116335316Y-69044641D01*
X116337281Y-69044249D01*
X116338152Y-69044540D01*
X116344335Y-69042846D01*
X116350623Y-69041596D01*
X116351271Y-69040947D01*
X116353205Y-69040418D01*
X116429395Y-69002322D01*
X116434460Y-68998390D01*
X116439791Y-68994829D01*
X116477886Y-68956735D01*
X116481446Y-68951405D01*
X116485379Y-68946339D01*
X116523474Y-68870149D01*
X116524631Y-68865922D01*
X116526503Y-68861961D01*
X116563532Y-68713840D01*
X116596762Y-68647381D01*
X116625677Y-68618467D01*
X116687616Y-68587498D01*
X116744921Y-68587498D01*
X116806859Y-68618467D01*
X116835777Y-68647384D01*
X116866745Y-68709320D01*
X116866745Y-68883865D01*
X116830703Y-68991992D01*
X116828751Y-69007476D01*
X116842442Y-69034859D01*
X116871485Y-69044540D01*
X116898868Y-69030849D01*
X116906597Y-69017290D01*
X116944692Y-68903004D01*
X116945493Y-68896646D01*
X116946745Y-68890355D01*
X116946745Y-68699879D01*
X116946354Y-68697913D01*
X116946644Y-68697044D01*
X116944951Y-68690863D01*
X116943700Y-68684572D01*
X116943051Y-68683923D01*
X116942522Y-68681991D01*
X116904427Y-68605800D01*
X116900497Y-68600736D01*
X116896934Y-68595403D01*
X116858838Y-68557308D01*
X116853506Y-68553746D01*
X116848443Y-68549816D01*
X116772253Y-68511721D01*
X116770319Y-68511191D01*
X116769671Y-68510543D01*
X116763383Y-68509292D01*
X116757200Y-68507599D01*
X116756329Y-68507889D01*
X116754364Y-68507498D01*
X116678173Y-68507498D01*
X116676207Y-68507889D01*
X116675337Y-68507599D01*
X116669153Y-68509292D01*
X116662866Y-68510543D01*
X116662217Y-68511191D01*
X116660284Y-68511721D01*
X116584094Y-68549816D01*
X116579027Y-68553748D01*
X116573698Y-68557309D01*
X116535604Y-68595404D01*
X116532042Y-68600734D01*
X116528111Y-68605800D01*
X116490015Y-68681990D01*
X116488858Y-68686214D01*
X116486986Y-68690177D01*
X116449955Y-68838299D01*
X116416727Y-68904755D01*
X116387813Y-68933670D01*
X116325873Y-68964641D01*
X116268568Y-68964641D01*
X116206629Y-68933671D01*
X116177714Y-68904756D01*
X116146745Y-68842817D01*
X116146745Y-68668273D01*
X116182787Y-68560147D01*
X116184739Y-68544663D01*
X116171048Y-68517280D01*
X116142005Y-68507599D01*
X116114622Y-68521290D01*
X116106893Y-68534849D01*
X116068798Y-68649134D01*
X116067996Y-68655491D01*
X116066745Y-68661783D01*
X115977856Y-68661783D01*
X115977856Y-67861783D01*
X116066745Y-67861783D01*
X116066745Y-68318926D01*
X116069790Y-68334233D01*
X116091438Y-68355881D01*
X116122052Y-68355881D01*
X116143700Y-68334233D01*
X116146745Y-68318926D01*
X116146745Y-68130355D01*
X116906745Y-68130355D01*
X116922052Y-68127310D01*
X116943700Y-68105662D01*
X116943700Y-68075048D01*
X116922052Y-68053400D01*
X116906745Y-68050355D01*
X116146745Y-68050355D01*
X116146745Y-67861783D01*
X116143700Y-67846476D01*
X116122052Y-67824828D01*
X116091438Y-67824828D01*
X116069790Y-67846476D01*
X116066745Y-67861783D01*
X115977856Y-67861783D01*
X115977856Y-67735939D01*
X117035634Y-67735939D01*
X117035634Y-69895434D01*
G37*
G36*
X170687813Y-70075610D02*
G01*
X170716729Y-70104527D01*
X170747698Y-70166464D01*
X170747698Y-70383689D01*
X170446746Y-70383689D01*
X170446746Y-70166464D01*
X170477714Y-70104526D01*
X170506631Y-70075610D01*
X170568569Y-70044642D01*
X170625875Y-70044642D01*
X170687813Y-70075610D01*
G37*
G36*
X171106860Y-70037515D02*
G01*
X171135777Y-70066432D01*
X171166746Y-70128370D01*
X171166746Y-70383689D01*
X170827698Y-70383689D01*
X170827698Y-70163512D01*
X170860753Y-70064345D01*
X170887583Y-70037515D01*
X170949522Y-70006546D01*
X171044922Y-70006546D01*
X171106860Y-70037515D01*
G37*
G36*
X171072010Y-69202664D02*
G01*
X171135776Y-69266431D01*
X171166746Y-69328370D01*
X171166746Y-69461866D01*
X171135777Y-69523803D01*
X171072011Y-69587569D01*
X170935153Y-69621785D01*
X170678338Y-69621785D01*
X170541479Y-69587569D01*
X170477715Y-69523805D01*
X170446746Y-69461866D01*
X170446746Y-69328370D01*
X170477716Y-69266430D01*
X170541481Y-69202664D01*
X170678338Y-69168451D01*
X170935154Y-69168451D01*
X171072010Y-69202664D01*
G37*
G36*
X171072010Y-68364569D02*
G01*
X171135776Y-68428336D01*
X171166746Y-68490275D01*
X171166746Y-68623771D01*
X171135777Y-68685708D01*
X171072011Y-68749474D01*
X170935153Y-68783690D01*
X170678338Y-68783690D01*
X170541479Y-68749474D01*
X170477715Y-68685710D01*
X170446746Y-68623771D01*
X170446746Y-68490275D01*
X170477716Y-68428335D01*
X170541481Y-68364569D01*
X170678338Y-68330356D01*
X170935154Y-68330356D01*
X171072010Y-68364569D01*
G37*
G36*
X171335635Y-70552578D02*
G01*
X170277857Y-70552578D01*
X170277857Y-70157023D01*
X170366746Y-70157023D01*
X170366746Y-70423689D01*
X170369791Y-70438996D01*
X170391439Y-70460644D01*
X170406746Y-70463689D01*
X171206746Y-70463689D01*
X171222053Y-70460644D01*
X171243701Y-70438996D01*
X171246746Y-70423689D01*
X171246746Y-70118927D01*
X171246354Y-70116961D01*
X171246645Y-70116091D01*
X171244951Y-70109907D01*
X171243701Y-70103620D01*
X171243052Y-70102971D01*
X171242523Y-70101038D01*
X171204428Y-70024848D01*
X171200495Y-70019781D01*
X171196935Y-70014452D01*
X171158839Y-69976357D01*
X171153507Y-69972795D01*
X171148444Y-69968865D01*
X171072254Y-69930769D01*
X171070320Y-69930239D01*
X171069672Y-69929591D01*
X171063384Y-69928340D01*
X171057201Y-69926647D01*
X171056330Y-69926937D01*
X171054365Y-69926546D01*
X170940079Y-69926546D01*
X170938112Y-69926937D01*
X170937242Y-69926647D01*
X170931057Y-69928340D01*
X170924772Y-69929591D01*
X170924123Y-69930239D01*
X170922190Y-69930769D01*
X170846000Y-69968865D01*
X170840936Y-69972795D01*
X170835605Y-69976357D01*
X170797509Y-70014452D01*
X170796395Y-70016118D01*
X170795575Y-70016529D01*
X170792403Y-70022093D01*
X170788838Y-70027429D01*
X170788838Y-70028347D01*
X170787846Y-70030088D01*
X170779536Y-70055016D01*
X170777887Y-70052547D01*
X170739792Y-70014453D01*
X170734461Y-70010891D01*
X170729396Y-70006960D01*
X170653205Y-69968865D01*
X170651272Y-69968335D01*
X170650624Y-69967687D01*
X170644334Y-69966435D01*
X170638153Y-69964743D01*
X170637282Y-69965033D01*
X170635317Y-69964642D01*
X170559127Y-69964642D01*
X170557161Y-69965032D01*
X170556292Y-69964743D01*
X170550111Y-69966435D01*
X170543820Y-69967687D01*
X170543171Y-69968335D01*
X170541239Y-69968865D01*
X170465048Y-70006960D01*
X170459984Y-70010889D01*
X170454651Y-70014453D01*
X170416557Y-70052548D01*
X170412995Y-70057878D01*
X170409064Y-70062944D01*
X170370969Y-70139135D01*
X170370439Y-70141067D01*
X170369791Y-70141716D01*
X170368539Y-70148005D01*
X170366847Y-70154187D01*
X170367137Y-70155057D01*
X170366746Y-70157023D01*
X170277857Y-70157023D01*
X170277857Y-69318927D01*
X170366746Y-69318927D01*
X170366746Y-69471308D01*
X170367137Y-69473273D01*
X170366847Y-69474144D01*
X170368539Y-69480325D01*
X170369791Y-69486615D01*
X170370439Y-69487263D01*
X170370969Y-69489196D01*
X170409064Y-69565387D01*
X170412995Y-69570452D01*
X170416557Y-69575783D01*
X170492747Y-69651973D01*
X170496349Y-69654379D01*
X170497218Y-69655828D01*
X170501650Y-69657922D01*
X170505724Y-69660644D01*
X170507411Y-69660644D01*
X170511329Y-69662495D01*
X170663710Y-69700591D01*
X170668606Y-69700829D01*
X170673412Y-69701785D01*
X170940079Y-69701785D01*
X170944884Y-69700829D01*
X170949781Y-69700591D01*
X171102162Y-69662495D01*
X171106080Y-69660644D01*
X171107767Y-69660644D01*
X171111840Y-69657922D01*
X171116273Y-69655828D01*
X171117141Y-69654379D01*
X171120744Y-69651973D01*
X171196935Y-69575783D01*
X171200496Y-69570452D01*
X171204428Y-69565387D01*
X171242523Y-69489196D01*
X171243052Y-69487263D01*
X171243701Y-69486615D01*
X171244952Y-69480323D01*
X171246645Y-69474143D01*
X171246355Y-69473273D01*
X171246746Y-69471308D01*
X171246746Y-69318927D01*
X171246354Y-69316961D01*
X171246645Y-69316091D01*
X171244951Y-69309907D01*
X171243701Y-69303620D01*
X171243052Y-69302971D01*
X171242523Y-69301038D01*
X171204428Y-69224848D01*
X171200498Y-69219784D01*
X171196935Y-69214452D01*
X171120744Y-69138262D01*
X171117141Y-69135855D01*
X171116273Y-69134407D01*
X171111840Y-69132312D01*
X171107767Y-69129591D01*
X171106080Y-69129591D01*
X171102162Y-69127740D01*
X170949780Y-69089645D01*
X170944884Y-69089406D01*
X170940079Y-69088451D01*
X170673412Y-69088451D01*
X170668606Y-69089406D01*
X170663711Y-69089645D01*
X170511330Y-69127740D01*
X170507412Y-69129591D01*
X170505724Y-69129591D01*
X170501650Y-69132313D01*
X170497218Y-69134407D01*
X170496349Y-69135855D01*
X170492747Y-69138262D01*
X170416557Y-69214453D01*
X170412998Y-69219778D01*
X170409064Y-69224848D01*
X170370969Y-69301038D01*
X170370439Y-69302971D01*
X170369791Y-69303620D01*
X170368540Y-69309907D01*
X170366847Y-69316091D01*
X170367137Y-69316961D01*
X170366746Y-69318927D01*
X170277857Y-69318927D01*
X170277857Y-68480832D01*
X170366746Y-68480832D01*
X170366746Y-68633213D01*
X170367137Y-68635178D01*
X170366847Y-68636049D01*
X170368539Y-68642230D01*
X170369791Y-68648520D01*
X170370439Y-68649168D01*
X170370969Y-68651101D01*
X170409064Y-68727292D01*
X170412995Y-68732357D01*
X170416557Y-68737688D01*
X170492747Y-68813878D01*
X170496349Y-68816284D01*
X170497218Y-68817733D01*
X170501650Y-68819827D01*
X170505724Y-68822549D01*
X170507411Y-68822549D01*
X170511329Y-68824400D01*
X170663710Y-68862496D01*
X170668606Y-68862734D01*
X170673412Y-68863690D01*
X170940079Y-68863690D01*
X170944884Y-68862734D01*
X170949781Y-68862496D01*
X171102162Y-68824400D01*
X171106080Y-68822549D01*
X171107767Y-68822549D01*
X171111840Y-68819827D01*
X171116273Y-68817733D01*
X171117141Y-68816284D01*
X171120744Y-68813878D01*
X171196935Y-68737688D01*
X171200496Y-68732357D01*
X171204428Y-68727292D01*
X171242523Y-68651101D01*
X171243052Y-68649168D01*
X171243701Y-68648520D01*
X171244952Y-68642228D01*
X171246645Y-68636048D01*
X171246355Y-68635178D01*
X171246746Y-68633213D01*
X171246746Y-68480832D01*
X171246354Y-68478866D01*
X171246645Y-68477996D01*
X171244951Y-68471812D01*
X171243701Y-68465525D01*
X171243052Y-68464876D01*
X171242523Y-68462943D01*
X171204428Y-68386753D01*
X171200498Y-68381689D01*
X171196935Y-68376357D01*
X171120744Y-68300167D01*
X171117141Y-68297760D01*
X171116273Y-68296312D01*
X171111840Y-68294217D01*
X171107767Y-68291496D01*
X171106080Y-68291496D01*
X171102162Y-68289645D01*
X170949780Y-68251550D01*
X170944884Y-68251311D01*
X170940079Y-68250356D01*
X170673412Y-68250356D01*
X170668606Y-68251311D01*
X170663711Y-68251550D01*
X170511330Y-68289645D01*
X170507412Y-68291496D01*
X170505724Y-68291496D01*
X170501650Y-68294218D01*
X170497218Y-68296312D01*
X170496349Y-68297760D01*
X170492747Y-68300167D01*
X170416557Y-68376358D01*
X170412998Y-68381683D01*
X170409064Y-68386753D01*
X170370969Y-68462943D01*
X170370439Y-68464876D01*
X170369791Y-68465525D01*
X170368540Y-68471812D01*
X170366847Y-68477996D01*
X170367137Y-68478866D01*
X170366746Y-68480832D01*
X170277857Y-68480832D01*
X170277857Y-67604642D01*
X170366746Y-67604642D01*
X170366746Y-68061785D01*
X170369791Y-68077092D01*
X170391439Y-68098740D01*
X170422053Y-68098740D01*
X170443701Y-68077092D01*
X170446746Y-68061785D01*
X170446746Y-67873214D01*
X171206746Y-67873214D01*
X171222053Y-67870169D01*
X171243701Y-67848521D01*
X171243701Y-67817907D01*
X171222053Y-67796259D01*
X171206746Y-67793214D01*
X170446746Y-67793214D01*
X170446746Y-67604642D01*
X170443701Y-67589335D01*
X170422053Y-67567687D01*
X170391439Y-67567687D01*
X170369791Y-67589335D01*
X170366746Y-67604642D01*
X170277857Y-67604642D01*
X170277857Y-67478798D01*
X171335635Y-67478798D01*
X171335635Y-70552578D01*
G37*
X149137382Y-87664762D02*
X149518335Y-87664762D01*
X149061192Y-87893334D02*
X149327859Y-87093334D01*
X149327859Y-87093334D02*
X149594525Y-87893334D01*
X149861192Y-87474286D02*
X150127858Y-87474286D01*
X150242144Y-87893334D02*
X149861192Y-87893334D01*
X149861192Y-87893334D02*
X149861192Y-87093334D01*
X149861192Y-87093334D02*
X150242144Y-87093334D01*
X150585002Y-87588572D02*
X151194526Y-87588572D01*
X151537382Y-87855239D02*
X151651668Y-87893334D01*
X151651668Y-87893334D02*
X151842144Y-87893334D01*
X151842144Y-87893334D02*
X151918335Y-87855239D01*
X151918335Y-87855239D02*
X151956430Y-87817143D01*
X151956430Y-87817143D02*
X151994525Y-87740953D01*
X151994525Y-87740953D02*
X151994525Y-87664762D01*
X151994525Y-87664762D02*
X151956430Y-87588572D01*
X151956430Y-87588572D02*
X151918335Y-87550477D01*
X151918335Y-87550477D02*
X151842144Y-87512381D01*
X151842144Y-87512381D02*
X151689763Y-87474286D01*
X151689763Y-87474286D02*
X151613573Y-87436191D01*
X151613573Y-87436191D02*
X151575478Y-87398096D01*
X151575478Y-87398096D02*
X151537382Y-87321905D01*
X151537382Y-87321905D02*
X151537382Y-87245715D01*
X151537382Y-87245715D02*
X151575478Y-87169524D01*
X151575478Y-87169524D02*
X151613573Y-87131429D01*
X151613573Y-87131429D02*
X151689763Y-87093334D01*
X151689763Y-87093334D02*
X151880240Y-87093334D01*
X151880240Y-87093334D02*
X151994525Y-87131429D01*
X152337383Y-87893334D02*
X152337383Y-87093334D01*
X152337383Y-87093334D02*
X152604049Y-87664762D01*
X152604049Y-87664762D02*
X152870716Y-87093334D01*
X152870716Y-87093334D02*
X152870716Y-87893334D01*
X153213573Y-87664762D02*
X153594526Y-87664762D01*
X153137383Y-87893334D02*
X153404050Y-87093334D01*
X153404050Y-87093334D02*
X153670716Y-87893334D01*
X154394526Y-87893334D02*
X154127859Y-87512381D01*
X153937383Y-87893334D02*
X153937383Y-87093334D01*
X153937383Y-87093334D02*
X154242145Y-87093334D01*
X154242145Y-87093334D02*
X154318335Y-87131429D01*
X154318335Y-87131429D02*
X154356430Y-87169524D01*
X154356430Y-87169524D02*
X154394526Y-87245715D01*
X154394526Y-87245715D02*
X154394526Y-87360000D01*
X154394526Y-87360000D02*
X154356430Y-87436191D01*
X154356430Y-87436191D02*
X154318335Y-87474286D01*
X154318335Y-87474286D02*
X154242145Y-87512381D01*
X154242145Y-87512381D02*
X153937383Y-87512381D01*
X154623097Y-87093334D02*
X155080240Y-87093334D01*
X154851668Y-87893334D02*
X154851668Y-87093334D01*
X155346907Y-87588572D02*
X155956431Y-87588572D01*
X156299287Y-87855239D02*
X156413573Y-87893334D01*
X156413573Y-87893334D02*
X156604049Y-87893334D01*
X156604049Y-87893334D02*
X156680240Y-87855239D01*
X156680240Y-87855239D02*
X156718335Y-87817143D01*
X156718335Y-87817143D02*
X156756430Y-87740953D01*
X156756430Y-87740953D02*
X156756430Y-87664762D01*
X156756430Y-87664762D02*
X156718335Y-87588572D01*
X156718335Y-87588572D02*
X156680240Y-87550477D01*
X156680240Y-87550477D02*
X156604049Y-87512381D01*
X156604049Y-87512381D02*
X156451668Y-87474286D01*
X156451668Y-87474286D02*
X156375478Y-87436191D01*
X156375478Y-87436191D02*
X156337383Y-87398096D01*
X156337383Y-87398096D02*
X156299287Y-87321905D01*
X156299287Y-87321905D02*
X156299287Y-87245715D01*
X156299287Y-87245715D02*
X156337383Y-87169524D01*
X156337383Y-87169524D02*
X156375478Y-87131429D01*
X156375478Y-87131429D02*
X156451668Y-87093334D01*
X156451668Y-87093334D02*
X156642145Y-87093334D01*
X156642145Y-87093334D02*
X156756430Y-87131429D01*
X157099288Y-87893334D02*
X157099288Y-87093334D01*
X157099288Y-87474286D02*
X157556431Y-87474286D01*
X157556431Y-87893334D02*
X157556431Y-87093334D01*
X157937383Y-87093334D02*
X157937383Y-87740953D01*
X157937383Y-87740953D02*
X157975478Y-87817143D01*
X157975478Y-87817143D02*
X158013573Y-87855239D01*
X158013573Y-87855239D02*
X158089764Y-87893334D01*
X158089764Y-87893334D02*
X158242145Y-87893334D01*
X158242145Y-87893334D02*
X158318335Y-87855239D01*
X158318335Y-87855239D02*
X158356430Y-87817143D01*
X158356430Y-87817143D02*
X158394526Y-87740953D01*
X158394526Y-87740953D02*
X158394526Y-87093334D01*
X158775478Y-87893334D02*
X158775478Y-87093334D01*
X158775478Y-87093334D02*
X159232621Y-87893334D01*
X159232621Y-87893334D02*
X159232621Y-87093334D01*
X159499287Y-87093334D02*
X159956430Y-87093334D01*
X159727858Y-87893334D02*
X159727858Y-87093334D01*
X150375477Y-89181289D02*
X150375477Y-88381289D01*
X150375477Y-88762241D02*
X150832620Y-88762241D01*
X150832620Y-89181289D02*
X150832620Y-88381289D01*
X151213572Y-89181289D02*
X151213572Y-88647955D01*
X151213572Y-88381289D02*
X151175476Y-88419384D01*
X151175476Y-88419384D02*
X151213572Y-88457479D01*
X151213572Y-88457479D02*
X151251667Y-88419384D01*
X151251667Y-88419384D02*
X151213572Y-88381289D01*
X151213572Y-88381289D02*
X151213572Y-88457479D01*
X151594524Y-88876527D02*
X152204048Y-88876527D01*
X152546904Y-89143194D02*
X152623095Y-89181289D01*
X152623095Y-89181289D02*
X152775476Y-89181289D01*
X152775476Y-89181289D02*
X152851666Y-89143194D01*
X152851666Y-89143194D02*
X152889762Y-89067003D01*
X152889762Y-89067003D02*
X152889762Y-89028908D01*
X152889762Y-89028908D02*
X152851666Y-88952717D01*
X152851666Y-88952717D02*
X152775476Y-88914622D01*
X152775476Y-88914622D02*
X152661190Y-88914622D01*
X152661190Y-88914622D02*
X152585000Y-88876527D01*
X152585000Y-88876527D02*
X152546904Y-88800336D01*
X152546904Y-88800336D02*
X152546904Y-88762241D01*
X152546904Y-88762241D02*
X152585000Y-88686051D01*
X152585000Y-88686051D02*
X152661190Y-88647955D01*
X152661190Y-88647955D02*
X152775476Y-88647955D01*
X152775476Y-88647955D02*
X152851666Y-88686051D01*
X153232619Y-89181289D02*
X153232619Y-88647955D01*
X153232619Y-88381289D02*
X153194523Y-88419384D01*
X153194523Y-88419384D02*
X153232619Y-88457479D01*
X153232619Y-88457479D02*
X153270714Y-88419384D01*
X153270714Y-88419384D02*
X153232619Y-88381289D01*
X153232619Y-88381289D02*
X153232619Y-88457479D01*
X153956428Y-89181289D02*
X153956428Y-88381289D01*
X153956428Y-89143194D02*
X153880237Y-89181289D01*
X153880237Y-89181289D02*
X153727856Y-89181289D01*
X153727856Y-89181289D02*
X153651666Y-89143194D01*
X153651666Y-89143194D02*
X153613571Y-89105098D01*
X153613571Y-89105098D02*
X153575475Y-89028908D01*
X153575475Y-89028908D02*
X153575475Y-88800336D01*
X153575475Y-88800336D02*
X153613571Y-88724146D01*
X153613571Y-88724146D02*
X153651666Y-88686051D01*
X153651666Y-88686051D02*
X153727856Y-88647955D01*
X153727856Y-88647955D02*
X153880237Y-88647955D01*
X153880237Y-88647955D02*
X153956428Y-88686051D01*
X154642143Y-89143194D02*
X154565952Y-89181289D01*
X154565952Y-89181289D02*
X154413571Y-89181289D01*
X154413571Y-89181289D02*
X154337381Y-89143194D01*
X154337381Y-89143194D02*
X154299285Y-89067003D01*
X154299285Y-89067003D02*
X154299285Y-88762241D01*
X154299285Y-88762241D02*
X154337381Y-88686051D01*
X154337381Y-88686051D02*
X154413571Y-88647955D01*
X154413571Y-88647955D02*
X154565952Y-88647955D01*
X154565952Y-88647955D02*
X154642143Y-88686051D01*
X154642143Y-88686051D02*
X154680238Y-88762241D01*
X154680238Y-88762241D02*
X154680238Y-88838432D01*
X154680238Y-88838432D02*
X154299285Y-88914622D01*
X155594523Y-89143194D02*
X155708809Y-89181289D01*
X155708809Y-89181289D02*
X155899285Y-89181289D01*
X155899285Y-89181289D02*
X155975476Y-89143194D01*
X155975476Y-89143194D02*
X156013571Y-89105098D01*
X156013571Y-89105098D02*
X156051666Y-89028908D01*
X156051666Y-89028908D02*
X156051666Y-88952717D01*
X156051666Y-88952717D02*
X156013571Y-88876527D01*
X156013571Y-88876527D02*
X155975476Y-88838432D01*
X155975476Y-88838432D02*
X155899285Y-88800336D01*
X155899285Y-88800336D02*
X155746904Y-88762241D01*
X155746904Y-88762241D02*
X155670714Y-88724146D01*
X155670714Y-88724146D02*
X155632619Y-88686051D01*
X155632619Y-88686051D02*
X155594523Y-88609860D01*
X155594523Y-88609860D02*
X155594523Y-88533670D01*
X155594523Y-88533670D02*
X155632619Y-88457479D01*
X155632619Y-88457479D02*
X155670714Y-88419384D01*
X155670714Y-88419384D02*
X155746904Y-88381289D01*
X155746904Y-88381289D02*
X155937381Y-88381289D01*
X155937381Y-88381289D02*
X156051666Y-88419384D01*
X156394524Y-89181289D02*
X156394524Y-88381289D01*
X156737381Y-89181289D02*
X156737381Y-88762241D01*
X156737381Y-88762241D02*
X156699286Y-88686051D01*
X156699286Y-88686051D02*
X156623095Y-88647955D01*
X156623095Y-88647955D02*
X156508809Y-88647955D01*
X156508809Y-88647955D02*
X156432619Y-88686051D01*
X156432619Y-88686051D02*
X156394524Y-88724146D01*
X157461191Y-88647955D02*
X157461191Y-89181289D01*
X157118334Y-88647955D02*
X157118334Y-89067003D01*
X157118334Y-89067003D02*
X157156429Y-89143194D01*
X157156429Y-89143194D02*
X157232619Y-89181289D01*
X157232619Y-89181289D02*
X157346905Y-89181289D01*
X157346905Y-89181289D02*
X157423096Y-89143194D01*
X157423096Y-89143194D02*
X157461191Y-89105098D01*
X157842144Y-88647955D02*
X157842144Y-89181289D01*
X157842144Y-88724146D02*
X157880239Y-88686051D01*
X157880239Y-88686051D02*
X157956429Y-88647955D01*
X157956429Y-88647955D02*
X158070715Y-88647955D01*
X158070715Y-88647955D02*
X158146906Y-88686051D01*
X158146906Y-88686051D02*
X158185001Y-88762241D01*
X158185001Y-88762241D02*
X158185001Y-89181289D01*
X158451668Y-88647955D02*
X158756430Y-88647955D01*
X158565954Y-88381289D02*
X158565954Y-89067003D01*
X158565954Y-89067003D02*
X158604049Y-89143194D01*
X158604049Y-89143194D02*
X158680239Y-89181289D01*
X158680239Y-89181289D02*
X158756430Y-89181289D01*
X152794525Y-89935910D02*
X152985001Y-90469244D01*
X152985001Y-90469244D02*
X153175478Y-89935910D01*
X153632621Y-89669244D02*
X153708811Y-89669244D01*
X153708811Y-89669244D02*
X153785002Y-89707339D01*
X153785002Y-89707339D02*
X153823097Y-89745434D01*
X153823097Y-89745434D02*
X153861192Y-89821625D01*
X153861192Y-89821625D02*
X153899287Y-89974006D01*
X153899287Y-89974006D02*
X153899287Y-90164482D01*
X153899287Y-90164482D02*
X153861192Y-90316863D01*
X153861192Y-90316863D02*
X153823097Y-90393053D01*
X153823097Y-90393053D02*
X153785002Y-90431149D01*
X153785002Y-90431149D02*
X153708811Y-90469244D01*
X153708811Y-90469244D02*
X153632621Y-90469244D01*
X153632621Y-90469244D02*
X153556430Y-90431149D01*
X153556430Y-90431149D02*
X153518335Y-90393053D01*
X153518335Y-90393053D02*
X153480240Y-90316863D01*
X153480240Y-90316863D02*
X153442144Y-90164482D01*
X153442144Y-90164482D02*
X153442144Y-89974006D01*
X153442144Y-89974006D02*
X153480240Y-89821625D01*
X153480240Y-89821625D02*
X153518335Y-89745434D01*
X153518335Y-89745434D02*
X153556430Y-89707339D01*
X153556430Y-89707339D02*
X153632621Y-89669244D01*
X154242145Y-90393053D02*
X154280240Y-90431149D01*
X154280240Y-90431149D02*
X154242145Y-90469244D01*
X154242145Y-90469244D02*
X154204049Y-90431149D01*
X154204049Y-90431149D02*
X154242145Y-90393053D01*
X154242145Y-90393053D02*
X154242145Y-90469244D01*
X154775478Y-89669244D02*
X154851668Y-89669244D01*
X154851668Y-89669244D02*
X154927859Y-89707339D01*
X154927859Y-89707339D02*
X154965954Y-89745434D01*
X154965954Y-89745434D02*
X155004049Y-89821625D01*
X155004049Y-89821625D02*
X155042144Y-89974006D01*
X155042144Y-89974006D02*
X155042144Y-90164482D01*
X155042144Y-90164482D02*
X155004049Y-90316863D01*
X155004049Y-90316863D02*
X154965954Y-90393053D01*
X154965954Y-90393053D02*
X154927859Y-90431149D01*
X154927859Y-90431149D02*
X154851668Y-90469244D01*
X154851668Y-90469244D02*
X154775478Y-90469244D01*
X154775478Y-90469244D02*
X154699287Y-90431149D01*
X154699287Y-90431149D02*
X154661192Y-90393053D01*
X154661192Y-90393053D02*
X154623097Y-90316863D01*
X154623097Y-90316863D02*
X154585001Y-90164482D01*
X154585001Y-90164482D02*
X154585001Y-89974006D01*
X154585001Y-89974006D02*
X154623097Y-89821625D01*
X154623097Y-89821625D02*
X154661192Y-89745434D01*
X154661192Y-89745434D02*
X154699287Y-89707339D01*
X154699287Y-89707339D02*
X154775478Y-89669244D01*
X155385002Y-90393053D02*
X155423097Y-90431149D01*
X155423097Y-90431149D02*
X155385002Y-90469244D01*
X155385002Y-90469244D02*
X155346906Y-90431149D01*
X155346906Y-90431149D02*
X155385002Y-90393053D01*
X155385002Y-90393053D02*
X155385002Y-90469244D01*
X155727858Y-89745434D02*
X155765954Y-89707339D01*
X155765954Y-89707339D02*
X155842144Y-89669244D01*
X155842144Y-89669244D02*
X156032620Y-89669244D01*
X156032620Y-89669244D02*
X156108811Y-89707339D01*
X156108811Y-89707339D02*
X156146906Y-89745434D01*
X156146906Y-89745434D02*
X156185001Y-89821625D01*
X156185001Y-89821625D02*
X156185001Y-89897815D01*
X156185001Y-89897815D02*
X156146906Y-90012101D01*
X156146906Y-90012101D02*
X155689763Y-90469244D01*
X155689763Y-90469244D02*
X156185001Y-90469244D01*
D10*
X127858810Y-70871309D02*
X127858811Y-75371309D01*
X159358811Y-70871309D02*
X159358811Y-75371308D01*
X134358810Y-75321309D02*
G75*
G02*
X127858810Y-75321309I-3250000J0D01*
G01*
X152858811Y-70871309D02*
X152858810Y-75371309D01*
X134358811Y-70671309D02*
X134358811Y-75371309D01*
X159358811Y-75321309D02*
G75*
G02*
X152858811Y-75321309I-3250000J0D01*
G01*
X152858810Y-70921308D02*
G75*
G02*
X159358810Y-70921308I3250000J0D01*
G01*
X127859379Y-70921310D02*
G75*
G02*
X134359379Y-70921310I3250000J0D01*
G01*
D12*
G36*
X144665080Y-91982613D02*
G01*
X142492540Y-91982613D01*
X142492540Y-91201105D01*
X142581429Y-91201105D01*
X142581429Y-91277295D01*
X142581868Y-91279505D01*
X142581542Y-91280485D01*
X142583446Y-91287438D01*
X142584854Y-91294516D01*
X142585584Y-91295246D01*
X142586180Y-91297420D01*
X142624276Y-91373611D01*
X142628696Y-91379306D01*
X142632705Y-91385306D01*
X142670800Y-91423400D01*
X142676794Y-91427405D01*
X142682495Y-91431830D01*
X142758685Y-91469925D01*
X142763440Y-91471227D01*
X142767896Y-91473332D01*
X142915486Y-91510230D01*
X142980725Y-91542850D01*
X143008493Y-91570617D01*
X143038572Y-91630775D01*
X143038572Y-91685720D01*
X143008492Y-91745878D01*
X142980725Y-91773646D01*
X142920569Y-91803724D01*
X142748018Y-91803724D01*
X142640659Y-91767938D01*
X142623239Y-91765742D01*
X142592433Y-91781145D01*
X142581542Y-91813819D01*
X142596945Y-91844625D01*
X142612199Y-91853320D01*
X142726485Y-91891415D01*
X142733641Y-91892317D01*
X142740715Y-91893724D01*
X142931191Y-91893724D01*
X142933401Y-91893284D01*
X142934381Y-91893611D01*
X142941333Y-91891706D01*
X142948412Y-91890299D01*
X142949143Y-91889567D01*
X142951315Y-91888973D01*
X143027506Y-91850878D01*
X143033203Y-91846456D01*
X143039202Y-91842448D01*
X143077297Y-91804353D01*
X143081303Y-91798355D01*
X143085726Y-91792658D01*
X143123821Y-91716468D01*
X143124416Y-91714294D01*
X143125147Y-91713564D01*
X143126554Y-91706486D01*
X143128459Y-91699533D01*
X143128132Y-91698553D01*
X143128572Y-91696343D01*
X143128572Y-91620152D01*
X143128132Y-91617941D01*
X143128459Y-91616962D01*
X143126554Y-91610008D01*
X143125147Y-91602931D01*
X143124416Y-91602200D01*
X143123821Y-91600027D01*
X143085726Y-91523837D01*
X143081301Y-91518136D01*
X143077296Y-91512142D01*
X143039202Y-91474047D01*
X143033202Y-91470038D01*
X143027507Y-91465618D01*
X142951316Y-91427522D01*
X142946560Y-91426219D01*
X142942105Y-91424115D01*
X142794517Y-91387218D01*
X142729275Y-91354597D01*
X142701508Y-91326829D01*
X142671429Y-91266671D01*
X142671429Y-91211728D01*
X142701508Y-91151570D01*
X142729275Y-91123802D01*
X142789433Y-91093724D01*
X142961984Y-91093724D01*
X143069342Y-91129510D01*
X143086762Y-91131706D01*
X143117568Y-91116303D01*
X143128459Y-91083629D01*
X143114902Y-91056516D01*
X143267823Y-91056516D01*
X143274179Y-91072883D01*
X143533811Y-91480876D01*
X143533811Y-91848724D01*
X143537236Y-91865945D01*
X143561590Y-91890299D01*
X143596032Y-91890299D01*
X143620386Y-91865945D01*
X143623811Y-91848724D01*
X143623811Y-91480875D01*
X143801847Y-91201105D01*
X144029048Y-91201105D01*
X144029048Y-91277295D01*
X144029487Y-91279505D01*
X144029161Y-91280485D01*
X144031065Y-91287438D01*
X144032473Y-91294516D01*
X144033203Y-91295246D01*
X144033799Y-91297420D01*
X144071895Y-91373611D01*
X144076315Y-91379306D01*
X144080324Y-91385306D01*
X144118419Y-91423400D01*
X144124413Y-91427405D01*
X144130114Y-91431830D01*
X144206304Y-91469925D01*
X144211059Y-91471227D01*
X144215515Y-91473332D01*
X144363105Y-91510230D01*
X144428344Y-91542850D01*
X144456112Y-91570617D01*
X144486191Y-91630775D01*
X144486191Y-91685720D01*
X144456111Y-91745878D01*
X144428344Y-91773646D01*
X144368188Y-91803724D01*
X144195637Y-91803724D01*
X144088278Y-91767938D01*
X144070858Y-91765742D01*
X144040052Y-91781145D01*
X144029161Y-91813819D01*
X144044564Y-91844625D01*
X144059818Y-91853320D01*
X144174104Y-91891415D01*
X144181260Y-91892317D01*
X144188334Y-91893724D01*
X144378810Y-91893724D01*
X144381020Y-91893284D01*
X144382000Y-91893611D01*
X144388952Y-91891706D01*
X144396031Y-91890299D01*
X144396762Y-91889567D01*
X144398934Y-91888973D01*
X144475125Y-91850878D01*
X144480822Y-91846456D01*
X144486821Y-91842448D01*
X144524916Y-91804353D01*
X144528922Y-91798355D01*
X144533345Y-91792658D01*
X144571440Y-91716468D01*
X144572035Y-91714294D01*
X144572766Y-91713564D01*
X144574173Y-91706486D01*
X144576078Y-91699533D01*
X144575751Y-91698553D01*
X144576191Y-91696343D01*
X144576191Y-91620152D01*
X144575751Y-91617941D01*
X144576078Y-91616962D01*
X144574173Y-91610008D01*
X144572766Y-91602931D01*
X144572035Y-91602200D01*
X144571440Y-91600027D01*
X144533345Y-91523837D01*
X144528920Y-91518136D01*
X144524915Y-91512142D01*
X144486821Y-91474047D01*
X144480821Y-91470038D01*
X144475126Y-91465618D01*
X144398935Y-91427522D01*
X144394179Y-91426219D01*
X144389724Y-91424115D01*
X144242136Y-91387218D01*
X144176894Y-91354597D01*
X144149127Y-91326829D01*
X144119048Y-91266671D01*
X144119048Y-91211728D01*
X144149127Y-91151570D01*
X144176894Y-91123802D01*
X144237052Y-91093724D01*
X144409603Y-91093724D01*
X144516961Y-91129510D01*
X144534381Y-91131706D01*
X144565187Y-91116303D01*
X144576078Y-91083629D01*
X144560675Y-91052823D01*
X144545421Y-91044128D01*
X144431136Y-91006033D01*
X144423979Y-91005130D01*
X144416906Y-91003724D01*
X144226429Y-91003724D01*
X144224218Y-91004163D01*
X144223239Y-91003837D01*
X144216285Y-91005741D01*
X144209208Y-91007149D01*
X144208477Y-91007879D01*
X144206304Y-91008475D01*
X144130114Y-91046570D01*
X144124413Y-91050994D01*
X144118419Y-91055000D01*
X144080324Y-91093094D01*
X144076315Y-91099093D01*
X144071895Y-91104789D01*
X144033799Y-91180980D01*
X144033203Y-91183153D01*
X144032473Y-91183884D01*
X144031065Y-91190961D01*
X144029161Y-91197915D01*
X144029487Y-91198894D01*
X144029048Y-91201105D01*
X143801847Y-91201105D01*
X143883442Y-91072884D01*
X143889798Y-91056516D01*
X143882326Y-91022895D01*
X143853269Y-91004403D01*
X143819647Y-91011875D01*
X143807512Y-91024565D01*
X143578810Y-91383952D01*
X143350109Y-91024565D01*
X143337974Y-91011875D01*
X143304352Y-91004403D01*
X143275295Y-91022894D01*
X143267823Y-91056516D01*
X143114902Y-91056516D01*
X143113056Y-91052823D01*
X143097802Y-91044128D01*
X142983517Y-91006033D01*
X142976360Y-91005130D01*
X142969287Y-91003724D01*
X142778810Y-91003724D01*
X142776599Y-91004163D01*
X142775620Y-91003837D01*
X142768666Y-91005741D01*
X142761589Y-91007149D01*
X142760858Y-91007879D01*
X142758685Y-91008475D01*
X142682495Y-91046570D01*
X142676794Y-91050994D01*
X142670800Y-91055000D01*
X142632705Y-91093094D01*
X142628696Y-91099093D01*
X142624276Y-91104789D01*
X142586180Y-91180980D01*
X142585584Y-91183153D01*
X142584854Y-91183884D01*
X142583446Y-91190961D01*
X142581542Y-91197915D01*
X142581868Y-91198894D01*
X142581429Y-91201105D01*
X142492540Y-91201105D01*
X142492540Y-90914835D01*
X144665080Y-90914835D01*
X144665080Y-91982613D01*
G37*
D13*
X138696905Y-64490412D02*
X139173095Y-64490412D01*
X138601667Y-64776127D02*
X138935000Y-63776127D01*
X138935000Y-63776127D02*
X139268333Y-64776127D01*
X139601667Y-64109460D02*
X139601667Y-64776127D01*
X139601667Y-64204698D02*
X139649286Y-64157079D01*
X139649286Y-64157079D02*
X139744524Y-64109460D01*
X139744524Y-64109460D02*
X139887381Y-64109460D01*
X139887381Y-64109460D02*
X139982619Y-64157079D01*
X139982619Y-64157079D02*
X140030238Y-64252317D01*
X140030238Y-64252317D02*
X140030238Y-64776127D01*
X140363572Y-64109460D02*
X140744524Y-64109460D01*
X140506429Y-63776127D02*
X140506429Y-64633269D01*
X140506429Y-64633269D02*
X140554048Y-64728508D01*
X140554048Y-64728508D02*
X140649286Y-64776127D01*
X140649286Y-64776127D02*
X140744524Y-64776127D01*
X141458810Y-64728508D02*
X141363572Y-64776127D01*
X141363572Y-64776127D02*
X141173096Y-64776127D01*
X141173096Y-64776127D02*
X141077858Y-64728508D01*
X141077858Y-64728508D02*
X141030239Y-64633269D01*
X141030239Y-64633269D02*
X141030239Y-64252317D01*
X141030239Y-64252317D02*
X141077858Y-64157079D01*
X141077858Y-64157079D02*
X141173096Y-64109460D01*
X141173096Y-64109460D02*
X141363572Y-64109460D01*
X141363572Y-64109460D02*
X141458810Y-64157079D01*
X141458810Y-64157079D02*
X141506429Y-64252317D01*
X141506429Y-64252317D02*
X141506429Y-64347555D01*
X141506429Y-64347555D02*
X141030239Y-64442793D01*
X141935001Y-64109460D02*
X141935001Y-64776127D01*
X141935001Y-64204698D02*
X141982620Y-64157079D01*
X141982620Y-64157079D02*
X142077858Y-64109460D01*
X142077858Y-64109460D02*
X142220715Y-64109460D01*
X142220715Y-64109460D02*
X142315953Y-64157079D01*
X142315953Y-64157079D02*
X142363572Y-64252317D01*
X142363572Y-64252317D02*
X142363572Y-64776127D01*
X142839763Y-64109460D02*
X142839763Y-64776127D01*
X142839763Y-64204698D02*
X142887382Y-64157079D01*
X142887382Y-64157079D02*
X142982620Y-64109460D01*
X142982620Y-64109460D02*
X143125477Y-64109460D01*
X143125477Y-64109460D02*
X143220715Y-64157079D01*
X143220715Y-64157079D02*
X143268334Y-64252317D01*
X143268334Y-64252317D02*
X143268334Y-64776127D01*
X144173096Y-64776127D02*
X144173096Y-64252317D01*
X144173096Y-64252317D02*
X144125477Y-64157079D01*
X144125477Y-64157079D02*
X144030239Y-64109460D01*
X144030239Y-64109460D02*
X143839763Y-64109460D01*
X143839763Y-64109460D02*
X143744525Y-64157079D01*
X144173096Y-64728508D02*
X144077858Y-64776127D01*
X144077858Y-64776127D02*
X143839763Y-64776127D01*
X143839763Y-64776127D02*
X143744525Y-64728508D01*
X143744525Y-64728508D02*
X143696906Y-64633269D01*
X143696906Y-64633269D02*
X143696906Y-64538031D01*
X143696906Y-64538031D02*
X143744525Y-64442793D01*
X143744525Y-64442793D02*
X143839763Y-64395174D01*
X143839763Y-64395174D02*
X144077858Y-64395174D01*
X144077858Y-64395174D02*
X144173096Y-64347555D01*
X145363573Y-64490412D02*
X145839763Y-64490412D01*
X145268335Y-64776127D02*
X145601668Y-63776127D01*
X145601668Y-63776127D02*
X145935001Y-64776127D01*
X146268335Y-64776127D02*
X146268335Y-64109460D01*
X146268335Y-64299936D02*
X146315954Y-64204698D01*
X146315954Y-64204698D02*
X146363573Y-64157079D01*
X146363573Y-64157079D02*
X146458811Y-64109460D01*
X146458811Y-64109460D02*
X146554049Y-64109460D01*
X147268335Y-64728508D02*
X147173097Y-64776127D01*
X147173097Y-64776127D02*
X146982621Y-64776127D01*
X146982621Y-64776127D02*
X146887383Y-64728508D01*
X146887383Y-64728508D02*
X146839764Y-64633269D01*
X146839764Y-64633269D02*
X146839764Y-64252317D01*
X146839764Y-64252317D02*
X146887383Y-64157079D01*
X146887383Y-64157079D02*
X146982621Y-64109460D01*
X146982621Y-64109460D02*
X147173097Y-64109460D01*
X147173097Y-64109460D02*
X147268335Y-64157079D01*
X147268335Y-64157079D02*
X147315954Y-64252317D01*
X147315954Y-64252317D02*
X147315954Y-64347555D01*
X147315954Y-64347555D02*
X146839764Y-64442793D01*
X148173097Y-64776127D02*
X148173097Y-64252317D01*
X148173097Y-64252317D02*
X148125478Y-64157079D01*
X148125478Y-64157079D02*
X148030240Y-64109460D01*
X148030240Y-64109460D02*
X147839764Y-64109460D01*
X147839764Y-64109460D02*
X147744526Y-64157079D01*
X148173097Y-64728508D02*
X148077859Y-64776127D01*
X148077859Y-64776127D02*
X147839764Y-64776127D01*
X147839764Y-64776127D02*
X147744526Y-64728508D01*
X147744526Y-64728508D02*
X147696907Y-64633269D01*
X147696907Y-64633269D02*
X147696907Y-64538031D01*
X147696907Y-64538031D02*
X147744526Y-64442793D01*
X147744526Y-64442793D02*
X147839764Y-64395174D01*
X147839764Y-64395174D02*
X148077859Y-64395174D01*
X148077859Y-64395174D02*
X148173097Y-64347555D01*
D14*
%TO.C,D5*%
X135248811Y-93021309D02*
X137908811Y-93021309D01*
X135248811Y-91321309D02*
X137908811Y-91321309D01*
X135248811Y-91321309D02*
X135248811Y-93021309D01*
%TO.C,SW2*%
X165458810Y-70571307D02*
X165458810Y-70021307D01*
X166321311Y-67471307D02*
X165458810Y-67471307D01*
X168208810Y-66821307D02*
X166427560Y-66821307D01*
X169158810Y-67471307D02*
X168296309Y-67471307D01*
X169158810Y-70571307D02*
X165458810Y-70571307D01*
X169158810Y-70571307D02*
X169158810Y-70021307D01*
%TO.C,SW1*%
X118058811Y-70571309D02*
X118058811Y-70021309D01*
X118921312Y-67471309D02*
X118058811Y-67471309D01*
X120808811Y-66821309D02*
X119027561Y-66821309D01*
X121758811Y-67471309D02*
X120896310Y-67471309D01*
X121758811Y-70571309D02*
X118058811Y-70571309D01*
X121758811Y-70571309D02*
X121758811Y-70021309D01*
%TO.C,J4*%
X139078810Y-97556308D02*
X139078811Y-96146308D01*
X139898811Y-93476307D02*
X139898811Y-93626307D01*
X140698811Y-93476308D02*
X139898811Y-93476307D01*
X148238812Y-97556308D02*
X148238811Y-96146308D01*
%TO.C,U1*%
X150258811Y-78671309D02*
X149458811Y-78671308D01*
X150258811Y-77871308D02*
X150258811Y-78671309D01*
X150258811Y-61671307D02*
X150258812Y-62271308D01*
X150058811Y-78471308D02*
X136858811Y-78471308D01*
X150058811Y-61871308D02*
X150058811Y-78471308D01*
X149508811Y-61671307D02*
X150258811Y-61671307D01*
X137533811Y-61671308D02*
X136683811Y-61671308D01*
X136858811Y-78471308D02*
X136858811Y-61871308D01*
X136858811Y-67271308D02*
X150058811Y-67271308D01*
X136858811Y-61871308D02*
X150058811Y-61871308D01*
X136658811Y-78671309D02*
X137458811Y-78671308D01*
X136658811Y-77871308D02*
X136658811Y-78671309D01*
%TO.C,C5*%
X136368811Y-69611890D02*
X136368811Y-69330728D01*
X135348811Y-69611890D02*
X135348811Y-69330728D01*
%TO.C,R3*%
X139896068Y-89868808D02*
X139421552Y-89868808D01*
X139896068Y-88823808D02*
X139421552Y-88823808D01*
%TO.C,L1*%
X135068810Y-84531308D02*
X135068810Y-80011308D01*
X135068810Y-84531308D02*
X134918810Y-84531308D01*
X135068810Y-80011308D02*
X134918810Y-80011308D01*
X130548810Y-84531308D02*
X130698810Y-84531308D01*
X130548810Y-84531308D02*
X130548810Y-80011308D01*
X130548810Y-80011308D02*
X130698810Y-80011308D01*
%TO.C,R11*%
X141706310Y-79909049D02*
X141706310Y-80383565D01*
X140661310Y-79909049D02*
X140661310Y-80383565D01*
%TO.C,R1*%
X143808176Y-89850423D02*
X143333660Y-89850423D01*
X143808176Y-88805423D02*
X143333660Y-88805423D01*
D10*
%TO.C,D1*%
X144718809Y-92481308D02*
G75*
G02*
X144618811Y-92481308I-49999J0D01*
G01*
X144618811Y-92481308D02*
G75*
G02*
X144718809Y-92481308I49999J0D01*
G01*
D14*
%TO.C,R10*%
X147446069Y-92933809D02*
X146971553Y-92933809D01*
X147446069Y-91888809D02*
X146971553Y-91888809D01*
%TO.C,C10*%
X139468811Y-80055727D02*
X139468811Y-80336889D01*
X138448811Y-80055727D02*
X138448811Y-80336889D01*
%TO.C,R4*%
X146481311Y-80408567D02*
X146481311Y-79934051D01*
X145436311Y-80408567D02*
X145436311Y-79934051D01*
%TO.C,R7*%
X148081311Y-80408567D02*
X148081311Y-79934051D01*
X147036311Y-80408567D02*
X147036311Y-79934051D01*
%TO.C,U5*%
X142033811Y-85581310D02*
X142833811Y-85581309D01*
X142033811Y-85581310D02*
X141233811Y-85581309D01*
X142033811Y-82461308D02*
X142833811Y-82461309D01*
X142033811Y-82461308D02*
X141233811Y-82461309D01*
X140733811Y-82511309D02*
X140493811Y-82181309D01*
X140973811Y-82181309D01*
X140733811Y-82511309D01*
G36*
X140733811Y-82511309D02*
G01*
X140493811Y-82181309D01*
X140973811Y-82181309D01*
X140733811Y-82511309D01*
G37*
%TO.C,C6*%
X139511344Y-83628454D02*
X139511344Y-83105948D01*
X138041344Y-83628454D02*
X138041344Y-83105948D01*
%TO.C,C8*%
X130710000Y-89151342D02*
X130710000Y-88870180D01*
X129690000Y-89151342D02*
X129690000Y-88870180D01*
%TO.C,C7*%
X145393810Y-83811889D02*
X145393810Y-83530727D01*
X144373810Y-83811889D02*
X144373810Y-83530727D01*
%TO.C,C3*%
X136418811Y-80055728D02*
X136418811Y-80336890D01*
X135398811Y-80055728D02*
X135398811Y-80336890D01*
%TO.C,C4*%
X137436344Y-83628453D02*
X137436344Y-83105947D01*
X135966344Y-83628453D02*
X135966344Y-83105947D01*
%TO.C,R8*%
X149881311Y-80408567D02*
X149881311Y-79934051D01*
X148836311Y-80408567D02*
X148836311Y-79934051D01*
%TO.C,C1*%
X136418230Y-86406309D02*
X136699392Y-86406309D01*
X136418230Y-85386309D02*
X136699392Y-85386309D01*
D15*
%TO.C,G\u002A\u002A\u002A*%
G36*
X154407230Y-82907881D02*
G01*
X154824136Y-82910701D01*
X154824136Y-83826696D01*
X154406551Y-83829516D01*
X153988965Y-83832337D01*
X153988454Y-83522389D01*
X153988102Y-83436303D01*
X153987372Y-83351502D01*
X153986327Y-83272047D01*
X153985029Y-83201999D01*
X153983544Y-83145421D01*
X153981949Y-83106655D01*
X153980041Y-83054722D01*
X153979995Y-83005088D01*
X153981751Y-82965557D01*
X153983139Y-82952965D01*
X153990323Y-82905062D01*
X154407230Y-82907881D01*
G37*
G36*
X154826946Y-85919888D02*
G01*
X154824136Y-86380705D01*
X154413588Y-86383797D01*
X154304118Y-86384479D01*
X154214434Y-86384691D01*
X154142773Y-86384386D01*
X154087371Y-86383519D01*
X154046465Y-86382046D01*
X154018293Y-86379921D01*
X154001092Y-86377098D01*
X153993097Y-86373534D01*
X153992647Y-86373020D01*
X153990078Y-86358851D01*
X153987851Y-86324614D01*
X153985996Y-86271796D01*
X153984545Y-86201878D01*
X153983528Y-86116344D01*
X153982979Y-86016679D01*
X153982915Y-85911931D01*
X153983576Y-85464710D01*
X154829756Y-85459072D01*
X154826946Y-85919888D01*
G37*
G36*
X153676449Y-83832084D02*
G01*
X153473653Y-83832084D01*
X153384277Y-83832878D01*
X153313313Y-83835640D01*
X153257668Y-83840934D01*
X153214247Y-83849329D01*
X153179956Y-83861387D01*
X153151699Y-83877679D01*
X153130536Y-83894891D01*
X153094268Y-83934399D01*
X153069020Y-83978551D01*
X153052997Y-84032172D01*
X153044405Y-84100088D01*
X153042698Y-84131067D01*
X153038202Y-84241463D01*
X153931169Y-84244219D01*
X154824136Y-84246976D01*
X154824136Y-85044430D01*
X153935083Y-85049818D01*
X153046029Y-85055207D01*
X153046200Y-85162971D01*
X153046849Y-85214420D01*
X153049388Y-85250661D01*
X153054995Y-85278031D01*
X153064849Y-85302862D01*
X153076283Y-85324617D01*
X153120251Y-85383147D01*
X153177126Y-85424878D01*
X153245102Y-85448489D01*
X153246070Y-85448674D01*
X153275819Y-85452248D01*
X153322127Y-85455312D01*
X153380004Y-85457645D01*
X153444455Y-85459032D01*
X153489332Y-85459322D01*
X153676449Y-85459322D01*
X153676449Y-85916682D01*
X153676264Y-86013776D01*
X153675738Y-86103997D01*
X153674908Y-86185112D01*
X153673815Y-86254882D01*
X153672497Y-86311071D01*
X153670994Y-86351439D01*
X153669345Y-86373752D01*
X153668366Y-86377530D01*
X153655389Y-86378307D01*
X153624643Y-86378230D01*
X153579894Y-86377369D01*
X153524907Y-86375787D01*
X153482473Y-86374291D01*
X153309949Y-86360750D01*
X153151967Y-86333041D01*
X153005907Y-86290037D01*
X152869154Y-86230614D01*
X152739089Y-86153645D01*
X152613096Y-86058003D01*
X152495958Y-85949993D01*
X152420893Y-85871422D01*
X152360243Y-85799142D01*
X152310183Y-85727956D01*
X152266890Y-85652672D01*
X152245787Y-85610192D01*
X152220595Y-85554829D01*
X152200460Y-85504145D01*
X152183619Y-85452392D01*
X152168308Y-85393825D01*
X152152764Y-85322694D01*
X152143837Y-85277984D01*
X152138263Y-85248680D01*
X152133601Y-85221302D01*
X152129769Y-85193651D01*
X152126688Y-85163530D01*
X152124274Y-85128739D01*
X152122447Y-85087080D01*
X152121126Y-85036356D01*
X152120228Y-84974368D01*
X152119676Y-84898917D01*
X152119383Y-84807805D01*
X152119272Y-84698835D01*
X152119257Y-84613374D01*
X152119257Y-84074553D01*
X152149951Y-83940885D01*
X152185912Y-83809138D01*
X152230898Y-83692411D01*
X152287795Y-83585066D01*
X152359483Y-83481464D01*
X152425630Y-83401765D01*
X152543677Y-83281229D01*
X152669396Y-83178622D01*
X152804145Y-83093338D01*
X152949279Y-83024774D01*
X153106157Y-82972325D01*
X153276135Y-82935387D01*
X153460571Y-82913357D01*
X153533120Y-82908845D01*
X153676449Y-82901971D01*
X153676449Y-83832084D01*
G37*
G36*
X153705260Y-81139232D02*
G01*
X153863980Y-81139591D01*
X154041784Y-81140108D01*
X154239867Y-81140745D01*
X154253408Y-81140790D01*
X155535380Y-81145020D01*
X155659308Y-81172454D01*
X155790352Y-81207459D01*
X155906609Y-81252107D01*
X156013668Y-81309023D01*
X156117123Y-81380832D01*
X156137847Y-81397191D01*
X156250207Y-81498472D01*
X156348183Y-81609222D01*
X156429824Y-81726744D01*
X156493172Y-81848338D01*
X156524184Y-81930047D01*
X156538243Y-81974892D01*
X156548606Y-82012280D01*
X156556634Y-82048762D01*
X156563692Y-82090886D01*
X156571142Y-82145204D01*
X156574625Y-82172517D01*
X156575862Y-82193092D01*
X156577063Y-82234294D01*
X156578219Y-82295199D01*
X156579325Y-82374880D01*
X156580375Y-82472413D01*
X156581364Y-82586872D01*
X156582286Y-82717331D01*
X156583135Y-82862866D01*
X156583905Y-83022551D01*
X156584591Y-83195461D01*
X156585187Y-83380670D01*
X156585687Y-83577254D01*
X156586085Y-83784285D01*
X156586376Y-84000841D01*
X156586443Y-84069164D01*
X156586648Y-84300868D01*
X156586820Y-84512014D01*
X156586952Y-84703599D01*
X156587031Y-84876619D01*
X156587043Y-85032069D01*
X156586982Y-85170945D01*
X156586835Y-85294244D01*
X156586591Y-85402961D01*
X156586239Y-85498091D01*
X156585769Y-85580631D01*
X156585170Y-85651576D01*
X156584429Y-85711923D01*
X156583538Y-85762667D01*
X156582485Y-85804804D01*
X156581258Y-85839329D01*
X156579848Y-85867239D01*
X156578242Y-85889529D01*
X156576431Y-85907196D01*
X156574404Y-85921235D01*
X156572148Y-85932641D01*
X156569655Y-85942412D01*
X156566912Y-85951541D01*
X156565806Y-85955037D01*
X156528564Y-86045673D01*
X156477689Y-86130531D01*
X156417488Y-86202688D01*
X156403245Y-86216330D01*
X156348371Y-86263372D01*
X156297968Y-86298227D01*
X156243593Y-86325969D01*
X156179470Y-86350736D01*
X156095753Y-86380019D01*
X155643143Y-86381888D01*
X155545355Y-86382174D01*
X155453420Y-86382216D01*
X155369762Y-86382031D01*
X155296805Y-86381634D01*
X155236976Y-86381040D01*
X155192698Y-86380265D01*
X155166395Y-86379323D01*
X155160899Y-86378821D01*
X155131265Y-86373885D01*
X155131265Y-85461809D01*
X155311769Y-85457108D01*
X155388043Y-85454553D01*
X155446605Y-85450771D01*
X155491294Y-85444833D01*
X155525945Y-85435811D01*
X155554399Y-85422777D01*
X155580495Y-85404804D01*
X155601312Y-85387088D01*
X155616585Y-85373562D01*
X155629603Y-85361350D01*
X155640555Y-85348706D01*
X155649628Y-85333880D01*
X155657012Y-85315123D01*
X155662893Y-85290688D01*
X155667461Y-85258826D01*
X155670903Y-85217788D01*
X155673408Y-85165827D01*
X155675163Y-85101192D01*
X155676357Y-85022137D01*
X155677177Y-84926913D01*
X155677813Y-84813770D01*
X155678452Y-84680962D01*
X155678508Y-84669672D01*
X155679035Y-84521182D01*
X155679062Y-84390586D01*
X155678595Y-84278443D01*
X155677642Y-84185310D01*
X155676209Y-84111746D01*
X155674303Y-84058309D01*
X155671931Y-84025559D01*
X155670448Y-84016633D01*
X155642420Y-83951895D01*
X155596040Y-83898241D01*
X155557577Y-83870137D01*
X155537726Y-83858235D01*
X155519933Y-83849538D01*
X155500306Y-83843419D01*
X155474952Y-83839254D01*
X155439979Y-83836417D01*
X155391496Y-83834283D01*
X155325609Y-83832228D01*
X155320699Y-83832084D01*
X155136652Y-83826696D01*
X155136652Y-82910702D01*
X155406063Y-82905313D01*
X155675473Y-82899924D01*
X155674172Y-82716725D01*
X155673434Y-82647712D01*
X155671990Y-82595560D01*
X155669311Y-82555581D01*
X155664866Y-82523083D01*
X155658126Y-82493378D01*
X155648560Y-82461774D01*
X155643745Y-82447315D01*
X155600780Y-82351691D01*
X155540820Y-82265137D01*
X155466839Y-82190856D01*
X155381812Y-82132045D01*
X155325815Y-82105146D01*
X155265969Y-82080917D01*
X152895159Y-82070141D01*
X152826958Y-82045494D01*
X152733757Y-82003222D01*
X152657627Y-81949088D01*
X152596657Y-81881125D01*
X152548935Y-81797365D01*
X152524183Y-81733717D01*
X152505297Y-81644616D01*
X152506253Y-81554642D01*
X152525676Y-81466707D01*
X152562189Y-81383718D01*
X152614416Y-81308583D01*
X152680980Y-81244209D01*
X152760505Y-81193505D01*
X152785336Y-81181969D01*
X152801348Y-81175282D01*
X152817310Y-81169286D01*
X152834419Y-81163949D01*
X152853870Y-81159237D01*
X152876859Y-81155117D01*
X152904582Y-81151554D01*
X152938235Y-81148516D01*
X152979015Y-81145968D01*
X153028113Y-81143878D01*
X153086731Y-81142211D01*
X153156061Y-81140935D01*
X153237300Y-81140015D01*
X153331643Y-81139419D01*
X153440287Y-81139112D01*
X153564427Y-81139061D01*
X153705260Y-81139232D01*
G37*
D14*
%TO.C,C2*%
X133599392Y-86406309D02*
X133318230Y-86406309D01*
X133599392Y-85386309D02*
X133318230Y-85386309D01*
%TO.C,R6*%
X136431311Y-72384051D02*
X136431311Y-72858567D01*
X135386311Y-72384051D02*
X135386311Y-72858567D01*
%TO.C,U4*%
X134558810Y-90081308D02*
X136058810Y-90081308D01*
X134558810Y-90081308D02*
X133058810Y-90081308D01*
X134558810Y-86861308D02*
X136058810Y-86861308D01*
X134558810Y-86861308D02*
X133058810Y-86861308D01*
X137011310Y-90211308D02*
X136531310Y-90211308D01*
X136771310Y-89881308D01*
X137011310Y-90211308D01*
G36*
X137011310Y-90211308D02*
G01*
X136531310Y-90211308D01*
X136771310Y-89881308D01*
X137011310Y-90211308D01*
G37*
%TO.C,R12*%
X143306311Y-79934051D02*
X143306311Y-80408567D01*
X142261311Y-79934051D02*
X142261311Y-80408567D01*
%TO.C,R9*%
X140001552Y-92933809D02*
X140476068Y-92933809D01*
X140001552Y-91888809D02*
X140476068Y-91888809D01*
%TO.C,R5*%
X136381311Y-75484049D02*
X136381311Y-75958565D01*
X135336311Y-75484049D02*
X135336311Y-75958565D01*
%TO.C,R2*%
X139871069Y-88118809D02*
X139396553Y-88118809D01*
X139871069Y-87073809D02*
X139396553Y-87073809D01*
%TO.C,C9*%
X137943810Y-80055727D02*
X137943810Y-80336889D01*
X136923810Y-80055727D02*
X136923810Y-80336889D01*
%TD*%
%LPC*%
D16*
%TO.C,J2*%
X126358811Y-81671308D03*
X124608811Y-86171308D03*
X124608811Y-76921308D03*
X119858811Y-88471308D03*
D17*
X119858811Y-81671308D03*
D16*
X119858811Y-74921308D03*
X115358811Y-76921308D03*
X114858812Y-86171308D03*
X113358811Y-81671308D03*
%TD*%
%TO.C,J1*%
X160858810Y-81671308D03*
X162358811Y-86171308D03*
X162858810Y-76921308D03*
X167358810Y-74921308D03*
X167358810Y-88471308D03*
X172108810Y-76921308D03*
X172108810Y-86171308D03*
X173858810Y-81671308D03*
D17*
X167358810Y-81671308D03*
%TD*%
D18*
%TO.C,D5*%
X137908811Y-92171309D03*
X135808811Y-92171309D03*
%TD*%
D19*
%TO.C,SW2*%
X169108810Y-69521307D03*
X165508810Y-69521307D03*
X169108810Y-68221307D03*
X165508810Y-68221307D03*
D20*
X167308810Y-69771307D03*
X167308810Y-67946307D03*
%TD*%
D19*
%TO.C,SW1*%
X121708811Y-69521309D03*
X118108811Y-69521309D03*
X121708811Y-68221309D03*
X118108811Y-68221309D03*
D20*
X119908811Y-69771309D03*
X119908811Y-67946309D03*
%TD*%
D21*
%TO.C,J4*%
X148768811Y-98816308D03*
X148768811Y-94886308D03*
X138548811Y-98816308D03*
X138548811Y-94886308D03*
D22*
X140458811Y-94311308D03*
X141258811Y-94311308D03*
D23*
X141908811Y-94311308D03*
X142908811Y-94311308D03*
X144408811Y-94311308D03*
X145408811Y-94311308D03*
D22*
X146058811Y-94311308D03*
X146858811Y-94311308D03*
X146858811Y-94311308D03*
X146058811Y-94311308D03*
D23*
X144908811Y-94311309D03*
X143908811Y-94311308D03*
X143408811Y-94311308D03*
X142408811Y-94311309D03*
D22*
X141258811Y-94311308D03*
X140458811Y-94311308D03*
D24*
X146548811Y-95386308D03*
X140768811Y-95386308D03*
%TD*%
D25*
%TO.C,U1*%
X137558811Y-68871308D03*
X137558811Y-69671309D03*
X137558811Y-70471308D03*
X137558811Y-71271307D03*
X137558811Y-72071308D03*
X137558811Y-72871308D03*
X137558811Y-73671308D03*
X137558811Y-74471308D03*
X137558811Y-75271309D03*
X137558811Y-76071308D03*
X137558811Y-76871307D03*
D26*
X138658811Y-77771308D03*
X139458810Y-77771308D03*
X140258811Y-77771308D03*
X141058811Y-77771308D03*
X141858811Y-77771308D03*
X142658811Y-77771308D03*
X143458811Y-77771309D03*
X144258811Y-77771308D03*
X145058811Y-77771308D03*
X145858811Y-77771308D03*
X146658811Y-77771308D03*
X147458812Y-77771308D03*
X148258811Y-77771308D03*
D25*
X149358811Y-76871307D03*
X149358811Y-76071308D03*
X149358811Y-75271309D03*
X149358811Y-74471308D03*
X149358811Y-73671308D03*
X149358811Y-72871308D03*
X149358811Y-72071308D03*
X149358811Y-71271307D03*
X149358811Y-70471308D03*
X149358811Y-69671309D03*
X149358811Y-68871308D03*
D26*
X148258811Y-67971309D03*
X147458811Y-67971308D03*
X146658811Y-67971308D03*
X145858811Y-67971308D03*
X145058811Y-67971308D03*
X144258811Y-67971309D03*
X143458811Y-67971308D03*
X142658811Y-67971309D03*
X141858811Y-67971308D03*
X141058811Y-67971308D03*
X140258811Y-67971308D03*
X139458811Y-67971308D03*
X138658811Y-67971309D03*
D27*
X141483811Y-72871308D03*
X141483811Y-74846308D03*
D28*
X141483812Y-70896308D03*
D27*
X143458811Y-70896307D03*
X143458811Y-72871308D03*
X143458811Y-74846308D03*
X145433810Y-70896308D03*
X145433811Y-72871308D03*
X145433811Y-74846308D03*
D29*
X149408811Y-67921308D03*
X149408811Y-77821308D03*
X137508811Y-77821308D03*
X137508811Y-67921308D03*
%TD*%
D30*
%TO.C,C5*%
X135858811Y-70246309D03*
X135858811Y-68696309D03*
%TD*%
D31*
%TO.C,R3*%
X140483810Y-89346308D03*
X138833810Y-89346308D03*
%TD*%
D32*
%TO.C,L1*%
X132808810Y-83771308D03*
X132808810Y-80771308D03*
%TD*%
D33*
%TO.C,R11*%
X141183810Y-79321307D03*
X141183810Y-80971307D03*
%TD*%
D31*
%TO.C,R1*%
X144395918Y-89327923D03*
X142745918Y-89327923D03*
%TD*%
D34*
%TO.C,D1*%
X144063811Y-92481308D03*
X143093811Y-92481308D03*
%TD*%
D31*
%TO.C,R10*%
X148033811Y-92411309D03*
X146383811Y-92411309D03*
%TD*%
D35*
%TO.C,C10*%
X138958811Y-79421308D03*
X138958811Y-80971308D03*
%TD*%
D36*
%TO.C,R4*%
X145958811Y-80996309D03*
X145958811Y-79346309D03*
%TD*%
%TO.C,R7*%
X147558811Y-80996309D03*
X147558811Y-79346309D03*
%TD*%
D37*
%TO.C,J5*%
X156908811Y-96021309D03*
X156205867Y-97718365D03*
X156205867Y-94324253D03*
X154508811Y-98421309D03*
D38*
X154508811Y-96021309D03*
D37*
X154508811Y-93621309D03*
X152811755Y-97718365D03*
X152811755Y-94324253D03*
X152108811Y-96021309D03*
%TD*%
D39*
%TO.C,U5*%
X140896311Y-83071310D03*
X140896311Y-84021309D03*
X140896311Y-84971308D03*
X143171311Y-84971308D03*
X143171311Y-84021309D03*
X143171311Y-83071310D03*
%TD*%
D40*
%TO.C,C6*%
X138776344Y-84317200D03*
X138776344Y-82417202D03*
%TD*%
D30*
%TO.C,C8*%
X130200000Y-89785761D03*
X130200000Y-88235761D03*
%TD*%
%TO.C,C7*%
X144883810Y-84446308D03*
X144883810Y-82896308D03*
%TD*%
D35*
%TO.C,C3*%
X135908811Y-79421309D03*
X135908811Y-80971309D03*
%TD*%
D40*
%TO.C,C4*%
X136701344Y-84317199D03*
X136701344Y-82417201D03*
%TD*%
D36*
%TO.C,R8*%
X149358811Y-80996309D03*
X149358811Y-79346309D03*
%TD*%
D41*
%TO.C,C1*%
X135783811Y-85896309D03*
X137333811Y-85896309D03*
%TD*%
D37*
%TO.C,J3*%
X135108810Y-95971308D03*
X134405866Y-97668364D03*
X134405866Y-94274252D03*
X132708810Y-98371308D03*
D38*
X132708810Y-95971308D03*
D37*
X132708810Y-93571308D03*
X131011754Y-97668364D03*
X131011754Y-94274252D03*
X130308810Y-95971308D03*
%TD*%
D42*
%TO.C,C2*%
X134233811Y-85896309D03*
X132683811Y-85896309D03*
%TD*%
D33*
%TO.C,R6*%
X135908811Y-71796309D03*
X135908811Y-73446309D03*
%TD*%
D43*
%TO.C,U4*%
X136758810Y-89471308D03*
X136758810Y-88971307D03*
X136758810Y-88471308D03*
X136758810Y-87971309D03*
X136758810Y-87471308D03*
X132358810Y-87471308D03*
X132358810Y-87971309D03*
X132358810Y-88471308D03*
X132358810Y-88971307D03*
X132358810Y-89471308D03*
%TD*%
D33*
%TO.C,R12*%
X142783811Y-79346309D03*
X142783811Y-80996309D03*
%TD*%
D44*
%TO.C,R9*%
X139413810Y-92411309D03*
X141063810Y-92411309D03*
%TD*%
D33*
%TO.C,R5*%
X135858811Y-74896307D03*
X135858811Y-76546307D03*
%TD*%
D31*
%TO.C,R2*%
X140458811Y-87596309D03*
X138808811Y-87596309D03*
%TD*%
D35*
%TO.C,C9*%
X137433810Y-79421308D03*
X137433810Y-80971308D03*
%TD*%
%LPD*%
M02*
