M48
; DRILL file {KiCad 9.0.1} date 2025-07-20T13:59:45+1000
; FORMAT={-:-/ absolute / inch / decimal}
; #@! TF.CreationDate,2025-07-20T13:59:45+10:00
; #@! TF.GenerationSoftware,Kicad,Pcbnew,9.0.1
; #@! TF.FileFunction,Plated,1,2,PTH
FMAT,2
INCH
; #@! TA.AperFunction,Plated,PTH,ViaDrill
T1C0.0118
; #@! TA.AperFunction,Plated,PTH,ComponentDrill
T2C0.0197
; #@! TA.AperFunction,Plated,PTH,ComponentDrill
T3C0.1260
; #@! TA.AperFunction,Plated,PTH,ComponentDrill
T4C0.3543
%
G90
G05
T1
X5.311Y-3.6969
X5.315Y-3.5748
X5.3287Y-3.3504
X5.4173Y-3.6378
X5.4193Y-3.4016
X5.4291Y-3.3701
X5.4567Y-2.8681
X5.4567Y-3.0787
X5.4843Y-3.0787
X5.4846Y-2.8708
X5.4921Y-3.5315
X5.4941Y-3.6142
X5.4961Y-2.4941
X5.4961Y-2.5531
X5.4961Y-3.4587
X5.4969Y-2.4319
X5.539Y-2.7222
X5.562Y-2.7402
X5.565Y-2.4319
X5.565Y-2.4941
X5.565Y-2.5531
X5.5765Y-3.4587
X5.5787Y-3.5354
X5.5787Y-3.6181
X5.6009Y-2.7401
X5.6142Y-2.9587
X5.6161Y-3.2717
X5.6339Y-2.4319
X5.6339Y-2.4941
X5.6339Y-2.5531
X5.6388Y-3.1998
X5.6555Y-3.4587
X5.6555Y-3.5335
X5.6555Y-3.6161
X5.6575Y-2.7205
X5.6791Y-2.8583
X5.6791Y-3.2717
X5.7087Y-3.3366
X5.7224Y-2.4319
X5.7224Y-2.4941
X5.7224Y-2.5531
X5.7264Y-3.6024
X5.7333Y-3.2106
X5.738Y-3.3398
X5.7382Y-3.4567
X5.7382Y-3.5335
X5.7618Y-2.9508
X5.7809Y-2.882
X5.7913Y-3.1506
X5.7947Y-2.9985
X5.8254Y-3.1451
X5.8366Y-2.8425
X5.8366Y-2.8661
X5.8565Y-3.1459
X5.872Y-3.4272
X5.8849Y-3.0038
X5.9075Y-3.1496
X5.9208Y-2.8819
X5.9528Y-3.5433
X5.9685Y-3.6969
X6.0089Y-2.9016
X6.0256Y-2.9567
X6.0974Y-2.8878
X6.1664Y-2.7647
X6.1795Y-2.9327
X6.4331Y-3.6299
T2
X5.0866Y-2.5846
X5.1143Y-2.5178
X5.1143Y-2.6515
X5.1811Y-2.4902
X5.1811Y-2.6791
X5.2479Y-2.5178
X5.2479Y-2.6515
X5.2756Y-2.5846
X5.9449Y-2.5866
X5.9726Y-2.5198
X5.9726Y-2.6534
X6.0394Y-2.4921
X6.0394Y-2.6811
X6.1062Y-2.5198
X6.1062Y-2.6534
X6.1339Y-2.5866
T3
X5.1811Y-2.5846
X6.0394Y-2.5866
T4
G00X4.6752Y-3.1299
M15
G01X4.6752Y-3.1693
M16
G05
G00X6.5453Y-3.1299
M15
G01X6.5453Y-3.1693
M16
G05
M30
