%TF.GenerationSoftware,KiCad,Pcbnew,9.0.1*%
%TF.CreationDate,2025-09-10T22:35:17+10:00*%
%TF.ProjectId,smart_shunt_v0.0.1,736d6172-745f-4736-9875-6e745f76302e,v0.0.4*%
%TF.SameCoordinates,Original*%
%TF.FileFunction,Soldermask,Bot*%
%TF.FilePolarity,Negative*%
%FSLAX46Y46*%
G04 Gerber Fmt 4.6, Leading zero omitted, Abs format (unit mm)*
G04 Created by KiCad (PCBNEW 9.0.1) date 2025-09-10 22:35:17*
%MOMM*%
%LPD*%
G01*
G04 APERTURE LIST*
%ADD10C,2.000000*%
%ADD11O,18.000000X18.500000*%
%ADD12C,0.800000*%
%ADD13C,6.400000*%
%ADD14C,0.750000*%
%ADD15C,0.650000*%
%ADD16O,17.000000X17.500000*%
G04 APERTURE END LIST*
D10*
%TO.C,J1*%
X173858810Y-81671308D03*
X172108810Y-86171308D03*
X172108810Y-76921308D03*
X167358810Y-88471308D03*
D11*
X167358810Y-81671308D03*
D10*
X167358810Y-74921308D03*
X162858810Y-76921308D03*
X162358811Y-86171308D03*
X160858810Y-81671308D03*
%TD*%
D12*
%TO.C,J5*%
X156908811Y-96021309D03*
X156205867Y-97718365D03*
X156205867Y-94324253D03*
X154508811Y-98421309D03*
D13*
X154508811Y-96021309D03*
D12*
X154508811Y-93621309D03*
X152811755Y-97718365D03*
X152811755Y-94324253D03*
X152108811Y-96021309D03*
%TD*%
D14*
%TO.C,SW2*%
X167308810Y-67946307D03*
X167308810Y-69771307D03*
%TD*%
D10*
%TO.C,J2*%
X126358811Y-81671308D03*
X124608811Y-86171308D03*
X124608811Y-76921308D03*
X119858811Y-88471308D03*
D11*
X119858811Y-81671308D03*
D10*
X119858811Y-74921308D03*
X115358811Y-76921308D03*
X114858812Y-86171308D03*
X113358811Y-81671308D03*
%TD*%
D12*
%TO.C,J3*%
X135108810Y-95971308D03*
X134405866Y-97668364D03*
X134405866Y-94274252D03*
X132708810Y-98371308D03*
D13*
X132708810Y-95971308D03*
D12*
X132708810Y-93571308D03*
X131011754Y-97668364D03*
X131011754Y-94274252D03*
X130308810Y-95971308D03*
%TD*%
D15*
%TO.C,J4*%
X140768811Y-95386308D03*
X146548811Y-95386308D03*
%TD*%
D14*
%TO.C,SW1*%
X119908811Y-67946309D03*
X119908811Y-69771309D03*
%TD*%
D10*
%TO.C,J6*%
X194500000Y-79400000D03*
X196250000Y-74900000D03*
X196250000Y-84150000D03*
X201000000Y-72600000D03*
D16*
X201000000Y-79400000D03*
D10*
X201000000Y-86150000D03*
X205500000Y-84150000D03*
X206000000Y-74900000D03*
X207500000Y-79400000D03*
%TD*%
M02*
