%TF.GenerationSoftware,KiCad,Pcbnew,9.0.1*%
%TF.CreationDate,2025-09-10T22:35:17+10:00*%
%TF.ProjectId,smart_shunt_v0.0.1,736d6172-745f-4736-9875-6e745f76302e,v0.0.4*%
%TF.SameCoordinates,Original*%
%TF.FileFunction,Copper,L1,Top*%
%TF.FilePolarity,Positive*%
%FSLAX46Y46*%
G04 Gerber Fmt 4.6, Leading zero omitted, Abs format (unit mm)*
G04 Created by KiCad (PCBNEW 9.0.1) date 2025-09-10 22:35:17*
%MOMM*%
%LPD*%
G01*
G04 APERTURE LIST*
G04 Aperture macros list*
%AMRoundRect*
0 Rectangle with rounded corners*
0 $1 Rounding radius*
0 $2 $3 $4 $5 $6 $7 $8 $9 X,Y pos of 4 corners*
0 Add a 4 corners polygon primitive as box body*
4,1,4,$2,$3,$4,$5,$6,$7,$8,$9,$2,$3,0*
0 Add four circle primitives for the rounded corners*
1,1,$1+$1,$2,$3*
1,1,$1+$1,$4,$5*
1,1,$1+$1,$6,$7*
1,1,$1+$1,$8,$9*
0 Add four rect primitives between the rounded corners*
20,1,$1+$1,$2,$3,$4,$5,0*
20,1,$1+$1,$4,$5,$6,$7,0*
20,1,$1+$1,$6,$7,$8,$9,0*
20,1,$1+$1,$8,$9,$2,$3,0*%
%AMFreePoly0*
4,1,6,0.725000,-0.725000,-0.725000,-0.725000,-0.725000,0.125000,-0.125000,0.725000,0.725000,0.725000,0.725000,-0.725000,0.725000,-0.725000,$1*%
%AMFreePoly1*
4,1,61,0.403536,3.403536,0.405000,3.400000,0.405000,-4.600000,0.403536,-4.603536,0.400000,-4.605000,-2.400000,-4.605000,-2.403536,-4.603536,-2.405000,-4.600000,-2.405000,-3.800000,-2.403536,-3.796464,-2.400000,-3.795000,-0.405000,-3.795000,-0.405000,-3.405000,-2.400000,-3.405000,-2.403536,-3.403536,-2.405000,-3.400000,-2.405000,-2.600000,-2.403536,-2.596464,-2.400000,-2.595000,-0.405000,-2.595000,
-0.405000,-2.205000,-2.400000,-2.205000,-2.403536,-2.203536,-2.405000,-2.200000,-2.405000,-1.400000,-2.403536,-1.396464,-2.400000,-1.395000,-0.405000,-1.395000,-0.405000,-1.005000,-2.400000,-1.005000,-2.403536,-1.003536,-2.405000,-1.000000,-2.405000,-0.200000,-2.403536,-0.196464,-2.400000,-0.195000,-0.405000,-0.195000,-0.405000,0.195000,-2.400000,0.195000,-2.403536,0.196464,-2.405000,0.200000,
-2.405000,1.000000,-2.403536,1.003536,-2.400000,1.005000,-0.405000,1.005000,-0.405000,1.395000,-2.400000,1.395000,-2.403536,1.396464,-2.405000,1.400000,-2.405000,2.200000,-2.403536,2.203536,-2.400000,2.205000,-0.405000,2.205000,-0.405000,2.595000,-2.400000,2.595000,-2.403536,2.596464,-2.405000,2.600000,-2.405000,3.400000,-2.403536,3.403536,-2.400000,3.405000,0.400000,3.405000,
0.403536,3.403536,0.403536,3.403536,$1*%
%AMFreePoly2*
4,1,29,2.988536,5.003536,2.990000,5.000000,2.990000,-5.100000,2.988536,-5.103536,2.985000,-5.105000,1.585000,-5.105000,1.581464,-5.103536,1.580000,-5.100000,1.580000,-4.405000,-1.310000,-4.405000,-1.310000,-4.900000,-1.311464,-4.903536,-1.315000,-4.905000,-5.015000,-4.905000,-5.018536,-4.903536,-5.020000,-4.900000,-5.020000,4.800000,-5.018536,4.803536,-5.015000,4.805000,-1.315000,4.805000,
-1.311464,4.803536,-1.310000,4.800000,-1.310000,4.305000,1.580000,4.305000,1.580000,5.000000,1.581464,5.003536,1.585000,5.005000,2.985000,5.005000,2.988536,5.003536,2.988536,5.003536,$1*%
G04 Aperture macros list end*
%TA.AperFunction,SMDPad,CuDef*%
%ADD10R,0.800000X0.400000*%
%TD*%
%TA.AperFunction,SMDPad,CuDef*%
%ADD11R,0.400000X0.800000*%
%TD*%
%TA.AperFunction,SMDPad,CuDef*%
%ADD12R,1.450000X1.450000*%
%TD*%
%TA.AperFunction,SMDPad,CuDef*%
%ADD13FreePoly0,0.000000*%
%TD*%
%TA.AperFunction,SMDPad,CuDef*%
%ADD14R,0.700000X0.700000*%
%TD*%
%TA.AperFunction,SMDPad,CuDef*%
%ADD15RoundRect,0.225000X0.250000X-0.225000X0.250000X0.225000X-0.250000X0.225000X-0.250000X-0.225000X0*%
%TD*%
%TA.AperFunction,SMDPad,CuDef*%
%ADD16RoundRect,0.200000X0.200000X0.275000X-0.200000X0.275000X-0.200000X-0.275000X0.200000X-0.275000X0*%
%TD*%
%TA.AperFunction,SMDPad,CuDef*%
%ADD17R,2.800000X0.800000*%
%TD*%
%TA.AperFunction,SMDPad,CuDef*%
%ADD18FreePoly1,180.000000*%
%TD*%
%TA.AperFunction,SMDPad,CuDef*%
%ADD19FreePoly2,180.000000*%
%TD*%
%TA.AperFunction,SMDPad,CuDef*%
%ADD20RoundRect,0.250000X1.600000X-0.300000X1.600000X0.300000X-1.600000X0.300000X-1.600000X-0.300000X0*%
%TD*%
%TA.AperFunction,SMDPad,CuDef*%
%ADD21RoundRect,0.200000X-0.275000X0.200000X-0.275000X-0.200000X0.275000X-0.200000X0.275000X0.200000X0*%
%TD*%
%TA.AperFunction,SMDPad,CuDef*%
%ADD22RoundRect,0.147500X0.147500X0.172500X-0.147500X0.172500X-0.147500X-0.172500X0.147500X-0.172500X0*%
%TD*%
%TA.AperFunction,SMDPad,CuDef*%
%ADD23RoundRect,0.225000X-0.250000X0.225000X-0.250000X-0.225000X0.250000X-0.225000X0.250000X0.225000X0*%
%TD*%
%TA.AperFunction,ComponentPad*%
%ADD24C,2.000000*%
%TD*%
%TA.AperFunction,ComponentPad*%
%ADD25O,18.000000X18.500000*%
%TD*%
%TA.AperFunction,SMDPad,CuDef*%
%ADD26RoundRect,0.200000X0.275000X-0.200000X0.275000X0.200000X-0.275000X0.200000X-0.275000X-0.200000X0*%
%TD*%
%TA.AperFunction,ComponentPad*%
%ADD27C,0.800000*%
%TD*%
%TA.AperFunction,ComponentPad*%
%ADD28C,6.400000*%
%TD*%
%TA.AperFunction,SMDPad,CuDef*%
%ADD29RoundRect,0.150000X-0.512500X-0.150000X0.512500X-0.150000X0.512500X0.150000X-0.512500X0.150000X0*%
%TD*%
%TA.AperFunction,SMDPad,CuDef*%
%ADD30RoundRect,0.250000X1.950000X1.000000X-1.950000X1.000000X-1.950000X-1.000000X1.950000X-1.000000X0*%
%TD*%
%TA.AperFunction,SMDPad,CuDef*%
%ADD31RoundRect,0.250000X0.475000X-0.250000X0.475000X0.250000X-0.475000X0.250000X-0.475000X-0.250000X0*%
%TD*%
%TA.AperFunction,SMDPad,CuDef*%
%ADD32RoundRect,0.112500X-0.187500X-0.112500X0.187500X-0.112500X0.187500X0.112500X-0.187500X0.112500X0*%
%TD*%
%TA.AperFunction,SMDPad,CuDef*%
%ADD33R,1.400000X0.900000*%
%TD*%
%TA.AperFunction,SMDPad,CuDef*%
%ADD34RoundRect,0.225000X-0.225000X-0.250000X0.225000X-0.250000X0.225000X0.250000X-0.225000X0.250000X0*%
%TD*%
%TA.AperFunction,SMDPad,CuDef*%
%ADD35RoundRect,0.225000X0.225000X0.250000X-0.225000X0.250000X-0.225000X-0.250000X0.225000X-0.250000X0*%
%TD*%
%TA.AperFunction,SMDPad,CuDef*%
%ADD36RoundRect,0.150000X-0.150000X-0.425000X0.150000X-0.425000X0.150000X0.425000X-0.150000X0.425000X0*%
%TD*%
%TA.AperFunction,SMDPad,CuDef*%
%ADD37RoundRect,0.075000X-0.075000X-0.500000X0.075000X-0.500000X0.075000X0.500000X-0.075000X0.500000X0*%
%TD*%
%TA.AperFunction,SMDPad,CuDef*%
%ADD38RoundRect,0.250000X-0.840000X-0.750000X0.840000X-0.750000X0.840000X0.750000X-0.840000X0.750000X0*%
%TD*%
%TA.AperFunction,SMDPad,CuDef*%
%ADD39RoundRect,0.075000X0.650000X0.075000X-0.650000X0.075000X-0.650000X-0.075000X0.650000X-0.075000X0*%
%TD*%
%TA.AperFunction,SMDPad,CuDef*%
%ADD40RoundRect,0.125000X-0.537500X-0.125000X0.537500X-0.125000X0.537500X0.125000X-0.537500X0.125000X0*%
%TD*%
%TA.AperFunction,SMDPad,CuDef*%
%ADD41RoundRect,0.200000X-0.200000X-0.275000X0.200000X-0.275000X0.200000X0.275000X-0.200000X0.275000X0*%
%TD*%
%TA.AperFunction,ComponentPad*%
%ADD42O,17.000000X17.500000*%
%TD*%
%TA.AperFunction,SMDPad,CuDef*%
%ADD43RoundRect,0.250000X0.250000X0.475000X-0.250000X0.475000X-0.250000X-0.475000X0.250000X-0.475000X0*%
%TD*%
%TA.AperFunction,ViaPad*%
%ADD44C,0.600000*%
%TD*%
%TA.AperFunction,ViaPad*%
%ADD45C,0.500000*%
%TD*%
%TA.AperFunction,ViaPad*%
%ADD46C,1.000000*%
%TD*%
%TA.AperFunction,Conductor*%
%ADD47C,0.500000*%
%TD*%
%TA.AperFunction,Conductor*%
%ADD48C,0.200000*%
%TD*%
%TA.AperFunction,Conductor*%
%ADD49C,0.300000*%
%TD*%
%TA.AperFunction,Conductor*%
%ADD50C,0.400000*%
%TD*%
%TA.AperFunction,Conductor*%
%ADD51C,0.250000*%
%TD*%
G04 APERTURE END LIST*
D10*
%TO.P,U1,1,GND*%
%TO.N,GND*%
X137558811Y-68871308D03*
%TO.P,U1,2,GND*%
X137558811Y-69671309D03*
%TO.P,U1,3,3V3*%
%TO.N,+3.3V*%
X137558811Y-70471308D03*
%TO.P,U1,4,NC*%
%TO.N,unconnected-(U1-NC-Pad4)*%
X137558811Y-71271307D03*
%TO.P,U1,5,GPIO2/ADC1_CH2*%
%TO.N,Net-(U1-GPIO2{slash}ADC1_CH2)*%
X137558811Y-72071308D03*
%TO.P,U1,6,GPIO3/ADC1_CH3*%
%TO.N,Net-(U1-GPIO3{slash}ADC1_CH3)*%
X137558811Y-72871308D03*
%TO.P,U1,7,NC*%
%TO.N,unconnected-(U1-NC-Pad7)*%
X137558811Y-73671308D03*
%TO.P,U1,8,EN/CHIP_PU*%
%TO.N,Net-(U1-EN{slash}CHIP_PU)*%
X137558811Y-74471308D03*
%TO.P,U1,9,NC*%
%TO.N,unconnected-(U1-NC-Pad9)*%
X137558811Y-75271309D03*
%TO.P,U1,10,NC*%
%TO.N,unconnected-(U1-NC-Pad10)*%
X137558811Y-76071308D03*
%TO.P,U1,11,GND*%
%TO.N,GND*%
X137558811Y-76871307D03*
D11*
%TO.P,U1,12,GPIO0/ADC1_CH0/XTAL_32K_P*%
%TO.N,unconnected-(U1-GPIO0{slash}ADC1_CH0{slash}XTAL_32K_P-Pad12)*%
X138658811Y-77771308D03*
%TO.P,U1,13,GPIO1/ADC1_CH1/XTAL_32K_N*%
%TO.N,unconnected-(U1-GPIO1{slash}ADC1_CH1{slash}XTAL_32K_N-Pad13)*%
X139458810Y-77771308D03*
%TO.P,U1,14,GND*%
%TO.N,GND*%
X140258811Y-77771308D03*
%TO.P,U1,15,NC*%
%TO.N,unconnected-(U1-NC-Pad15)*%
X141058811Y-77771308D03*
%TO.P,U1,16,GPIO10*%
%TO.N,SCL*%
X141858811Y-77771308D03*
%TO.P,U1,17,NC*%
%TO.N,unconnected-(U1-NC-Pad17)*%
X142658811Y-77771308D03*
%TO.P,U1,18,GPIO4/ADC1_CH4*%
%TO.N,LED*%
X143458811Y-77771309D03*
%TO.P,U1,19,GPIO5/ADC2_CH0*%
%TO.N,LD_DISC*%
X144258811Y-77771308D03*
%TO.P,U1,20,GPIO6*%
%TO.N,SDA*%
X145058811Y-77771308D03*
%TO.P,U1,21,GPIO7*%
%TO.N,ALERT*%
X145858811Y-77771308D03*
%TO.P,U1,22,GPIO8*%
%TO.N,Net-(U1-GPIO8)*%
X146658811Y-77771308D03*
%TO.P,U1,23,GPIO9*%
%TO.N,Net-(U1-GPIO9)*%
X147458812Y-77771308D03*
%TO.P,U1,24,NC*%
%TO.N,unconnected-(U1-NC-Pad24)*%
X148258811Y-77771308D03*
D10*
%TO.P,U1,25,NC*%
%TO.N,unconnected-(U1-NC-Pad25)*%
X149358811Y-76871307D03*
%TO.P,U1,26,GPIO18/USB_D-*%
%TO.N,USBD-*%
X149358811Y-76071308D03*
%TO.P,U1,27,GPIO19/USB_D+*%
%TO.N,USBD+*%
X149358811Y-75271309D03*
%TO.P,U1,28,NC*%
%TO.N,unconnected-(U1-NC-Pad28)*%
X149358811Y-74471308D03*
%TO.P,U1,29,NC*%
%TO.N,unconnected-(U1-NC-Pad29)*%
X149358811Y-73671308D03*
%TO.P,U1,30,GPIO20/U0RXD*%
%TO.N,unconnected-(U1-GPIO20{slash}U0RXD-Pad30)*%
X149358811Y-72871308D03*
%TO.P,U1,31,GPIO21/U0TXD*%
%TO.N,unconnected-(U1-GPIO21{slash}U0TXD-Pad31)*%
X149358811Y-72071308D03*
%TO.P,U1,32,NC*%
%TO.N,unconnected-(U1-NC-Pad32)*%
X149358811Y-71271307D03*
%TO.P,U1,33,NC*%
%TO.N,unconnected-(U1-NC-Pad33)*%
X149358811Y-70471308D03*
%TO.P,U1,34,NC*%
%TO.N,unconnected-(U1-NC-Pad34)*%
X149358811Y-69671309D03*
%TO.P,U1,35,NC*%
%TO.N,unconnected-(U1-NC-Pad35)*%
X149358811Y-68871308D03*
D11*
%TO.P,U1,36,GND*%
%TO.N,GND*%
X148258811Y-67971309D03*
%TO.P,U1,37,GND*%
X147458811Y-67971308D03*
%TO.P,U1,38,GND*%
X146658811Y-67971308D03*
%TO.P,U1,39,GND*%
X145858811Y-67971308D03*
%TO.P,U1,40,GND*%
X145058811Y-67971308D03*
%TO.P,U1,41,GND*%
X144258811Y-67971309D03*
%TO.P,U1,42,GND*%
X143458811Y-67971308D03*
%TO.P,U1,43,GND*%
X142658811Y-67971309D03*
%TO.P,U1,44,GND*%
X141858811Y-67971308D03*
%TO.P,U1,45,GND*%
X141058811Y-67971308D03*
%TO.P,U1,46,GND*%
X140258811Y-67971308D03*
%TO.P,U1,47,GND*%
X139458811Y-67971308D03*
%TO.P,U1,48,GND*%
X138658811Y-67971309D03*
D12*
%TO.P,U1,49,GND*%
X141483811Y-72871308D03*
X141483811Y-74846308D03*
D13*
X141483812Y-70896308D03*
D12*
X143458811Y-70896307D03*
X143458811Y-72871308D03*
X143458811Y-74846308D03*
X145433810Y-70896308D03*
X145433811Y-72871308D03*
X145433811Y-74846308D03*
D14*
%TO.P,U1,50,GND*%
X149408811Y-67921308D03*
%TO.P,U1,51,GND*%
X149408811Y-77821308D03*
%TO.P,U1,52,GND*%
X137508811Y-77821308D03*
%TO.P,U1,53,GND*%
X137508811Y-67921308D03*
%TD*%
D15*
%TO.P,C5,1*%
%TO.N,+3.3V*%
X135858811Y-70246309D03*
%TO.P,C5,2*%
%TO.N,GND*%
X135858811Y-68696309D03*
%TD*%
D16*
%TO.P,R3,1*%
%TO.N,+3.3V*%
X140483810Y-89346308D03*
%TO.P,R3,2*%
%TO.N,SDA*%
X138833810Y-89346308D03*
%TD*%
D17*
%TO.P,Q1,1,G*%
%TO.N,GATE*%
X189199999Y-88900001D03*
D18*
%TO.P,Q1,2,S*%
%TO.N,Net-(J6-Pin_1)*%
X188199999Y-84700001D03*
D19*
%TO.P,Q1,3,D*%
%TO.N,SHUNT+*%
X180284999Y-84750001D03*
%TD*%
D20*
%TO.P,L1,1*%
%TO.N,Net-(U5-SW)*%
X132808810Y-83771308D03*
%TO.P,L1,2*%
%TO.N,+3.3V*%
X132808810Y-80771308D03*
%TD*%
D21*
%TO.P,R11,1*%
%TO.N,+3.3V*%
X141183810Y-79321307D03*
%TO.P,R11,2*%
%TO.N,Net-(U5-VFB)*%
X141183810Y-80971307D03*
%TD*%
D16*
%TO.P,R14,1*%
%TO.N,Net-(J3-Pin_1)*%
X134075000Y-91100000D03*
%TO.P,R14,2*%
%TO.N,Net-(U1-GPIO3{slash}ADC1_CH3)*%
X132425000Y-91100000D03*
%TD*%
%TO.P,R1,1*%
%TO.N,LED*%
X144395918Y-89327923D03*
%TO.P,R1,2*%
%TO.N,Net-(D1-A)*%
X142745918Y-89327923D03*
%TD*%
D22*
%TO.P,D1,1,K*%
%TO.N,GND*%
X144063811Y-92481308D03*
%TO.P,D1,2,A*%
%TO.N,Net-(D1-A)*%
X143093811Y-92481308D03*
%TD*%
D16*
%TO.P,R10,1*%
%TO.N,GND*%
X148033811Y-92411309D03*
%TO.P,R10,2*%
%TO.N,Net-(J4-CC2)*%
X146383811Y-92411309D03*
%TD*%
D23*
%TO.P,C10,1*%
%TO.N,+3.3V*%
X138958811Y-79421308D03*
%TO.P,C10,2*%
%TO.N,GND*%
X138958811Y-80971308D03*
%TD*%
D24*
%TO.P,J1,1,Pin_1*%
%TO.N,SHUNT+*%
X173858810Y-81671308D03*
X172108810Y-86171308D03*
X172108810Y-76921308D03*
X167358810Y-88471308D03*
D25*
X167358810Y-81671308D03*
D24*
X167358810Y-74921308D03*
X162858810Y-76921308D03*
X162358811Y-86171308D03*
X160858810Y-81671308D03*
%TD*%
D26*
%TO.P,R4,1*%
%TO.N,+3.3V*%
X145958811Y-80996309D03*
%TO.P,R4,2*%
%TO.N,ALERT*%
X145958811Y-79346309D03*
%TD*%
%TO.P,R7,1*%
%TO.N,+3.3V*%
X147558811Y-80996309D03*
%TO.P,R7,2*%
%TO.N,Net-(U1-GPIO8)*%
X147558811Y-79346309D03*
%TD*%
D23*
%TO.P,C11,1*%
%TO.N,SHUNT+*%
X178800000Y-98100000D03*
%TO.P,C11,2*%
%TO.N,GND*%
X178800000Y-99650000D03*
%TD*%
D27*
%TO.P,J5,1,Pin_1*%
%TO.N,GND*%
X156908811Y-96021309D03*
X156205867Y-97718365D03*
X156205867Y-94324253D03*
X154508811Y-98421309D03*
D28*
X154508811Y-96021309D03*
D27*
X154508811Y-93621309D03*
X152811755Y-97718365D03*
X152811755Y-94324253D03*
X152108811Y-96021309D03*
%TD*%
D29*
%TO.P,U5,1,GND*%
%TO.N,GND*%
X140896311Y-83071310D03*
%TO.P,U5,2,SW*%
%TO.N,Net-(U5-SW)*%
X140896311Y-84021309D03*
%TO.P,U5,3,VIN*%
%TO.N,SHUNT+*%
X140896311Y-84971308D03*
%TO.P,U5,4,VFB*%
%TO.N,Net-(U5-VFB)*%
X143171311Y-84971308D03*
%TO.P,U5,5,EN*%
%TO.N,SHUNT+*%
X143171311Y-84021309D03*
%TO.P,U5,6,VBST*%
%TO.N,Net-(U5-VBST)*%
X143171311Y-83071310D03*
%TD*%
D30*
%TO.P,C13,1*%
%TO.N,SHUNT+*%
X169100000Y-96200000D03*
%TO.P,C13,2*%
%TO.N,GND*%
X161700000Y-96200000D03*
%TD*%
D31*
%TO.P,C6,1*%
%TO.N,SHUNT+*%
X138776344Y-84317200D03*
%TO.P,C6,2*%
%TO.N,GND*%
X138776344Y-82417202D03*
%TD*%
D32*
%TO.P,D5,1,K*%
%TO.N,SHUNT+*%
X135808811Y-92171309D03*
%TO.P,D5,2,A*%
%TO.N,USB_VBUS*%
X137908811Y-92171309D03*
%TD*%
D33*
%TO.P,SW2,1,1*%
%TO.N,Net-(U1-GPIO9)*%
X165508810Y-68221307D03*
X169108810Y-68221307D03*
%TO.P,SW2,2,2*%
%TO.N,GND*%
X165508810Y-69521307D03*
X169108810Y-69521307D03*
%TD*%
D15*
%TO.P,C8,1*%
%TO.N,SHUNT-*%
X130200000Y-89525000D03*
%TO.P,C8,2*%
%TO.N,SHUNT+*%
X130200000Y-87975000D03*
%TD*%
%TO.P,C7,1*%
%TO.N,Net-(U5-SW)*%
X145400000Y-84275000D03*
%TO.P,C7,2*%
%TO.N,Net-(U5-VBST)*%
X145400000Y-82725000D03*
%TD*%
D23*
%TO.P,C3,1*%
%TO.N,+3.3V*%
X135908811Y-79421309D03*
%TO.P,C3,2*%
%TO.N,GND*%
X135908811Y-80971309D03*
%TD*%
D31*
%TO.P,C4,1*%
%TO.N,SHUNT+*%
X136701344Y-84317199D03*
%TO.P,C4,2*%
%TO.N,GND*%
X136701344Y-82417201D03*
%TD*%
D26*
%TO.P,R8,1*%
%TO.N,+3.3V*%
X149358811Y-80996309D03*
%TO.P,R8,2*%
%TO.N,Net-(U1-GPIO9)*%
X149358811Y-79346309D03*
%TD*%
D34*
%TO.P,C1,1*%
%TO.N,+3.3V*%
X135783811Y-85896309D03*
%TO.P,C1,2*%
%TO.N,GND*%
X137333811Y-85896309D03*
%TD*%
D24*
%TO.P,J2,1,Pin_1*%
%TO.N,SHUNT-*%
X126358811Y-81671308D03*
X124608811Y-86171308D03*
X124608811Y-76921308D03*
X119858811Y-88471308D03*
D25*
X119858811Y-81671308D03*
D24*
X119858811Y-74921308D03*
X115358811Y-76921308D03*
X114858812Y-86171308D03*
X113358811Y-81671308D03*
%TD*%
D27*
%TO.P,J3,1,Pin_1*%
%TO.N,Net-(J3-Pin_1)*%
X135108810Y-95971308D03*
X134405866Y-97668364D03*
X134405866Y-94274252D03*
X132708810Y-98371308D03*
D28*
X132708810Y-95971308D03*
D27*
X132708810Y-93571308D03*
X131011754Y-97668364D03*
X131011754Y-94274252D03*
X130308810Y-95971308D03*
%TD*%
D35*
%TO.P,C2,1*%
%TO.N,+3.3V*%
X134233811Y-85896309D03*
%TO.P,C2,2*%
%TO.N,GND*%
X132683811Y-85896309D03*
%TD*%
D21*
%TO.P,R6,1*%
%TO.N,+3.3V*%
X135908811Y-71796309D03*
%TO.P,R6,2*%
%TO.N,Net-(U1-GPIO2{slash}ADC1_CH2)*%
X135908811Y-73446309D03*
%TD*%
D36*
%TO.P,J4,A1,GND*%
%TO.N,GND*%
X140458811Y-94311308D03*
%TO.P,J4,A4,VBUS*%
%TO.N,USB_VBUS*%
X141258811Y-94311308D03*
D37*
%TO.P,J4,A5,CC1*%
%TO.N,Net-(J4-CC1)*%
X142408811Y-94311309D03*
%TO.P,J4,A6,D+*%
%TO.N,USBD+*%
X143408811Y-94311308D03*
%TO.P,J4,A7,D-*%
%TO.N,USBD-*%
X143908811Y-94311308D03*
%TO.P,J4,A8,SBU1*%
%TO.N,unconnected-(J4-SBU1-PadA8)*%
X144908811Y-94311309D03*
D36*
%TO.P,J4,A9,VBUS*%
%TO.N,USB_VBUS*%
X146058811Y-94311308D03*
%TO.P,J4,A12,GND*%
%TO.N,GND*%
X146858811Y-94311308D03*
%TO.P,J4,B1,GND*%
X146858811Y-94311308D03*
%TO.P,J4,B4,VBUS*%
%TO.N,USB_VBUS*%
X146058811Y-94311308D03*
D37*
%TO.P,J4,B5,CC2*%
%TO.N,Net-(J4-CC2)*%
X145408811Y-94311308D03*
%TO.P,J4,B6,D+*%
%TO.N,USBD+*%
X144408811Y-94311308D03*
%TO.P,J4,B7,D-*%
%TO.N,USBD-*%
X142908811Y-94311308D03*
%TO.P,J4,B8,SBU2*%
%TO.N,unconnected-(J4-SBU2-PadB8)*%
X141908811Y-94311308D03*
D36*
%TO.P,J4,B9,VBUS*%
%TO.N,USB_VBUS*%
X141258811Y-94311308D03*
%TO.P,J4,B12,GND*%
%TO.N,GND*%
X140458811Y-94311308D03*
D38*
%TO.P,J4,S1,SHIELD*%
X138548811Y-94886308D03*
X138548811Y-98816308D03*
X148768811Y-94886308D03*
X148768811Y-98816308D03*
%TD*%
D39*
%TO.P,U4,10,Vin+*%
%TO.N,SHUNT-*%
X132358810Y-89471308D03*
%TO.P,U4,9,Vin-*%
%TO.N,SHUNT+*%
X132358810Y-88971307D03*
%TO.P,U4,8,Vbus*%
X132358810Y-88471308D03*
%TO.P,U4,7,GND*%
%TO.N,GND*%
X132358810Y-87971309D03*
%TO.P,U4,6,VS*%
%TO.N,+3.3V*%
X132358810Y-87471308D03*
%TO.P,U4,5,SCL*%
%TO.N,SCL*%
X136758810Y-87471308D03*
%TO.P,U4,4,SDA*%
%TO.N,SDA*%
X136758810Y-87971309D03*
%TO.P,U4,3,~{Alert}*%
%TO.N,ALERT*%
X136758810Y-88471308D03*
%TO.P,U4,2,A0*%
%TO.N,GND*%
X136758810Y-88971307D03*
%TO.P,U4,1,A1*%
X136758810Y-89471308D03*
%TD*%
D33*
%TO.P,SW1,1,1*%
%TO.N,Net-(U1-EN{slash}CHIP_PU)*%
X118108811Y-68221309D03*
X121708811Y-68221309D03*
%TO.P,SW1,2,2*%
%TO.N,GND*%
X118108811Y-69521309D03*
X121708811Y-69521309D03*
%TD*%
D17*
%TO.P,Q2,1,G*%
%TO.N,GATE*%
X189199999Y-77300001D03*
D18*
%TO.P,Q2,2,S*%
%TO.N,Net-(J6-Pin_1)*%
X188199999Y-73100001D03*
D19*
%TO.P,Q2,3,D*%
%TO.N,SHUNT+*%
X180284999Y-73150001D03*
%TD*%
D21*
%TO.P,R12,1*%
%TO.N,Net-(U5-VFB)*%
X142783811Y-79346309D03*
%TO.P,R12,2*%
%TO.N,GND*%
X142783811Y-80996309D03*
%TD*%
D40*
%TO.P,U2,1,EN*%
%TO.N,LD_DISC*%
X174662500Y-95125000D03*
%TO.P,U2,2,GND*%
%TO.N,GND*%
X174662500Y-95775000D03*
%TO.P,U2,3,NC*%
%TO.N,unconnected-(U2-NC-Pad3)*%
X174662500Y-96425000D03*
%TO.P,U2,4,VCAP*%
%TO.N,VCAP*%
X174662500Y-97075000D03*
%TO.P,U2,5,VS*%
%TO.N,SHUNT+*%
X176937500Y-97075000D03*
%TO.P,U2,6,GATE*%
%TO.N,GATE*%
X176937500Y-96425000D03*
%TO.P,U2,7,OV*%
%TO.N,GND*%
X176937500Y-95775000D03*
%TO.P,U2,8,SRC*%
%TO.N,Net-(J6-Pin_1)*%
X176937500Y-95125000D03*
%TD*%
D41*
%TO.P,R9,1*%
%TO.N,GND*%
X139413810Y-92411309D03*
%TO.P,R9,2*%
%TO.N,Net-(J4-CC1)*%
X141063810Y-92411309D03*
%TD*%
D16*
%TO.P,R13,1*%
%TO.N,Net-(U1-GPIO3{slash}ADC1_CH3)*%
X130825000Y-91100000D03*
%TO.P,R13,2*%
%TO.N,GND*%
X129175000Y-91100000D03*
%TD*%
D21*
%TO.P,R5,1*%
%TO.N,+3.3V*%
X135858811Y-74896307D03*
%TO.P,R5,2*%
%TO.N,Net-(U1-EN{slash}CHIP_PU)*%
X135858811Y-76546307D03*
%TD*%
D16*
%TO.P,R2,1*%
%TO.N,+3.3V*%
X140458811Y-87596309D03*
%TO.P,R2,2*%
%TO.N,SCL*%
X138808811Y-87596309D03*
%TD*%
D24*
%TO.P,J6,1,Pin_1*%
%TO.N,Net-(J6-Pin_1)*%
X194500000Y-79400000D03*
X196250000Y-74900000D03*
X196250000Y-84150000D03*
X201000000Y-72600000D03*
D42*
X201000000Y-79400000D03*
D24*
X201000000Y-86150000D03*
X205500000Y-84150000D03*
X206000000Y-74900000D03*
X207500000Y-79400000D03*
%TD*%
D43*
%TO.P,C12,1*%
%TO.N,SHUNT+*%
X176749999Y-99100000D03*
%TO.P,C12,2*%
%TO.N,VCAP*%
X174850001Y-99100000D03*
%TD*%
D23*
%TO.P,C9,1*%
%TO.N,+3.3V*%
X137433810Y-79421308D03*
%TO.P,C9,2*%
%TO.N,GND*%
X137433810Y-80971308D03*
%TD*%
D44*
%TO.N,SHUNT+*%
X150100000Y-85385348D03*
X145073414Y-85385656D03*
D45*
%TO.N,USBD-*%
X144833811Y-92071309D03*
X148000000Y-83471308D03*
X146798926Y-88753375D03*
X148208810Y-76071308D03*
%TO.N,USBD+*%
X148800000Y-83500000D03*
X145418597Y-92527993D03*
X148458811Y-75271309D03*
X147508811Y-88821308D03*
%TO.N,LED*%
X143508810Y-86521309D03*
X143458811Y-78571308D03*
%TO.N,Net-(U1-EN{slash}CHIP_PU)*%
X136958811Y-74621308D03*
X134908811Y-71671307D03*
%TO.N,Net-(U1-GPIO9)*%
X148508809Y-69271309D03*
X151208811Y-67771297D03*
D44*
%TO.N,ALERT*%
X135719458Y-88471308D03*
X140363077Y-76841408D03*
D45*
%TO.N,SCL*%
X139758811Y-86721308D03*
X141858810Y-78571308D03*
%TO.N,SDA*%
X139274664Y-88468636D03*
X141108811Y-76921306D03*
%TO.N,GND*%
X146558811Y-69871308D03*
X131900000Y-90200000D03*
X146508811Y-73821309D03*
X173599000Y-99501579D03*
X142458810Y-71921309D03*
X150600000Y-77500000D03*
X144408811Y-71871308D03*
D44*
X137353023Y-81765519D03*
X143008811Y-99901309D03*
D45*
X134508811Y-67771308D03*
D44*
X146508811Y-96821309D03*
D45*
X133908811Y-87771309D03*
D44*
X143847013Y-92071993D03*
X136058811Y-81671307D03*
X138144631Y-81785487D03*
D45*
X140358811Y-73871308D03*
D44*
X144758811Y-96821309D03*
X142883811Y-80396309D03*
D45*
X142458810Y-73821309D03*
X146608811Y-71971309D03*
X136631651Y-85375036D03*
X137858811Y-89471309D03*
X122708811Y-69471309D03*
X140658811Y-70171308D03*
X151000000Y-68700000D03*
X144464473Y-73821308D03*
X133058811Y-86571309D03*
D44*
X144758811Y-99901309D03*
X143008811Y-98321309D03*
X146488811Y-99901308D03*
D45*
X144408811Y-69771309D03*
X140358811Y-71921309D03*
D44*
X140758811Y-98321309D03*
D45*
X137858811Y-88871309D03*
D44*
X146508811Y-98321309D03*
X144758811Y-98321309D03*
X140758811Y-96821309D03*
X140758811Y-99901309D03*
X139008810Y-81646309D03*
D45*
X142458810Y-69821308D03*
D44*
X143008811Y-96821309D03*
D45*
%TO.N,Net-(D1-A)*%
X141858811Y-89071309D03*
X142408811Y-92571309D03*
D44*
%TO.N,Net-(U5-VFB)*%
X138922782Y-85510280D03*
X140483811Y-80121307D03*
D45*
%TO.N,SHUNT+*%
X155600000Y-75600000D03*
X173600000Y-73600000D03*
X165600000Y-93600000D03*
X173600000Y-68600000D03*
X157600000Y-78600000D03*
X163600000Y-90600000D03*
X174600000Y-71600000D03*
X155600000Y-76600000D03*
X175600000Y-88600000D03*
X164600000Y-91600000D03*
X172600000Y-70600000D03*
X166600000Y-98100000D03*
D46*
X179299999Y-81800002D03*
D45*
X167600000Y-98100000D03*
X163600000Y-71600000D03*
X163600000Y-91600000D03*
X159600000Y-69600000D03*
X165600000Y-95600000D03*
X161600000Y-90600000D03*
D46*
X183300000Y-76300000D03*
D45*
X168600000Y-93600000D03*
X176600000Y-90600000D03*
X173600000Y-93600000D03*
X161600000Y-71600000D03*
X158600000Y-86600000D03*
D46*
X183299999Y-85800001D03*
D45*
X175600000Y-91600000D03*
X155600000Y-73600000D03*
X162600000Y-92600000D03*
X164600000Y-71600000D03*
X168600000Y-91600000D03*
X176600000Y-89600000D03*
D46*
X181299999Y-83800002D03*
D45*
X156600000Y-85600000D03*
X175600000Y-74600000D03*
X155600000Y-69600000D03*
D46*
X183300000Y-72300000D03*
D45*
X158600000Y-75600000D03*
X157600000Y-74600000D03*
X160600000Y-70600000D03*
X175600000Y-90600000D03*
X170600000Y-93600000D03*
X161600000Y-89600000D03*
X167600000Y-92600000D03*
D46*
X179299999Y-76300001D03*
D45*
X169600000Y-70600000D03*
X170600000Y-92600000D03*
X154300000Y-78600000D03*
X158600000Y-70600000D03*
D46*
X181299999Y-70300001D03*
D45*
X159600000Y-73600000D03*
X155600000Y-78600000D03*
X166600000Y-92600000D03*
X154300000Y-77600000D03*
X164600000Y-70600000D03*
X173600000Y-90600000D03*
D46*
X179299999Y-87800001D03*
D45*
X156600000Y-69600000D03*
X167700000Y-71600000D03*
X174600000Y-90600000D03*
X157600000Y-81600000D03*
X172600000Y-73600000D03*
X159600000Y-74600000D03*
X155600000Y-72600000D03*
X156600000Y-82600000D03*
X156600000Y-84600000D03*
X168600000Y-92600000D03*
D46*
X179299999Y-83800001D03*
X181299999Y-87800001D03*
D45*
X165600000Y-70600000D03*
X166600000Y-71600000D03*
X180000000Y-97000000D03*
D46*
X183299999Y-74300001D03*
D45*
X157600000Y-72600000D03*
X168700000Y-71600000D03*
X155600000Y-70600000D03*
X155600000Y-77600000D03*
X160600000Y-90600000D03*
X174600000Y-69600000D03*
X178600000Y-93600000D03*
X174600000Y-70600000D03*
D46*
X183300000Y-70300001D03*
D45*
X156600000Y-76600000D03*
D46*
X181300000Y-74300000D03*
D45*
X157600000Y-70600000D03*
D46*
X181299999Y-76300001D03*
D45*
X155600000Y-79600000D03*
X163600000Y-72600000D03*
X158600000Y-74600000D03*
X160600000Y-69600000D03*
X154300000Y-70600000D03*
X161600000Y-91600000D03*
X165600000Y-91600000D03*
X154300000Y-81600000D03*
X158600000Y-73600000D03*
X166600000Y-93600000D03*
X160600000Y-73600000D03*
X167600000Y-93600000D03*
X160600000Y-91600000D03*
X165600000Y-94600000D03*
X155600000Y-82600000D03*
X162600000Y-71600000D03*
D46*
X179299999Y-72299999D03*
D45*
X175600000Y-89600000D03*
X155600000Y-83600000D03*
X163600000Y-70600000D03*
X178600000Y-91600000D03*
X156600000Y-73600000D03*
D46*
X181299999Y-72300002D03*
D45*
X177600000Y-93600000D03*
X165600000Y-98100000D03*
X175600000Y-72600000D03*
X175600000Y-70600000D03*
X159600000Y-72600000D03*
X154300000Y-80600000D03*
X154300000Y-76600000D03*
X175600000Y-93600000D03*
X171600000Y-98100000D03*
X155600000Y-81600000D03*
X174600000Y-91600000D03*
X157600000Y-73600000D03*
X173600000Y-72600000D03*
X154300000Y-71600000D03*
X177600000Y-90600000D03*
X157600000Y-82600000D03*
D46*
X181299999Y-81800001D03*
D45*
X162600000Y-90600000D03*
X154300000Y-73600000D03*
X156600000Y-70600000D03*
X156600000Y-78600000D03*
X156600000Y-74600000D03*
X175600000Y-92600000D03*
X154300000Y-72600000D03*
X157600000Y-69600000D03*
X160600000Y-92600000D03*
X176600000Y-93600000D03*
X178600000Y-92600000D03*
X159600000Y-70600000D03*
X160600000Y-89600000D03*
X155600000Y-74600000D03*
X173600000Y-69600000D03*
X177600000Y-91600000D03*
X156600000Y-72600000D03*
X172600000Y-69600000D03*
X159600000Y-71600000D03*
X174600000Y-93600000D03*
X171600000Y-71600000D03*
X161600000Y-73600000D03*
X174600000Y-68600000D03*
X176600000Y-87600000D03*
X161600000Y-70600000D03*
X176600000Y-88600000D03*
X172600000Y-93600000D03*
D46*
X179299999Y-74300001D03*
D45*
X176600000Y-91600000D03*
X157600000Y-75600000D03*
X157600000Y-85600000D03*
X165600000Y-96600000D03*
D46*
X179299999Y-85800001D03*
D45*
X157600000Y-77600000D03*
X174600000Y-88600000D03*
X172600000Y-71600000D03*
X157600000Y-84600000D03*
X158600000Y-69600000D03*
X169600000Y-98100000D03*
X169600000Y-93600000D03*
D46*
X183299999Y-83800001D03*
D45*
X171600000Y-72600000D03*
X156600000Y-83600000D03*
X154300000Y-75600000D03*
X155600000Y-84600000D03*
X157600000Y-79600000D03*
X159600000Y-75600000D03*
X158600000Y-76600000D03*
X175600000Y-87600000D03*
X163600000Y-69600000D03*
X167600000Y-91600000D03*
X156600000Y-81600000D03*
X166600000Y-91600000D03*
D46*
X179299999Y-70300002D03*
D45*
X162600000Y-69600000D03*
X169700000Y-71600000D03*
X173600000Y-89600000D03*
X158600000Y-85600000D03*
X168599999Y-98100000D03*
X175600000Y-73600000D03*
X173600000Y-70600000D03*
X171600000Y-90600000D03*
X170700000Y-72600000D03*
X175600000Y-68600000D03*
X154300000Y-82600000D03*
X169600000Y-92600000D03*
X157600000Y-76600000D03*
X174600000Y-89600000D03*
X171600000Y-91600000D03*
X154300000Y-69600000D03*
X172600000Y-92600000D03*
X174600000Y-74600000D03*
X162600000Y-70600000D03*
X156600000Y-79600000D03*
X169600000Y-91600000D03*
X156600000Y-71600000D03*
X176600000Y-92600000D03*
X170700000Y-71600000D03*
X156600000Y-80600000D03*
X172600000Y-68600000D03*
X164600000Y-92600000D03*
X170600000Y-98100000D03*
X173600000Y-91600000D03*
X180000000Y-98100000D03*
X157600000Y-80600000D03*
X161600000Y-69600000D03*
X173600000Y-71600000D03*
X160600000Y-71600000D03*
X165600000Y-71600000D03*
D46*
X181300000Y-85800000D03*
D45*
X173600000Y-92600000D03*
X171600000Y-93600000D03*
X154300000Y-74600000D03*
X162600000Y-72600000D03*
X161600000Y-92600000D03*
X172600000Y-90600000D03*
X174600000Y-92600000D03*
X156600000Y-77600000D03*
X171600000Y-70600000D03*
X158600000Y-71600000D03*
X160600000Y-74600000D03*
X157600000Y-83600000D03*
X162600000Y-91600000D03*
X154300000Y-79600000D03*
D46*
X183300000Y-81800001D03*
D45*
X155600000Y-80600000D03*
X171600000Y-92600000D03*
X175600000Y-69600000D03*
X170600000Y-91600000D03*
X157600000Y-71600000D03*
X165600000Y-92600000D03*
X177600000Y-92600000D03*
X163600000Y-92600000D03*
X158600000Y-72600000D03*
X155600000Y-71600000D03*
X154300000Y-83600000D03*
D46*
X183300000Y-87800000D03*
D45*
X178600000Y-90600000D03*
X160600000Y-72600000D03*
X161600000Y-72600000D03*
X156600000Y-75600000D03*
X175600000Y-71600000D03*
X172600000Y-72600000D03*
X174600000Y-72600000D03*
X172600000Y-91600000D03*
X174600000Y-73600000D03*
%TO.N,Net-(J6-Pin_1)*%
X191500000Y-85600000D03*
X195600000Y-71600000D03*
X193600000Y-71600000D03*
X194600000Y-88600000D03*
X206600000Y-86600000D03*
X208600000Y-71600000D03*
D44*
X181109620Y-91509620D03*
D45*
X191500000Y-78000000D03*
X197600000Y-70600000D03*
X207600000Y-85600000D03*
X193600000Y-69600000D03*
X196600000Y-89600000D03*
X204600000Y-88600000D03*
X193600000Y-68600000D03*
X199600000Y-88600000D03*
X196600000Y-87600000D03*
X206600000Y-87600000D03*
X204600000Y-70600000D03*
X208600000Y-68600000D03*
X193600000Y-70600000D03*
X208600000Y-89600000D03*
X192600000Y-74600000D03*
X207600000Y-89600000D03*
X206600000Y-89600000D03*
X191500000Y-79000000D03*
X203600000Y-89600000D03*
X197600000Y-89600000D03*
X193600000Y-85600000D03*
X191500000Y-82600000D03*
X200600000Y-88600000D03*
X192600000Y-72600000D03*
X191500000Y-80000000D03*
X192600000Y-70600000D03*
X196600000Y-88600000D03*
X206600000Y-70600000D03*
X191500000Y-86600000D03*
X193600000Y-86600000D03*
X194600000Y-89600000D03*
X191600000Y-69600000D03*
X191500000Y-87600000D03*
X194600000Y-71600000D03*
X208600000Y-85600000D03*
X192600000Y-87600000D03*
X202600000Y-88600000D03*
X207600000Y-69600000D03*
X201600000Y-88600000D03*
X208600000Y-73600000D03*
X195600000Y-88600000D03*
X191600000Y-70600000D03*
X191600000Y-68600000D03*
X193600000Y-73600000D03*
X200600000Y-89600000D03*
X192600000Y-75600000D03*
D44*
X188800000Y-90600000D03*
D45*
X192600000Y-69600000D03*
X197600000Y-88600000D03*
X191500000Y-77000000D03*
X191600000Y-72600000D03*
X203600000Y-70600000D03*
X193600000Y-89600000D03*
X191500000Y-76000000D03*
X192600000Y-73600000D03*
X207600000Y-71600000D03*
X207600000Y-87600000D03*
X208600000Y-69600000D03*
X198600000Y-89600000D03*
X192600000Y-84600000D03*
X192600000Y-86600000D03*
X193600000Y-87600000D03*
X205600000Y-87600000D03*
X193600000Y-72600000D03*
X195600000Y-70600000D03*
X192600000Y-68600000D03*
X191600000Y-74600000D03*
X191500000Y-88600000D03*
X192600000Y-83600000D03*
X208600000Y-88600000D03*
X192600000Y-88600000D03*
X191600000Y-71600000D03*
X205600000Y-88600000D03*
X201600000Y-89600000D03*
X206600000Y-88600000D03*
D44*
X180190380Y-90590380D03*
D45*
X208600000Y-87600000D03*
X208600000Y-86600000D03*
X191600000Y-73600000D03*
X192600000Y-85600000D03*
X191500000Y-84600000D03*
X203600000Y-88600000D03*
X207600000Y-86600000D03*
X207600000Y-72600000D03*
X195600000Y-89600000D03*
X208600000Y-84600000D03*
X206600000Y-71600000D03*
X198600000Y-88600000D03*
X195600000Y-87600000D03*
X191500000Y-81000000D03*
X196600000Y-70600000D03*
X194600000Y-86600000D03*
X192600000Y-89600000D03*
X204600000Y-89600000D03*
X207600000Y-70600000D03*
X194600000Y-87600000D03*
X202600000Y-89600000D03*
X208600000Y-72600000D03*
X208600000Y-70600000D03*
X205600000Y-70600000D03*
X207600000Y-68600000D03*
X205600000Y-89600000D03*
X199600000Y-89600000D03*
X192600000Y-71600000D03*
X193600000Y-88600000D03*
X194600000Y-70600000D03*
X207600000Y-88600000D03*
X191500000Y-83600000D03*
%TO.N,LD_DISC*%
X151700000Y-84400000D03*
X158300000Y-91500000D03*
%TO.N,Net-(U1-GPIO3{slash}ADC1_CH3)*%
X138384224Y-75724592D03*
X131650000Y-91100000D03*
X134888537Y-74845274D03*
X130583810Y-86900000D03*
%TD*%
D47*
%TO.N,SHUNT+*%
X145073414Y-85385656D02*
X144474000Y-84786242D01*
X144474000Y-84574000D02*
X143921309Y-84021309D01*
X144474000Y-84786242D02*
X144474000Y-84574000D01*
X143921309Y-84021309D02*
X143171311Y-84021309D01*
D48*
%TO.N,Net-(U5-SW)*%
X146200000Y-82300000D02*
X145700000Y-81800000D01*
X145453691Y-84446309D02*
X146200000Y-83700000D01*
X145700000Y-81800000D02*
X144755010Y-81800000D01*
X146200000Y-83700000D02*
X146200000Y-82300000D01*
X141859811Y-83412278D02*
X141250780Y-84021309D01*
X144755010Y-81800000D02*
X144155010Y-82400000D01*
X141859811Y-82605342D02*
X141859811Y-83412278D01*
X144155010Y-82400000D02*
X142065153Y-82400000D01*
X142065153Y-82400000D02*
X141859811Y-82605342D01*
D47*
%TO.N,SHUNT+*%
X140896311Y-84971308D02*
X141654711Y-84971308D01*
X141654711Y-84971308D02*
X142604710Y-84021309D01*
X142604710Y-84021309D02*
X143171311Y-84021309D01*
X138776344Y-84317200D02*
X139501344Y-84317200D01*
X140155452Y-84971308D02*
X140896311Y-84971308D01*
X139501344Y-84317200D02*
X140155452Y-84971308D01*
D48*
%TO.N,USBD-*%
X148000000Y-83471308D02*
X147000000Y-84471308D01*
X147000000Y-84471308D02*
X147000000Y-88552301D01*
X147000000Y-88552301D02*
X146798926Y-88753375D01*
D47*
%TO.N,SHUNT+*%
X150100000Y-85385348D02*
X154814652Y-85385348D01*
X154814652Y-85385348D02*
X155600000Y-84600000D01*
D48*
%TO.N,LD_DISC*%
X144258811Y-78835373D02*
X144258811Y-77771308D01*
X151700000Y-84400000D02*
X151700000Y-81400000D01*
X151700000Y-81400000D02*
X150400000Y-80100000D01*
X150400000Y-80100000D02*
X145523438Y-80100000D01*
X145523438Y-80100000D02*
X144258811Y-78835373D01*
%TO.N,USBD+*%
X147508811Y-84791189D02*
X148800000Y-83500000D01*
X147508811Y-88821308D02*
X147508811Y-84791189D01*
D49*
%TO.N,SHUNT+*%
X133542247Y-88520798D02*
X133497847Y-88476398D01*
X133497847Y-88476398D02*
X132354806Y-88476398D01*
X133308724Y-88967796D02*
X132447959Y-88967797D01*
D50*
X162358810Y-86171308D02*
X157558810Y-90971308D01*
X157558810Y-90971308D02*
X135710482Y-90971308D01*
X135710482Y-90971308D02*
X133739174Y-89000000D01*
X133739174Y-89000000D02*
X133287746Y-89000000D01*
D48*
%TO.N,USBD-*%
X148208810Y-76071308D02*
X149358810Y-76071309D01*
X142908811Y-94311308D02*
X142908811Y-93702485D01*
X144401173Y-93102308D02*
X144207811Y-93102309D01*
X144833811Y-92071309D02*
X144833810Y-92669671D01*
X142908811Y-93702485D02*
X143175987Y-93435309D01*
X144207811Y-93102309D02*
X143758223Y-93551897D01*
X143908811Y-93702484D02*
X143908811Y-94311309D01*
X143758223Y-93551897D02*
X143908811Y-93702484D01*
X143641635Y-93435309D02*
X143758223Y-93551897D01*
X143175987Y-93435309D02*
X143641635Y-93435309D01*
X144833810Y-92669671D02*
X144401173Y-93102308D01*
%TO.N,USBD+*%
X145461913Y-92608669D02*
X144408811Y-93661771D01*
X145418597Y-92527993D02*
X145461913Y-92571309D01*
X143408811Y-94311309D02*
X143408810Y-94920133D01*
X145461913Y-92571309D02*
X145461913Y-92608669D01*
X143675986Y-95187308D02*
X144141635Y-95187309D01*
X144141635Y-95187309D02*
X144408811Y-94920133D01*
X144408811Y-93661771D02*
X144408811Y-94311308D01*
X143408810Y-94920133D02*
X143675986Y-95187308D01*
X148458811Y-75271309D02*
X149358811Y-75271309D01*
X144408811Y-94920133D02*
X144408811Y-94311308D01*
D49*
%TO.N,USB_VBUS*%
X140774811Y-93237309D02*
X140630036Y-93237308D01*
X142047529Y-95638309D02*
X141258810Y-94849589D01*
X140208811Y-92816082D02*
X140208811Y-91922992D01*
X141258810Y-94311308D02*
X141258810Y-93721308D01*
X145261345Y-95638309D02*
X142047529Y-95638309D01*
X141258810Y-93721308D02*
X140774811Y-93237309D01*
X138494811Y-91585309D02*
X137908811Y-92171309D01*
X141258810Y-94849589D02*
X141258810Y-94311308D01*
X146058811Y-94840843D02*
X145261345Y-95638309D01*
X146058811Y-94311309D02*
X146058811Y-94840843D01*
X140208811Y-91922992D02*
X139871125Y-91585308D01*
X139871125Y-91585308D02*
X138494811Y-91585309D01*
X140630036Y-93237308D02*
X140208811Y-92816082D01*
%TO.N,Net-(J4-CC2)*%
X145408810Y-94311307D02*
X145408810Y-93386308D01*
X145408810Y-93386308D02*
X146383810Y-92411309D01*
%TO.N,Net-(J4-CC1)*%
X141388811Y-92411309D02*
X141063810Y-92411309D01*
X142408811Y-93431309D02*
X141388811Y-92411309D01*
X142408811Y-94311310D02*
X142408811Y-93431309D01*
D51*
%TO.N,LED*%
X144393810Y-87406309D02*
X144393811Y-89325816D01*
X143458811Y-78571308D02*
X143458811Y-77521310D01*
X143508810Y-86521309D02*
X144393810Y-87406309D01*
%TO.N,Net-(U1-EN{slash}CHIP_PU)*%
X134908811Y-69071309D02*
X134908811Y-71671307D01*
X122558810Y-68221309D02*
X123008811Y-67771308D01*
X136658811Y-74921308D02*
X136658811Y-75746308D01*
X136658811Y-75746308D02*
X135858811Y-76546308D01*
X123008811Y-67771308D02*
X133608810Y-67771309D01*
X118108810Y-68221308D02*
X119058811Y-68221309D01*
X121208811Y-68721309D02*
X121708811Y-68221309D01*
X137108811Y-74471307D02*
X136658811Y-74921308D01*
X119558811Y-68721308D02*
X121208811Y-68721309D01*
X121708811Y-68221309D02*
X122558810Y-68221309D01*
X133608810Y-67771309D02*
X134908811Y-69071309D01*
X119058811Y-68221309D02*
X119558811Y-68721308D01*
X137558811Y-74471307D02*
X137108811Y-74471307D01*
%TO.N,Net-(U1-GPIO2{slash}ADC1_CH2)*%
X137283812Y-72071308D02*
X135908811Y-73446309D01*
D49*
%TO.N,Net-(U1-GPIO8)*%
X146658810Y-78571308D02*
X147308811Y-79221309D01*
X146658811Y-77521309D02*
X146658810Y-78571308D01*
%TO.N,Net-(U1-GPIO9)*%
X149308810Y-79396308D02*
X148883811Y-79396309D01*
D51*
X147458812Y-75308137D02*
X147458812Y-77521309D01*
X148508810Y-74258137D02*
X147458812Y-75308137D01*
X168608811Y-68721309D02*
X166008811Y-68721308D01*
X148508811Y-69271311D02*
X148508810Y-74258137D01*
X169108811Y-68221309D02*
X168608811Y-68721309D01*
X151333811Y-67646298D02*
X164933800Y-67646297D01*
D49*
X147707810Y-78220308D02*
X147458812Y-77971310D01*
D51*
X151208811Y-67771297D02*
X151333811Y-67646298D01*
D49*
X148009810Y-78522308D02*
X147707810Y-78522307D01*
D51*
X164933800Y-67646297D02*
X165508811Y-68221309D01*
D49*
X148883811Y-79396309D02*
X148009810Y-78522308D01*
D51*
X148508809Y-69271309D02*
X148508811Y-69271311D01*
D49*
X147707810Y-78522307D02*
X147707810Y-78220308D01*
D51*
X166008811Y-68721308D02*
X165508811Y-68221309D01*
D48*
%TO.N,ALERT*%
X145858810Y-77369308D02*
X144859808Y-76370306D01*
X145858810Y-77771308D02*
X145858810Y-77369308D01*
X144859808Y-76370306D02*
X140834180Y-76370306D01*
X140834180Y-76370306D02*
X140363077Y-76841408D01*
X145858810Y-77771308D02*
X145858811Y-78246309D01*
X145858811Y-78246309D02*
X145808811Y-78296309D01*
X135719458Y-88471308D02*
X136758811Y-88471309D01*
X145808811Y-78296309D02*
X145808811Y-79196309D01*
%TO.N,Net-(U5-VBST)*%
X144883810Y-82896309D02*
X143221312Y-82896309D01*
D50*
%TO.N,Net-(U5-SW)*%
X140400422Y-84021309D02*
X140896311Y-84021309D01*
X139750422Y-83371309D02*
X140400422Y-84021309D01*
X139539518Y-83371307D02*
X139750422Y-83371309D01*
X137464518Y-83371309D02*
X138028373Y-83371308D01*
X135957366Y-83367316D02*
X137460526Y-83367317D01*
X133108811Y-83796309D02*
X133533810Y-83371308D01*
X135953373Y-83371308D02*
X135957366Y-83367316D01*
X139535526Y-83367317D02*
X139539518Y-83371307D01*
X137460526Y-83367317D02*
X137464518Y-83371309D01*
X138028373Y-83371308D02*
X138032366Y-83367317D01*
X138032366Y-83367317D02*
X139535526Y-83367317D01*
X133533810Y-83371308D02*
X135953373Y-83371308D01*
D51*
%TO.N,SHUNT-*%
X130250000Y-89575000D02*
X130200000Y-89525000D01*
D50*
X128012503Y-89575000D02*
X130150000Y-89575000D01*
D51*
X132358811Y-89471309D02*
X130514452Y-89471309D01*
D50*
X130150000Y-89575000D02*
X130200000Y-89525000D01*
D51*
X130514452Y-89471309D02*
X130410761Y-89575000D01*
X130410761Y-89575000D02*
X130250000Y-89575000D01*
D50*
X124608811Y-86171308D02*
X128012503Y-89575000D01*
D51*
%TO.N,SCL*%
X139008810Y-87471309D02*
X138386992Y-87471309D01*
X136758811Y-87471309D02*
X138683811Y-87471309D01*
X141858810Y-78571308D02*
X141858810Y-77521309D01*
X139758811Y-86721308D02*
X139008810Y-87471309D01*
D50*
%TO.N,+3.3V*%
X137558811Y-70471308D02*
X136083809Y-70471308D01*
X135033811Y-74071307D02*
X135858811Y-74896308D01*
D51*
X133058811Y-87471309D02*
X132358810Y-87471309D01*
D50*
X135033811Y-72671309D02*
X135033811Y-74071307D01*
X135858811Y-74896308D02*
X134983811Y-75771308D01*
X134983811Y-78871308D02*
X133083810Y-80771309D01*
D51*
X134258810Y-85721308D02*
X135758811Y-85721309D01*
X134233811Y-86296309D02*
X133058811Y-87471309D01*
D50*
X135908811Y-71796309D02*
X135033811Y-72671309D01*
X134983811Y-75771308D02*
X134983811Y-78871308D01*
D51*
X134233811Y-85896308D02*
X134233811Y-86296309D01*
D50*
X135858811Y-70246309D02*
X135858811Y-71746309D01*
D51*
%TO.N,SDA*%
X136758811Y-87971310D02*
X137960807Y-87971310D01*
X141108811Y-76921306D02*
X141232812Y-77045308D01*
X144784811Y-77147309D02*
X144784810Y-77247308D01*
X138458134Y-88468636D02*
X139274664Y-88468636D01*
X144682810Y-77045308D02*
X144784811Y-77147309D01*
X141232812Y-77045308D02*
X144682810Y-77045308D01*
X139274664Y-88468636D02*
X139274664Y-88905456D01*
X139274664Y-88905456D02*
X138833810Y-89346308D01*
X144784810Y-77247308D02*
X145058811Y-77521309D01*
X137960807Y-87971310D02*
X138458134Y-88468636D01*
%TO.N,GND*%
X166533811Y-70546308D02*
X165508811Y-69521308D01*
D50*
X173902660Y-95775000D02*
X174662500Y-95775000D01*
X173599000Y-96078660D02*
X173902660Y-95775000D01*
X136058811Y-81774668D02*
X136701344Y-82417201D01*
D51*
X136758811Y-89471309D02*
X137858811Y-89471309D01*
D50*
X136058811Y-81096309D02*
X136058811Y-81671307D01*
X137353023Y-81765519D02*
X136701344Y-82417201D01*
D51*
X152183822Y-68096297D02*
X163583799Y-68096296D01*
X121558811Y-69521308D02*
X120533811Y-70546308D01*
D50*
X137533811Y-81046309D02*
X137533811Y-81584734D01*
D47*
X140083811Y-82521309D02*
X136924285Y-82521308D01*
D51*
X133708810Y-87971310D02*
X132358810Y-87971310D01*
D48*
X144063810Y-92288790D02*
X143847013Y-92071993D01*
D50*
X137533811Y-81174667D02*
X138144631Y-81785487D01*
D48*
X129500000Y-91100000D02*
X129175000Y-91100000D01*
D51*
X137758812Y-88971308D02*
X137858811Y-88871309D01*
X133058811Y-86271309D02*
X132683811Y-85896309D01*
X163583799Y-68096296D02*
X165008810Y-69521308D01*
X149758810Y-77571307D02*
X149408811Y-77571309D01*
D50*
X139008811Y-81021309D02*
X139008810Y-81646309D01*
D48*
X174662500Y-95775000D02*
X176937500Y-95775000D01*
D50*
X139008810Y-81646309D02*
X139008811Y-82184733D01*
D51*
X122708811Y-69471309D02*
X121758811Y-69471308D01*
X133058811Y-86571309D02*
X133058811Y-86271309D01*
X136631651Y-85375036D02*
X136862537Y-85375035D01*
X136862537Y-85375035D02*
X137183811Y-85696309D01*
D48*
X130674110Y-90276000D02*
X130324000Y-90276000D01*
D51*
X136758811Y-88971308D02*
X137758812Y-88971308D01*
X120533811Y-70546308D02*
X119133811Y-70546309D01*
D48*
X130324000Y-90276000D02*
X129500000Y-91100000D01*
D51*
X135433810Y-68696308D02*
X134508811Y-67771308D01*
X149358811Y-67871309D02*
X148358811Y-67871309D01*
X133908811Y-87771309D02*
X133708810Y-87971310D01*
D50*
X136058811Y-81671307D02*
X136058811Y-81774668D01*
D51*
X151000000Y-68700000D02*
X151580119Y-68700000D01*
X150600000Y-77500000D02*
X149830117Y-77500000D01*
D50*
X138958811Y-80971309D02*
X135908811Y-80971308D01*
D48*
X131900000Y-90200000D02*
X130750110Y-90200000D01*
D51*
X149830117Y-77500000D02*
X149758810Y-77571307D01*
X148358811Y-67871309D02*
X148258811Y-67971309D01*
D49*
X142783811Y-80496309D02*
X142883811Y-80396309D01*
D50*
X173599000Y-99501579D02*
X173599000Y-96078660D01*
X138144631Y-81785487D02*
X138776344Y-82417200D01*
D47*
X140633812Y-83071310D02*
X140083811Y-82521309D01*
D51*
X168083811Y-70546309D02*
X166533811Y-70546308D01*
X151580119Y-68700000D02*
X152183822Y-68096297D01*
D50*
X137533811Y-81584734D02*
X137353023Y-81765519D01*
D48*
X144063810Y-92481308D02*
X144063810Y-92288790D01*
D51*
X135858811Y-68696308D02*
X135433810Y-68696308D01*
D48*
X130750110Y-90200000D02*
X130674110Y-90276000D01*
D49*
X142783811Y-80996309D02*
X142783811Y-80496309D01*
D51*
X119133811Y-70546309D02*
X118108810Y-69521308D01*
X169108811Y-69521309D02*
X168083811Y-70546309D01*
%TO.N,Net-(D1-A)*%
X141858811Y-89071309D02*
X142489304Y-89071307D01*
X142408811Y-92571309D02*
X142508811Y-92571309D01*
X142508811Y-92571309D02*
X142598811Y-92481309D01*
X142918811Y-92481309D02*
X143108810Y-92671308D01*
X142598811Y-92481309D02*
X142918811Y-92481309D01*
D49*
%TO.N,Net-(U5-VFB)*%
X142520311Y-85622308D02*
X139034810Y-85622307D01*
X143171311Y-84971308D02*
X142520311Y-85622308D01*
D48*
X140483811Y-80271307D02*
X141183811Y-80971309D01*
X141183811Y-80971309D02*
X142783811Y-79371309D01*
X140483811Y-80121307D02*
X140483811Y-80271307D01*
D49*
X139034810Y-85622307D02*
X138922782Y-85510280D01*
D51*
%TO.N,SHUNT+*%
X130200000Y-88235761D02*
X130200000Y-87975000D01*
X135808810Y-90971308D02*
X135808811Y-92171309D01*
D50*
X176749999Y-97262501D02*
X176937500Y-97075000D01*
D47*
X136701344Y-84317201D02*
X138776344Y-84317200D01*
D51*
X130935547Y-88971308D02*
X130200000Y-88235761D01*
D50*
X177775000Y-97075000D02*
X178800000Y-98100000D01*
X176749999Y-99100000D02*
X176749999Y-97262501D01*
D51*
X132358810Y-88971308D02*
X130935547Y-88971308D01*
D50*
X176937500Y-97075000D02*
X177775000Y-97075000D01*
D49*
X181670767Y-73150001D02*
X180284999Y-73150001D01*
D50*
%TO.N,VCAP*%
X174850001Y-97262501D02*
X174662500Y-97075000D01*
X174850001Y-99100000D02*
X174850001Y-97262501D01*
D49*
%TO.N,Net-(J6-Pin_1)*%
X179599000Y-91201000D02*
X180200000Y-90600000D01*
X181791519Y-90617001D02*
X182900000Y-90617001D01*
X181109620Y-91298900D02*
X181791519Y-90617001D01*
X178325000Y-95125000D02*
X179599000Y-93851000D01*
X176937500Y-95125000D02*
X178325000Y-95125000D01*
X181109620Y-91509620D02*
X181109620Y-91298900D01*
X180200000Y-90600000D02*
X180190380Y-90590380D01*
X188782999Y-90617001D02*
X188800000Y-90600000D01*
X179599000Y-93851000D02*
X179599000Y-91201000D01*
X182900000Y-90617001D02*
X188782999Y-90617001D01*
%TO.N,GATE*%
X186300000Y-90116001D02*
X187583999Y-90116001D01*
X178975000Y-96425000D02*
X180100000Y-95300000D01*
X189199999Y-77300001D02*
X188099999Y-77300001D01*
X188799999Y-88900001D02*
X189199999Y-88900001D01*
X186500000Y-78900000D02*
X186500000Y-90116001D01*
X180100000Y-95300000D02*
X180100000Y-91600000D01*
X187583999Y-90116001D02*
X188799999Y-88900001D01*
X181583999Y-90116001D02*
X186300000Y-90116001D01*
X188099999Y-77300001D02*
X186500000Y-78900000D01*
X180100000Y-91600000D02*
X181583999Y-90116001D01*
X176937500Y-96425000D02*
X178975000Y-96425000D01*
D48*
%TO.N,LD_DISC*%
X173844140Y-95125000D02*
X174662500Y-95125000D01*
X158300000Y-91500000D02*
X158300000Y-92250000D01*
X164350000Y-98350000D02*
X164850000Y-98850000D01*
X173098000Y-98602000D02*
X173098000Y-95871139D01*
X164350000Y-94600000D02*
X164350000Y-98350000D01*
X164850000Y-98850000D02*
X172850000Y-98850000D01*
X158300000Y-92250000D02*
X160400000Y-94350000D01*
X160400000Y-94350000D02*
X164100000Y-94350000D01*
X164100000Y-94350000D02*
X164350000Y-94600000D01*
X172850000Y-98850000D02*
X173098000Y-98602000D01*
X173098000Y-95871139D02*
X173844140Y-95125000D01*
%TO.N,Net-(J3-Pin_1)*%
X132708810Y-93571308D02*
X134075000Y-92205118D01*
X134075000Y-92205118D02*
X134075000Y-91100000D01*
%TO.N,Net-(U1-GPIO3{slash}ADC1_CH3)*%
X134888537Y-75158062D02*
X134482811Y-75563788D01*
X134482811Y-75563788D02*
X134482811Y-78317189D01*
X134888537Y-74845274D02*
X134888537Y-75158062D01*
X131046979Y-79846979D02*
X130583810Y-80310148D01*
X138158811Y-72871308D02*
X138384224Y-73096721D01*
X130583810Y-80310148D02*
X130583810Y-86900000D01*
X137558811Y-72871308D02*
X138158811Y-72871308D01*
X130825000Y-91100000D02*
X131650000Y-91100000D01*
X132953021Y-79846979D02*
X131046979Y-79846979D01*
X134482811Y-78317189D02*
X132953021Y-79846979D01*
X131650000Y-91100000D02*
X132425000Y-91100000D01*
X138384224Y-73096721D02*
X138384224Y-75724592D01*
D50*
%TO.N,SHUNT+*%
X133542247Y-88857313D02*
X133542247Y-88520798D01*
%TD*%
%TA.AperFunction,Conductor*%
%TO.N,GND*%
G36*
X145139082Y-67524359D02*
G01*
X149502801Y-67569192D01*
X149566651Y-67590666D01*
X149605686Y-67645570D01*
X149604994Y-67712932D01*
X149591159Y-67740432D01*
X149129508Y-68404054D01*
X149075831Y-68444760D01*
X149040030Y-68450808D01*
X148937099Y-68450808D01*
X148937090Y-68450809D01*
X148872776Y-68463600D01*
X148872775Y-68463601D01*
X148799842Y-68512333D01*
X148799838Y-68512337D01*
X148751104Y-68585271D01*
X148738311Y-68649590D01*
X148738311Y-68703654D01*
X148717494Y-68767723D01*
X148662994Y-68807319D01*
X148601101Y-68808940D01*
X148570758Y-68800810D01*
X148570753Y-68800809D01*
X148570752Y-68800809D01*
X148446866Y-68800809D01*
X148446864Y-68800809D01*
X148327200Y-68832873D01*
X148219918Y-68894812D01*
X148132312Y-68982418D01*
X148070373Y-69089700D01*
X148038309Y-69209364D01*
X148038309Y-69333253D01*
X148070373Y-69452917D01*
X148132313Y-69560200D01*
X148136662Y-69565868D01*
X148135284Y-69566925D01*
X148135377Y-69567108D01*
X148142493Y-69572278D01*
X148150380Y-69596553D01*
X148161968Y-69619296D01*
X148163310Y-69636347D01*
X148163310Y-69758780D01*
X148143789Y-69821025D01*
X148108811Y-69871305D01*
X148108811Y-74124375D01*
X148087994Y-74188444D01*
X148076886Y-74201450D01*
X147246670Y-75031668D01*
X147182343Y-75095994D01*
X147136858Y-75174777D01*
X147136857Y-75174780D01*
X147113312Y-75262650D01*
X147113312Y-76684086D01*
X147092495Y-76748155D01*
X147037995Y-76787751D01*
X147006463Y-76793065D01*
X145806821Y-76816742D01*
X145742354Y-76797193D01*
X145727595Y-76784838D01*
X145122487Y-76179730D01*
X145122477Y-76179718D01*
X145056602Y-76113844D01*
X145056600Y-76113842D01*
X145014404Y-76089479D01*
X144983516Y-76071646D01*
X144902004Y-76049806D01*
X144902003Y-76049806D01*
X140883067Y-76049806D01*
X140883051Y-76049805D01*
X140876375Y-76049805D01*
X140791986Y-76049805D01*
X140791985Y-76049805D01*
X140710472Y-76071645D01*
X140710471Y-76071645D01*
X140637389Y-76113841D01*
X140637386Y-76113843D01*
X140462246Y-76288983D01*
X140402223Y-76319566D01*
X140385172Y-76320908D01*
X140294550Y-76320908D01*
X140162172Y-76356379D01*
X140043485Y-76424903D01*
X139946572Y-76521816D01*
X139878048Y-76640503D01*
X139842577Y-76772881D01*
X139842577Y-76909934D01*
X139874509Y-77029102D01*
X139870983Y-77096376D01*
X139828589Y-77148729D01*
X139763519Y-77166165D01*
X139747960Y-77164220D01*
X139696798Y-77154044D01*
X139680529Y-77150808D01*
X139680528Y-77150808D01*
X139237097Y-77150808D01*
X139237089Y-77150809D01*
X139172775Y-77163600D01*
X139119366Y-77199287D01*
X139054530Y-77217572D01*
X138998252Y-77199286D01*
X138944847Y-77163601D01*
X138928767Y-77160402D01*
X138880530Y-77150808D01*
X138880527Y-77150808D01*
X138437098Y-77150808D01*
X138437090Y-77150809D01*
X138372776Y-77163600D01*
X138372775Y-77163601D01*
X138299842Y-77212333D01*
X138299838Y-77212337D01*
X138251104Y-77285271D01*
X138238311Y-77349590D01*
X138238311Y-77962308D01*
X138217494Y-78026377D01*
X138162994Y-78065973D01*
X138129311Y-78071308D01*
X137120880Y-78071308D01*
X137056811Y-78050491D01*
X137017215Y-77995991D01*
X137011922Y-77959281D01*
X137027937Y-77382725D01*
X137049741Y-76597778D01*
X137072329Y-76534315D01*
X137127908Y-76496247D01*
X137158692Y-76491807D01*
X137980529Y-76491807D01*
X138044846Y-76479015D01*
X138117783Y-76430280D01*
X138166518Y-76357343D01*
X138170928Y-76335169D01*
X138191209Y-76290274D01*
X138205694Y-76271309D01*
X138208811Y-76271309D01*
X138208811Y-76267227D01*
X138231187Y-76237931D01*
X138257881Y-76219496D01*
X138284128Y-76200427D01*
X138285900Y-76200146D01*
X138286619Y-76199650D01*
X138288716Y-76199700D01*
X138317811Y-76195092D01*
X138446165Y-76195092D01*
X138446167Y-76195092D01*
X138565830Y-76163028D01*
X138589139Y-76149571D01*
X138651022Y-76113843D01*
X138673118Y-76101086D01*
X138760718Y-76013486D01*
X138822660Y-75906198D01*
X138854724Y-75786535D01*
X138854724Y-75662649D01*
X138822660Y-75542986D01*
X138822659Y-75542985D01*
X138822659Y-75542983D01*
X138760719Y-75435700D01*
X138760718Y-75435698D01*
X138736648Y-75411627D01*
X138706066Y-75351604D01*
X138704724Y-75334554D01*
X138704724Y-73054525D01*
X138682883Y-72973012D01*
X138682883Y-72973011D01*
X138661785Y-72936470D01*
X138640688Y-72899929D01*
X138581016Y-72840257D01*
X138581013Y-72840255D01*
X138421490Y-72680732D01*
X138421480Y-72680720D01*
X138355605Y-72614846D01*
X138355603Y-72614844D01*
X138282520Y-72572649D01*
X138282518Y-72572648D01*
X138276098Y-72569989D01*
X138224873Y-72526238D01*
X138208811Y-72469286D01*
X138208811Y-69771310D01*
X138208811Y-69771309D01*
X138180978Y-69770860D01*
X136511063Y-69743925D01*
X136447339Y-69722077D01*
X136433523Y-69708142D01*
X136433158Y-69708508D01*
X136427382Y-69702732D01*
X136319334Y-69622989D01*
X136319329Y-69622986D01*
X136192570Y-69578631D01*
X136192568Y-69578630D01*
X136162476Y-69575809D01*
X136162475Y-69575809D01*
X135555147Y-69575809D01*
X135555146Y-69575809D01*
X135525053Y-69578630D01*
X135525051Y-69578631D01*
X135399312Y-69622630D01*
X135331963Y-69624142D01*
X135276588Y-69585779D01*
X135254338Y-69522193D01*
X135254311Y-69519747D01*
X135254311Y-69025825D01*
X135254311Y-69025823D01*
X135230765Y-68937951D01*
X135185280Y-68859167D01*
X135140736Y-68814623D01*
X135110153Y-68754599D01*
X135108811Y-68737548D01*
X135108811Y-67633751D01*
X135129628Y-67569682D01*
X135184128Y-67530086D01*
X135217799Y-67524752D01*
X145138061Y-67524354D01*
X145139082Y-67524359D01*
G37*
%TD.AperFunction*%
%TA.AperFunction,Conductor*%
G36*
X140042809Y-77257521D02*
G01*
X140043480Y-77257908D01*
X140043483Y-77257911D01*
X140162172Y-77326436D01*
X140162171Y-77326436D01*
X140210626Y-77339419D01*
X140294552Y-77361908D01*
X140294554Y-77361908D01*
X140399811Y-77361908D01*
X140463880Y-77382725D01*
X140503476Y-77437225D01*
X140508811Y-77470908D01*
X140508811Y-77962308D01*
X140487994Y-78026377D01*
X140433494Y-78065973D01*
X140399811Y-78071308D01*
X139988309Y-78071308D01*
X139924240Y-78050491D01*
X139884644Y-77995991D01*
X139879309Y-77962312D01*
X139879309Y-77351917D01*
X139900126Y-77287849D01*
X139954626Y-77248253D01*
X140021992Y-77248253D01*
X140042809Y-77257521D01*
G37*
%TD.AperFunction*%
%TD*%
%TA.AperFunction,Conductor*%
%TO.N,GND*%
G36*
X157586410Y-92259968D02*
G01*
X157609188Y-92266770D01*
X157632834Y-92269217D01*
X157642049Y-92276582D01*
X157653355Y-92279959D01*
X157668840Y-92297997D01*
X157687412Y-92312841D01*
X157695759Y-92329352D01*
X157698867Y-92332972D01*
X157701935Y-92341568D01*
X157703336Y-92344339D01*
X157704590Y-92348059D01*
X157740423Y-92481785D01*
X157756541Y-92509702D01*
X157762710Y-92520387D01*
X157819477Y-92618712D01*
X157819481Y-92618717D01*
X157860392Y-92659628D01*
X157893877Y-92720951D01*
X157896672Y-92750437D01*
X157850000Y-94599999D01*
X157850000Y-94600000D01*
X159749403Y-94600000D01*
X159778843Y-94608644D01*
X159808830Y-94615168D01*
X159813845Y-94618922D01*
X159816442Y-94619685D01*
X159837084Y-94636319D01*
X159915139Y-94714374D01*
X159915149Y-94714385D01*
X159919479Y-94718715D01*
X159919480Y-94718716D01*
X160031284Y-94830520D01*
X160031286Y-94830521D01*
X160031290Y-94830524D01*
X160118140Y-94880666D01*
X160168216Y-94909577D01*
X160269855Y-94936811D01*
X160320942Y-94950500D01*
X160320943Y-94950500D01*
X163625500Y-94950500D01*
X163692539Y-94970185D01*
X163738294Y-95022989D01*
X163749500Y-95074500D01*
X163749500Y-98263330D01*
X163749499Y-98263348D01*
X163749499Y-98429054D01*
X163749498Y-98429054D01*
X163749499Y-98429057D01*
X163790423Y-98581785D01*
X163790424Y-98581787D01*
X163790423Y-98581787D01*
X163803986Y-98605277D01*
X163803987Y-98605279D01*
X163869475Y-98718709D01*
X163869481Y-98718717D01*
X164063681Y-98912917D01*
X164097166Y-98974240D01*
X164100000Y-99000598D01*
X164100000Y-99100000D01*
X164199402Y-99100000D01*
X164266441Y-99119685D01*
X164287082Y-99136318D01*
X164481284Y-99330520D01*
X164481286Y-99330521D01*
X164481290Y-99330524D01*
X164618209Y-99409573D01*
X164618216Y-99409577D01*
X164770943Y-99450501D01*
X164770945Y-99450501D01*
X164936654Y-99450501D01*
X164936670Y-99450500D01*
X172763331Y-99450500D01*
X172763347Y-99450501D01*
X172770943Y-99450501D01*
X172929054Y-99450501D01*
X172929057Y-99450501D01*
X173081785Y-99409577D01*
X173131904Y-99380639D01*
X173218716Y-99330520D01*
X173330520Y-99218716D01*
X173330521Y-99218713D01*
X173412917Y-99136316D01*
X173474239Y-99102834D01*
X173500596Y-99100000D01*
X173725502Y-99100000D01*
X173792541Y-99119685D01*
X173838296Y-99172489D01*
X173849502Y-99224000D01*
X173849502Y-99625018D01*
X173860001Y-99727796D01*
X173860002Y-99727799D01*
X173873653Y-99768994D01*
X173915187Y-99894334D01*
X174007289Y-100043656D01*
X174131345Y-100167712D01*
X174280667Y-100259814D01*
X174447204Y-100314999D01*
X174549992Y-100325500D01*
X175150009Y-100325499D01*
X175150017Y-100325498D01*
X175150020Y-100325498D01*
X175206303Y-100319748D01*
X175252798Y-100314999D01*
X175419335Y-100259814D01*
X175568657Y-100167712D01*
X175692713Y-100043656D01*
X175694461Y-100040821D01*
X175696167Y-100039286D01*
X175697194Y-100037989D01*
X175697415Y-100038164D01*
X175746408Y-99994097D01*
X175815370Y-99982874D01*
X175879453Y-100010717D01*
X175905538Y-100040821D01*
X175907287Y-100043656D01*
X176031343Y-100167712D01*
X176180665Y-100259814D01*
X176347202Y-100314999D01*
X176449990Y-100325500D01*
X177050007Y-100325499D01*
X177050015Y-100325498D01*
X177050018Y-100325498D01*
X177106301Y-100319748D01*
X177152796Y-100314999D01*
X177319333Y-100259814D01*
X177468655Y-100167712D01*
X177592711Y-100043656D01*
X177684813Y-99894334D01*
X177739998Y-99727797D01*
X177750499Y-99625009D01*
X177750498Y-99223997D01*
X177770182Y-99156961D01*
X177822986Y-99111206D01*
X177874498Y-99100000D01*
X180424415Y-99100000D01*
X180491454Y-99119685D01*
X180537209Y-99172489D01*
X180548415Y-99223900D01*
X180548745Y-99633448D01*
X180548273Y-99644356D01*
X180532231Y-99827699D01*
X180528478Y-99848985D01*
X180482232Y-100021574D01*
X180474838Y-100041886D01*
X180399331Y-100203805D01*
X180388524Y-100222524D01*
X180286037Y-100368885D01*
X180272142Y-100385443D01*
X180145803Y-100511776D01*
X180129245Y-100525669D01*
X179982889Y-100628144D01*
X179964169Y-100638952D01*
X179802236Y-100714457D01*
X179781925Y-100721849D01*
X179609343Y-100768087D01*
X179588055Y-100771840D01*
X179404691Y-100787875D01*
X179393809Y-100788346D01*
X140333037Y-100763176D01*
X140333036Y-100763176D01*
X140324669Y-100763170D01*
X140324325Y-100763079D01*
X140258964Y-100763127D01*
X140258198Y-100763127D01*
X140258197Y-100763126D01*
X140186093Y-100763082D01*
X140184536Y-100763184D01*
X138382904Y-100764546D01*
X138315849Y-100744912D01*
X138270055Y-100692143D01*
X138258810Y-100640546D01*
X138258810Y-92968046D01*
X138278495Y-92901007D01*
X138331299Y-92855252D01*
X138334570Y-92854038D01*
X138334538Y-92853962D01*
X138341690Y-92850866D01*
X138341698Y-92850864D01*
X138475009Y-92772024D01*
X138584526Y-92662507D01*
X138663366Y-92529196D01*
X138706576Y-92380465D01*
X138708967Y-92350079D01*
X138733850Y-92284792D01*
X138790080Y-92243320D01*
X138832585Y-92235808D01*
X139434311Y-92235808D01*
X139501350Y-92255493D01*
X139547105Y-92308297D01*
X139558311Y-92359808D01*
X139558311Y-92880151D01*
X139558311Y-92880153D01*
X139558310Y-92880153D01*
X139583308Y-93005819D01*
X139583309Y-93005822D01*
X139583310Y-93005826D01*
X139594677Y-93033269D01*
X139594677Y-93033270D01*
X139632341Y-93124200D01*
X139632351Y-93124218D01*
X139703532Y-93230749D01*
X139703538Y-93230756D01*
X140215360Y-93742579D01*
X140215363Y-93742582D01*
X140279412Y-93785378D01*
X140279411Y-93785378D01*
X140315141Y-93809251D01*
X140321905Y-93813771D01*
X140321907Y-93813772D01*
X140321909Y-93813773D01*
X140338425Y-93820614D01*
X140339150Y-93820914D01*
X140339175Y-93820925D01*
X140381764Y-93838566D01*
X140436167Y-93882407D01*
X140458232Y-93948701D01*
X140458311Y-93953127D01*
X140458311Y-94802009D01*
X140459775Y-94820606D01*
X140445410Y-94888983D01*
X140420013Y-94918866D01*
X140421193Y-94920046D01*
X140308296Y-95032943D01*
X140232530Y-95164171D01*
X140193311Y-95310542D01*
X140193311Y-95462073D01*
X140232530Y-95608444D01*
X140270332Y-95673918D01*
X140308296Y-95739673D01*
X140415446Y-95846823D01*
X140546676Y-95922589D01*
X140693045Y-95961808D01*
X140693047Y-95961808D01*
X140844575Y-95961808D01*
X140844577Y-95961808D01*
X140990946Y-95922589D01*
X141122176Y-95846823D01*
X141141455Y-95827543D01*
X141202773Y-95794059D01*
X141272465Y-95799041D01*
X141316817Y-95827543D01*
X141632853Y-96143580D01*
X141632856Y-96143583D01*
X141632859Y-96143585D01*
X141682068Y-96176465D01*
X141739402Y-96214774D01*
X141857785Y-96263810D01*
X141857789Y-96263810D01*
X141857790Y-96263811D01*
X141983457Y-96288809D01*
X141983460Y-96288809D01*
X145325416Y-96288809D01*
X145409960Y-96271991D01*
X145451089Y-96263810D01*
X145569472Y-96214774D01*
X145626806Y-96176465D01*
X145676014Y-96143586D01*
X145996431Y-95823167D01*
X146057753Y-95789684D01*
X146127444Y-95794668D01*
X146171792Y-95823169D01*
X146195446Y-95846823D01*
X146326676Y-95922589D01*
X146473045Y-95961808D01*
X146473047Y-95961808D01*
X146624575Y-95961808D01*
X146624577Y-95961808D01*
X146770946Y-95922589D01*
X146902176Y-95846823D01*
X147009326Y-95739673D01*
X147085092Y-95608443D01*
X147124311Y-95462074D01*
X147124311Y-95310542D01*
X147085092Y-95164173D01*
X147009326Y-95032943D01*
X146902176Y-94925793D01*
X146902175Y-94925792D01*
X146896429Y-94920046D01*
X146898291Y-94918183D01*
X146864776Y-94872285D01*
X146857847Y-94820600D01*
X146857980Y-94818913D01*
X146859311Y-94802002D01*
X146859311Y-93820614D01*
X146856409Y-93783739D01*
X146846461Y-93749499D01*
X146810556Y-93625914D01*
X146810555Y-93625911D01*
X146810555Y-93625910D01*
X146752231Y-93527290D01*
X146735049Y-93459567D01*
X146757209Y-93393304D01*
X146811675Y-93349541D01*
X146822059Y-93345790D01*
X146873417Y-93329787D01*
X147018996Y-93241781D01*
X147139283Y-93121494D01*
X147227289Y-92975915D01*
X147277897Y-92813505D01*
X147284311Y-92742925D01*
X147284311Y-92337279D01*
X147303996Y-92270240D01*
X147356800Y-92224485D01*
X147408875Y-92213280D01*
X157586410Y-92259968D01*
G37*
%TD.AperFunction*%
%TD*%
%TA.AperFunction,Conductor*%
%TO.N,+3.3V*%
G36*
X137051112Y-78376775D02*
G01*
X137072047Y-78378869D01*
X137072773Y-78379013D01*
X137072776Y-78379015D01*
X137137092Y-78391808D01*
X137880529Y-78391807D01*
X137932119Y-78381546D01*
X137953688Y-78379453D01*
X138370798Y-78380691D01*
X138391726Y-78382784D01*
X138437092Y-78391808D01*
X138880529Y-78391807D01*
X138917417Y-78384470D01*
X138938988Y-78382377D01*
X139182922Y-78383101D01*
X139203837Y-78385193D01*
X139237091Y-78391808D01*
X139680528Y-78391807D01*
X139705656Y-78386809D01*
X139727228Y-78384716D01*
X139995036Y-78385511D01*
X140015954Y-78387603D01*
X140037092Y-78391808D01*
X140480529Y-78391807D01*
X140493898Y-78389148D01*
X140515469Y-78387055D01*
X140807149Y-78387921D01*
X140828079Y-78390015D01*
X140837092Y-78391808D01*
X141279496Y-78391807D01*
X141343564Y-78412624D01*
X141383161Y-78467124D01*
X141386388Y-78502221D01*
X141388310Y-78502221D01*
X141388310Y-78633252D01*
X141420374Y-78752916D01*
X141482313Y-78860198D01*
X141482314Y-78860199D01*
X141482316Y-78860202D01*
X141569916Y-78947802D01*
X141569918Y-78947803D01*
X141569919Y-78947804D01*
X141677201Y-79009743D01*
X141677203Y-79009743D01*
X141677204Y-79009744D01*
X141796867Y-79041808D01*
X141796869Y-79041808D01*
X141920751Y-79041808D01*
X141920753Y-79041808D01*
X141951098Y-79033677D01*
X142018371Y-79037201D01*
X142070725Y-79079595D01*
X142088311Y-79138962D01*
X142088311Y-79568402D01*
X142067494Y-79632471D01*
X142056386Y-79645477D01*
X141382982Y-80318882D01*
X141375145Y-80322874D01*
X141369976Y-80329990D01*
X141345700Y-80337877D01*
X141322958Y-80349465D01*
X141305907Y-80350807D01*
X141103229Y-80350807D01*
X141039160Y-80329990D01*
X140999564Y-80275490D01*
X140997944Y-80213594D01*
X140999454Y-80207955D01*
X141004311Y-80189832D01*
X141004311Y-80052782D01*
X140968839Y-79920402D01*
X140900314Y-79801713D01*
X140803405Y-79704804D01*
X140802329Y-79704183D01*
X140684714Y-79636278D01*
X140684716Y-79636278D01*
X140552337Y-79600807D01*
X140552336Y-79600807D01*
X140415286Y-79600807D01*
X140415284Y-79600807D01*
X140282906Y-79636278D01*
X140164219Y-79704802D01*
X140067306Y-79801715D01*
X139998782Y-79920402D01*
X139963311Y-80052780D01*
X139963311Y-80189833D01*
X139998782Y-80322211D01*
X140059708Y-80427738D01*
X140067308Y-80440901D01*
X140164217Y-80537810D01*
X140282906Y-80606335D01*
X140367633Y-80629038D01*
X140416497Y-80657249D01*
X140456385Y-80697137D01*
X140486968Y-80757161D01*
X140488310Y-80774212D01*
X140488310Y-81204400D01*
X140488311Y-81204402D01*
X140503904Y-81302867D01*
X140503904Y-81302868D01*
X140503905Y-81302869D01*
X140564377Y-81421552D01*
X140658565Y-81515740D01*
X140777248Y-81576212D01*
X140875713Y-81591807D01*
X141491906Y-81591806D01*
X141590372Y-81576212D01*
X141709055Y-81515740D01*
X141803243Y-81421552D01*
X141863715Y-81302869D01*
X141874173Y-81236836D01*
X141904756Y-81176814D01*
X141964779Y-81146230D01*
X142031315Y-81156768D01*
X142078950Y-81204402D01*
X142089489Y-81236838D01*
X142103905Y-81327869D01*
X142103905Y-81327870D01*
X142103906Y-81327871D01*
X142164378Y-81446554D01*
X142258566Y-81540742D01*
X142377249Y-81601214D01*
X142475714Y-81616809D01*
X143091907Y-81616808D01*
X143190373Y-81601214D01*
X143309056Y-81540742D01*
X143403244Y-81446554D01*
X143463716Y-81327871D01*
X143479311Y-81229406D01*
X143479310Y-80763213D01*
X143463716Y-80664747D01*
X143408673Y-80556720D01*
X143398136Y-80490185D01*
X143400509Y-80479024D01*
X143404311Y-80464835D01*
X143404311Y-80327786D01*
X143404310Y-80327782D01*
X143402817Y-80322211D01*
X143368839Y-80195404D01*
X143300314Y-80076715D01*
X143286146Y-80062547D01*
X143255565Y-80002526D01*
X143266103Y-79935990D01*
X143303883Y-79898209D01*
X143302120Y-79895781D01*
X143309052Y-79890743D01*
X143309056Y-79890742D01*
X143403244Y-79796554D01*
X143463716Y-79677871D01*
X143479311Y-79579406D01*
X143479310Y-79136550D01*
X143500127Y-79072483D01*
X143554627Y-79032886D01*
X143560084Y-79031269D01*
X143640417Y-79009744D01*
X143747705Y-78947802D01*
X143779378Y-78916128D01*
X143839397Y-78885547D01*
X143905934Y-78896085D01*
X143953569Y-78943719D01*
X143956999Y-78952655D01*
X143957418Y-78952482D01*
X143960151Y-78959082D01*
X143986025Y-79003895D01*
X144002347Y-79032165D01*
X144002349Y-79032167D01*
X144068223Y-79098042D01*
X144068235Y-79098052D01*
X145266972Y-80296789D01*
X145266974Y-80296792D01*
X145326646Y-80356464D01*
X145345276Y-80367220D01*
X145390227Y-80393173D01*
X145399728Y-80398659D01*
X145399730Y-80398660D01*
X145481243Y-80420501D01*
X145481244Y-80420501D01*
X145572309Y-80420501D01*
X145572325Y-80420500D01*
X150222095Y-80420500D01*
X150286164Y-80441317D01*
X150299170Y-80452425D01*
X151347575Y-81500830D01*
X151378158Y-81560854D01*
X151379500Y-81577905D01*
X151379500Y-84009962D01*
X151358683Y-84074031D01*
X151347576Y-84087035D01*
X151323505Y-84111106D01*
X151323504Y-84111108D01*
X151261564Y-84218391D01*
X151229500Y-84338055D01*
X151229500Y-84461944D01*
X151261564Y-84581608D01*
X151323503Y-84688890D01*
X151323504Y-84688891D01*
X151323506Y-84688894D01*
X151363387Y-84728775D01*
X151393969Y-84788797D01*
X151383431Y-84855333D01*
X151335796Y-84902968D01*
X151286311Y-84914848D01*
X150355275Y-84914848D01*
X150307877Y-84902148D01*
X150307503Y-84903053D01*
X150300905Y-84900319D01*
X150168526Y-84864848D01*
X150168525Y-84864848D01*
X150031475Y-84864848D01*
X150031473Y-84864848D01*
X149899095Y-84900319D01*
X149780408Y-84968843D01*
X149683495Y-85065756D01*
X149614971Y-85184443D01*
X149579500Y-85316821D01*
X149579500Y-85453874D01*
X149614971Y-85586252D01*
X149665772Y-85674242D01*
X149683497Y-85704942D01*
X149780406Y-85801851D01*
X149899095Y-85870376D01*
X149899094Y-85870376D01*
X149922565Y-85876665D01*
X150031475Y-85905848D01*
X150031477Y-85905848D01*
X150168523Y-85905848D01*
X150168525Y-85905848D01*
X150300905Y-85870376D01*
X150307503Y-85867643D01*
X150307877Y-85868547D01*
X150355275Y-85855848D01*
X151365375Y-85855848D01*
X151429444Y-85876665D01*
X151469040Y-85931165D01*
X151474374Y-85965314D01*
X151464459Y-88287027D01*
X151455253Y-90442276D01*
X151434163Y-90506253D01*
X151379495Y-90545616D01*
X151346255Y-90550808D01*
X135929809Y-90550808D01*
X135865740Y-90529991D01*
X135852734Y-90518883D01*
X133994672Y-88660821D01*
X133992660Y-88656872D01*
X133988882Y-88654559D01*
X133982050Y-88636050D01*
X133964089Y-88600797D01*
X133963085Y-88592328D01*
X133962747Y-88588048D01*
X133962747Y-88465438D01*
X133947006Y-88406693D01*
X133945958Y-88402781D01*
X135198958Y-88402781D01*
X135198958Y-88539834D01*
X135234429Y-88672212D01*
X135301582Y-88788524D01*
X135302955Y-88790902D01*
X135399864Y-88887811D01*
X135518553Y-88956336D01*
X135518552Y-88956336D01*
X135567007Y-88969319D01*
X135650933Y-88991808D01*
X135650935Y-88991808D01*
X135704784Y-88991808D01*
X135768853Y-89012625D01*
X135808449Y-89067125D01*
X135808458Y-89067151D01*
X135813310Y-89082099D01*
X135813311Y-89090429D01*
X135816176Y-89115134D01*
X135845861Y-89182364D01*
X135847577Y-89187650D01*
X135847569Y-89216047D01*
X135850451Y-89244298D01*
X135847560Y-89253193D01*
X135847560Y-89255016D01*
X135846490Y-89256487D01*
X135843616Y-89265333D01*
X135816176Y-89327480D01*
X135813310Y-89352182D01*
X135813310Y-89590424D01*
X135813312Y-89590446D01*
X135816175Y-89615132D01*
X135816175Y-89615134D01*
X135816176Y-89615135D01*
X135860800Y-89716199D01*
X135938919Y-89794318D01*
X136039983Y-89838942D01*
X136064687Y-89841808D01*
X137452932Y-89841807D01*
X137477637Y-89838942D01*
X137477638Y-89838941D01*
X137485549Y-89836790D01*
X137486541Y-89840436D01*
X137537520Y-89835182D01*
X137569143Y-89847357D01*
X137677202Y-89909744D01*
X137677204Y-89909744D01*
X137677205Y-89909745D01*
X137796868Y-89941809D01*
X137796870Y-89941809D01*
X137920752Y-89941809D01*
X137920754Y-89941809D01*
X138040417Y-89909745D01*
X138147705Y-89847803D01*
X138147706Y-89847801D01*
X138150359Y-89846270D01*
X138216253Y-89832264D01*
X138277794Y-89859664D01*
X138283167Y-89865630D01*
X138283311Y-89865487D01*
X138289377Y-89871553D01*
X138383565Y-89965741D01*
X138502248Y-90026213D01*
X138600713Y-90041808D01*
X139066906Y-90041807D01*
X139165372Y-90026213D01*
X139284055Y-89965741D01*
X139378243Y-89871553D01*
X139438715Y-89752870D01*
X139454310Y-89654405D01*
X139454309Y-89259569D01*
X139475126Y-89195502D01*
X139486235Y-89182495D01*
X139551132Y-89117599D01*
X139552341Y-89115506D01*
X139596618Y-89038814D01*
X139598210Y-89032873D01*
X139604510Y-89009364D01*
X141388311Y-89009364D01*
X141388311Y-89133253D01*
X141420375Y-89252917D01*
X141482314Y-89360199D01*
X141482315Y-89360200D01*
X141482317Y-89360203D01*
X141569917Y-89447803D01*
X141569919Y-89447804D01*
X141569920Y-89447805D01*
X141677202Y-89509744D01*
X141677204Y-89509744D01*
X141677205Y-89509745D01*
X141796868Y-89541809D01*
X141796870Y-89541809D01*
X141920752Y-89541809D01*
X141920754Y-89541809D01*
X141988206Y-89523735D01*
X142055479Y-89527259D01*
X142107832Y-89569653D01*
X142125418Y-89629010D01*
X142125418Y-89636011D01*
X142125419Y-89636022D01*
X142141012Y-89734483D01*
X142141012Y-89734484D01*
X142141013Y-89734485D01*
X142201485Y-89853168D01*
X142295673Y-89947356D01*
X142414356Y-90007828D01*
X142512821Y-90023423D01*
X142979014Y-90023422D01*
X143077480Y-90007828D01*
X143196163Y-89947356D01*
X143290351Y-89853168D01*
X143350823Y-89734485D01*
X143366418Y-89636020D01*
X143366417Y-89019827D01*
X143350823Y-88921361D01*
X143290351Y-88802678D01*
X143196163Y-88708490D01*
X143077480Y-88648018D01*
X143077478Y-88648017D01*
X143077477Y-88648017D01*
X142979015Y-88632423D01*
X142512824Y-88632423D01*
X142512818Y-88632424D01*
X142414357Y-88648017D01*
X142414355Y-88648018D01*
X142288029Y-88712384D01*
X142286567Y-88709514D01*
X142236421Y-88725807D01*
X142223846Y-88725807D01*
X142159777Y-88704990D01*
X142149263Y-88696010D01*
X142147702Y-88694813D01*
X142040419Y-88632873D01*
X141920755Y-88600809D01*
X141920754Y-88600809D01*
X141796868Y-88600809D01*
X141796866Y-88600809D01*
X141677202Y-88632873D01*
X141569920Y-88694812D01*
X141482314Y-88782418D01*
X141420375Y-88889700D01*
X141388311Y-89009364D01*
X139604510Y-89009364D01*
X139611107Y-88984742D01*
X139611106Y-88984742D01*
X139620164Y-88950943D01*
X139620164Y-88859971D01*
X139620164Y-88830470D01*
X139620351Y-88827285D01*
X139631511Y-88798748D01*
X139640981Y-88769604D01*
X139644539Y-88765437D01*
X139644888Y-88764546D01*
X139645799Y-88763962D01*
X139649964Y-88759085D01*
X139651152Y-88757535D01*
X139651158Y-88757530D01*
X139713100Y-88650242D01*
X139745164Y-88530579D01*
X139745164Y-88406693D01*
X139713100Y-88287030D01*
X139713099Y-88287029D01*
X139713099Y-88287027D01*
X139651160Y-88179745D01*
X139651159Y-88179744D01*
X139651158Y-88179742D01*
X139563558Y-88092142D01*
X139563555Y-88092140D01*
X139478192Y-88042856D01*
X139433116Y-87992793D01*
X139425034Y-87931408D01*
X139429311Y-87904406D01*
X139429310Y-87584567D01*
X139450127Y-87520500D01*
X139461236Y-87507493D01*
X139744998Y-87223733D01*
X139805021Y-87193150D01*
X139818788Y-87192066D01*
X139820747Y-87191808D01*
X139820754Y-87191808D01*
X139940417Y-87159744D01*
X140047705Y-87097802D01*
X140135305Y-87010202D01*
X140197247Y-86902914D01*
X140229311Y-86783251D01*
X140229311Y-86659365D01*
X140197247Y-86539702D01*
X140150866Y-86459366D01*
X140150865Y-86459364D01*
X143038310Y-86459364D01*
X143038310Y-86583253D01*
X143070374Y-86702917D01*
X143132313Y-86810199D01*
X143132314Y-86810200D01*
X143132316Y-86810203D01*
X143219916Y-86897803D01*
X143219918Y-86897804D01*
X143219919Y-86897805D01*
X143327201Y-86959744D01*
X143327203Y-86959744D01*
X143327204Y-86959745D01*
X143446867Y-86991809D01*
X143446873Y-86991809D01*
X143453949Y-86992741D01*
X143453722Y-86994464D01*
X143509618Y-87012626D01*
X143522624Y-87023734D01*
X144016385Y-87517495D01*
X144046968Y-87577519D01*
X144048310Y-87594570D01*
X144048310Y-88589398D01*
X144027493Y-88653467D01*
X143988796Y-88686517D01*
X143945674Y-88708488D01*
X143945672Y-88708489D01*
X143851487Y-88802674D01*
X143791012Y-88921362D01*
X143791012Y-88921363D01*
X143775418Y-89019824D01*
X143775418Y-89636016D01*
X143775419Y-89636022D01*
X143791012Y-89734483D01*
X143791012Y-89734484D01*
X143791013Y-89734485D01*
X143851485Y-89853168D01*
X143945673Y-89947356D01*
X144064356Y-90007828D01*
X144162821Y-90023423D01*
X144629014Y-90023422D01*
X144727480Y-90007828D01*
X144846163Y-89947356D01*
X144940351Y-89853168D01*
X145000823Y-89734485D01*
X145016418Y-89636020D01*
X145016417Y-89019827D01*
X145000823Y-88921361D01*
X144940351Y-88802678D01*
X144846163Y-88708490D01*
X144812681Y-88691430D01*
X146328426Y-88691430D01*
X146328426Y-88815319D01*
X146360490Y-88934983D01*
X146422429Y-89042265D01*
X146422430Y-89042266D01*
X146422432Y-89042269D01*
X146510032Y-89129869D01*
X146510034Y-89129870D01*
X146510035Y-89129871D01*
X146617317Y-89191810D01*
X146617319Y-89191810D01*
X146617320Y-89191811D01*
X146736983Y-89223875D01*
X146736985Y-89223875D01*
X146860867Y-89223875D01*
X146860869Y-89223875D01*
X146980532Y-89191811D01*
X147056066Y-89148201D01*
X147121959Y-89134196D01*
X147183500Y-89161596D01*
X147187620Y-89165505D01*
X147219917Y-89197802D01*
X147219919Y-89197803D01*
X147219920Y-89197804D01*
X147327202Y-89259743D01*
X147327204Y-89259743D01*
X147327205Y-89259744D01*
X147446868Y-89291808D01*
X147446870Y-89291808D01*
X147570752Y-89291808D01*
X147570754Y-89291808D01*
X147690417Y-89259744D01*
X147690719Y-89259570D01*
X147748142Y-89226417D01*
X147797705Y-89197802D01*
X147885305Y-89110202D01*
X147937485Y-89019823D01*
X147947246Y-89002916D01*
X147947247Y-89002914D01*
X147979311Y-88883251D01*
X147979311Y-88759365D01*
X147947247Y-88639702D01*
X147947246Y-88639701D01*
X147947246Y-88639699D01*
X147885306Y-88532416D01*
X147885305Y-88532414D01*
X147861235Y-88508343D01*
X147830653Y-88448320D01*
X147829311Y-88431270D01*
X147829311Y-84969094D01*
X147850128Y-84905025D01*
X147861236Y-84892019D01*
X148750830Y-84002425D01*
X148810854Y-83971842D01*
X148827905Y-83970500D01*
X148861941Y-83970500D01*
X148861943Y-83970500D01*
X148981606Y-83938436D01*
X149088894Y-83876494D01*
X149176494Y-83788894D01*
X149238436Y-83681606D01*
X149270500Y-83561943D01*
X149270500Y-83438057D01*
X149238436Y-83318394D01*
X149238435Y-83318393D01*
X149238435Y-83318391D01*
X149176496Y-83211109D01*
X149176495Y-83211108D01*
X149176494Y-83211106D01*
X149088894Y-83123506D01*
X149088891Y-83123504D01*
X149088890Y-83123503D01*
X148981608Y-83061564D01*
X148861944Y-83029500D01*
X148861943Y-83029500D01*
X148738057Y-83029500D01*
X148738055Y-83029500D01*
X148618391Y-83061564D01*
X148511108Y-83123504D01*
X148511105Y-83123505D01*
X148491419Y-83143192D01*
X148431395Y-83173774D01*
X148364859Y-83163235D01*
X148337272Y-83143191D01*
X148288893Y-83094813D01*
X148288891Y-83094812D01*
X148181608Y-83032872D01*
X148061944Y-83000808D01*
X148061943Y-83000808D01*
X147938057Y-83000808D01*
X147938055Y-83000808D01*
X147818391Y-83032872D01*
X147711109Y-83094811D01*
X147623503Y-83182417D01*
X147561564Y-83289699D01*
X147529500Y-83409363D01*
X147529500Y-83443402D01*
X147508683Y-83507471D01*
X147497575Y-83520477D01*
X146803208Y-84214844D01*
X146803207Y-84214843D01*
X146743538Y-84274513D01*
X146743536Y-84274516D01*
X146701340Y-84347598D01*
X146701340Y-84347599D01*
X146679500Y-84429112D01*
X146679500Y-88216351D01*
X146658683Y-88280420D01*
X146622233Y-88309163D01*
X146623506Y-88311367D01*
X146510035Y-88376878D01*
X146422429Y-88464484D01*
X146360490Y-88571766D01*
X146328426Y-88691430D01*
X144812681Y-88691430D01*
X144790153Y-88679951D01*
X144782395Y-88674061D01*
X144768459Y-88654003D01*
X144751190Y-88636734D01*
X144748407Y-88625143D01*
X144743957Y-88618738D01*
X144744192Y-88607586D01*
X144739310Y-88587250D01*
X144739310Y-87360825D01*
X144739310Y-87360823D01*
X144715764Y-87272951D01*
X144670279Y-87194167D01*
X144605952Y-87129840D01*
X144011235Y-86535123D01*
X143980652Y-86475099D01*
X143979568Y-86461331D01*
X143979310Y-86459371D01*
X143979310Y-86459366D01*
X143947246Y-86339703D01*
X143947245Y-86339702D01*
X143947245Y-86339700D01*
X143885306Y-86232418D01*
X143885305Y-86232417D01*
X143885304Y-86232415D01*
X143797704Y-86144815D01*
X143797701Y-86144813D01*
X143797700Y-86144812D01*
X143690418Y-86082873D01*
X143570754Y-86050809D01*
X143570753Y-86050809D01*
X143446867Y-86050809D01*
X143446865Y-86050809D01*
X143327201Y-86082873D01*
X143219919Y-86144812D01*
X143132313Y-86232418D01*
X143070374Y-86339700D01*
X143038310Y-86459364D01*
X140150865Y-86459364D01*
X140135307Y-86432417D01*
X140135306Y-86432416D01*
X140135305Y-86432414D01*
X140047705Y-86344814D01*
X140047702Y-86344812D01*
X140047701Y-86344811D01*
X139940419Y-86282872D01*
X139820755Y-86250808D01*
X139820754Y-86250808D01*
X139696868Y-86250808D01*
X139696866Y-86250808D01*
X139577202Y-86282872D01*
X139469920Y-86344811D01*
X139382314Y-86432417D01*
X139320375Y-86539699D01*
X139288311Y-86659363D01*
X139287379Y-86666447D01*
X139285655Y-86666220D01*
X139285593Y-86666411D01*
X139286969Y-86675098D01*
X139275381Y-86697840D01*
X139267494Y-86722116D01*
X139256386Y-86735120D01*
X139122622Y-86868884D01*
X139062600Y-86899467D01*
X139045549Y-86900809D01*
X138575717Y-86900809D01*
X138575711Y-86900810D01*
X138477250Y-86916403D01*
X138358564Y-86976877D01*
X138264377Y-87071064D01*
X138259339Y-87078000D01*
X138256886Y-87076218D01*
X138219170Y-87113931D01*
X138169689Y-87125809D01*
X137550761Y-87125809D01*
X137506735Y-87116522D01*
X137477637Y-87103674D01*
X137452933Y-87100808D01*
X136064695Y-87100808D01*
X136064672Y-87100810D01*
X136039984Y-87103673D01*
X135938918Y-87148298D01*
X135860800Y-87226416D01*
X135860800Y-87226417D01*
X135826564Y-87303956D01*
X135816176Y-87327482D01*
X135813310Y-87352182D01*
X135813310Y-87590424D01*
X135813312Y-87590446D01*
X135816175Y-87615132D01*
X135816175Y-87615134D01*
X135816176Y-87615135D01*
X135830819Y-87648299D01*
X135843616Y-87677281D01*
X135844196Y-87682972D01*
X135847560Y-87687600D01*
X135846599Y-87706533D01*
X135850451Y-87744299D01*
X135847576Y-87754965D01*
X135845856Y-87760262D01*
X135816176Y-87827482D01*
X135813310Y-87852186D01*
X135813310Y-87860513D01*
X135808456Y-87875465D01*
X135794728Y-87894368D01*
X135784995Y-87915612D01*
X135775365Y-87921033D01*
X135768873Y-87929975D01*
X135746654Y-87937200D01*
X135726295Y-87948664D01*
X135704821Y-87950804D01*
X135704810Y-87950808D01*
X135704803Y-87950805D01*
X135704783Y-87950808D01*
X135650931Y-87950808D01*
X135518553Y-87986279D01*
X135399866Y-88054803D01*
X135302953Y-88151716D01*
X135234429Y-88270403D01*
X135198958Y-88402781D01*
X133945958Y-88402781D01*
X133935587Y-88364077D01*
X133939112Y-88296804D01*
X133981506Y-88244450D01*
X134012658Y-88230580D01*
X134090417Y-88209745D01*
X134197705Y-88147803D01*
X134285305Y-88060203D01*
X134347247Y-87952915D01*
X134379311Y-87833252D01*
X134379311Y-87709366D01*
X134347247Y-87589703D01*
X134347246Y-87589702D01*
X134347246Y-87589700D01*
X134285307Y-87482418D01*
X134285306Y-87482417D01*
X134285305Y-87482415D01*
X134197705Y-87394815D01*
X134197702Y-87394813D01*
X134197701Y-87394812D01*
X134090419Y-87332873D01*
X133970755Y-87300809D01*
X133970754Y-87300809D01*
X133846868Y-87300809D01*
X133846866Y-87300809D01*
X133727202Y-87332873D01*
X133619920Y-87394812D01*
X133532315Y-87482417D01*
X133480994Y-87571310D01*
X133430932Y-87616386D01*
X133386597Y-87625810D01*
X133150761Y-87625810D01*
X133106735Y-87616523D01*
X133077637Y-87603675D01*
X133052933Y-87600809D01*
X131664695Y-87600809D01*
X131664672Y-87600811D01*
X131639984Y-87603674D01*
X131538918Y-87648299D01*
X131460800Y-87726417D01*
X131416176Y-87827483D01*
X131413310Y-87852183D01*
X131413310Y-88090425D01*
X131413312Y-88090447D01*
X131416175Y-88115134D01*
X131416175Y-88115136D01*
X131443615Y-88177280D01*
X131450451Y-88244298D01*
X131443615Y-88265335D01*
X131416176Y-88327481D01*
X131413310Y-88352185D01*
X131413310Y-88465438D01*
X131413311Y-88516807D01*
X131407976Y-88533226D01*
X131407976Y-88550491D01*
X131397828Y-88564458D01*
X131392494Y-88580876D01*
X131378528Y-88591022D01*
X131368380Y-88604991D01*
X131351959Y-88610326D01*
X131337994Y-88620473D01*
X131304311Y-88625808D01*
X131123808Y-88625808D01*
X131059739Y-88604991D01*
X131046733Y-88593883D01*
X130900651Y-88447801D01*
X130870068Y-88387777D01*
X130874844Y-88334723D01*
X130877379Y-88327481D01*
X130888113Y-88296804D01*
X130892678Y-88283760D01*
X130895500Y-88253665D01*
X130895500Y-87696334D01*
X130892678Y-87666242D01*
X130892678Y-87666241D01*
X130848322Y-87539481D01*
X130848319Y-87539476D01*
X130791936Y-87463079D01*
X130770640Y-87399168D01*
X130790978Y-87334945D01*
X130825138Y-87303956D01*
X130836051Y-87297655D01*
X130872704Y-87276494D01*
X130960304Y-87188894D01*
X131022246Y-87081606D01*
X131054310Y-86961943D01*
X131054310Y-86838057D01*
X131022246Y-86718394D01*
X131022245Y-86718393D01*
X131022245Y-86718391D01*
X130971110Y-86629823D01*
X130960304Y-86611106D01*
X130936234Y-86587035D01*
X130905652Y-86527012D01*
X130904310Y-86509962D01*
X130904310Y-85592643D01*
X132013311Y-85592643D01*
X132013311Y-86199974D01*
X132016132Y-86230066D01*
X132016133Y-86230068D01*
X132060488Y-86356827D01*
X132060491Y-86356832D01*
X132140232Y-86464878D01*
X132140241Y-86464887D01*
X132248287Y-86544628D01*
X132248292Y-86544631D01*
X132375052Y-86588987D01*
X132390099Y-86590398D01*
X132405146Y-86591809D01*
X132405147Y-86591809D01*
X132493568Y-86591809D01*
X132557637Y-86612626D01*
X132597233Y-86667126D01*
X132598854Y-86672598D01*
X132620375Y-86752915D01*
X132620375Y-86752917D01*
X132682314Y-86860199D01*
X132682315Y-86860200D01*
X132682317Y-86860203D01*
X132769917Y-86947803D01*
X132769919Y-86947804D01*
X132769920Y-86947805D01*
X132877202Y-87009744D01*
X132877204Y-87009744D01*
X132877205Y-87009745D01*
X132996868Y-87041809D01*
X132996870Y-87041809D01*
X133120752Y-87041809D01*
X133120754Y-87041809D01*
X133240417Y-87009745D01*
X133347705Y-86947803D01*
X133435305Y-86860203D01*
X133497247Y-86752915D01*
X133529311Y-86633252D01*
X133529311Y-86509366D01*
X133497247Y-86389703D01*
X133497246Y-86389702D01*
X133497246Y-86389700D01*
X133435307Y-86282418D01*
X133435306Y-86282417D01*
X133435305Y-86282415D01*
X133434330Y-86281440D01*
X133433357Y-86279877D01*
X133430958Y-86276750D01*
X133431265Y-86276514D01*
X133408210Y-86239459D01*
X133404311Y-86227992D01*
X133404311Y-86225823D01*
X133380765Y-86137951D01*
X133363560Y-86108151D01*
X133360114Y-86098015D01*
X133359921Y-86083863D01*
X133354311Y-86062924D01*
X133354311Y-85592643D01*
X133351489Y-85562551D01*
X133351489Y-85562550D01*
X133307133Y-85435790D01*
X133307130Y-85435785D01*
X133227389Y-85327739D01*
X133227380Y-85327730D01*
X133119334Y-85247989D01*
X133119329Y-85247986D01*
X132992570Y-85203631D01*
X132992568Y-85203630D01*
X132962476Y-85200809D01*
X132962475Y-85200809D01*
X132405147Y-85200809D01*
X132405146Y-85200809D01*
X132375053Y-85203630D01*
X132375051Y-85203631D01*
X132248292Y-85247986D01*
X132248287Y-85247989D01*
X132140241Y-85327730D01*
X132140232Y-85327739D01*
X132060491Y-85435785D01*
X132060488Y-85435790D01*
X132016133Y-85562549D01*
X132016132Y-85562551D01*
X132013311Y-85592643D01*
X130904310Y-85592643D01*
X130904310Y-84616885D01*
X130925127Y-84552816D01*
X130979627Y-84513220D01*
X131046993Y-84513220D01*
X131051355Y-84514741D01*
X131107770Y-84535783D01*
X131163810Y-84541808D01*
X131163818Y-84541808D01*
X134453802Y-84541808D01*
X134453810Y-84541808D01*
X134509850Y-84535783D01*
X134636615Y-84488502D01*
X134744925Y-84407423D01*
X134826004Y-84299113D01*
X134873285Y-84172348D01*
X134879310Y-84116308D01*
X134879310Y-83900808D01*
X134900127Y-83836739D01*
X134954627Y-83797143D01*
X134988310Y-83791808D01*
X135669909Y-83791808D01*
X135733978Y-83812625D01*
X135773574Y-83867125D01*
X135773574Y-83934491D01*
X135772044Y-83938877D01*
X135769376Y-83946033D01*
X135761868Y-83966161D01*
X135761055Y-83973728D01*
X135755844Y-84022199D01*
X135755844Y-84612199D01*
X135759467Y-84645898D01*
X135761868Y-84668235D01*
X135761868Y-84668237D01*
X135761869Y-84668239D01*
X135809150Y-84795004D01*
X135809151Y-84795006D01*
X135841662Y-84838436D01*
X135890229Y-84903314D01*
X135890232Y-84903316D01*
X135978180Y-84969153D01*
X135998539Y-84984393D01*
X136125304Y-85031674D01*
X136125307Y-85031674D01*
X136131693Y-85034056D01*
X136131162Y-85035477D01*
X136182214Y-85066509D01*
X136208218Y-85128653D01*
X136195234Y-85186533D01*
X136195949Y-85186829D01*
X136194246Y-85190938D01*
X136193989Y-85192088D01*
X136193215Y-85193427D01*
X136161151Y-85313091D01*
X136161151Y-85436980D01*
X136193215Y-85556644D01*
X136255154Y-85663926D01*
X136255155Y-85663927D01*
X136255157Y-85663930D01*
X136342757Y-85751530D01*
X136342759Y-85751531D01*
X136342760Y-85751532D01*
X136450042Y-85813471D01*
X136450044Y-85813471D01*
X136450045Y-85813472D01*
X136569708Y-85845536D01*
X136569709Y-85845536D01*
X136576609Y-85847385D01*
X136576169Y-85849024D01*
X136629334Y-85874376D01*
X136661484Y-85933575D01*
X136663311Y-85953449D01*
X136663311Y-86199974D01*
X136666132Y-86230066D01*
X136666133Y-86230068D01*
X136710488Y-86356827D01*
X136710491Y-86356832D01*
X136790232Y-86464878D01*
X136790241Y-86464887D01*
X136898287Y-86544628D01*
X136898292Y-86544631D01*
X137025052Y-86588987D01*
X137040099Y-86590398D01*
X137055146Y-86591809D01*
X137055147Y-86591809D01*
X137612476Y-86591809D01*
X137622506Y-86590868D01*
X137642570Y-86588987D01*
X137769330Y-86544631D01*
X137877385Y-86464883D01*
X137880007Y-86461331D01*
X137957130Y-86356832D01*
X137957129Y-86356832D01*
X137957133Y-86356828D01*
X138001489Y-86230068D01*
X138004311Y-86199973D01*
X138004311Y-85592645D01*
X138003740Y-85586560D01*
X138001489Y-85562551D01*
X138001489Y-85562550D01*
X137957133Y-85435790D01*
X137957130Y-85435785D01*
X137877389Y-85327739D01*
X137877380Y-85327730D01*
X137769334Y-85247989D01*
X137769329Y-85247986D01*
X137642570Y-85203631D01*
X137642568Y-85203630D01*
X137612476Y-85200809D01*
X137612475Y-85200809D01*
X137428061Y-85200809D01*
X137363992Y-85179992D01*
X137324396Y-85125492D01*
X137324396Y-85058126D01*
X137363992Y-85003626D01*
X137389966Y-84989682D01*
X137404149Y-84984393D01*
X137512459Y-84903314D01*
X137566308Y-84831378D01*
X137579796Y-84821870D01*
X137589498Y-84808517D01*
X137606638Y-84802947D01*
X137621367Y-84792565D01*
X137653567Y-84787700D01*
X137824120Y-84787700D01*
X137888189Y-84808517D01*
X137911378Y-84831378D01*
X137965229Y-84903315D01*
X138017811Y-84942677D01*
X138059811Y-84974118D01*
X138073539Y-84984394D01*
X138200304Y-85031675D01*
X138256344Y-85037700D01*
X138405812Y-85037700D01*
X138469881Y-85058517D01*
X138509477Y-85113017D01*
X138509477Y-85180383D01*
X138500209Y-85201200D01*
X138437753Y-85309375D01*
X138402282Y-85441753D01*
X138402282Y-85578806D01*
X138437753Y-85711184D01*
X138496809Y-85813472D01*
X138506279Y-85829874D01*
X138603188Y-85926783D01*
X138721877Y-85995308D01*
X138721876Y-85995308D01*
X138770331Y-86008291D01*
X138854257Y-86030780D01*
X138854259Y-86030780D01*
X138991305Y-86030780D01*
X138991307Y-86030780D01*
X139119161Y-85996520D01*
X139147371Y-85992807D01*
X142449850Y-85992807D01*
X142449854Y-85992808D01*
X142471533Y-85992808D01*
X142569087Y-85992808D01*
X142569088Y-85992808D01*
X142569089Y-85992808D01*
X142643841Y-85972778D01*
X142663319Y-85967559D01*
X142707943Y-85941795D01*
X142747804Y-85918782D01*
X143142853Y-85523731D01*
X143202877Y-85493149D01*
X143219928Y-85491807D01*
X143718972Y-85491807D01*
X143718972Y-85491806D01*
X143790990Y-85481315D01*
X143902077Y-85427008D01*
X143989511Y-85339574D01*
X144043818Y-85228487D01*
X144043818Y-85228483D01*
X144044748Y-85226582D01*
X144091588Y-85178165D01*
X144157941Y-85166528D01*
X144218462Y-85196113D01*
X144219748Y-85197378D01*
X144560214Y-85537844D01*
X144584750Y-85580337D01*
X144585653Y-85579964D01*
X144588383Y-85586557D01*
X144656731Y-85704939D01*
X144656911Y-85705250D01*
X144753820Y-85802159D01*
X144872509Y-85870684D01*
X144872508Y-85870684D01*
X144920963Y-85883667D01*
X145004889Y-85906156D01*
X145004891Y-85906156D01*
X145141937Y-85906156D01*
X145141939Y-85906156D01*
X145274319Y-85870684D01*
X145393008Y-85802159D01*
X145489917Y-85705250D01*
X145558442Y-85586561D01*
X145593914Y-85454181D01*
X145593914Y-85317131D01*
X145558442Y-85184751D01*
X145514706Y-85108999D01*
X145500701Y-85043106D01*
X145528101Y-84981565D01*
X145586442Y-84947882D01*
X145609104Y-84945500D01*
X145703665Y-84945500D01*
X145713695Y-84944559D01*
X145733759Y-84942678D01*
X145860519Y-84898322D01*
X145968574Y-84818574D01*
X145975997Y-84808517D01*
X146048319Y-84710523D01*
X146048318Y-84710523D01*
X146048322Y-84710519D01*
X146092678Y-84583759D01*
X146095500Y-84553664D01*
X146095500Y-84302905D01*
X146116317Y-84238836D01*
X146127425Y-84225830D01*
X146266220Y-84087035D01*
X146456464Y-83896792D01*
X146498659Y-83823709D01*
X146520500Y-83742195D01*
X146520500Y-83657806D01*
X146520500Y-82342198D01*
X146520501Y-82342195D01*
X146520501Y-82257806D01*
X146502816Y-82191807D01*
X146498659Y-82176291D01*
X146498659Y-82176290D01*
X146473396Y-82132535D01*
X146456464Y-82103208D01*
X146396792Y-82043536D01*
X146396789Y-82043534D01*
X145962679Y-81609424D01*
X145962669Y-81609412D01*
X145896794Y-81543538D01*
X145896792Y-81543536D01*
X145854596Y-81519173D01*
X145823708Y-81501340D01*
X145742196Y-81479500D01*
X145742195Y-81479500D01*
X144712815Y-81479500D01*
X144712814Y-81479500D01*
X144631301Y-81501340D01*
X144631300Y-81501340D01*
X144558218Y-81543536D01*
X144558215Y-81543538D01*
X144498545Y-81603207D01*
X144498546Y-81603208D01*
X144498544Y-81603210D01*
X144270665Y-81831090D01*
X144054180Y-82047575D01*
X143994156Y-82078158D01*
X143977105Y-82079500D01*
X142022957Y-82079500D01*
X141941444Y-82101340D01*
X141941443Y-82101340D01*
X141868361Y-82143536D01*
X141868358Y-82143538D01*
X141656806Y-82355088D01*
X141656807Y-82355089D01*
X141656804Y-82355092D01*
X141656803Y-82355091D01*
X141603349Y-82408547D01*
X141603347Y-82408550D01*
X141561149Y-82481636D01*
X141559922Y-82484600D01*
X141558430Y-82486345D01*
X141557579Y-82487821D01*
X141557305Y-82487663D01*
X141516169Y-82535822D01*
X141450663Y-82551544D01*
X141444361Y-82550838D01*
X141443974Y-82550810D01*
X141443972Y-82550810D01*
X140823849Y-82550810D01*
X140759780Y-82529993D01*
X140746774Y-82518885D01*
X140466520Y-82238631D01*
X140466510Y-82238619D01*
X140372704Y-82144814D01*
X140372702Y-82144813D01*
X140265419Y-82082873D01*
X140145753Y-82050808D01*
X139785772Y-82050808D01*
X139721703Y-82029991D01*
X139683644Y-81979899D01*
X139668537Y-81939395D01*
X139587461Y-81831090D01*
X139587459Y-81831087D01*
X139571668Y-81819266D01*
X139562446Y-81806185D01*
X139549411Y-81796900D01*
X139545643Y-81782349D01*
X139532853Y-81764206D01*
X139527994Y-81733029D01*
X139527873Y-81720194D01*
X139529310Y-81714834D01*
X139529310Y-81577784D01*
X139526437Y-81567064D01*
X139526308Y-81553236D01*
X139532465Y-81533661D01*
X139533536Y-81513170D01*
X139546166Y-81490107D01*
X139546523Y-81488975D01*
X139546967Y-81488645D01*
X139547598Y-81487494D01*
X139607133Y-81406827D01*
X139651489Y-81280067D01*
X139654311Y-81249972D01*
X139654311Y-80692644D01*
X139651489Y-80662549D01*
X139607133Y-80535789D01*
X139607130Y-80535784D01*
X139527389Y-80427738D01*
X139527380Y-80427729D01*
X139419334Y-80347988D01*
X139419329Y-80347985D01*
X139292570Y-80303630D01*
X139292568Y-80303629D01*
X139262476Y-80300808D01*
X139262475Y-80300808D01*
X138655147Y-80300808D01*
X138655146Y-80300808D01*
X138625053Y-80303629D01*
X138625051Y-80303630D01*
X138498292Y-80347985D01*
X138498287Y-80347988D01*
X138390241Y-80427729D01*
X138390236Y-80427734D01*
X138372419Y-80451876D01*
X138332079Y-80506535D01*
X138318361Y-80516345D01*
X138308448Y-80529991D01*
X138291650Y-80535448D01*
X138277286Y-80545722D01*
X138244379Y-80550808D01*
X138148243Y-80550808D01*
X138084174Y-80529991D01*
X138060542Y-80506534D01*
X138002388Y-80427738D01*
X138002379Y-80427729D01*
X137894333Y-80347988D01*
X137894328Y-80347985D01*
X137767569Y-80303630D01*
X137767567Y-80303629D01*
X137737475Y-80300808D01*
X137737474Y-80300808D01*
X137130146Y-80300808D01*
X137130145Y-80300808D01*
X137100052Y-80303629D01*
X137100050Y-80303630D01*
X136973291Y-80347985D01*
X136973286Y-80347988D01*
X136865240Y-80427729D01*
X136865235Y-80427734D01*
X136847418Y-80451876D01*
X136807078Y-80506535D01*
X136793360Y-80516345D01*
X136783447Y-80529991D01*
X136766649Y-80535448D01*
X136752285Y-80545722D01*
X136719378Y-80550808D01*
X136623243Y-80550808D01*
X136559174Y-80529991D01*
X136535542Y-80506534D01*
X136477389Y-80427739D01*
X136477380Y-80427730D01*
X136369334Y-80347989D01*
X136369329Y-80347986D01*
X136242570Y-80303631D01*
X136242568Y-80303630D01*
X136212476Y-80300809D01*
X136212475Y-80300809D01*
X135605147Y-80300809D01*
X135605146Y-80300809D01*
X135575053Y-80303630D01*
X135575051Y-80303631D01*
X135448292Y-80347986D01*
X135448287Y-80347989D01*
X135340241Y-80427730D01*
X135340232Y-80427739D01*
X135260491Y-80535785D01*
X135260488Y-80535790D01*
X135216133Y-80662549D01*
X135216132Y-80662551D01*
X135213311Y-80692643D01*
X135213311Y-81249974D01*
X135216132Y-81280066D01*
X135216133Y-81280068D01*
X135260488Y-81406827D01*
X135260491Y-81406832D01*
X135340232Y-81514878D01*
X135340241Y-81514887D01*
X135448286Y-81594627D01*
X135448288Y-81594628D01*
X135448292Y-81594631D01*
X135465311Y-81600586D01*
X135518909Y-81641395D01*
X135538311Y-81703469D01*
X135538311Y-81739833D01*
X135573782Y-81872211D01*
X135573783Y-81872212D01*
X135642308Y-81990901D01*
X135723920Y-82072513D01*
X135754502Y-82132535D01*
X135755844Y-82149586D01*
X135755844Y-82712201D01*
X135758628Y-82738097D01*
X135761868Y-82768239D01*
X135775101Y-82803717D01*
X135777985Y-82871021D01*
X135740759Y-82927167D01*
X135677640Y-82950708D01*
X135672973Y-82950808D01*
X133478448Y-82950808D01*
X133371500Y-82979465D01*
X133359830Y-82986204D01*
X133305329Y-83000808D01*
X131163810Y-83000808D01*
X131134515Y-83003957D01*
X131107772Y-83006832D01*
X131086067Y-83014927D01*
X131051399Y-83027858D01*
X130984097Y-83030743D01*
X130927952Y-82993516D01*
X130904410Y-82930398D01*
X130904310Y-82925730D01*
X130904310Y-81256002D01*
X130925127Y-81191933D01*
X130953488Y-81164885D01*
X132445553Y-80185359D01*
X132505372Y-80167479D01*
X132995217Y-80167479D01*
X133035973Y-80156558D01*
X133076730Y-80145638D01*
X133149813Y-80103443D01*
X133209485Y-80043771D01*
X133209485Y-80043770D01*
X133218451Y-80034805D01*
X133218458Y-80034795D01*
X134249367Y-79003886D01*
X134266603Y-78989858D01*
X135181426Y-78389286D01*
X135241566Y-78371406D01*
X137051112Y-78376775D01*
G37*
%TD.AperFunction*%
%TD*%
%TA.AperFunction,NonConductor*%
G36*
X142879636Y-78394070D02*
G01*
X142943641Y-78415078D01*
X142983076Y-78469695D01*
X142988311Y-78503070D01*
X142988311Y-78616809D01*
X142967494Y-78680878D01*
X142912994Y-78720474D01*
X142879311Y-78725809D01*
X142475718Y-78725809D01*
X142455358Y-78729034D01*
X142430173Y-78725044D01*
X142404680Y-78725057D01*
X142397538Y-78719873D01*
X142388822Y-78718493D01*
X142370795Y-78700464D01*
X142350160Y-78685489D01*
X142347432Y-78677100D01*
X142341189Y-78670857D01*
X142329310Y-78621431D01*
X142329310Y-78509365D01*
X142329252Y-78509151D01*
X142329249Y-78501817D01*
X142337538Y-78476260D01*
X142342409Y-78449841D01*
X142347756Y-78444757D01*
X142350033Y-78437737D01*
X142371762Y-78421932D01*
X142391231Y-78403423D01*
X142399895Y-78401471D01*
X142404513Y-78398113D01*
X142414831Y-78398107D01*
X142438567Y-78392762D01*
X142879636Y-78394070D01*
G37*
%TD.AperFunction*%
%TA.AperFunction,NonConductor*%
G36*
X145379637Y-78401489D02*
G01*
X145395889Y-78406823D01*
X145412994Y-78406823D01*
X145427088Y-78417063D01*
X145443641Y-78422496D01*
X145453653Y-78436363D01*
X145467494Y-78446419D01*
X145472877Y-78462988D01*
X145483076Y-78477113D01*
X145488311Y-78510488D01*
X145488311Y-78707187D01*
X145467494Y-78771256D01*
X145439369Y-78795277D01*
X145440502Y-78796837D01*
X145433566Y-78801875D01*
X145339379Y-78896062D01*
X145278905Y-79014748D01*
X145278905Y-79014749D01*
X145263311Y-79113210D01*
X145263311Y-79123468D01*
X145242494Y-79187537D01*
X145187994Y-79227133D01*
X145120628Y-79227133D01*
X145077236Y-79200543D01*
X144611236Y-78734543D01*
X144607243Y-78726706D01*
X144600128Y-78721537D01*
X144592240Y-78697261D01*
X144580653Y-78674519D01*
X144579311Y-78657468D01*
X144579311Y-78508438D01*
X144600128Y-78444369D01*
X144654628Y-78404773D01*
X144688628Y-78399438D01*
X145379637Y-78401489D01*
G37*
%TD.AperFunction*%
%TA.AperFunction,NonConductor*%
G36*
X151397460Y-78419346D02*
G01*
X151461467Y-78440354D01*
X151500902Y-78494971D01*
X151506136Y-78528812D01*
X151497795Y-80481857D01*
X151476704Y-80545836D01*
X151422036Y-80585199D01*
X151354671Y-80584911D01*
X151311721Y-80558466D01*
X150662679Y-79909424D01*
X150662669Y-79909412D01*
X150596794Y-79843538D01*
X150596792Y-79843536D01*
X150524357Y-79801715D01*
X150523708Y-79801340D01*
X150442196Y-79779500D01*
X150442195Y-79779500D01*
X150150242Y-79779500D01*
X150086173Y-79758683D01*
X150046577Y-79704183D01*
X150042584Y-79653449D01*
X150045303Y-79636279D01*
X150054311Y-79579406D01*
X150054310Y-79113213D01*
X150038716Y-79014747D01*
X149978244Y-78896064D01*
X149884056Y-78801876D01*
X149765373Y-78741404D01*
X149765371Y-78741403D01*
X149765370Y-78741403D01*
X149666908Y-78725809D01*
X149050717Y-78725809D01*
X149050711Y-78725810D01*
X148952250Y-78741403D01*
X148952248Y-78741404D01*
X148890731Y-78772748D01*
X148824194Y-78783286D01*
X148764172Y-78752703D01*
X148608844Y-78597375D01*
X148578261Y-78537351D01*
X148588799Y-78470815D01*
X148636434Y-78423180D01*
X148686237Y-78411301D01*
X151397460Y-78419346D01*
G37*
%TD.AperFunction*%
%TA.AperFunction,NonConductor*%
G36*
X144754237Y-83222021D02*
G01*
X144771102Y-83221895D01*
X144785466Y-83232167D01*
X144802265Y-83237626D01*
X144825895Y-83261080D01*
X144831426Y-83268574D01*
X144831427Y-83268574D01*
X144831428Y-83268576D01*
X144939476Y-83348319D01*
X144939481Y-83348322D01*
X145066241Y-83392678D01*
X145066247Y-83392678D01*
X145070054Y-83393511D01*
X145072187Y-83394759D01*
X145072502Y-83394869D01*
X145072480Y-83394930D01*
X145128204Y-83427522D01*
X145155257Y-83489216D01*
X145140881Y-83555030D01*
X145090565Y-83599824D01*
X145070054Y-83606489D01*
X145066240Y-83607322D01*
X144939481Y-83651677D01*
X144939476Y-83651680D01*
X144831430Y-83731421D01*
X144831421Y-83731430D01*
X144751680Y-83839476D01*
X144751678Y-83839479D01*
X144719074Y-83932655D01*
X144678264Y-83986252D01*
X144613744Y-84005626D01*
X144550159Y-83983375D01*
X144539117Y-83973728D01*
X144304019Y-83738631D01*
X144304017Y-83738628D01*
X144210202Y-83644814D01*
X144210200Y-83644813D01*
X144102916Y-83582873D01*
X144068547Y-83573664D01*
X144012049Y-83536974D01*
X143987907Y-83474083D01*
X143998832Y-83420508D01*
X144043818Y-83328489D01*
X144045289Y-83318391D01*
X144046499Y-83310092D01*
X144076337Y-83249695D01*
X144135977Y-83218370D01*
X144154360Y-83216809D01*
X144738196Y-83216809D01*
X144754237Y-83222021D01*
G37*
%TD.AperFunction*%
%TA.AperFunction,NonConductor*%
G36*
X151405800Y-91412625D02*
G01*
X151445396Y-91467125D01*
X151450730Y-91501274D01*
X151450463Y-91563720D01*
X151429372Y-91627699D01*
X151374703Y-91667062D01*
X151341484Y-91672254D01*
X145114881Y-91673424D01*
X145060362Y-91658821D01*
X145015419Y-91632873D01*
X144939850Y-91612624D01*
X144915476Y-91606093D01*
X144858980Y-91569404D01*
X144834838Y-91506512D01*
X144852274Y-91441442D01*
X144904627Y-91399048D01*
X144943689Y-91391808D01*
X151341731Y-91391808D01*
X151405800Y-91412625D01*
G37*
%TD.AperFunction*%
%TA.AperFunction,NonConductor*%
G36*
X144738229Y-91396453D02*
G01*
X144753248Y-91395824D01*
X144769473Y-91406604D01*
X144788002Y-91412625D01*
X144796837Y-91424785D01*
X144809358Y-91433105D01*
X144816148Y-91451365D01*
X144827598Y-91467125D01*
X144827598Y-91482155D01*
X144832838Y-91496247D01*
X144827598Y-91515012D01*
X144827598Y-91534491D01*
X144818762Y-91546651D01*
X144814720Y-91561130D01*
X144799453Y-91573229D01*
X144788002Y-91588991D01*
X144766814Y-91599096D01*
X144761924Y-91602973D01*
X144757107Y-91604764D01*
X144652205Y-91632873D01*
X144599156Y-91663500D01*
X144590568Y-91666694D01*
X144552597Y-91673529D01*
X144227185Y-91673590D01*
X144172665Y-91658987D01*
X144070130Y-91599789D01*
X144062189Y-91595204D01*
X144017114Y-91545143D01*
X144010072Y-91478146D01*
X144043754Y-91419806D01*
X144105296Y-91392405D01*
X144116690Y-91391808D01*
X144723933Y-91391808D01*
X144738229Y-91396453D01*
G37*
%TD.AperFunction*%
%TA.AperFunction,NonConductor*%
G36*
X143641405Y-91412625D02*
G01*
X143681001Y-91467125D01*
X143681001Y-91534491D01*
X143641405Y-91588991D01*
X143631837Y-91595204D01*
X143527419Y-91655490D01*
X143527417Y-91655491D01*
X143521233Y-91659062D01*
X143519540Y-91656130D01*
X143468684Y-91673714D01*
X143466663Y-91673733D01*
X140529240Y-91674285D01*
X140520865Y-91671565D01*
X140512169Y-91672943D01*
X140489435Y-91661359D01*
X140465168Y-91653480D01*
X140452145Y-91642360D01*
X140387668Y-91577883D01*
X140357085Y-91517859D01*
X140367623Y-91451323D01*
X140415258Y-91403688D01*
X140464743Y-91391808D01*
X143577336Y-91391808D01*
X143641405Y-91412625D01*
G37*
%TD.AperFunction*%
%TA.AperFunction,NonConductor*%
G36*
X137925471Y-91399696D02*
G01*
X137950680Y-91403689D01*
X137956897Y-91409907D01*
X137965263Y-91412625D01*
X137980267Y-91433276D01*
X137998314Y-91451324D01*
X137999689Y-91460009D01*
X138004859Y-91467125D01*
X138004859Y-91492648D01*
X138008852Y-91517860D01*
X138004859Y-91525696D01*
X138004859Y-91534491D01*
X137978268Y-91577883D01*
X137913284Y-91642866D01*
X137853261Y-91673449D01*
X137836231Y-91674791D01*
X136263331Y-91675087D01*
X136199258Y-91654282D01*
X136159651Y-91599789D01*
X136154310Y-91566087D01*
X136154310Y-91500808D01*
X136175127Y-91436739D01*
X136229627Y-91397143D01*
X136263310Y-91391808D01*
X137901194Y-91391808D01*
X137925471Y-91399696D01*
G37*
%TD.AperFunction*%
%TA.AperFunction,NonConductor*%
G36*
X134881571Y-90737074D02*
G01*
X135431386Y-91286889D01*
X135461968Y-91346911D01*
X135463310Y-91363962D01*
X135463310Y-91566258D01*
X135442493Y-91630327D01*
X135387993Y-91669923D01*
X135354330Y-91675258D01*
X134771785Y-91675367D01*
X134707713Y-91654562D01*
X134668106Y-91600069D01*
X134668094Y-91532704D01*
X134674639Y-91516896D01*
X134679905Y-91506562D01*
X134695500Y-91408097D01*
X134695499Y-90814150D01*
X134716316Y-90750083D01*
X134770816Y-90710486D01*
X134838182Y-90710486D01*
X134881571Y-90737074D01*
G37*
%TD.AperFunction*%
%TA.AperFunction,NonConductor*%
G36*
X133583916Y-89441317D02*
G01*
X133596922Y-89452425D01*
X134362922Y-90218425D01*
X134393505Y-90278449D01*
X134382967Y-90344985D01*
X134335332Y-90392620D01*
X134285847Y-90404500D01*
X133841906Y-90404500D01*
X133841900Y-90404501D01*
X133743439Y-90420094D01*
X133624753Y-90480568D01*
X133530568Y-90574753D01*
X133470094Y-90693439D01*
X133470094Y-90693440D01*
X133454500Y-90791901D01*
X133454500Y-91408093D01*
X133454501Y-91408099D01*
X133470094Y-91506559D01*
X133470094Y-91506560D01*
X133470095Y-91506562D01*
X133475487Y-91517145D01*
X133486026Y-91583679D01*
X133455444Y-91643702D01*
X133395421Y-91674287D01*
X133378389Y-91675629D01*
X133121628Y-91675678D01*
X133057555Y-91654873D01*
X133017948Y-91600381D01*
X133017935Y-91533015D01*
X133024482Y-91517204D01*
X133029905Y-91506562D01*
X133045500Y-91408097D01*
X133045499Y-90791904D01*
X133029905Y-90693438D01*
X132969433Y-90574755D01*
X132875245Y-90480567D01*
X132756562Y-90420095D01*
X132756560Y-90420094D01*
X132756559Y-90420094D01*
X132658098Y-90404500D01*
X132658097Y-90404500D01*
X132474354Y-90404500D01*
X132410285Y-90383683D01*
X132370689Y-90329183D01*
X132369067Y-90267291D01*
X132369086Y-90267219D01*
X132370500Y-90261943D01*
X132370500Y-90138057D01*
X132338436Y-90018394D01*
X132330881Y-90005308D01*
X132316874Y-89939414D01*
X132344274Y-89877872D01*
X132402614Y-89844189D01*
X132425277Y-89841807D01*
X133052925Y-89841807D01*
X133052932Y-89841807D01*
X133077637Y-89838942D01*
X133178701Y-89794318D01*
X133256820Y-89716199D01*
X133301444Y-89615135D01*
X133304310Y-89590431D01*
X133304310Y-89529500D01*
X133309645Y-89513080D01*
X133309645Y-89495817D01*
X133319792Y-89481850D01*
X133325127Y-89465431D01*
X133339093Y-89455283D01*
X133349241Y-89441317D01*
X133365660Y-89435982D01*
X133379627Y-89425835D01*
X133413310Y-89420500D01*
X133519847Y-89420500D01*
X133583916Y-89441317D01*
G37*
%TD.AperFunction*%
%TA.AperFunction,NonConductor*%
G36*
X130144985Y-91014783D02*
G01*
X130192620Y-91062418D01*
X130204500Y-91111903D01*
X130204500Y-91408093D01*
X130204501Y-91408099D01*
X130220094Y-91506559D01*
X130220094Y-91506560D01*
X130220095Y-91506562D01*
X130225799Y-91517757D01*
X130236337Y-91584291D01*
X130205754Y-91644314D01*
X130145731Y-91674898D01*
X130128699Y-91676240D01*
X129871316Y-91676288D01*
X129807244Y-91655483D01*
X129767637Y-91600990D01*
X129767625Y-91533624D01*
X129774178Y-91517801D01*
X129779905Y-91506562D01*
X129795500Y-91408097D01*
X129795499Y-91302904D01*
X129816316Y-91238836D01*
X129827418Y-91225835D01*
X130018427Y-91034826D01*
X130078449Y-91004245D01*
X130144985Y-91014783D01*
G37*
%TD.AperFunction*%
%TA.AperFunction,Conductor*%
%TO.N,Net-(J6-Pin_1)*%
G36*
X208605395Y-67522283D02*
G01*
X208788798Y-67538328D01*
X208810082Y-67542081D01*
X208869383Y-67557970D01*
X208982676Y-67588327D01*
X209002977Y-67595716D01*
X209112213Y-67646654D01*
X209164912Y-67671228D01*
X209183631Y-67682035D01*
X209329993Y-67784519D01*
X209346550Y-67798412D01*
X209472897Y-67924761D01*
X209486782Y-67941309D01*
X209588827Y-68087045D01*
X209589267Y-68087674D01*
X209600074Y-68106393D01*
X209675582Y-68268322D01*
X209682975Y-68288633D01*
X209729219Y-68461221D01*
X209732972Y-68482508D01*
X209749016Y-68665910D01*
X209749488Y-68676716D01*
X209749488Y-68747180D01*
X209749490Y-68747205D01*
X209749501Y-90084108D01*
X209749501Y-90144586D01*
X209749029Y-90155394D01*
X209732982Y-90338801D01*
X209729229Y-90360086D01*
X209682985Y-90532672D01*
X209675592Y-90552984D01*
X209600082Y-90714916D01*
X209589275Y-90733634D01*
X209486788Y-90880001D01*
X209472894Y-90896559D01*
X209346559Y-91022894D01*
X209330001Y-91036788D01*
X209183634Y-91139275D01*
X209164916Y-91150082D01*
X209002984Y-91225592D01*
X208982672Y-91232985D01*
X208810086Y-91279229D01*
X208788800Y-91282982D01*
X208605435Y-91299024D01*
X208594580Y-91299496D01*
X187523952Y-91291363D01*
X187456920Y-91271653D01*
X187411186Y-91218831D01*
X187400000Y-91167363D01*
X187400000Y-90890501D01*
X187419685Y-90823462D01*
X187472489Y-90777707D01*
X187524000Y-90766501D01*
X187648070Y-90766501D01*
X187732614Y-90749683D01*
X187773743Y-90741502D01*
X187892126Y-90692466D01*
X187998668Y-90621278D01*
X188783126Y-89836818D01*
X188844449Y-89803334D01*
X188870807Y-89800500D01*
X190647870Y-89800500D01*
X190647871Y-89800500D01*
X190707482Y-89794092D01*
X190842330Y-89743797D01*
X190957545Y-89657547D01*
X191043795Y-89542332D01*
X191094090Y-89407484D01*
X191100499Y-89347874D01*
X191100498Y-88452129D01*
X191094090Y-88392518D01*
X191043795Y-88257670D01*
X191043794Y-88257669D01*
X191043792Y-88257665D01*
X190957546Y-88142456D01*
X190957543Y-88142453D01*
X190842334Y-88056207D01*
X190842327Y-88056203D01*
X190707481Y-88005909D01*
X190707482Y-88005909D01*
X190647882Y-87999502D01*
X190647880Y-87999501D01*
X190647872Y-87999501D01*
X190647863Y-87999501D01*
X187752128Y-87999501D01*
X187752122Y-87999502D01*
X187692514Y-88005910D01*
X187567332Y-88052599D01*
X187497641Y-88057583D01*
X187436318Y-88024097D01*
X187402833Y-87962774D01*
X187400000Y-87936417D01*
X187400000Y-78971307D01*
X187419685Y-78904268D01*
X187436316Y-78883628D01*
X188083126Y-78236818D01*
X188144449Y-78203334D01*
X188170807Y-78200500D01*
X190647870Y-78200500D01*
X190647871Y-78200500D01*
X190707482Y-78194092D01*
X190842330Y-78143797D01*
X190957545Y-78057547D01*
X191043795Y-77942332D01*
X191094090Y-77807484D01*
X191100499Y-77747874D01*
X191100498Y-76852129D01*
X191094090Y-76792518D01*
X191043795Y-76657670D01*
X191043794Y-76657669D01*
X191043792Y-76657665D01*
X190957546Y-76542456D01*
X190957543Y-76542453D01*
X190842334Y-76456207D01*
X190842327Y-76456203D01*
X190707481Y-76405909D01*
X190707482Y-76405909D01*
X190647882Y-76399502D01*
X190647880Y-76399501D01*
X190647872Y-76399501D01*
X190647863Y-76399501D01*
X187752128Y-76399501D01*
X187752122Y-76399502D01*
X187692514Y-76405910D01*
X187567332Y-76452599D01*
X187497641Y-76457583D01*
X187436318Y-76424097D01*
X187402833Y-76362774D01*
X187400000Y-76336417D01*
X187400000Y-67646654D01*
X187419685Y-67579615D01*
X187472489Y-67533860D01*
X187523994Y-67522654D01*
X208541283Y-67521811D01*
X208594588Y-67521811D01*
X208605395Y-67522283D01*
G37*
%TD.AperFunction*%
%TD*%
%TA.AperFunction,Conductor*%
%TO.N,SHUNT+*%
G36*
X180465204Y-95957253D02*
G01*
X180521138Y-95999124D01*
X180545555Y-96064589D01*
X180545871Y-96073335D01*
X180547806Y-98470400D01*
X180528176Y-98537455D01*
X180475408Y-98583253D01*
X180423806Y-98594500D01*
X177874489Y-98594500D01*
X177767047Y-98606052D01*
X177767037Y-98606054D01*
X177715535Y-98617258D01*
X177612992Y-98651387D01*
X177612620Y-98651627D01*
X177612289Y-98651724D01*
X177606001Y-98654733D01*
X177605513Y-98653713D01*
X177545586Y-98671308D01*
X175972317Y-98671308D01*
X175905278Y-98651623D01*
X175859523Y-98598819D01*
X175848959Y-98559909D01*
X175840000Y-98472203D01*
X175784815Y-98305666D01*
X175692713Y-98156344D01*
X175586819Y-98050450D01*
X175572112Y-98023516D01*
X175555524Y-97997704D01*
X175554632Y-97991503D01*
X175553335Y-97989127D01*
X175550501Y-97962769D01*
X175550501Y-97785452D01*
X175570186Y-97718413D01*
X175586820Y-97697771D01*
X175698165Y-97586425D01*
X175698170Y-97586420D01*
X175778618Y-97450390D01*
X175822709Y-97298627D01*
X175825500Y-97263163D01*
X175825499Y-97154332D01*
X175845183Y-97087295D01*
X175897987Y-97041540D01*
X175967145Y-97031596D01*
X176012620Y-97047602D01*
X176013579Y-97048169D01*
X176013580Y-97048170D01*
X176149610Y-97128618D01*
X176301373Y-97172709D01*
X176336837Y-97175500D01*
X177538162Y-97175499D01*
X177573627Y-97172709D01*
X177725390Y-97128618D01*
X177786009Y-97092767D01*
X177849130Y-97075500D01*
X179039071Y-97075500D01*
X179123615Y-97058682D01*
X179164744Y-97050501D01*
X179283127Y-97001465D01*
X179290250Y-96996706D01*
X179380475Y-96936420D01*
X179389669Y-96930277D01*
X180334192Y-95985752D01*
X180395513Y-95952269D01*
X180465204Y-95957253D01*
G37*
%TD.AperFunction*%
%TA.AperFunction,Conductor*%
G36*
X185551846Y-67542416D02*
G01*
X185597603Y-67595218D01*
X185608811Y-67646734D01*
X185608811Y-89341501D01*
X185589126Y-89408540D01*
X185536322Y-89454295D01*
X185484811Y-89465501D01*
X181519928Y-89465501D01*
X181394260Y-89490498D01*
X181394250Y-89490501D01*
X181345219Y-89510811D01*
X181275880Y-89539531D01*
X181275862Y-89539541D01*
X181169331Y-89610722D01*
X181169324Y-89610728D01*
X180839043Y-89941010D01*
X180777720Y-89974495D01*
X180708028Y-89969511D01*
X180682471Y-89956431D01*
X180569565Y-89880989D01*
X180569552Y-89880982D01*
X180423881Y-89820644D01*
X180423869Y-89820641D01*
X180269225Y-89789880D01*
X180269222Y-89789880D01*
X180111538Y-89789880D01*
X180111535Y-89789880D01*
X179956890Y-89820641D01*
X179956878Y-89820644D01*
X179811207Y-89880982D01*
X179811194Y-89880989D01*
X179680091Y-89968590D01*
X179680087Y-89968593D01*
X179568593Y-90080087D01*
X179568590Y-90080091D01*
X179480989Y-90211194D01*
X179480982Y-90211207D01*
X179420644Y-90356878D01*
X179420641Y-90356888D01*
X179402522Y-90447977D01*
X179370136Y-90509888D01*
X179368587Y-90511466D01*
X179093723Y-90786331D01*
X179045089Y-90859119D01*
X179045087Y-90859121D01*
X179022539Y-90892864D01*
X179022533Y-90892875D01*
X178973499Y-91011255D01*
X178973497Y-91011261D01*
X178948500Y-91136928D01*
X178948500Y-93530192D01*
X178928815Y-93597231D01*
X178912181Y-93617873D01*
X178091873Y-94438181D01*
X178064945Y-94452884D01*
X178039127Y-94469477D01*
X178032926Y-94470368D01*
X178030550Y-94471666D01*
X178004192Y-94474500D01*
X177849130Y-94474500D01*
X177786009Y-94457232D01*
X177725390Y-94421382D01*
X177725385Y-94421380D01*
X177573633Y-94377292D01*
X177573620Y-94377290D01*
X177538163Y-94374500D01*
X176336849Y-94374500D01*
X176336824Y-94374501D01*
X176301372Y-94377291D01*
X176149614Y-94421380D01*
X176149609Y-94421382D01*
X176013583Y-94501827D01*
X176013574Y-94501834D01*
X175901830Y-94613578D01*
X175897978Y-94618545D01*
X175841335Y-94659451D01*
X175771568Y-94663239D01*
X175710828Y-94628708D01*
X175702022Y-94618545D01*
X175698169Y-94613578D01*
X175586425Y-94501834D01*
X175586416Y-94501827D01*
X175450390Y-94421382D01*
X175450385Y-94421380D01*
X175298633Y-94377292D01*
X175298620Y-94377290D01*
X175263163Y-94374500D01*
X174061849Y-94374500D01*
X174061824Y-94374501D01*
X174026372Y-94377291D01*
X173874614Y-94421380D01*
X173874609Y-94421382D01*
X173738585Y-94501826D01*
X173738575Y-94501834D01*
X173721404Y-94519005D01*
X173665820Y-94551096D01*
X173612359Y-94565421D01*
X173612352Y-94565424D01*
X173475427Y-94644477D01*
X173475422Y-94644481D01*
X173363618Y-94756286D01*
X172729286Y-95390617D01*
X172617481Y-95502421D01*
X172617479Y-95502423D01*
X172597615Y-95536829D01*
X172589219Y-95551373D01*
X172572287Y-95580700D01*
X172538423Y-95639352D01*
X172497500Y-95792081D01*
X172497499Y-95792083D01*
X172497499Y-95960184D01*
X172497500Y-95960197D01*
X172497500Y-98125500D01*
X172477815Y-98192539D01*
X172425011Y-98238294D01*
X172373500Y-98249500D01*
X165150098Y-98249500D01*
X165120657Y-98240855D01*
X165090671Y-98234332D01*
X165085655Y-98230577D01*
X165083059Y-98229815D01*
X165062417Y-98213181D01*
X164986819Y-98137583D01*
X164953334Y-98076260D01*
X164950500Y-98049902D01*
X164950500Y-94520941D01*
X164950499Y-94520940D01*
X164948956Y-94515179D01*
X164948955Y-94515178D01*
X164925879Y-94429058D01*
X164925879Y-94429057D01*
X164909577Y-94368216D01*
X164909575Y-94368212D01*
X164909574Y-94368209D01*
X164830524Y-94231290D01*
X164830521Y-94231286D01*
X164830520Y-94231284D01*
X164718716Y-94119480D01*
X164718715Y-94119479D01*
X164714385Y-94115149D01*
X164714374Y-94115139D01*
X164587590Y-93988355D01*
X164587588Y-93988352D01*
X164468717Y-93869481D01*
X164468716Y-93869480D01*
X164373080Y-93814265D01*
X164331785Y-93790423D01*
X164179057Y-93749499D01*
X164020943Y-93749499D01*
X164013347Y-93749499D01*
X164013331Y-93749500D01*
X160700097Y-93749500D01*
X160633058Y-93729815D01*
X160612416Y-93713181D01*
X158952786Y-92053551D01*
X158919301Y-91992228D01*
X158924285Y-91922536D01*
X158937366Y-91896978D01*
X158965079Y-91855502D01*
X158965084Y-91855495D01*
X159021658Y-91718913D01*
X159050500Y-91573918D01*
X159050500Y-91426082D01*
X159050500Y-91426079D01*
X159021659Y-91281092D01*
X159021658Y-91281091D01*
X159021658Y-91281087D01*
X159005676Y-91242502D01*
X158965087Y-91144511D01*
X158965080Y-91144498D01*
X158882951Y-91021584D01*
X158882948Y-91021580D01*
X158778419Y-90917051D01*
X158755108Y-90901475D01*
X158710304Y-90847862D01*
X158700000Y-90798373D01*
X158700000Y-87500000D01*
X158699999Y-87499999D01*
X153221071Y-83836610D01*
X153176283Y-83782983D01*
X153165995Y-83734137D01*
X153101414Y-70491490D01*
X153093391Y-68846401D01*
X153112749Y-68779266D01*
X153165329Y-68733254D01*
X153217385Y-68721796D01*
X163273346Y-68721796D01*
X163340385Y-68741481D01*
X163361027Y-68758115D01*
X164271991Y-69669079D01*
X164305476Y-69730402D01*
X164308310Y-69756760D01*
X164308310Y-70019176D01*
X164308311Y-70019183D01*
X164314718Y-70078790D01*
X164365012Y-70213635D01*
X164365016Y-70213642D01*
X164451262Y-70328851D01*
X164451265Y-70328854D01*
X164566474Y-70415100D01*
X164566481Y-70415104D01*
X164701327Y-70465398D01*
X164701326Y-70465398D01*
X164708254Y-70466142D01*
X164760937Y-70471807D01*
X165523357Y-70471806D01*
X165590396Y-70491490D01*
X165611038Y-70508125D01*
X166047950Y-70945037D01*
X166047953Y-70945041D01*
X166135078Y-71032166D01*
X166212001Y-71083564D01*
X166217801Y-71087440D01*
X166217804Y-71087442D01*
X166237521Y-71100617D01*
X166237523Y-71100618D01*
X166237526Y-71100620D01*
X166304207Y-71128239D01*
X166304209Y-71128241D01*
X166344451Y-71144909D01*
X166351359Y-71147771D01*
X166411782Y-71159789D01*
X166472204Y-71171808D01*
X166472205Y-71171808D01*
X168022203Y-71171808D01*
X168022204Y-71171809D01*
X168145417Y-71171809D01*
X168145418Y-71171809D01*
X168205840Y-71159790D01*
X168266263Y-71147772D01*
X168266266Y-71147770D01*
X168266269Y-71147770D01*
X168299598Y-71133963D01*
X168299597Y-71133963D01*
X168299603Y-71133961D01*
X168380097Y-71100621D01*
X168431320Y-71066393D01*
X168482544Y-71032167D01*
X168569669Y-70945042D01*
X168569670Y-70945040D01*
X168576736Y-70937974D01*
X168576739Y-70937970D01*
X169006584Y-70508125D01*
X169067907Y-70474640D01*
X169094265Y-70471806D01*
X169856681Y-70471806D01*
X169856682Y-70471806D01*
X169916293Y-70465398D01*
X170051141Y-70415103D01*
X170166356Y-70328853D01*
X170252606Y-70213638D01*
X170302901Y-70078790D01*
X170309310Y-70019180D01*
X170309309Y-69023435D01*
X170302901Y-68963824D01*
X170284557Y-68914641D01*
X170279572Y-68844950D01*
X170284557Y-68827972D01*
X170302899Y-68778795D01*
X170302901Y-68778790D01*
X170309310Y-68719180D01*
X170309309Y-67723435D01*
X170302901Y-67663824D01*
X170302899Y-67663821D01*
X170302553Y-67660594D01*
X170314959Y-67591834D01*
X170362570Y-67540697D01*
X170425834Y-67523339D01*
X185484812Y-67522735D01*
X185551846Y-67542416D01*
G37*
%TD.AperFunction*%
%TD*%
%TA.AperFunction,Conductor*%
%TO.N,SHUNT-*%
G36*
X116858581Y-67545173D02*
G01*
X116904338Y-67597975D01*
X116914836Y-67662745D01*
X116914720Y-67663826D01*
X116908311Y-67723436D01*
X116908311Y-67723440D01*
X116908311Y-67723441D01*
X116908311Y-68719179D01*
X116908312Y-68719185D01*
X116914719Y-68778791D01*
X116933064Y-68827975D01*
X116938048Y-68897667D01*
X116933064Y-68914640D01*
X116914720Y-68963823D01*
X116914719Y-68963825D01*
X116908312Y-69023425D01*
X116908311Y-69023444D01*
X116908311Y-70019179D01*
X116908312Y-70019185D01*
X116914719Y-70078792D01*
X116965013Y-70213637D01*
X116965017Y-70213644D01*
X117051263Y-70328853D01*
X117051266Y-70328856D01*
X117166475Y-70415102D01*
X117166482Y-70415106D01*
X117301328Y-70465400D01*
X117301327Y-70465400D01*
X117308255Y-70466144D01*
X117360938Y-70471809D01*
X118123358Y-70471808D01*
X118190397Y-70491492D01*
X118211039Y-70508127D01*
X118644827Y-70941915D01*
X118644856Y-70941946D01*
X118735074Y-71032164D01*
X118735078Y-71032167D01*
X118837518Y-71100616D01*
X118837524Y-71100619D01*
X118837525Y-71100620D01*
X118951359Y-71147772D01*
X119011782Y-71159790D01*
X119072204Y-71171809D01*
X119246771Y-71171809D01*
X119246780Y-71171808D01*
X120595418Y-71171808D01*
X120655840Y-71159789D01*
X120716263Y-71147771D01*
X120749603Y-71133960D01*
X120830097Y-71100620D01*
X120881320Y-71066392D01*
X120932544Y-71032166D01*
X121019669Y-70945041D01*
X121019671Y-70945038D01*
X121026736Y-70937973D01*
X121026739Y-70937969D01*
X121456581Y-70508127D01*
X121517904Y-70474642D01*
X121544262Y-70471808D01*
X122456682Y-70471808D01*
X122456683Y-70471808D01*
X122516294Y-70465400D01*
X122651142Y-70415105D01*
X122766357Y-70328855D01*
X122829175Y-70244939D01*
X122885107Y-70203071D01*
X122904244Y-70197637D01*
X122927724Y-70192967D01*
X123064306Y-70136393D01*
X123187227Y-70054260D01*
X123291762Y-69949725D01*
X123373895Y-69826804D01*
X123430469Y-69690222D01*
X123439907Y-69642771D01*
X123459311Y-69545229D01*
X123459311Y-69397388D01*
X123430470Y-69252401D01*
X123430469Y-69252400D01*
X123430469Y-69252396D01*
X123401379Y-69182166D01*
X123373898Y-69115820D01*
X123373891Y-69115807D01*
X123291762Y-68992893D01*
X123291759Y-68992889D01*
X123187230Y-68888360D01*
X123187226Y-68888357D01*
X123066555Y-68807727D01*
X123053049Y-68791567D01*
X123036189Y-68778949D01*
X123031094Y-68765296D01*
X123021750Y-68754115D01*
X123019125Y-68733219D01*
X123011763Y-68713488D01*
X123014858Y-68699247D01*
X123013043Y-68684790D01*
X123022130Y-68665794D01*
X123026605Y-68645213D01*
X123041491Y-68625326D01*
X123043197Y-68621762D01*
X123047752Y-68616956D01*
X123231583Y-68433124D01*
X123292906Y-68399642D01*
X123319263Y-68396808D01*
X133298358Y-68396808D01*
X133365397Y-68416493D01*
X133386039Y-68433127D01*
X133877254Y-68924342D01*
X133910739Y-68985665D01*
X133913563Y-69013608D01*
X133800745Y-77841636D01*
X133780205Y-77908418D01*
X133754544Y-77936616D01*
X132162566Y-79219044D01*
X132098010Y-79245771D01*
X132084777Y-79246479D01*
X131133648Y-79246479D01*
X131133632Y-79246478D01*
X131126036Y-79246478D01*
X130967922Y-79246478D01*
X130860566Y-79275244D01*
X130815189Y-79287403D01*
X130815188Y-79287404D01*
X130765075Y-79316338D01*
X130765074Y-79316339D01*
X130721668Y-79341399D01*
X130678264Y-79366458D01*
X130678261Y-79366460D01*
X130103291Y-79941430D01*
X130103290Y-79941432D01*
X130067945Y-80002652D01*
X130024233Y-80078363D01*
X129983309Y-80231091D01*
X129983309Y-80231093D01*
X129983309Y-80399194D01*
X129983310Y-80399207D01*
X129983310Y-81975861D01*
X129981294Y-81998128D01*
X128463113Y-90315117D01*
X128431710Y-90377532D01*
X128428813Y-90380528D01*
X128419527Y-90389814D01*
X128331522Y-90535393D01*
X128280913Y-90697807D01*
X128274500Y-90768386D01*
X128274500Y-91337168D01*
X128272484Y-91359435D01*
X127913856Y-93324087D01*
X127882453Y-93386502D01*
X127825773Y-93421096D01*
X127354523Y-93555038D01*
X127290959Y-93556162D01*
X127188123Y-93530826D01*
X127188121Y-93530825D01*
X127188118Y-93530825D01*
X126930004Y-93499497D01*
X126930001Y-93499497D01*
X126800000Y-93499500D01*
X109505413Y-93499500D01*
X109494605Y-93499028D01*
X109311198Y-93482981D01*
X109289913Y-93479228D01*
X109117327Y-93432984D01*
X109097015Y-93425591D01*
X108935081Y-93350080D01*
X108916363Y-93339273D01*
X108770004Y-93236792D01*
X108753446Y-93222898D01*
X108627103Y-93096555D01*
X108613209Y-93079997D01*
X108510725Y-92933633D01*
X108499918Y-92914915D01*
X108424408Y-92752985D01*
X108417015Y-92732674D01*
X108387376Y-92622061D01*
X108370769Y-92560081D01*
X108367017Y-92538799D01*
X108350971Y-92355397D01*
X108350500Y-92344602D01*
X108352992Y-68679392D01*
X108353464Y-68668607D01*
X108353711Y-68665794D01*
X108369399Y-68486486D01*
X108373152Y-68465203D01*
X108381747Y-68433127D01*
X108419400Y-68292606D01*
X108426786Y-68272312D01*
X108502305Y-68110364D01*
X108513109Y-68091654D01*
X108615594Y-67945290D01*
X108629482Y-67928737D01*
X108755835Y-67802383D01*
X108772387Y-67788496D01*
X108898912Y-67699901D01*
X108918753Y-67686008D01*
X108937457Y-67675208D01*
X109099406Y-67599689D01*
X109119703Y-67592301D01*
X109292303Y-67546052D01*
X109313581Y-67542300D01*
X109496960Y-67526254D01*
X109507735Y-67525783D01*
X109516732Y-67525783D01*
X109568278Y-67525783D01*
X109568282Y-67525781D01*
X116791541Y-67525491D01*
X116858581Y-67545173D01*
G37*
%TD.AperFunction*%
%TD*%
M02*
