%TF.GenerationSoftware,KiCad,Pcbnew,9.0.1*%
%TF.CreationDate,2025-08-31T12:24:42+10:00*%
%TF.ProjectId,smart_shunt_v0.0.1,736d6172-745f-4736-9875-6e745f76302e,v0.0.2*%
%TF.SameCoordinates,Original*%
%TF.FileFunction,Soldermask,Top*%
%TF.FilePolarity,Negative*%
%FSLAX46Y46*%
G04 Gerber Fmt 4.6, Leading zero omitted, Abs format (unit mm)*
G04 Created by KiCad (PCBNEW 9.0.1) date 2025-08-31 12:24:42*
%MOMM*%
%LPD*%
G01*
G04 APERTURE LIST*
G04 Aperture macros list*
%AMRoundRect*
0 Rectangle with rounded corners*
0 $1 Rounding radius*
0 $2 $3 $4 $5 $6 $7 $8 $9 X,Y pos of 4 corners*
0 Add a 4 corners polygon primitive as box body*
4,1,4,$2,$3,$4,$5,$6,$7,$8,$9,$2,$3,0*
0 Add four circle primitives for the rounded corners*
1,1,$1+$1,$2,$3*
1,1,$1+$1,$4,$5*
1,1,$1+$1,$6,$7*
1,1,$1+$1,$8,$9*
0 Add four rect primitives between the rounded corners*
20,1,$1+$1,$2,$3,$4,$5,0*
20,1,$1+$1,$4,$5,$6,$7,0*
20,1,$1+$1,$6,$7,$8,$9,0*
20,1,$1+$1,$8,$9,$2,$3,0*%
%AMFreePoly0*
4,1,6,0.725000,-0.725000,-0.725000,-0.725000,-0.725000,0.125000,-0.125000,0.725000,0.725000,0.725000,0.725000,-0.725000,0.725000,-0.725000,$1*%
G04 Aperture macros list end*
%ADD10C,0.010000*%
%ADD11R,0.800000X0.400000*%
%ADD12R,0.400000X0.800000*%
%ADD13R,1.450000X1.450000*%
%ADD14FreePoly0,0.000000*%
%ADD15R,0.700000X0.700000*%
%ADD16RoundRect,0.225000X0.250000X-0.225000X0.250000X0.225000X-0.250000X0.225000X-0.250000X-0.225000X0*%
%ADD17RoundRect,0.200000X0.200000X0.275000X-0.200000X0.275000X-0.200000X-0.275000X0.200000X-0.275000X0*%
%ADD18RoundRect,0.102000X-1.400000X-0.400000X1.400000X-0.400000X1.400000X0.400000X-1.400000X0.400000X0*%
%ADD19RoundRect,0.250000X1.600000X-0.300000X1.600000X0.300000X-1.600000X0.300000X-1.600000X-0.300000X0*%
%ADD20RoundRect,0.200000X-0.275000X0.200000X-0.275000X-0.200000X0.275000X-0.200000X0.275000X0.200000X0*%
%ADD21RoundRect,0.147500X0.147500X0.172500X-0.147500X0.172500X-0.147500X-0.172500X0.147500X-0.172500X0*%
%ADD22RoundRect,0.225000X-0.250000X0.225000X-0.250000X-0.225000X0.250000X-0.225000X0.250000X0.225000X0*%
%ADD23C,2.000000*%
%ADD24O,17.000000X17.500000*%
%ADD25RoundRect,0.200000X0.275000X-0.200000X0.275000X0.200000X-0.275000X0.200000X-0.275000X-0.200000X0*%
%ADD26C,0.800000*%
%ADD27C,6.400000*%
%ADD28RoundRect,0.150000X-0.512500X-0.150000X0.512500X-0.150000X0.512500X0.150000X-0.512500X0.150000X0*%
%ADD29RoundRect,0.250000X1.950000X1.000000X-1.950000X1.000000X-1.950000X-1.000000X1.950000X-1.000000X0*%
%ADD30RoundRect,0.250000X0.475000X-0.250000X0.475000X0.250000X-0.475000X0.250000X-0.475000X-0.250000X0*%
%ADD31RoundRect,0.112500X-0.187500X-0.112500X0.187500X-0.112500X0.187500X0.112500X-0.187500X0.112500X0*%
%ADD32C,0.750000*%
%ADD33R,1.400000X0.900000*%
%ADD34RoundRect,0.225000X-0.225000X-0.250000X0.225000X-0.250000X0.225000X0.250000X-0.225000X0.250000X0*%
%ADD35RoundRect,0.225000X0.225000X0.250000X-0.225000X0.250000X-0.225000X-0.250000X0.225000X-0.250000X0*%
%ADD36RoundRect,0.150000X-0.150000X-0.425000X0.150000X-0.425000X0.150000X0.425000X-0.150000X0.425000X0*%
%ADD37RoundRect,0.075000X-0.075000X-0.500000X0.075000X-0.500000X0.075000X0.500000X-0.075000X0.500000X0*%
%ADD38RoundRect,0.250000X-0.840000X-0.750000X0.840000X-0.750000X0.840000X0.750000X-0.840000X0.750000X0*%
%ADD39RoundRect,0.075000X0.650000X0.075000X-0.650000X0.075000X-0.650000X-0.075000X0.650000X-0.075000X0*%
%ADD40RoundRect,0.125000X-0.537500X-0.125000X0.537500X-0.125000X0.537500X0.125000X-0.537500X0.125000X0*%
%ADD41RoundRect,0.200000X-0.200000X-0.275000X0.200000X-0.275000X0.200000X0.275000X-0.200000X0.275000X0*%
%ADD42RoundRect,0.250000X0.250000X0.475000X-0.250000X0.475000X-0.250000X-0.475000X0.250000X-0.475000X0*%
G04 APERTURE END LIST*
D10*
%TO.C,Q1*%
X191200000Y-78350000D02*
X189600000Y-78350000D01*
X189600000Y-77650000D01*
X186900000Y-77650000D01*
X186900000Y-78150000D01*
X183000000Y-78150000D01*
X183000000Y-68250000D01*
X186900000Y-68250000D01*
X186900000Y-68750000D01*
X189600000Y-68750000D01*
X189600000Y-68050000D01*
X191200000Y-68050000D01*
X191200000Y-78350000D01*
G36*
X191200000Y-78350000D02*
G01*
X189600000Y-78350000D01*
X189600000Y-77650000D01*
X186900000Y-77650000D01*
X186900000Y-78150000D01*
X183000000Y-78150000D01*
X183000000Y-68250000D01*
X186900000Y-68250000D01*
X186900000Y-68750000D01*
X189600000Y-68750000D01*
X189600000Y-68050000D01*
X191200000Y-68050000D01*
X191200000Y-78350000D01*
G37*
X180700000Y-77900000D02*
X177700000Y-77900000D01*
X177700000Y-76900000D01*
X179700000Y-76900000D01*
X179700000Y-76700000D01*
X177700000Y-76700000D01*
X177700000Y-75700000D01*
X179700000Y-75700000D01*
X179700000Y-75500000D01*
X177700000Y-75500000D01*
X177700000Y-74500000D01*
X179700000Y-74500000D01*
X179700000Y-74300000D01*
X177700000Y-74300000D01*
X177700000Y-73300000D01*
X179700000Y-73300000D01*
X179700000Y-73100000D01*
X177700000Y-73100000D01*
X177700000Y-72100000D01*
X179700000Y-72100000D01*
X179700000Y-71900000D01*
X177700000Y-71900000D01*
X177700000Y-70900000D01*
X179700000Y-70900000D01*
X179700000Y-70700000D01*
X177700000Y-70700000D01*
X177700000Y-69700000D01*
X180700000Y-69700000D01*
X180700000Y-77900000D01*
G36*
X180700000Y-77900000D02*
G01*
X177700000Y-77900000D01*
X177700000Y-76900000D01*
X179700000Y-76900000D01*
X179700000Y-76700000D01*
X177700000Y-76700000D01*
X177700000Y-75700000D01*
X179700000Y-75700000D01*
X179700000Y-75500000D01*
X177700000Y-75500000D01*
X177700000Y-74500000D01*
X179700000Y-74500000D01*
X179700000Y-74300000D01*
X177700000Y-74300000D01*
X177700000Y-73300000D01*
X179700000Y-73300000D01*
X179700000Y-73100000D01*
X177700000Y-73100000D01*
X177700000Y-72100000D01*
X179700000Y-72100000D01*
X179700000Y-71900000D01*
X177700000Y-71900000D01*
X177700000Y-70900000D01*
X179700000Y-70900000D01*
X179700000Y-70700000D01*
X177700000Y-70700000D01*
X177700000Y-69700000D01*
X180700000Y-69700000D01*
X180700000Y-77900000D01*
G37*
%TO.C,Q2*%
X191200000Y-89950000D02*
X189600000Y-89950000D01*
X189600000Y-89250000D01*
X186900000Y-89250000D01*
X186900000Y-89750000D01*
X183000000Y-89750000D01*
X183000000Y-79850000D01*
X186900000Y-79850000D01*
X186900000Y-80350000D01*
X189600000Y-80350000D01*
X189600000Y-79650000D01*
X191200000Y-79650000D01*
X191200000Y-89950000D01*
G36*
X191200000Y-89950000D02*
G01*
X189600000Y-89950000D01*
X189600000Y-89250000D01*
X186900000Y-89250000D01*
X186900000Y-89750000D01*
X183000000Y-89750000D01*
X183000000Y-79850000D01*
X186900000Y-79850000D01*
X186900000Y-80350000D01*
X189600000Y-80350000D01*
X189600000Y-79650000D01*
X191200000Y-79650000D01*
X191200000Y-89950000D01*
G37*
X180700000Y-89500000D02*
X177700000Y-89500000D01*
X177700000Y-88500000D01*
X179700000Y-88500000D01*
X179700000Y-88300000D01*
X177700000Y-88300000D01*
X177700000Y-87300000D01*
X179700000Y-87300000D01*
X179700000Y-87100000D01*
X177700000Y-87100000D01*
X177700000Y-86100000D01*
X179700000Y-86100000D01*
X179700000Y-85900000D01*
X177700000Y-85900000D01*
X177700000Y-84900000D01*
X179700000Y-84900000D01*
X179700000Y-84700000D01*
X177700000Y-84700000D01*
X177700000Y-83700000D01*
X179700000Y-83700000D01*
X179700000Y-83500000D01*
X177700000Y-83500000D01*
X177700000Y-82500000D01*
X179700000Y-82500000D01*
X179700000Y-82300000D01*
X177700000Y-82300000D01*
X177700000Y-81300000D01*
X180700000Y-81300000D01*
X180700000Y-89500000D01*
G36*
X180700000Y-89500000D02*
G01*
X177700000Y-89500000D01*
X177700000Y-88500000D01*
X179700000Y-88500000D01*
X179700000Y-88300000D01*
X177700000Y-88300000D01*
X177700000Y-87300000D01*
X179700000Y-87300000D01*
X179700000Y-87100000D01*
X177700000Y-87100000D01*
X177700000Y-86100000D01*
X179700000Y-86100000D01*
X179700000Y-85900000D01*
X177700000Y-85900000D01*
X177700000Y-84900000D01*
X179700000Y-84900000D01*
X179700000Y-84700000D01*
X177700000Y-84700000D01*
X177700000Y-83700000D01*
X179700000Y-83700000D01*
X179700000Y-83500000D01*
X177700000Y-83500000D01*
X177700000Y-82500000D01*
X179700000Y-82500000D01*
X179700000Y-82300000D01*
X177700000Y-82300000D01*
X177700000Y-81300000D01*
X180700000Y-81300000D01*
X180700000Y-89500000D01*
G37*
%TD*%
D11*
%TO.C,U1*%
X137558811Y-68871308D03*
X137558811Y-69671309D03*
X137558811Y-70471308D03*
X137558811Y-71271307D03*
X137558811Y-72071308D03*
X137558811Y-72871308D03*
X137558811Y-73671308D03*
X137558811Y-74471308D03*
X137558811Y-75271309D03*
X137558811Y-76071308D03*
X137558811Y-76871307D03*
D12*
X138658811Y-77771308D03*
X139458810Y-77771308D03*
X140258811Y-77771308D03*
X141058811Y-77771308D03*
X141858811Y-77771308D03*
X142658811Y-77771308D03*
X143458811Y-77771309D03*
X144258811Y-77771308D03*
X145058811Y-77771308D03*
X145858811Y-77771308D03*
X146658811Y-77771308D03*
X147458812Y-77771308D03*
X148258811Y-77771308D03*
D11*
X149358811Y-76871307D03*
X149358811Y-76071308D03*
X149358811Y-75271309D03*
X149358811Y-74471308D03*
X149358811Y-73671308D03*
X149358811Y-72871308D03*
X149358811Y-72071308D03*
X149358811Y-71271307D03*
X149358811Y-70471308D03*
X149358811Y-69671309D03*
X149358811Y-68871308D03*
D12*
X148258811Y-67971309D03*
X147458811Y-67971308D03*
X146658811Y-67971308D03*
X145858811Y-67971308D03*
X145058811Y-67971308D03*
X144258811Y-67971309D03*
X143458811Y-67971308D03*
X142658811Y-67971309D03*
X141858811Y-67971308D03*
X141058811Y-67971308D03*
X140258811Y-67971308D03*
X139458811Y-67971308D03*
X138658811Y-67971309D03*
D13*
X141483811Y-72871308D03*
X141483811Y-74846308D03*
D14*
X141483812Y-70896308D03*
D13*
X143458811Y-70896307D03*
X143458811Y-72871308D03*
X143458811Y-74846308D03*
X145433810Y-70896308D03*
X145433811Y-72871308D03*
X145433811Y-74846308D03*
D15*
X149408811Y-67921308D03*
X149408811Y-77821308D03*
X137508811Y-77821308D03*
X137508811Y-67921308D03*
%TD*%
D16*
%TO.C,C5*%
X135858811Y-70246309D03*
X135858811Y-68696309D03*
%TD*%
D17*
%TO.C,R3*%
X140483810Y-89346308D03*
X138833810Y-89346308D03*
%TD*%
D18*
%TO.C,Q1*%
X179200000Y-69000000D03*
%TD*%
D19*
%TO.C,L1*%
X132808810Y-83771308D03*
X132808810Y-80771308D03*
%TD*%
D20*
%TO.C,R11*%
X141183810Y-79321307D03*
X141183810Y-80971307D03*
%TD*%
D17*
%TO.C,R14*%
X134075000Y-91100000D03*
X132425000Y-91100000D03*
%TD*%
%TO.C,R1*%
X144395918Y-89327923D03*
X142745918Y-89327923D03*
%TD*%
D21*
%TO.C,D1*%
X144063811Y-92481308D03*
X143093811Y-92481308D03*
%TD*%
D17*
%TO.C,R10*%
X148033811Y-92411309D03*
X146383811Y-92411309D03*
%TD*%
D22*
%TO.C,C10*%
X138958811Y-79421308D03*
X138958811Y-80971308D03*
%TD*%
D23*
%TO.C,J1*%
X173858810Y-81671308D03*
X172108810Y-86171308D03*
X172108810Y-76921308D03*
X167358810Y-88471308D03*
D24*
X167358810Y-81671308D03*
D23*
X167358810Y-74921308D03*
X162858810Y-76921308D03*
X162358811Y-86171308D03*
X160858810Y-81671308D03*
%TD*%
D25*
%TO.C,R4*%
X145958811Y-80996309D03*
X145958811Y-79346309D03*
%TD*%
%TO.C,R7*%
X147558811Y-80996309D03*
X147558811Y-79346309D03*
%TD*%
D22*
%TO.C,C11*%
X178800000Y-98100000D03*
X178800000Y-99650000D03*
%TD*%
D26*
%TO.C,J5*%
X156908811Y-96021309D03*
X156205867Y-97718365D03*
X156205867Y-94324253D03*
X154508811Y-98421309D03*
D27*
X154508811Y-96021309D03*
D26*
X154508811Y-93621309D03*
X152811755Y-97718365D03*
X152811755Y-94324253D03*
X152108811Y-96021309D03*
%TD*%
D28*
%TO.C,U5*%
X140896311Y-83071310D03*
X140896311Y-84021309D03*
X140896311Y-84971308D03*
X143171311Y-84971308D03*
X143171311Y-84021309D03*
X143171311Y-83071310D03*
%TD*%
D29*
%TO.C,C13*%
X169100000Y-96200000D03*
X161700000Y-96200000D03*
%TD*%
D30*
%TO.C,C6*%
X138776344Y-84317200D03*
X138776344Y-82417202D03*
%TD*%
D31*
%TO.C,D5*%
X135808811Y-92171309D03*
X137908811Y-92171309D03*
%TD*%
D32*
%TO.C,SW2*%
X167308810Y-67946307D03*
X167308810Y-69771307D03*
D33*
X165508810Y-68221307D03*
X169108810Y-68221307D03*
X165508810Y-69521307D03*
X169108810Y-69521307D03*
%TD*%
D16*
%TO.C,C8*%
X130200000Y-89525000D03*
X130200000Y-87975000D03*
%TD*%
%TO.C,C7*%
X144883810Y-84446308D03*
X144883810Y-82896308D03*
%TD*%
D22*
%TO.C,C3*%
X135908811Y-79421309D03*
X135908811Y-80971309D03*
%TD*%
D30*
%TO.C,C4*%
X136701344Y-84317199D03*
X136701344Y-82417201D03*
%TD*%
D25*
%TO.C,R8*%
X149358811Y-80996309D03*
X149358811Y-79346309D03*
%TD*%
D34*
%TO.C,C1*%
X135783811Y-85896309D03*
X137333811Y-85896309D03*
%TD*%
D23*
%TO.C,J2*%
X126358811Y-81671308D03*
X124608811Y-86171308D03*
X124608811Y-76921308D03*
X119858811Y-88471308D03*
D24*
X119858811Y-81671308D03*
D23*
X119858811Y-74921308D03*
X115358811Y-76921308D03*
X114858812Y-86171308D03*
X113358811Y-81671308D03*
%TD*%
D26*
%TO.C,J3*%
X135108810Y-95971308D03*
X134405866Y-97668364D03*
X134405866Y-94274252D03*
X132708810Y-98371308D03*
D27*
X132708810Y-95971308D03*
D26*
X132708810Y-93571308D03*
X131011754Y-97668364D03*
X131011754Y-94274252D03*
X130308810Y-95971308D03*
%TD*%
D35*
%TO.C,C2*%
X134233811Y-85896309D03*
X132683811Y-85896309D03*
%TD*%
D20*
%TO.C,R6*%
X135908811Y-71796309D03*
X135908811Y-73446309D03*
%TD*%
D36*
%TO.C,J4*%
X140458811Y-94311308D03*
X141258811Y-94311308D03*
D37*
X142408811Y-94311309D03*
X143408811Y-94311308D03*
X143908811Y-94311308D03*
X144908811Y-94311309D03*
D36*
X146058811Y-94311308D03*
X146858811Y-94311308D03*
X146858811Y-94311308D03*
X146058811Y-94311308D03*
D37*
X145408811Y-94311308D03*
X144408811Y-94311308D03*
X142908811Y-94311308D03*
X141908811Y-94311308D03*
D36*
X141258811Y-94311308D03*
X140458811Y-94311308D03*
D38*
X138548811Y-94886308D03*
X138548811Y-98816308D03*
X148768811Y-94886308D03*
X148768811Y-98816308D03*
%TD*%
D39*
%TO.C,U4*%
X136758810Y-89471308D03*
X136758810Y-88971307D03*
X136758810Y-88471308D03*
X136758810Y-87971309D03*
X136758810Y-87471308D03*
X132358810Y-87471308D03*
X132358810Y-87971309D03*
X132358810Y-88471308D03*
X132358810Y-88971307D03*
X132358810Y-89471308D03*
%TD*%
D32*
%TO.C,SW1*%
X119908811Y-67946309D03*
X119908811Y-69771309D03*
D33*
X118108811Y-68221309D03*
X121708811Y-68221309D03*
X118108811Y-69521309D03*
X121708811Y-69521309D03*
%TD*%
D18*
%TO.C,Q2*%
X179200000Y-80600000D03*
%TD*%
D20*
%TO.C,R12*%
X142783811Y-79346309D03*
X142783811Y-80996309D03*
%TD*%
D40*
%TO.C,U2*%
X174662500Y-95125000D03*
X174662500Y-95775000D03*
X174662500Y-96425000D03*
X174662500Y-97075000D03*
X176937500Y-97075000D03*
X176937500Y-96425000D03*
X176937500Y-95775000D03*
X176937500Y-95125000D03*
%TD*%
D41*
%TO.C,R9*%
X139413810Y-92411309D03*
X141063810Y-92411309D03*
%TD*%
D17*
%TO.C,R13*%
X130825000Y-91100000D03*
X129175000Y-91100000D03*
%TD*%
D20*
%TO.C,R5*%
X135858811Y-74896307D03*
X135858811Y-76546307D03*
%TD*%
D17*
%TO.C,R2*%
X140458811Y-87596309D03*
X138808811Y-87596309D03*
%TD*%
D23*
%TO.C,J6*%
X194500000Y-79400000D03*
X196250000Y-74900000D03*
X196250000Y-84150000D03*
X201000000Y-72600000D03*
D24*
X201000000Y-79400000D03*
D23*
X201000000Y-86150000D03*
X205500000Y-84150000D03*
X206000000Y-74900000D03*
X207500000Y-79400000D03*
%TD*%
D42*
%TO.C,C12*%
X176749999Y-99100000D03*
X174850001Y-99100000D03*
%TD*%
D22*
%TO.C,C9*%
X137433810Y-79421308D03*
X137433810Y-80971308D03*
%TD*%
M02*
