%TF.GenerationSoftware,KiCad,Pcbnew,9.0.1*%
%TF.CreationDate,2025-07-20T13:59:44+10:00*%
%TF.ProjectId,smart_shunt_v0.0.1,736d6172-745f-4736-9875-6e745f76302e,v0.0.1*%
%TF.SameCoordinates,Original*%
%TF.FileFunction,Soldermask,Top*%
%TF.FilePolarity,Negative*%
%FSLAX46Y46*%
G04 Gerber Fmt 4.6, Leading zero omitted, Abs format (unit mm)*
G04 Created by KiCad (PCBNEW 9.0.1) date 2025-07-20 13:59:44*
%MOMM*%
%LPD*%
G01*
G04 APERTURE LIST*
G04 Aperture macros list*
%AMRoundRect*
0 Rectangle with rounded corners*
0 $1 Rounding radius*
0 $2 $3 $4 $5 $6 $7 $8 $9 X,Y pos of 4 corners*
0 Add a 4 corners polygon primitive as box body*
4,1,4,$2,$3,$4,$5,$6,$7,$8,$9,$2,$3,0*
0 Add four circle primitives for the rounded corners*
1,1,$1+$1,$2,$3*
1,1,$1+$1,$4,$5*
1,1,$1+$1,$6,$7*
1,1,$1+$1,$8,$9*
0 Add four rect primitives between the rounded corners*
20,1,$1+$1,$2,$3,$4,$5,0*
20,1,$1+$1,$4,$5,$6,$7,0*
20,1,$1+$1,$6,$7,$8,$9,0*
20,1,$1+$1,$8,$9,$2,$3,0*%
%AMFreePoly0*
4,1,6,0.725000,-0.725000,-0.725000,-0.725000,-0.725000,0.125000,-0.125000,0.725000,0.725000,0.725000,0.725000,-0.725000,0.725000,-0.725000,$1*%
G04 Aperture macros list end*
%ADD10RoundRect,0.200000X0.200000X0.275000X-0.200000X0.275000X-0.200000X-0.275000X0.200000X-0.275000X0*%
%ADD11RoundRect,0.150000X0.150000X0.425000X-0.150000X0.425000X-0.150000X-0.425000X0.150000X-0.425000X0*%
%ADD12RoundRect,0.075000X0.075000X0.500000X-0.075000X0.500000X-0.075000X-0.500000X0.075000X-0.500000X0*%
%ADD13RoundRect,0.250000X0.840000X0.750000X-0.840000X0.750000X-0.840000X-0.750000X0.840000X-0.750000X0*%
%ADD14RoundRect,0.250000X-0.475000X0.250000X-0.475000X-0.250000X0.475000X-0.250000X0.475000X0.250000X0*%
%ADD15RoundRect,0.200000X0.275000X-0.200000X0.275000X0.200000X-0.275000X0.200000X-0.275000X-0.200000X0*%
%ADD16RoundRect,0.250000X-1.600000X0.300000X-1.600000X-0.300000X1.600000X-0.300000X1.600000X0.300000X0*%
%ADD17RoundRect,0.225000X0.250000X-0.225000X0.250000X0.225000X-0.250000X0.225000X-0.250000X-0.225000X0*%
%ADD18RoundRect,0.225000X-0.250000X0.225000X-0.250000X-0.225000X0.250000X-0.225000X0.250000X0.225000X0*%
%ADD19R,0.800000X0.400000*%
%ADD20R,0.400000X0.800000*%
%ADD21R,1.450000X1.450000*%
%ADD22FreePoly0,180.000000*%
%ADD23R,0.700000X0.700000*%
%ADD24C,1.000000*%
%ADD25RoundRect,0.200000X-0.200000X-0.275000X0.200000X-0.275000X0.200000X0.275000X-0.200000X0.275000X0*%
%ADD26RoundRect,0.147500X-0.147500X-0.172500X0.147500X-0.172500X0.147500X0.172500X-0.147500X0.172500X0*%
%ADD27O,13.500000X14.000000*%
%ADD28RoundRect,0.200000X-0.275000X0.200000X-0.275000X-0.200000X0.275000X-0.200000X0.275000X0.200000X0*%
%ADD29C,0.800000*%
%ADD30C,6.400000*%
%ADD31C,0.750000*%
%ADD32R,1.400000X0.900000*%
%ADD33RoundRect,0.225000X0.225000X0.250000X-0.225000X0.250000X-0.225000X-0.250000X0.225000X-0.250000X0*%
%ADD34RoundRect,0.225000X-0.225000X-0.250000X0.225000X-0.250000X0.225000X0.250000X-0.225000X0.250000X0*%
%ADD35RoundRect,0.075000X-0.650000X-0.075000X0.650000X-0.075000X0.650000X0.075000X-0.650000X0.075000X0*%
%ADD36RoundRect,0.150000X0.512500X0.150000X-0.512500X0.150000X-0.512500X-0.150000X0.512500X-0.150000X0*%
G04 APERTURE END LIST*
D10*
%TO.C,R9*%
X145045000Y-69260000D03*
X146695000Y-69260000D03*
%TD*%
D11*
%TO.C,J4*%
X145650000Y-67360000D03*
X144850000Y-67360000D03*
D12*
X143700000Y-67359999D03*
X142700000Y-67360000D03*
X142200000Y-67360000D03*
X141200000Y-67359999D03*
D11*
X140050000Y-67360000D03*
X139250000Y-67360000D03*
X139250000Y-67360000D03*
X140050000Y-67360000D03*
D12*
X140700000Y-67360000D03*
X141700000Y-67360000D03*
X143200000Y-67360000D03*
X144200000Y-67360000D03*
D11*
X144850000Y-67360000D03*
X145650000Y-67360000D03*
D13*
X147560000Y-66785000D03*
X147560000Y-62855000D03*
X137340000Y-66785000D03*
X137340000Y-62855000D03*
%TD*%
D14*
%TO.C,C6*%
X147332467Y-77354108D03*
X147332467Y-79254108D03*
%TD*%
%TO.C,C4*%
X149407467Y-77354108D03*
X149407467Y-79254108D03*
%TD*%
D15*
%TO.C,R12*%
X143325000Y-82325000D03*
X143325000Y-80675000D03*
%TD*%
%TO.C,R11*%
X144925000Y-82350000D03*
X144925000Y-80700000D03*
%TD*%
D16*
%TO.C,L1*%
X153300000Y-77900000D03*
X153300000Y-80900000D03*
%TD*%
D17*
%TO.C,C10*%
X147150000Y-80700000D03*
X147150000Y-82250000D03*
%TD*%
%TO.C,C9*%
X148675000Y-82250000D03*
X148675000Y-80700000D03*
%TD*%
D18*
%TO.C,C7*%
X141225000Y-77225000D03*
X141225000Y-78775000D03*
%TD*%
D17*
%TO.C,C3*%
X150200000Y-82250000D03*
X150200000Y-80700000D03*
%TD*%
D19*
%TO.C,U1*%
X148550000Y-92800001D03*
X148550000Y-92000000D03*
X148550000Y-91200001D03*
X148550000Y-90400002D03*
X148550000Y-89600001D03*
X148550000Y-88800001D03*
X148550000Y-88000001D03*
X148550000Y-87200001D03*
X148550000Y-86400000D03*
X148550000Y-85600001D03*
X148550000Y-84800002D03*
D20*
X147450000Y-83900001D03*
X146650001Y-83900001D03*
X145850000Y-83900001D03*
X145050000Y-83900001D03*
X144250000Y-83900001D03*
X143450000Y-83900001D03*
X142650000Y-83900000D03*
X141850000Y-83900001D03*
X141050000Y-83900001D03*
X140250000Y-83900001D03*
X139450000Y-83900001D03*
X138649999Y-83900001D03*
X137850000Y-83900001D03*
D19*
X136750000Y-84800002D03*
X136750000Y-85600001D03*
X136750000Y-86400000D03*
X136750000Y-87200001D03*
X136750000Y-88000001D03*
X136750000Y-88800001D03*
X136750000Y-89600001D03*
X136750000Y-90400002D03*
X136750000Y-91200001D03*
X136750000Y-92000000D03*
X136750000Y-92800001D03*
D20*
X137850000Y-93700000D03*
X138650000Y-93700001D03*
X139450000Y-93700001D03*
X140250000Y-93700001D03*
X141050000Y-93700001D03*
X141850000Y-93700000D03*
X142650000Y-93700001D03*
X143450000Y-93700000D03*
X144250000Y-93700001D03*
X145050000Y-93700001D03*
X145850000Y-93700001D03*
X146650000Y-93700001D03*
X147450000Y-93700000D03*
D21*
X144625000Y-88800001D03*
X144625000Y-86825001D03*
D22*
X144624999Y-90775001D03*
D21*
X142650000Y-90775002D03*
X142650000Y-88800001D03*
X142650000Y-86825001D03*
X140675001Y-90775001D03*
X140675000Y-88800001D03*
X140675000Y-86825001D03*
D23*
X136700000Y-93750001D03*
X136700000Y-83850001D03*
X148600000Y-83850001D03*
X148600000Y-93750001D03*
%TD*%
D24*
%TO.C,TP4*%
X129100000Y-61600000D03*
%TD*%
D18*
%TO.C,C5*%
X150250000Y-91425000D03*
X150250000Y-92975000D03*
%TD*%
D25*
%TO.C,R3*%
X145625000Y-72325000D03*
X147275000Y-72325000D03*
%TD*%
D24*
%TO.C,TP7*%
X112050000Y-72100000D03*
%TD*%
%TO.C,TP4*%
X170800000Y-92550000D03*
%TD*%
D25*
%TO.C,R1*%
X141712893Y-72343386D03*
X143362893Y-72343386D03*
%TD*%
D26*
%TO.C,D1*%
X142045000Y-69190000D03*
X143015000Y-69190000D03*
%TD*%
D25*
%TO.C,R10*%
X138075000Y-69260000D03*
X139725000Y-69260000D03*
%TD*%
D24*
%TO.C,TP6*%
X173000000Y-72150000D03*
%TD*%
%TO.C,TP9*%
X135000000Y-83000000D03*
%TD*%
D27*
%TO.C,J1*%
X118750000Y-80000000D03*
%TD*%
D28*
%TO.C,R4*%
X140150000Y-80675000D03*
X140150000Y-82325000D03*
%TD*%
%TO.C,R7*%
X138550000Y-80675000D03*
X138550000Y-82325000D03*
%TD*%
D24*
%TO.C,TP3*%
X155900000Y-61700000D03*
%TD*%
%TO.C,TP5*%
X112000000Y-93250000D03*
%TD*%
%TO.C,TP8*%
X173000000Y-93200000D03*
%TD*%
D29*
%TO.C,J5*%
X129200000Y-65650000D03*
X129902944Y-63952944D03*
X129902944Y-67347056D03*
X131600000Y-63250000D03*
D30*
X131600000Y-65650000D03*
D29*
X131600000Y-68050000D03*
X133297056Y-63952944D03*
X133297056Y-67347056D03*
X134000000Y-65650000D03*
%TD*%
D31*
%TO.C,SW2*%
X118800000Y-93725000D03*
X118800000Y-91900000D03*
D32*
X120600000Y-93450000D03*
X117000000Y-93450000D03*
X120600000Y-92150000D03*
X117000000Y-92150000D03*
%TD*%
D18*
%TO.C,C8*%
X156806727Y-71885548D03*
X156806727Y-73435548D03*
%TD*%
D28*
%TO.C,R8*%
X136750000Y-80675000D03*
X136750000Y-82325000D03*
%TD*%
D33*
%TO.C,C1*%
X150325000Y-75775000D03*
X148775000Y-75775000D03*
%TD*%
D27*
%TO.C,J2*%
X166250000Y-80000000D03*
%TD*%
D29*
%TO.C,J3*%
X151000000Y-65700000D03*
X151702944Y-64002944D03*
X151702944Y-67397056D03*
X153400000Y-63300000D03*
D30*
X153400000Y-65700000D03*
D29*
X153400000Y-68100000D03*
X155097056Y-64002944D03*
X155097056Y-67397056D03*
X155800000Y-65700000D03*
%TD*%
D34*
%TO.C,C2*%
X151875000Y-75775000D03*
X153425000Y-75775000D03*
%TD*%
D15*
%TO.C,R6*%
X150200000Y-89875000D03*
X150200000Y-88225000D03*
%TD*%
D35*
%TO.C,U4*%
X149350000Y-72200000D03*
X149350000Y-72700001D03*
X149350000Y-73200000D03*
X149350000Y-73699999D03*
X149350000Y-74200000D03*
X153750000Y-74200000D03*
X153750000Y-73699999D03*
X153750000Y-73200000D03*
X153750000Y-72700001D03*
X153750000Y-72200000D03*
%TD*%
D31*
%TO.C,SW1*%
X166200000Y-93725000D03*
X166200000Y-91900000D03*
D32*
X168000000Y-93450000D03*
X164400000Y-93450000D03*
X168000000Y-92150000D03*
X164400000Y-92150000D03*
%TD*%
D24*
%TO.C,TP4*%
X114100000Y-92400000D03*
%TD*%
%TO.C,TP4*%
X135000000Y-92000000D03*
%TD*%
D15*
%TO.C,R5*%
X150250000Y-86775000D03*
X150250000Y-85125000D03*
%TD*%
D25*
%TO.C,R2*%
X145650000Y-74075000D03*
X147300000Y-74075000D03*
%TD*%
D36*
%TO.C,U5*%
X145212500Y-78599999D03*
X145212500Y-77650000D03*
X145212500Y-76700001D03*
X142937500Y-76700001D03*
X142937500Y-77650000D03*
X142937500Y-78599999D03*
%TD*%
M02*
