%TF.GenerationSoftware,KiCad,Pcbnew,9.0.1*%
%TF.CreationDate,2025-09-10T22:35:17+10:00*%
%TF.ProjectId,smart_shunt_v0.0.1,736d6172-745f-4736-9875-6e745f76302e,v0.0.4*%
%TF.SameCoordinates,Original*%
%TF.FileFunction,Legend,Bot*%
%TF.FilePolarity,Positive*%
%FSLAX46Y46*%
G04 Gerber Fmt 4.6, Leading zero omitted, Abs format (unit mm)*
G04 Created by KiCad (PCBNEW 9.0.1) date 2025-09-10 22:35:17*
%MOMM*%
%LPD*%
G01*
G04 APERTURE LIST*
%ADD10C,0.150000*%
%ADD11C,0.000000*%
%ADD12C,2.000000*%
%ADD13O,18.000000X18.500000*%
%ADD14C,0.800000*%
%ADD15C,6.400000*%
%ADD16C,0.750000*%
%ADD17C,0.650000*%
%ADD18O,17.000000X17.500000*%
G04 APERTURE END LIST*
D10*
X151738698Y-89596223D02*
X151310127Y-89596223D01*
X151824412Y-89853366D02*
X151524412Y-88953366D01*
X151524412Y-88953366D02*
X151224412Y-89853366D01*
X150924412Y-89381937D02*
X150624412Y-89381937D01*
X150495840Y-89853366D02*
X150924412Y-89853366D01*
X150924412Y-89853366D02*
X150924412Y-88953366D01*
X150924412Y-88953366D02*
X150495840Y-88953366D01*
X150110126Y-89510509D02*
X149424412Y-89510509D01*
X149038697Y-89810509D02*
X148910126Y-89853366D01*
X148910126Y-89853366D02*
X148695840Y-89853366D01*
X148695840Y-89853366D02*
X148610126Y-89810509D01*
X148610126Y-89810509D02*
X148567268Y-89767651D01*
X148567268Y-89767651D02*
X148524411Y-89681937D01*
X148524411Y-89681937D02*
X148524411Y-89596223D01*
X148524411Y-89596223D02*
X148567268Y-89510509D01*
X148567268Y-89510509D02*
X148610126Y-89467651D01*
X148610126Y-89467651D02*
X148695840Y-89424794D01*
X148695840Y-89424794D02*
X148867268Y-89381937D01*
X148867268Y-89381937D02*
X148952983Y-89339080D01*
X148952983Y-89339080D02*
X148995840Y-89296223D01*
X148995840Y-89296223D02*
X149038697Y-89210509D01*
X149038697Y-89210509D02*
X149038697Y-89124794D01*
X149038697Y-89124794D02*
X148995840Y-89039080D01*
X148995840Y-89039080D02*
X148952983Y-88996223D01*
X148952983Y-88996223D02*
X148867268Y-88953366D01*
X148867268Y-88953366D02*
X148652983Y-88953366D01*
X148652983Y-88953366D02*
X148524411Y-88996223D01*
X148138697Y-89853366D02*
X148138697Y-88953366D01*
X148138697Y-88953366D02*
X147838697Y-89596223D01*
X147838697Y-89596223D02*
X147538697Y-88953366D01*
X147538697Y-88953366D02*
X147538697Y-89853366D01*
X147152983Y-89596223D02*
X146724412Y-89596223D01*
X147238697Y-89853366D02*
X146938697Y-88953366D01*
X146938697Y-88953366D02*
X146638697Y-89853366D01*
X145824411Y-89853366D02*
X146124411Y-89424794D01*
X146338697Y-89853366D02*
X146338697Y-88953366D01*
X146338697Y-88953366D02*
X145995840Y-88953366D01*
X145995840Y-88953366D02*
X145910125Y-88996223D01*
X145910125Y-88996223D02*
X145867268Y-89039080D01*
X145867268Y-89039080D02*
X145824411Y-89124794D01*
X145824411Y-89124794D02*
X145824411Y-89253366D01*
X145824411Y-89253366D02*
X145867268Y-89339080D01*
X145867268Y-89339080D02*
X145910125Y-89381937D01*
X145910125Y-89381937D02*
X145995840Y-89424794D01*
X145995840Y-89424794D02*
X146338697Y-89424794D01*
X145567268Y-88953366D02*
X145052983Y-88953366D01*
X145310125Y-89853366D02*
X145310125Y-88953366D01*
X144752983Y-89510509D02*
X144067269Y-89510509D01*
X143681554Y-89810509D02*
X143552983Y-89853366D01*
X143552983Y-89853366D02*
X143338697Y-89853366D01*
X143338697Y-89853366D02*
X143252983Y-89810509D01*
X143252983Y-89810509D02*
X143210125Y-89767651D01*
X143210125Y-89767651D02*
X143167268Y-89681937D01*
X143167268Y-89681937D02*
X143167268Y-89596223D01*
X143167268Y-89596223D02*
X143210125Y-89510509D01*
X143210125Y-89510509D02*
X143252983Y-89467651D01*
X143252983Y-89467651D02*
X143338697Y-89424794D01*
X143338697Y-89424794D02*
X143510125Y-89381937D01*
X143510125Y-89381937D02*
X143595840Y-89339080D01*
X143595840Y-89339080D02*
X143638697Y-89296223D01*
X143638697Y-89296223D02*
X143681554Y-89210509D01*
X143681554Y-89210509D02*
X143681554Y-89124794D01*
X143681554Y-89124794D02*
X143638697Y-89039080D01*
X143638697Y-89039080D02*
X143595840Y-88996223D01*
X143595840Y-88996223D02*
X143510125Y-88953366D01*
X143510125Y-88953366D02*
X143295840Y-88953366D01*
X143295840Y-88953366D02*
X143167268Y-88996223D01*
X142781554Y-89853366D02*
X142781554Y-88953366D01*
X142781554Y-89381937D02*
X142267268Y-89381937D01*
X142267268Y-89853366D02*
X142267268Y-88953366D01*
X141838697Y-88953366D02*
X141838697Y-89681937D01*
X141838697Y-89681937D02*
X141795840Y-89767651D01*
X141795840Y-89767651D02*
X141752983Y-89810509D01*
X141752983Y-89810509D02*
X141667268Y-89853366D01*
X141667268Y-89853366D02*
X141495840Y-89853366D01*
X141495840Y-89853366D02*
X141410125Y-89810509D01*
X141410125Y-89810509D02*
X141367268Y-89767651D01*
X141367268Y-89767651D02*
X141324411Y-89681937D01*
X141324411Y-89681937D02*
X141324411Y-88953366D01*
X140895840Y-89853366D02*
X140895840Y-88953366D01*
X140895840Y-88953366D02*
X140381554Y-89853366D01*
X140381554Y-89853366D02*
X140381554Y-88953366D01*
X140081554Y-88953366D02*
X139567269Y-88953366D01*
X139824411Y-89853366D02*
X139824411Y-88953366D01*
X138667269Y-89253366D02*
X138452983Y-89853366D01*
X138452983Y-89853366D02*
X138238698Y-89253366D01*
X137724412Y-88953366D02*
X137638698Y-88953366D01*
X137638698Y-88953366D02*
X137552984Y-88996223D01*
X137552984Y-88996223D02*
X137510127Y-89039080D01*
X137510127Y-89039080D02*
X137467269Y-89124794D01*
X137467269Y-89124794D02*
X137424412Y-89296223D01*
X137424412Y-89296223D02*
X137424412Y-89510509D01*
X137424412Y-89510509D02*
X137467269Y-89681937D01*
X137467269Y-89681937D02*
X137510127Y-89767651D01*
X137510127Y-89767651D02*
X137552984Y-89810509D01*
X137552984Y-89810509D02*
X137638698Y-89853366D01*
X137638698Y-89853366D02*
X137724412Y-89853366D01*
X137724412Y-89853366D02*
X137810127Y-89810509D01*
X137810127Y-89810509D02*
X137852984Y-89767651D01*
X137852984Y-89767651D02*
X137895841Y-89681937D01*
X137895841Y-89681937D02*
X137938698Y-89510509D01*
X137938698Y-89510509D02*
X137938698Y-89296223D01*
X137938698Y-89296223D02*
X137895841Y-89124794D01*
X137895841Y-89124794D02*
X137852984Y-89039080D01*
X137852984Y-89039080D02*
X137810127Y-88996223D01*
X137810127Y-88996223D02*
X137724412Y-88953366D01*
X137038698Y-89767651D02*
X136995841Y-89810509D01*
X136995841Y-89810509D02*
X137038698Y-89853366D01*
X137038698Y-89853366D02*
X137081555Y-89810509D01*
X137081555Y-89810509D02*
X137038698Y-89767651D01*
X137038698Y-89767651D02*
X137038698Y-89853366D01*
X136438698Y-88953366D02*
X136352984Y-88953366D01*
X136352984Y-88953366D02*
X136267270Y-88996223D01*
X136267270Y-88996223D02*
X136224413Y-89039080D01*
X136224413Y-89039080D02*
X136181555Y-89124794D01*
X136181555Y-89124794D02*
X136138698Y-89296223D01*
X136138698Y-89296223D02*
X136138698Y-89510509D01*
X136138698Y-89510509D02*
X136181555Y-89681937D01*
X136181555Y-89681937D02*
X136224413Y-89767651D01*
X136224413Y-89767651D02*
X136267270Y-89810509D01*
X136267270Y-89810509D02*
X136352984Y-89853366D01*
X136352984Y-89853366D02*
X136438698Y-89853366D01*
X136438698Y-89853366D02*
X136524413Y-89810509D01*
X136524413Y-89810509D02*
X136567270Y-89767651D01*
X136567270Y-89767651D02*
X136610127Y-89681937D01*
X136610127Y-89681937D02*
X136652984Y-89510509D01*
X136652984Y-89510509D02*
X136652984Y-89296223D01*
X136652984Y-89296223D02*
X136610127Y-89124794D01*
X136610127Y-89124794D02*
X136567270Y-89039080D01*
X136567270Y-89039080D02*
X136524413Y-88996223D01*
X136524413Y-88996223D02*
X136438698Y-88953366D01*
X135752984Y-89767651D02*
X135710127Y-89810509D01*
X135710127Y-89810509D02*
X135752984Y-89853366D01*
X135752984Y-89853366D02*
X135795841Y-89810509D01*
X135795841Y-89810509D02*
X135752984Y-89767651D01*
X135752984Y-89767651D02*
X135752984Y-89853366D01*
X134938699Y-89253366D02*
X134938699Y-89853366D01*
X135152984Y-88910509D02*
X135367270Y-89553366D01*
X135367270Y-89553366D02*
X134810127Y-89553366D01*
D11*
%TO.C,G\u002A\u002A\u002A*%
G36*
X144910448Y-81233886D02*
G01*
X144913227Y-81259080D01*
X144916741Y-81338175D01*
X144916648Y-81437487D01*
X144912829Y-81541396D01*
X144909639Y-81618961D01*
X144906667Y-81732166D01*
X144904071Y-81872321D01*
X144901979Y-82031298D01*
X144900518Y-82200972D01*
X144899815Y-82373217D01*
X144898793Y-82993377D01*
X144063266Y-82987733D01*
X143227740Y-82982089D01*
X143227740Y-81149322D01*
X144061907Y-81143679D01*
X144896075Y-81138037D01*
X144910448Y-81233886D01*
G37*
G36*
X144909574Y-86259509D02*
G01*
X144910896Y-87154330D01*
X144910768Y-87363914D01*
X144909669Y-87563330D01*
X144907636Y-87734470D01*
X144904732Y-87874366D01*
X144901021Y-87980048D01*
X144896564Y-88048549D01*
X144891425Y-88076900D01*
X144890524Y-88077928D01*
X144874529Y-88085060D01*
X144840111Y-88090706D01*
X144783743Y-88094958D01*
X144701897Y-88097906D01*
X144591046Y-88099640D01*
X144447661Y-88100251D01*
X144268217Y-88099828D01*
X144049185Y-88098461D01*
X143227740Y-88092276D01*
X143222117Y-87170251D01*
X143216496Y-86248228D01*
X144909574Y-86259509D01*
G37*
G36*
X145810869Y-81145609D02*
G01*
X145956028Y-81154636D01*
X146325055Y-81198715D01*
X146665157Y-81272622D01*
X146979046Y-81377564D01*
X147269439Y-81514752D01*
X147539050Y-81685392D01*
X147790595Y-81890694D01*
X148026789Y-82131865D01*
X148159139Y-82291332D01*
X148302577Y-82498625D01*
X148416417Y-82713406D01*
X148506429Y-82946959D01*
X148578381Y-83210565D01*
X148639794Y-83478015D01*
X148639794Y-84556113D01*
X148639765Y-84727108D01*
X148639542Y-84945141D01*
X148638958Y-85127442D01*
X148637849Y-85278407D01*
X148636055Y-85402437D01*
X148633412Y-85503928D01*
X148629757Y-85587280D01*
X148624927Y-85656892D01*
X148618761Y-85717161D01*
X148611096Y-85772486D01*
X148601766Y-85827266D01*
X148590612Y-85885899D01*
X148572752Y-85975356D01*
X148541651Y-86117677D01*
X148511017Y-86234862D01*
X148477320Y-86338411D01*
X148437033Y-86439822D01*
X148386626Y-86550595D01*
X148344403Y-86635592D01*
X148257781Y-86786223D01*
X148157619Y-86928654D01*
X148036267Y-87073278D01*
X147886073Y-87230486D01*
X147651699Y-87446599D01*
X147399605Y-87637962D01*
X147139365Y-87791966D01*
X146865742Y-87910864D01*
X146573499Y-87996908D01*
X146257399Y-88052349D01*
X145912205Y-88079442D01*
X145827303Y-88082435D01*
X145717282Y-88085600D01*
X145627746Y-88087324D01*
X145566228Y-88087475D01*
X145540261Y-88085922D01*
X145538304Y-88078365D01*
X145535004Y-88033719D01*
X145531996Y-87952947D01*
X145529359Y-87840523D01*
X145527172Y-87700924D01*
X145525511Y-87538626D01*
X145524458Y-87358106D01*
X145524090Y-87163840D01*
X145524090Y-86248727D01*
X145898481Y-86248728D01*
X145988272Y-86248147D01*
X146117233Y-86245372D01*
X146233034Y-86240702D01*
X146325690Y-86234573D01*
X146385213Y-86227423D01*
X146387150Y-86227052D01*
X146523160Y-86179810D01*
X146636958Y-86096313D01*
X146724930Y-85979202D01*
X146747809Y-85935674D01*
X146767526Y-85885992D01*
X146778744Y-85831230D01*
X146783823Y-85758715D01*
X146785122Y-85655774D01*
X146785465Y-85440154D01*
X145006603Y-85429373D01*
X143227740Y-85418592D01*
X143227740Y-83823006D01*
X145014434Y-83817491D01*
X146801128Y-83811975D01*
X146792128Y-83591090D01*
X146788713Y-83529104D01*
X146771522Y-83393216D01*
X146739463Y-83285930D01*
X146688945Y-83197588D01*
X146616378Y-83118537D01*
X146574035Y-83084099D01*
X146517498Y-83051502D01*
X146448885Y-83027372D01*
X146362006Y-83010577D01*
X146250669Y-82999985D01*
X146108681Y-82994460D01*
X145929854Y-82992871D01*
X145524090Y-82992870D01*
X145524090Y-81131855D01*
X145810869Y-81145609D01*
G37*
G36*
X145996613Y-77604640D02*
G01*
X146213994Y-77605254D01*
X146402762Y-77606448D01*
X146565308Y-77608288D01*
X146704027Y-77610842D01*
X146821311Y-77614176D01*
X146919553Y-77618359D01*
X147001144Y-77623456D01*
X147068479Y-77629535D01*
X147123948Y-77636664D01*
X147169946Y-77644908D01*
X147208865Y-77654336D01*
X147243097Y-77665015D01*
X147275035Y-77677011D01*
X147307073Y-77690392D01*
X147356755Y-77713473D01*
X147515873Y-77814924D01*
X147649057Y-77943726D01*
X147753555Y-78094060D01*
X147826612Y-78260108D01*
X147865473Y-78436053D01*
X147867388Y-78616075D01*
X147829599Y-78794357D01*
X147780074Y-78921705D01*
X147684591Y-79089296D01*
X147562598Y-79225280D01*
X147410273Y-79333593D01*
X147223792Y-79418173D01*
X147087333Y-79467488D01*
X142343699Y-79489050D01*
X142223957Y-79537528D01*
X142111916Y-79591350D01*
X141941789Y-79709020D01*
X141793765Y-79857647D01*
X141673794Y-80030827D01*
X141587827Y-80222157D01*
X141578192Y-80251087D01*
X141559054Y-80314321D01*
X141545568Y-80373758D01*
X141536674Y-80438780D01*
X141531312Y-80518773D01*
X141528424Y-80623121D01*
X141526948Y-80761206D01*
X141524344Y-81127760D01*
X142063394Y-81138541D01*
X142602443Y-81149322D01*
X142602443Y-82982089D01*
X142234192Y-82992870D01*
X142224369Y-82993158D01*
X142092540Y-82997272D01*
X141995532Y-83001541D01*
X141925557Y-83007217D01*
X141874827Y-83015551D01*
X141835556Y-83027793D01*
X141799955Y-83045195D01*
X141760236Y-83069008D01*
X141683277Y-83125237D01*
X141590478Y-83232594D01*
X141534398Y-83362125D01*
X141531432Y-83379985D01*
X141526686Y-83445514D01*
X141522872Y-83552431D01*
X141520004Y-83699622D01*
X141518097Y-83885967D01*
X141517163Y-84110349D01*
X141517217Y-84371652D01*
X141518273Y-84668757D01*
X141518384Y-84691346D01*
X141519662Y-84957076D01*
X141520934Y-85183457D01*
X141522576Y-85373987D01*
X141524965Y-85532165D01*
X141528477Y-85661488D01*
X141533488Y-85765455D01*
X141540375Y-85847565D01*
X141549514Y-85911317D01*
X141561282Y-85960207D01*
X141576055Y-85997736D01*
X141594211Y-86027401D01*
X141616123Y-86052700D01*
X141642171Y-86077134D01*
X141672728Y-86104199D01*
X141714381Y-86139644D01*
X141766594Y-86175608D01*
X141823527Y-86201686D01*
X141892861Y-86219737D01*
X141982274Y-86231618D01*
X142099448Y-86239185D01*
X142252061Y-86244297D01*
X142613224Y-86253704D01*
X142613224Y-88078631D01*
X142553928Y-88088506D01*
X142542932Y-88089509D01*
X142490305Y-88091393D01*
X142401711Y-88092946D01*
X142282001Y-88094135D01*
X142136027Y-88094930D01*
X141968638Y-88095300D01*
X141784690Y-88095215D01*
X141589030Y-88094643D01*
X140683428Y-88090903D01*
X140515923Y-88032312D01*
X140387622Y-87982758D01*
X140278826Y-87927251D01*
X140177977Y-87857510D01*
X140068181Y-87763387D01*
X140039684Y-87736090D01*
X139919231Y-87591716D01*
X139817438Y-87421926D01*
X139742923Y-87240578D01*
X139740710Y-87233584D01*
X139735222Y-87215317D01*
X139730232Y-87195768D01*
X139725720Y-87172945D01*
X139721663Y-87144856D01*
X139718039Y-87109508D01*
X139714827Y-87064908D01*
X139712005Y-87009064D01*
X139709551Y-86939984D01*
X139707443Y-86855675D01*
X139705660Y-86754144D01*
X139704179Y-86633400D01*
X139702979Y-86491449D01*
X139702038Y-86326299D01*
X139701335Y-86135957D01*
X139700847Y-85918432D01*
X139700552Y-85671730D01*
X139700430Y-85393859D01*
X139700457Y-85082826D01*
X139700613Y-84736641D01*
X139700875Y-84353308D01*
X139701221Y-83930837D01*
X139701631Y-83467234D01*
X139701765Y-83330527D01*
X139702347Y-82897234D01*
X139703143Y-82482993D01*
X139704143Y-82089660D01*
X139705336Y-81719084D01*
X139706708Y-81373118D01*
X139708250Y-81053612D01*
X139709948Y-80762419D01*
X139711793Y-80501389D01*
X139713772Y-80272374D01*
X139715873Y-80077226D01*
X139718086Y-79917795D01*
X139720398Y-79795934D01*
X139722799Y-79713494D01*
X139725276Y-79672327D01*
X139732246Y-79617679D01*
X139747152Y-79508997D01*
X139761274Y-79424712D01*
X139777339Y-79351718D01*
X139798073Y-79276910D01*
X139826202Y-79187183D01*
X139888253Y-79023694D01*
X140015001Y-78780402D01*
X140178352Y-78545260D01*
X140374391Y-78323665D01*
X140599203Y-78121016D01*
X140640669Y-78088285D01*
X140847667Y-77944605D01*
X141061878Y-77830725D01*
X141294488Y-77741393D01*
X141556687Y-77671353D01*
X141804650Y-77616461D01*
X144369682Y-77607998D01*
X144396775Y-77607908D01*
X144793110Y-77606632D01*
X145148868Y-77605601D01*
X145466443Y-77604880D01*
X145748228Y-77604537D01*
X145996613Y-77604640D01*
G37*
%TD*%
%LPC*%
D12*
%TO.C,J1*%
X173858810Y-81671308D03*
X172108810Y-86171308D03*
X172108810Y-76921308D03*
X167358810Y-88471308D03*
D13*
X167358810Y-81671308D03*
D12*
X167358810Y-74921308D03*
X162858810Y-76921308D03*
X162358811Y-86171308D03*
X160858810Y-81671308D03*
%TD*%
D14*
%TO.C,J5*%
X156908811Y-96021309D03*
X156205867Y-97718365D03*
X156205867Y-94324253D03*
X154508811Y-98421309D03*
D15*
X154508811Y-96021309D03*
D14*
X154508811Y-93621309D03*
X152811755Y-97718365D03*
X152811755Y-94324253D03*
X152108811Y-96021309D03*
%TD*%
D16*
%TO.C,SW2*%
X167308810Y-67946307D03*
X167308810Y-69771307D03*
%TD*%
D12*
%TO.C,J2*%
X126358811Y-81671308D03*
X124608811Y-86171308D03*
X124608811Y-76921308D03*
X119858811Y-88471308D03*
D13*
X119858811Y-81671308D03*
D12*
X119858811Y-74921308D03*
X115358811Y-76921308D03*
X114858812Y-86171308D03*
X113358811Y-81671308D03*
%TD*%
D14*
%TO.C,J3*%
X135108810Y-95971308D03*
X134405866Y-97668364D03*
X134405866Y-94274252D03*
X132708810Y-98371308D03*
D15*
X132708810Y-95971308D03*
D14*
X132708810Y-93571308D03*
X131011754Y-97668364D03*
X131011754Y-94274252D03*
X130308810Y-95971308D03*
%TD*%
D17*
%TO.C,J4*%
X140768811Y-95386308D03*
X146548811Y-95386308D03*
%TD*%
D16*
%TO.C,SW1*%
X119908811Y-67946309D03*
X119908811Y-69771309D03*
%TD*%
D12*
%TO.C,J6*%
X194500000Y-79400000D03*
X196250000Y-74900000D03*
X196250000Y-84150000D03*
X201000000Y-72600000D03*
D18*
X201000000Y-79400000D03*
D12*
X201000000Y-86150000D03*
X205500000Y-84150000D03*
X206000000Y-74900000D03*
X207500000Y-79400000D03*
%TD*%
%LPD*%
M02*
