%TF.GenerationSoftware,KiCad,Pcbnew,9.0.1*%
%TF.CreationDate,2025-09-10T18:07:53+10:00*%
%TF.ProjectId,smart_shunt_v0.0.1,736d6172-745f-4736-9875-6e745f76302e,v0.0.4*%
%TF.SameCoordinates,Original*%
%TF.FileFunction,Copper,L2,Bot*%
%TF.FilePolarity,Positive*%
%FSLAX46Y46*%
G04 Gerber Fmt 4.6, Leading zero omitted, Abs format (unit mm)*
G04 Created by KiCad (PCBNEW 9.0.1) date 2025-09-10 18:07:53*
%MOMM*%
%LPD*%
G01*
G04 APERTURE LIST*
%TA.AperFunction,ComponentPad*%
%ADD10C,2.000000*%
%TD*%
%TA.AperFunction,ComponentPad*%
%ADD11O,18.000000X18.500000*%
%TD*%
%TA.AperFunction,ComponentPad*%
%ADD12C,0.800000*%
%TD*%
%TA.AperFunction,ComponentPad*%
%ADD13C,6.400000*%
%TD*%
%TA.AperFunction,ComponentPad*%
%ADD14O,17.000000X17.500000*%
%TD*%
%TA.AperFunction,ViaPad*%
%ADD15C,0.500000*%
%TD*%
%TA.AperFunction,ViaPad*%
%ADD16C,0.600000*%
%TD*%
%TA.AperFunction,ViaPad*%
%ADD17C,1.000000*%
%TD*%
%TA.AperFunction,Conductor*%
%ADD18C,0.200000*%
%TD*%
%TA.AperFunction,Conductor*%
%ADD19C,0.250000*%
%TD*%
%TA.AperFunction,Conductor*%
%ADD20C,0.300000*%
%TD*%
G04 APERTURE END LIST*
D10*
%TO.P,J1,1,Pin_1*%
%TO.N,SHUNT+*%
X173858810Y-81671308D03*
X172108810Y-86171308D03*
X172108810Y-76921308D03*
X167358810Y-88471308D03*
D11*
X167358810Y-81671308D03*
D10*
X167358810Y-74921308D03*
X162858810Y-76921308D03*
X162358811Y-86171308D03*
X160858810Y-81671308D03*
%TD*%
D12*
%TO.P,J5,1,Pin_1*%
%TO.N,GND*%
X156908811Y-96021309D03*
X156205867Y-97718365D03*
X156205867Y-94324253D03*
X154508811Y-98421309D03*
D13*
X154508811Y-96021309D03*
D12*
X154508811Y-93621309D03*
X152811755Y-97718365D03*
X152811755Y-94324253D03*
X152108811Y-96021309D03*
%TD*%
D10*
%TO.P,J2,1,Pin_1*%
%TO.N,SHUNT-*%
X126358811Y-81671308D03*
X124608811Y-86171308D03*
X124608811Y-76921308D03*
X119858811Y-88471308D03*
D11*
X119858811Y-81671308D03*
D10*
X119858811Y-74921308D03*
X115358811Y-76921308D03*
X114858812Y-86171308D03*
X113358811Y-81671308D03*
%TD*%
D12*
%TO.P,J3,1,Pin_1*%
%TO.N,Net-(J3-Pin_1)*%
X135108810Y-95971308D03*
X134405866Y-97668364D03*
X134405866Y-94274252D03*
X132708810Y-98371308D03*
D13*
X132708810Y-95971308D03*
D12*
X132708810Y-93571308D03*
X131011754Y-97668364D03*
X131011754Y-94274252D03*
X130308810Y-95971308D03*
%TD*%
D10*
%TO.P,J6,1,Pin_1*%
%TO.N,Net-(J6-Pin_1)*%
X194500000Y-79400000D03*
X196250000Y-74900000D03*
X196250000Y-84150000D03*
X201000000Y-72600000D03*
D14*
X201000000Y-79400000D03*
D10*
X201000000Y-86150000D03*
X205500000Y-84150000D03*
X206000000Y-74900000D03*
X207500000Y-79400000D03*
%TD*%
D15*
%TO.N,USBD-*%
X144833811Y-92071309D03*
X146808807Y-83471308D03*
X146798926Y-88753375D03*
X148208810Y-76071308D03*
%TO.N,USBD+*%
X147508811Y-83471309D03*
X145418597Y-92527993D03*
X148458811Y-75271309D03*
X147508811Y-88821308D03*
%TO.N,LED*%
X143508810Y-86521309D03*
X143458811Y-78571308D03*
%TO.N,Net-(U1-EN{slash}CHIP_PU)*%
X136958811Y-74621308D03*
X134908811Y-71671307D03*
%TO.N,Net-(U1-GPIO9)*%
X148508809Y-69271309D03*
X151208811Y-67771297D03*
D16*
%TO.N,ALERT*%
X135719458Y-88471308D03*
X140363077Y-76841408D03*
D15*
%TO.N,SCL*%
X139758811Y-86721308D03*
X141858810Y-78571308D03*
%TO.N,SDA*%
X139274664Y-88468636D03*
X141108811Y-76921306D03*
%TO.N,GND*%
X146558811Y-69871308D03*
X131900000Y-90200000D03*
X146508811Y-73821309D03*
X173599000Y-99501579D03*
X142458810Y-71921309D03*
X150600000Y-77500000D03*
X144408811Y-71871308D03*
D16*
X137353023Y-81765519D03*
X143008811Y-99901309D03*
D15*
X134508811Y-67771308D03*
D16*
X146508811Y-96821309D03*
D15*
X133908811Y-87771309D03*
D16*
X143847013Y-92071993D03*
X136058811Y-81671307D03*
X138144631Y-81785487D03*
D15*
X140358811Y-73871308D03*
D16*
X144758811Y-96821309D03*
X142883811Y-80396309D03*
D15*
X142458810Y-73821309D03*
X146608811Y-71971309D03*
X136631651Y-85375036D03*
X137858811Y-89471309D03*
X122708811Y-69471309D03*
X140658811Y-70171308D03*
X151000000Y-68700000D03*
X144464473Y-73821308D03*
X133058811Y-86571309D03*
D16*
X144758811Y-99901309D03*
X143008811Y-98321309D03*
X146488811Y-99901308D03*
D15*
X144408811Y-69771309D03*
X140358811Y-71921309D03*
D16*
X140758811Y-98321309D03*
D15*
X137858811Y-88871309D03*
D16*
X146508811Y-98321309D03*
X144758811Y-98321309D03*
X140758811Y-96821309D03*
X140758811Y-99901309D03*
X139008810Y-81646309D03*
D15*
X142458810Y-69821308D03*
D16*
X143008811Y-96821309D03*
D15*
%TO.N,Net-(D1-A)*%
X141858811Y-89071309D03*
X142408811Y-92571309D03*
D16*
%TO.N,Net-(U5-VFB)*%
X138922782Y-85510280D03*
X140483811Y-80121307D03*
D15*
%TO.N,SHUNT+*%
X155600000Y-75600000D03*
X173600000Y-73600000D03*
X165600000Y-93600000D03*
X173600000Y-68600000D03*
X157600000Y-78600000D03*
X163600000Y-90600000D03*
X174600000Y-71600000D03*
X155600000Y-76600000D03*
X175600000Y-88600000D03*
X164600000Y-91600000D03*
X172600000Y-70600000D03*
X166600000Y-98100000D03*
D17*
X179299999Y-81800002D03*
D15*
X167600000Y-98100000D03*
X163600000Y-71600000D03*
X163600000Y-91600000D03*
X159600000Y-69600000D03*
X165600000Y-95600000D03*
X161600000Y-90600000D03*
D17*
X183300000Y-76300000D03*
D15*
X168600000Y-93600000D03*
X176600000Y-90600000D03*
X173600000Y-93600000D03*
X161600000Y-71600000D03*
X158600000Y-86600000D03*
D17*
X183299999Y-85800001D03*
D15*
X175600000Y-91600000D03*
X155600000Y-73600000D03*
X162600000Y-92600000D03*
X164600000Y-71600000D03*
X168600000Y-91600000D03*
X176600000Y-89600000D03*
D17*
X181299999Y-83800002D03*
D15*
X156600000Y-85600000D03*
X175600000Y-74600000D03*
X155600000Y-69600000D03*
D17*
X183300000Y-72300000D03*
D15*
X158600000Y-75600000D03*
X157600000Y-74600000D03*
X160600000Y-70600000D03*
X175600000Y-90600000D03*
X170600000Y-93600000D03*
X161600000Y-89600000D03*
X167600000Y-92600000D03*
D17*
X179299999Y-76300001D03*
D15*
X169600000Y-70600000D03*
X170600000Y-92600000D03*
X154300000Y-78600000D03*
X158600000Y-70600000D03*
D17*
X181299999Y-70300001D03*
D15*
X159600000Y-73600000D03*
X155600000Y-78600000D03*
X166600000Y-92600000D03*
X154300000Y-77600000D03*
X164600000Y-70600000D03*
X173600000Y-90600000D03*
D17*
X179299999Y-87800001D03*
D15*
X156600000Y-69600000D03*
X167700000Y-71600000D03*
X174600000Y-90600000D03*
X157600000Y-81600000D03*
X172600000Y-73600000D03*
X159600000Y-74600000D03*
X155600000Y-72600000D03*
X156600000Y-82600000D03*
X156600000Y-84600000D03*
X168600000Y-92600000D03*
D17*
X179299999Y-83800001D03*
X181299999Y-87800001D03*
D15*
X165600000Y-70600000D03*
X166600000Y-71600000D03*
X180000000Y-97000000D03*
D17*
X183299999Y-74300001D03*
D15*
X157600000Y-72600000D03*
X168700000Y-71600000D03*
X155600000Y-70600000D03*
X155600000Y-77600000D03*
X160600000Y-90600000D03*
X174600000Y-69600000D03*
X178600000Y-93600000D03*
X174600000Y-70600000D03*
D17*
X183300000Y-70300001D03*
D15*
X156600000Y-76600000D03*
D17*
X181300000Y-74300000D03*
D15*
X157600000Y-70600000D03*
D17*
X181299999Y-76300001D03*
D15*
X155600000Y-79600000D03*
X163600000Y-72600000D03*
X158600000Y-74600000D03*
X160600000Y-69600000D03*
X154300000Y-70600000D03*
X161600000Y-91600000D03*
X165600000Y-91600000D03*
X154300000Y-81600000D03*
X158600000Y-73600000D03*
X166600000Y-93600000D03*
X160600000Y-73600000D03*
X167600000Y-93600000D03*
X160600000Y-91600000D03*
X165600000Y-94600000D03*
X155600000Y-82600000D03*
X162600000Y-71600000D03*
D17*
X179299999Y-72299999D03*
D15*
X175600000Y-89600000D03*
X155600000Y-83600000D03*
X163600000Y-70600000D03*
X178600000Y-91600000D03*
X156600000Y-73600000D03*
D17*
X181299999Y-72300002D03*
D15*
X177600000Y-93600000D03*
X165600000Y-98100000D03*
X175600000Y-72600000D03*
X175600000Y-70600000D03*
X159600000Y-72600000D03*
X154300000Y-80600000D03*
X154300000Y-76600000D03*
X175600000Y-93600000D03*
X171600000Y-98100000D03*
X155600000Y-81600000D03*
X174600000Y-91600000D03*
X157600000Y-73600000D03*
X173600000Y-72600000D03*
X154300000Y-71600000D03*
X177600000Y-90600000D03*
X157600000Y-82600000D03*
D17*
X181299999Y-81800001D03*
D15*
X162600000Y-90600000D03*
X154300000Y-73600000D03*
X156600000Y-70600000D03*
X156600000Y-78600000D03*
X156600000Y-74600000D03*
X175600000Y-92600000D03*
X154300000Y-72600000D03*
X157600000Y-69600000D03*
X160600000Y-92600000D03*
X176600000Y-93600000D03*
X178600000Y-92600000D03*
X159600000Y-70600000D03*
X160600000Y-89600000D03*
X155600000Y-74600000D03*
X173600000Y-69600000D03*
X177600000Y-91600000D03*
X156600000Y-72600000D03*
X172600000Y-69600000D03*
X159600000Y-71600000D03*
X174600000Y-93600000D03*
X171600000Y-71600000D03*
X161600000Y-73600000D03*
X174600000Y-68600000D03*
X176600000Y-87600000D03*
X161600000Y-70600000D03*
X176600000Y-88600000D03*
X172600000Y-93600000D03*
D17*
X179299999Y-74300001D03*
D15*
X176600000Y-91600000D03*
X157600000Y-75600000D03*
X157600000Y-85600000D03*
X165600000Y-96600000D03*
D17*
X179299999Y-85800001D03*
D15*
X157600000Y-77600000D03*
X174600000Y-88600000D03*
X172600000Y-71600000D03*
X157600000Y-84600000D03*
X158600000Y-69600000D03*
X169600000Y-98100000D03*
X169600000Y-93600000D03*
D17*
X183299999Y-83800001D03*
D15*
X171600000Y-72600000D03*
X156600000Y-83600000D03*
X154300000Y-75600000D03*
X155600000Y-84600000D03*
X157600000Y-79600000D03*
X159600000Y-75600000D03*
X158600000Y-76600000D03*
X175600000Y-87600000D03*
X163600000Y-69600000D03*
X167600000Y-91600000D03*
X156600000Y-81600000D03*
X166600000Y-91600000D03*
D17*
X179299999Y-70300002D03*
D15*
X162600000Y-69600000D03*
X169700000Y-71600000D03*
X173600000Y-89600000D03*
X158600000Y-85600000D03*
X168599999Y-98100000D03*
X175600000Y-73600000D03*
X173600000Y-70600000D03*
X171600000Y-90600000D03*
X170700000Y-72600000D03*
X175600000Y-68600000D03*
X154300000Y-82600000D03*
X169600000Y-92600000D03*
X157600000Y-76600000D03*
X174600000Y-89600000D03*
X171600000Y-91600000D03*
X154300000Y-69600000D03*
X172600000Y-92600000D03*
X174600000Y-74600000D03*
X162600000Y-70600000D03*
X156600000Y-79600000D03*
X169600000Y-91600000D03*
X156600000Y-71600000D03*
X176600000Y-92600000D03*
X170700000Y-71600000D03*
X156600000Y-80600000D03*
X172600000Y-68600000D03*
X164600000Y-92600000D03*
X170600000Y-98100000D03*
X173600000Y-91600000D03*
X180000000Y-98100000D03*
X157600000Y-80600000D03*
X161600000Y-69600000D03*
X173600000Y-71600000D03*
X160600000Y-71600000D03*
X165600000Y-71600000D03*
D17*
X181300000Y-85800000D03*
D15*
X173600000Y-92600000D03*
X171600000Y-93600000D03*
X154300000Y-74600000D03*
X162600000Y-72600000D03*
X161600000Y-92600000D03*
X172600000Y-90600000D03*
X174600000Y-92600000D03*
X156600000Y-77600000D03*
X171600000Y-70600000D03*
X158600000Y-71600000D03*
X160600000Y-74600000D03*
X157600000Y-83600000D03*
X162600000Y-91600000D03*
X154300000Y-79600000D03*
D17*
X183300000Y-81800001D03*
D15*
X155600000Y-80600000D03*
X171600000Y-92600000D03*
X175600000Y-69600000D03*
X170600000Y-91600000D03*
X157600000Y-71600000D03*
X165600000Y-92600000D03*
X177600000Y-92600000D03*
X163600000Y-92600000D03*
X158600000Y-72600000D03*
X155600000Y-71600000D03*
X154300000Y-83600000D03*
D17*
X183300000Y-87800000D03*
D15*
X178600000Y-90600000D03*
X160600000Y-72600000D03*
X161600000Y-72600000D03*
X156600000Y-75600000D03*
X175600000Y-71600000D03*
X172600000Y-72600000D03*
X174600000Y-72600000D03*
X172600000Y-91600000D03*
X174600000Y-73600000D03*
%TO.N,Net-(J6-Pin_1)*%
X191500000Y-85600000D03*
X195600000Y-71600000D03*
X193600000Y-71600000D03*
X194600000Y-88600000D03*
X206600000Y-86600000D03*
X208600000Y-71600000D03*
D16*
X181109620Y-91509620D03*
D15*
X191500000Y-78000000D03*
X197600000Y-70600000D03*
X207600000Y-85600000D03*
X193600000Y-69600000D03*
X196600000Y-89600000D03*
X204600000Y-88600000D03*
X193600000Y-68600000D03*
X199600000Y-88600000D03*
X196600000Y-87600000D03*
X206600000Y-87600000D03*
X204600000Y-70600000D03*
X208600000Y-68600000D03*
X193600000Y-70600000D03*
X208600000Y-89600000D03*
X192600000Y-74600000D03*
X207600000Y-89600000D03*
X206600000Y-89600000D03*
X191500000Y-79000000D03*
X203600000Y-89600000D03*
X197600000Y-89600000D03*
X193600000Y-85600000D03*
X191500000Y-82600000D03*
X200600000Y-88600000D03*
X192600000Y-72600000D03*
X191500000Y-80000000D03*
X192600000Y-70600000D03*
X196600000Y-88600000D03*
X206600000Y-70600000D03*
X191500000Y-86600000D03*
X193600000Y-86600000D03*
X194600000Y-89600000D03*
X191600000Y-69600000D03*
X191500000Y-87600000D03*
X194600000Y-71600000D03*
X208600000Y-85600000D03*
X192600000Y-87600000D03*
X202600000Y-88600000D03*
X207600000Y-69600000D03*
X201600000Y-88600000D03*
X208600000Y-73600000D03*
X195600000Y-88600000D03*
X191600000Y-70600000D03*
X191600000Y-68600000D03*
X193600000Y-73600000D03*
X200600000Y-89600000D03*
X192600000Y-75600000D03*
D16*
X188800000Y-90600000D03*
D15*
X192600000Y-69600000D03*
X197600000Y-88600000D03*
X191500000Y-77000000D03*
X191600000Y-72600000D03*
X203600000Y-70600000D03*
X193600000Y-89600000D03*
X191500000Y-76000000D03*
X192600000Y-73600000D03*
X207600000Y-71600000D03*
X207600000Y-87600000D03*
X208600000Y-69600000D03*
X198600000Y-89600000D03*
X192600000Y-84600000D03*
X192600000Y-86600000D03*
X193600000Y-87600000D03*
X205600000Y-87600000D03*
X193600000Y-72600000D03*
X195600000Y-70600000D03*
X192600000Y-68600000D03*
X191600000Y-74600000D03*
X191500000Y-88600000D03*
X192600000Y-83600000D03*
X208600000Y-88600000D03*
X192600000Y-88600000D03*
X191600000Y-71600000D03*
X205600000Y-88600000D03*
X201600000Y-89600000D03*
X206600000Y-88600000D03*
D16*
X180190380Y-90590380D03*
D15*
X208600000Y-87600000D03*
X208600000Y-86600000D03*
X191600000Y-73600000D03*
X192600000Y-85600000D03*
X191500000Y-84600000D03*
X203600000Y-88600000D03*
X207600000Y-86600000D03*
X207600000Y-72600000D03*
X195600000Y-89600000D03*
X208600000Y-84600000D03*
X206600000Y-71600000D03*
X198600000Y-88600000D03*
X195600000Y-87600000D03*
X191500000Y-81000000D03*
X196600000Y-70600000D03*
X194600000Y-86600000D03*
X192600000Y-89600000D03*
X204600000Y-89600000D03*
X207600000Y-70600000D03*
X194600000Y-87600000D03*
X202600000Y-89600000D03*
X208600000Y-72600000D03*
X208600000Y-70600000D03*
X205600000Y-70600000D03*
X207600000Y-68600000D03*
X205600000Y-89600000D03*
X199600000Y-89600000D03*
X192600000Y-71600000D03*
X193600000Y-88600000D03*
X194600000Y-70600000D03*
X207600000Y-88600000D03*
X191500000Y-83600000D03*
%TO.N,LD_DISC*%
X157000000Y-88800000D03*
X158300000Y-91500000D03*
%TO.N,Net-(U1-GPIO3{slash}ADC1_CH3)*%
X138384224Y-75724592D03*
X131650000Y-91100000D03*
X134888537Y-74845274D03*
X130583810Y-86900000D03*
%TD*%
D18*
%TO.N,USBD-*%
X146783811Y-88768490D02*
X146798926Y-88753375D01*
X146808807Y-83471308D02*
X146808807Y-83071311D01*
X146808807Y-83071311D02*
X148008810Y-81871309D01*
X146783811Y-89896309D02*
X146783811Y-88768490D01*
X144833811Y-91846309D02*
X146783811Y-89896309D01*
X148008810Y-81871309D02*
X148008810Y-76271309D01*
X144833811Y-92071309D02*
X144833811Y-91846309D01*
X148008810Y-76271309D02*
X148208810Y-76071308D01*
%TO.N,USBD+*%
X148458811Y-75271309D02*
X148808811Y-75621309D01*
X145418597Y-92527993D02*
X145418597Y-92150731D01*
X148808811Y-82171309D02*
X147508811Y-83471309D01*
X148808811Y-75621309D02*
X148808811Y-82171309D01*
X147508811Y-90060517D02*
X147508811Y-88821308D01*
X145418597Y-92150731D02*
X147508811Y-90060517D01*
D19*
%TO.N,LED*%
X143508811Y-78621309D02*
X143508810Y-86521309D01*
X143458811Y-78571308D02*
X143508811Y-78621309D01*
%TO.N,Net-(U1-EN{slash}CHIP_PU)*%
X136958811Y-74049236D02*
X134908811Y-71999236D01*
X136958811Y-74621308D02*
X136958811Y-74049236D01*
X134908811Y-71999236D02*
X134908811Y-71671307D01*
%TO.N,Net-(U1-GPIO9)*%
X150008820Y-67771296D02*
X148508809Y-69271309D01*
X151208811Y-67771297D02*
X150008820Y-67771296D01*
D18*
%TO.N,ALERT*%
X135870457Y-88320308D02*
X135719458Y-88471308D01*
X139882811Y-77321675D02*
X139882810Y-83420308D01*
X140363077Y-76841408D02*
X139882811Y-77321675D01*
X139882810Y-83420308D02*
X139908811Y-83446309D01*
X138008811Y-85346309D02*
X138008811Y-88320308D01*
X139908811Y-83446309D02*
X138008811Y-85346309D01*
X138008811Y-88320308D02*
X135870457Y-88320308D01*
D19*
%TO.N,SCL*%
X141908811Y-84621309D02*
X139808811Y-86721309D01*
X141908811Y-78621309D02*
X141908811Y-84621309D01*
X141858810Y-78571308D02*
X141908811Y-78621309D01*
X139808811Y-86721309D02*
X139758811Y-86721308D01*
%TO.N,SDA*%
X140558811Y-84771309D02*
X140545637Y-84771308D01*
X138808811Y-88002784D02*
X139274664Y-88468636D01*
X140545637Y-84771308D02*
X138808811Y-86508136D01*
X141108811Y-76921306D02*
X141108811Y-84221309D01*
X138808811Y-86508136D02*
X138808811Y-88002784D01*
X141108811Y-84221309D02*
X140558811Y-84771309D01*
%TO.N,GND*%
X122908811Y-67771309D02*
X122708811Y-67971309D01*
X122708811Y-67971309D02*
X122708811Y-69471309D01*
X134508811Y-67771308D02*
X122908811Y-67771309D01*
%TO.N,Net-(D1-A)*%
X142408811Y-90371307D02*
X141858811Y-89821309D01*
X142408811Y-92571309D02*
X142408811Y-90371307D01*
X141858811Y-89821309D02*
X141858811Y-89071309D01*
D20*
%TO.N,Net-(U5-VFB)*%
X140558810Y-80196306D02*
X140558811Y-83874251D01*
X140558811Y-83874251D02*
X138922782Y-85510280D01*
X140483811Y-80121307D02*
X140558810Y-80196306D01*
%TO.N,Net-(J6-Pin_1)*%
X180190380Y-90590380D02*
X181109620Y-91509620D01*
D18*
%TO.N,LD_DISC*%
X157000000Y-88800000D02*
X157000000Y-90100000D01*
X157000000Y-88800000D02*
X157091611Y-88891611D01*
X157000000Y-90100000D02*
X158400000Y-91500000D01*
X158400000Y-91500000D02*
X158300000Y-91500000D01*
%TO.N,Net-(U1-GPIO3{slash}ADC1_CH3)*%
X136196090Y-74845274D02*
X137075408Y-75724592D01*
X130583810Y-86900000D02*
X130583810Y-90033810D01*
X137075408Y-75724592D02*
X138384224Y-75724592D01*
X130583810Y-90033810D02*
X131650000Y-91100000D01*
X134888537Y-74845274D02*
X136196090Y-74845274D01*
%TD*%
%TA.AperFunction,Conductor*%
%TO.N,Net-(J6-Pin_1)*%
G36*
X208605395Y-67522283D02*
G01*
X208788798Y-67538328D01*
X208810082Y-67542081D01*
X208869383Y-67557970D01*
X208982676Y-67588327D01*
X209002977Y-67595716D01*
X209112213Y-67646654D01*
X209164912Y-67671228D01*
X209183631Y-67682035D01*
X209329993Y-67784519D01*
X209346550Y-67798412D01*
X209472897Y-67924761D01*
X209486782Y-67941309D01*
X209588827Y-68087045D01*
X209589267Y-68087674D01*
X209600074Y-68106393D01*
X209675582Y-68268322D01*
X209682975Y-68288633D01*
X209729219Y-68461221D01*
X209732972Y-68482508D01*
X209749016Y-68665910D01*
X209749488Y-68676716D01*
X209749488Y-68747180D01*
X209749490Y-68747205D01*
X209749501Y-90084108D01*
X209749501Y-90144586D01*
X209749029Y-90155394D01*
X209732982Y-90338801D01*
X209729229Y-90360086D01*
X209682985Y-90532672D01*
X209675592Y-90552984D01*
X209600082Y-90714916D01*
X209589275Y-90733634D01*
X209486788Y-90880001D01*
X209472894Y-90896559D01*
X209346559Y-91022894D01*
X209330001Y-91036788D01*
X209183634Y-91139275D01*
X209164916Y-91150082D01*
X209002984Y-91225592D01*
X208982672Y-91232985D01*
X208810086Y-91279229D01*
X208788800Y-91282982D01*
X208605435Y-91299024D01*
X208594580Y-91299496D01*
X187523952Y-91291363D01*
X187456920Y-91271653D01*
X187411186Y-91218831D01*
X187400000Y-91167363D01*
X187400000Y-67646654D01*
X187419685Y-67579615D01*
X187472489Y-67533860D01*
X187523994Y-67522654D01*
X208541283Y-67521811D01*
X208594588Y-67521811D01*
X208605395Y-67522283D01*
G37*
%TD.AperFunction*%
%TD*%
%TA.AperFunction,Conductor*%
%TO.N,SHUNT+*%
G36*
X185551846Y-67542416D02*
G01*
X185597603Y-67595218D01*
X185608811Y-67646734D01*
X185608811Y-91166576D01*
X185589126Y-91233615D01*
X185536322Y-91279370D01*
X185484763Y-91290576D01*
X182768258Y-91289528D01*
X182768258Y-91289527D01*
X182760249Y-91289524D01*
X182760165Y-91289502D01*
X182694273Y-91289500D01*
X182694271Y-91289499D01*
X182621073Y-91289472D01*
X182619987Y-91289542D01*
X182564198Y-91289541D01*
X182564192Y-91289541D01*
X182564191Y-91289541D01*
X182564187Y-91289541D01*
X182305936Y-91320890D01*
X182305930Y-91320891D01*
X182305926Y-91320891D01*
X182305925Y-91320892D01*
X182053320Y-91383146D01*
X182053316Y-91383147D01*
X182053314Y-91383147D01*
X182048342Y-91385033D01*
X181978678Y-91390391D01*
X181917176Y-91357235D01*
X181883363Y-91296093D01*
X181882777Y-91293320D01*
X181879357Y-91276123D01*
X181852867Y-91212169D01*
X181819017Y-91130447D01*
X181819010Y-91130434D01*
X181731409Y-90999331D01*
X181731406Y-90999327D01*
X181619912Y-90887833D01*
X181619908Y-90887830D01*
X181488805Y-90800229D01*
X181488792Y-90800222D01*
X181343121Y-90739884D01*
X181343109Y-90739881D01*
X181276040Y-90726540D01*
X181214129Y-90694155D01*
X181212550Y-90692604D01*
X181007395Y-90487449D01*
X180973910Y-90426126D01*
X180973473Y-90424032D01*
X180960117Y-90356883D01*
X180935979Y-90298610D01*
X180899777Y-90211207D01*
X180899770Y-90211194D01*
X180812169Y-90080091D01*
X180812166Y-90080087D01*
X180700672Y-89968593D01*
X180700668Y-89968590D01*
X180569565Y-89880989D01*
X180569552Y-89880982D01*
X180423881Y-89820644D01*
X180423869Y-89820641D01*
X180269225Y-89789880D01*
X180269222Y-89789880D01*
X180111538Y-89789880D01*
X180111535Y-89789880D01*
X179956890Y-89820641D01*
X179956878Y-89820644D01*
X179811207Y-89880982D01*
X179811194Y-89880989D01*
X179680091Y-89968590D01*
X179680087Y-89968593D01*
X179568593Y-90080087D01*
X179568590Y-90080091D01*
X179480989Y-90211194D01*
X179480982Y-90211207D01*
X179420644Y-90356878D01*
X179420641Y-90356890D01*
X179389880Y-90511533D01*
X179389880Y-90669226D01*
X179420641Y-90823869D01*
X179420644Y-90823881D01*
X179480982Y-90969552D01*
X179480989Y-90969565D01*
X179568590Y-91100668D01*
X179568593Y-91100672D01*
X179680087Y-91212166D01*
X179680091Y-91212169D01*
X179811194Y-91299770D01*
X179811207Y-91299777D01*
X179893065Y-91333683D01*
X179956883Y-91360117D01*
X180023960Y-91373459D01*
X180085870Y-91405843D01*
X180087449Y-91407395D01*
X180292604Y-91612550D01*
X180326089Y-91673873D01*
X180326540Y-91676040D01*
X180339881Y-91743109D01*
X180339884Y-91743121D01*
X180400222Y-91888792D01*
X180400229Y-91888805D01*
X180487830Y-92019908D01*
X180487833Y-92019912D01*
X180599327Y-92131406D01*
X180599331Y-92131409D01*
X180730434Y-92219010D01*
X180730441Y-92219014D01*
X180749519Y-92226916D01*
X180803923Y-92270757D01*
X180825989Y-92337050D01*
X180811864Y-92399104D01*
X180729625Y-92555793D01*
X180674504Y-92701132D01*
X180637368Y-92799050D01*
X180575106Y-93051653D01*
X180543746Y-93309919D01*
X180543746Y-93374313D01*
X180543693Y-93374512D01*
X180543746Y-93439994D01*
X180543746Y-93513460D01*
X180543805Y-93514364D01*
X180547868Y-98547208D01*
X180528238Y-98614263D01*
X180475471Y-98660061D01*
X180423868Y-98671308D01*
X160232811Y-98671308D01*
X160165772Y-98651623D01*
X160120017Y-98598819D01*
X160108811Y-98547308D01*
X160108811Y-93379093D01*
X159044313Y-92337050D01*
X158871102Y-92167493D01*
X158836967Y-92106531D01*
X158841208Y-92036790D01*
X158870162Y-91991204D01*
X158882951Y-91978416D01*
X158965084Y-91855495D01*
X159021658Y-91718913D01*
X159037525Y-91639148D01*
X159050500Y-91573920D01*
X159050500Y-91426079D01*
X159021659Y-91281092D01*
X159021658Y-91281091D01*
X159021658Y-91281087D01*
X159019600Y-91276118D01*
X158965087Y-91144511D01*
X158965080Y-91144498D01*
X158882951Y-91021584D01*
X158882948Y-91021580D01*
X158778419Y-90917051D01*
X158755108Y-90901475D01*
X158710304Y-90847862D01*
X158700000Y-90798373D01*
X158700000Y-87500000D01*
X158699999Y-87499999D01*
X153221071Y-83836610D01*
X153176283Y-83782983D01*
X153165995Y-83734137D01*
X153098213Y-69835378D01*
X166658309Y-69835378D01*
X166683307Y-69961045D01*
X166683309Y-69961051D01*
X166732343Y-70079431D01*
X166732348Y-70079440D01*
X166803533Y-70185975D01*
X166803536Y-70185979D01*
X166894137Y-70276580D01*
X166894141Y-70276583D01*
X167000676Y-70347768D01*
X167000682Y-70347771D01*
X167000683Y-70347772D01*
X167119066Y-70396808D01*
X167119070Y-70396808D01*
X167119071Y-70396809D01*
X167244738Y-70421807D01*
X167244741Y-70421807D01*
X167372881Y-70421807D01*
X167457425Y-70404989D01*
X167498554Y-70396808D01*
X167616937Y-70347772D01*
X167723479Y-70276583D01*
X167814086Y-70185976D01*
X167885275Y-70079434D01*
X167934311Y-69961051D01*
X167959310Y-69835376D01*
X167959310Y-69707238D01*
X167959310Y-69707235D01*
X167934312Y-69581568D01*
X167934311Y-69581567D01*
X167934311Y-69581563D01*
X167885275Y-69463180D01*
X167885274Y-69463179D01*
X167885271Y-69463173D01*
X167814086Y-69356638D01*
X167814083Y-69356634D01*
X167723482Y-69266033D01*
X167723478Y-69266030D01*
X167616943Y-69194845D01*
X167616934Y-69194840D01*
X167498554Y-69145806D01*
X167498548Y-69145804D01*
X167372881Y-69120807D01*
X167372879Y-69120807D01*
X167244741Y-69120807D01*
X167244739Y-69120807D01*
X167119071Y-69145804D01*
X167119065Y-69145806D01*
X167000685Y-69194840D01*
X167000676Y-69194845D01*
X166894141Y-69266030D01*
X166894137Y-69266033D01*
X166803536Y-69356634D01*
X166803533Y-69356638D01*
X166732348Y-69463173D01*
X166732343Y-69463182D01*
X166683309Y-69581562D01*
X166683307Y-69581568D01*
X166658310Y-69707235D01*
X166658310Y-69707238D01*
X166658310Y-69835376D01*
X166658310Y-69835378D01*
X166658309Y-69835378D01*
X153098213Y-69835378D01*
X153087549Y-67648629D01*
X153106906Y-67581500D01*
X153159486Y-67535488D01*
X153211538Y-67524030D01*
X166594267Y-67523493D01*
X166661305Y-67543175D01*
X166707062Y-67595977D01*
X166717009Y-67665135D01*
X166708831Y-67694945D01*
X166683309Y-67756563D01*
X166683308Y-67756566D01*
X166683308Y-67756567D01*
X166683307Y-67756568D01*
X166658310Y-67882235D01*
X166658310Y-67882238D01*
X166658310Y-68010376D01*
X166658310Y-68010378D01*
X166658309Y-68010378D01*
X166683307Y-68136045D01*
X166683309Y-68136051D01*
X166732343Y-68254431D01*
X166732348Y-68254440D01*
X166803533Y-68360975D01*
X166803536Y-68360979D01*
X166894137Y-68451580D01*
X166894141Y-68451583D01*
X167000676Y-68522768D01*
X167000682Y-68522771D01*
X167000683Y-68522772D01*
X167119066Y-68571808D01*
X167119070Y-68571808D01*
X167119071Y-68571809D01*
X167244738Y-68596807D01*
X167244741Y-68596807D01*
X167372881Y-68596807D01*
X167457425Y-68579989D01*
X167498554Y-68571808D01*
X167616937Y-68522772D01*
X167723479Y-68451583D01*
X167814086Y-68360976D01*
X167885275Y-68254434D01*
X167934311Y-68136051D01*
X167959310Y-68010376D01*
X167959310Y-67882238D01*
X167959310Y-67882235D01*
X167934312Y-67756568D01*
X167934311Y-67756567D01*
X167934311Y-67756563D01*
X167908763Y-67694886D01*
X167901295Y-67625420D01*
X167932569Y-67562941D01*
X167992658Y-67527288D01*
X168023317Y-67523436D01*
X185484812Y-67522735D01*
X185551846Y-67542416D01*
G37*
%TD.AperFunction*%
%TD*%
%TA.AperFunction,Conductor*%
%TO.N,SHUNT-*%
G36*
X122056923Y-67532909D02*
G01*
X122083687Y-67537057D01*
X122089950Y-67542605D01*
X122097980Y-67544963D01*
X122115714Y-67565428D01*
X122135988Y-67583387D01*
X122138257Y-67591442D01*
X122143737Y-67597765D01*
X122147592Y-67624568D01*
X122154938Y-67650638D01*
X122153072Y-67662673D01*
X122153684Y-67666923D01*
X122150765Y-67677560D01*
X122149533Y-67685515D01*
X122147788Y-67691222D01*
X122107348Y-67788858D01*
X122088774Y-67882240D01*
X122087562Y-67888328D01*
X122087559Y-67888341D01*
X122083311Y-67909700D01*
X122083311Y-69018957D01*
X122063626Y-69085996D01*
X122062414Y-69087847D01*
X122043724Y-69115817D01*
X121987154Y-69252391D01*
X121987151Y-69252401D01*
X121958311Y-69397388D01*
X121958311Y-69397391D01*
X121958311Y-69545227D01*
X121958311Y-69545229D01*
X121958310Y-69545229D01*
X121987151Y-69690216D01*
X121987154Y-69690226D01*
X122043723Y-69826797D01*
X122043730Y-69826810D01*
X122125859Y-69949724D01*
X122125862Y-69949728D01*
X122230391Y-70054257D01*
X122230395Y-70054260D01*
X122353309Y-70136389D01*
X122353322Y-70136396D01*
X122473025Y-70185978D01*
X122489898Y-70192967D01*
X122489902Y-70192967D01*
X122489903Y-70192968D01*
X122634890Y-70221809D01*
X122634893Y-70221809D01*
X122782731Y-70221809D01*
X122880273Y-70202405D01*
X122927724Y-70192967D01*
X123064306Y-70136393D01*
X123187227Y-70054260D01*
X123291762Y-69949725D01*
X123373895Y-69826804D01*
X123430469Y-69690222D01*
X123459311Y-69545227D01*
X123459311Y-69397391D01*
X123459311Y-69397388D01*
X123430470Y-69252401D01*
X123430469Y-69252400D01*
X123430469Y-69252396D01*
X123430467Y-69252391D01*
X123373897Y-69115817D01*
X123355208Y-69087847D01*
X123334331Y-69021170D01*
X123334311Y-69018957D01*
X123334311Y-68520808D01*
X123353996Y-68453769D01*
X123406800Y-68408014D01*
X123458311Y-68396808D01*
X133795852Y-68396808D01*
X133862891Y-68416493D01*
X133908646Y-68469297D01*
X133919842Y-68522393D01*
X133800745Y-77841636D01*
X133780205Y-77908418D01*
X133754544Y-77936616D01*
X130199999Y-80800000D01*
X127913856Y-93324087D01*
X127882453Y-93386502D01*
X127825773Y-93421096D01*
X127354523Y-93555038D01*
X127290959Y-93556162D01*
X127188123Y-93530826D01*
X127188121Y-93530825D01*
X127188118Y-93530825D01*
X126930004Y-93499497D01*
X126930001Y-93499497D01*
X126800000Y-93499500D01*
X109505413Y-93499500D01*
X109494605Y-93499028D01*
X109311198Y-93482981D01*
X109289913Y-93479228D01*
X109117327Y-93432984D01*
X109097015Y-93425591D01*
X108935081Y-93350080D01*
X108916363Y-93339273D01*
X108770004Y-93236792D01*
X108753446Y-93222898D01*
X108627103Y-93096555D01*
X108613209Y-93079997D01*
X108510725Y-92933633D01*
X108499918Y-92914915D01*
X108424408Y-92752985D01*
X108417015Y-92732674D01*
X108387376Y-92622061D01*
X108370769Y-92560081D01*
X108367017Y-92538799D01*
X108350971Y-92355397D01*
X108350500Y-92344602D01*
X108352870Y-69835380D01*
X119258310Y-69835380D01*
X119283308Y-69961047D01*
X119283310Y-69961053D01*
X119332344Y-70079433D01*
X119332349Y-70079442D01*
X119403534Y-70185977D01*
X119403537Y-70185981D01*
X119494138Y-70276582D01*
X119494142Y-70276585D01*
X119600677Y-70347770D01*
X119600683Y-70347773D01*
X119600684Y-70347774D01*
X119719067Y-70396810D01*
X119719071Y-70396810D01*
X119719072Y-70396811D01*
X119844739Y-70421809D01*
X119844742Y-70421809D01*
X119972882Y-70421809D01*
X120057426Y-70404991D01*
X120098555Y-70396810D01*
X120216938Y-70347774D01*
X120323480Y-70276585D01*
X120414087Y-70185978D01*
X120485276Y-70079436D01*
X120534312Y-69961053D01*
X120559311Y-69835378D01*
X120559311Y-69707240D01*
X120559311Y-69707237D01*
X120534313Y-69581570D01*
X120534312Y-69581569D01*
X120534312Y-69581565D01*
X120485276Y-69463182D01*
X120485275Y-69463181D01*
X120485272Y-69463175D01*
X120414087Y-69356640D01*
X120414084Y-69356636D01*
X120323483Y-69266035D01*
X120323479Y-69266032D01*
X120216944Y-69194847D01*
X120216935Y-69194842D01*
X120098555Y-69145808D01*
X120098549Y-69145806D01*
X119972882Y-69120809D01*
X119972880Y-69120809D01*
X119844742Y-69120809D01*
X119844740Y-69120809D01*
X119719072Y-69145806D01*
X119719066Y-69145808D01*
X119600686Y-69194842D01*
X119600677Y-69194847D01*
X119494142Y-69266032D01*
X119494138Y-69266035D01*
X119403537Y-69356636D01*
X119403534Y-69356640D01*
X119332349Y-69463175D01*
X119332344Y-69463184D01*
X119283310Y-69581564D01*
X119283308Y-69581570D01*
X119258311Y-69707237D01*
X119258311Y-69707240D01*
X119258311Y-69835378D01*
X119258311Y-69835380D01*
X119258310Y-69835380D01*
X108352870Y-69835380D01*
X108352992Y-68679392D01*
X108353464Y-68668607D01*
X108359747Y-68596809D01*
X108369399Y-68486486D01*
X108373152Y-68465203D01*
X108401079Y-68360981D01*
X108419400Y-68292606D01*
X108426786Y-68272312D01*
X108502305Y-68110364D01*
X108513109Y-68091654D01*
X108615594Y-67945290D01*
X108629482Y-67928737D01*
X108755835Y-67802383D01*
X108772387Y-67788496D01*
X108902498Y-67697390D01*
X108918753Y-67686008D01*
X108937457Y-67675208D01*
X109099406Y-67599689D01*
X109119703Y-67592301D01*
X109292303Y-67546052D01*
X109313581Y-67542300D01*
X109496960Y-67526254D01*
X109507735Y-67525783D01*
X109516732Y-67525783D01*
X109568278Y-67525783D01*
X109568282Y-67525781D01*
X119193481Y-67525394D01*
X119260519Y-67545076D01*
X119306276Y-67597878D01*
X119316223Y-67667036D01*
X119308046Y-67696845D01*
X119283310Y-67756565D01*
X119283308Y-67756570D01*
X119258311Y-67882237D01*
X119258311Y-67882240D01*
X119258311Y-68010378D01*
X119258311Y-68010380D01*
X119258310Y-68010380D01*
X119283308Y-68136047D01*
X119283310Y-68136053D01*
X119332344Y-68254433D01*
X119332349Y-68254442D01*
X119403534Y-68360977D01*
X119403537Y-68360981D01*
X119494138Y-68451582D01*
X119494142Y-68451585D01*
X119600677Y-68522770D01*
X119600683Y-68522773D01*
X119600684Y-68522774D01*
X119719067Y-68571810D01*
X119719071Y-68571810D01*
X119719072Y-68571811D01*
X119844739Y-68596809D01*
X119844742Y-68596809D01*
X119972882Y-68596809D01*
X120057426Y-68579991D01*
X120098555Y-68571810D01*
X120216938Y-68522774D01*
X120323480Y-68451585D01*
X120414087Y-68360978D01*
X120485276Y-68254436D01*
X120534312Y-68136053D01*
X120559311Y-68010378D01*
X120559311Y-67882240D01*
X120559311Y-67882237D01*
X120534313Y-67756570D01*
X120534312Y-67756569D01*
X120534312Y-67756565D01*
X120509551Y-67696789D01*
X120502083Y-67627321D01*
X120533358Y-67564841D01*
X120593447Y-67529189D01*
X120624104Y-67525337D01*
X122030941Y-67525281D01*
X122056923Y-67532909D01*
G37*
%TD.AperFunction*%
%TD*%
%TA.AperFunction,Conductor*%
%TO.N,GND*%
G36*
X149473365Y-67543087D02*
G01*
X149509330Y-67592586D01*
X149509333Y-67653771D01*
X149485181Y-67693185D01*
X148484088Y-68694281D01*
X148439708Y-68719904D01*
X148296324Y-68758324D01*
X148296320Y-68758326D01*
X148170798Y-68830796D01*
X148068296Y-68933298D01*
X147995826Y-69058819D01*
X147958309Y-69198834D01*
X147958309Y-69343783D01*
X147995826Y-69483798D01*
X148068296Y-69609319D01*
X148068298Y-69609321D01*
X148068300Y-69609324D01*
X148170794Y-69711818D01*
X148170796Y-69711819D01*
X148170798Y-69711821D01*
X148296320Y-69784291D01*
X148296321Y-69784291D01*
X148296324Y-69784293D01*
X148436334Y-69821809D01*
X148436335Y-69821809D01*
X148581283Y-69821809D01*
X148581284Y-69821809D01*
X148721294Y-69784293D01*
X148721296Y-69784291D01*
X148721298Y-69784291D01*
X148846819Y-69711821D01*
X148846819Y-69711820D01*
X148846824Y-69711818D01*
X148949318Y-69609324D01*
X148987744Y-69542769D01*
X149021791Y-69483798D01*
X149021791Y-69483796D01*
X149021793Y-69483794D01*
X149059309Y-69343784D01*
X149059309Y-69343781D01*
X149060213Y-69340408D01*
X149085834Y-69296029D01*
X150156071Y-68225791D01*
X150210588Y-68198015D01*
X150226075Y-68196796D01*
X150818271Y-68196796D01*
X150867771Y-68210060D01*
X150996322Y-68284279D01*
X150996323Y-68284279D01*
X150996326Y-68284281D01*
X151136336Y-68321797D01*
X151136337Y-68321797D01*
X151281285Y-68321797D01*
X151281286Y-68321797D01*
X151421296Y-68284281D01*
X151436867Y-68275290D01*
X151496715Y-68262569D01*
X151552611Y-68287455D01*
X151583204Y-68340442D01*
X151585361Y-68362193D01*
X151399999Y-84099999D01*
X151400000Y-84099999D01*
X151400000Y-84100000D01*
X157272226Y-88103790D01*
X157309654Y-88152193D01*
X157311483Y-88213351D01*
X157277015Y-88263904D01*
X157219416Y-88284543D01*
X157190833Y-88281214D01*
X157126231Y-88263904D01*
X157072475Y-88249500D01*
X156927525Y-88249500D01*
X156873769Y-88263904D01*
X156787510Y-88287017D01*
X156661989Y-88359487D01*
X156559487Y-88461989D01*
X156487017Y-88587510D01*
X156449500Y-88727525D01*
X156449500Y-88872474D01*
X156487017Y-89012489D01*
X156559487Y-89138010D01*
X156559489Y-89138012D01*
X156559491Y-89138015D01*
X156570505Y-89149029D01*
X156598281Y-89203544D01*
X156599500Y-89219031D01*
X156599500Y-90047273D01*
X156599500Y-90152727D01*
X156609058Y-90188398D01*
X156626794Y-90254592D01*
X156679516Y-90345908D01*
X156679518Y-90345910D01*
X156679520Y-90345913D01*
X157720505Y-91386898D01*
X157748281Y-91441413D01*
X157749500Y-91456900D01*
X157749500Y-91572475D01*
X157762116Y-91619558D01*
X157787017Y-91712489D01*
X157859487Y-91838010D01*
X157859489Y-91838012D01*
X157859491Y-91838015D01*
X157961985Y-91940509D01*
X157984204Y-91953337D01*
X158025144Y-91998807D01*
X158033698Y-92038103D01*
X158058810Y-94600000D01*
X158058811Y-94600000D01*
X159504311Y-94600000D01*
X159562502Y-94618907D01*
X159598466Y-94668407D01*
X159603311Y-94699000D01*
X159603311Y-98547308D01*
X159614864Y-98654764D01*
X159614865Y-98654772D01*
X159626068Y-98706270D01*
X159660197Y-98808810D01*
X159660197Y-98808811D01*
X159660198Y-98808812D01*
X159737986Y-98929851D01*
X159783741Y-98982655D01*
X159783748Y-98982661D01*
X159783751Y-98982664D01*
X159892473Y-99076874D01*
X159892474Y-99076874D01*
X159892475Y-99076875D01*
X160023352Y-99136646D01*
X160090391Y-99156331D01*
X160090395Y-99156332D01*
X160126618Y-99161540D01*
X160232806Y-99176808D01*
X160232811Y-99176808D01*
X180423869Y-99176808D01*
X180428302Y-99176330D01*
X180438850Y-99175194D01*
X180498732Y-99187759D01*
X180539791Y-99233122D01*
X180548455Y-99273544D01*
X180548746Y-99634551D01*
X180548369Y-99643260D01*
X180532040Y-99829883D01*
X180529043Y-99846878D01*
X180481668Y-100023678D01*
X180475766Y-100039894D01*
X180398405Y-100205790D01*
X180389776Y-100220736D01*
X180284782Y-100370676D01*
X180273689Y-100383895D01*
X180144256Y-100513323D01*
X180131037Y-100524415D01*
X179981100Y-100629398D01*
X179966153Y-100638027D01*
X179800248Y-100715383D01*
X179784033Y-100721284D01*
X179607235Y-100768652D01*
X179590239Y-100771649D01*
X179403597Y-100787971D01*
X179394908Y-100788347D01*
X140331424Y-100763175D01*
X140331423Y-100763175D01*
X140324669Y-100763170D01*
X140324325Y-100763079D01*
X140258973Y-100763127D01*
X140258217Y-100763127D01*
X140258216Y-100763126D01*
X140187674Y-100763083D01*
X140186150Y-100763183D01*
X138415436Y-100764521D01*
X138357231Y-100745658D01*
X138321230Y-100696185D01*
X138316364Y-100664699D01*
X138358811Y-95571309D01*
X138261023Y-95310542D01*
X140193311Y-95310542D01*
X140193311Y-95462074D01*
X140222580Y-95571309D01*
X140232531Y-95608447D01*
X140308292Y-95739668D01*
X140308294Y-95739670D01*
X140308296Y-95739673D01*
X140415446Y-95846823D01*
X140415448Y-95846824D01*
X140415450Y-95846826D01*
X140546672Y-95922587D01*
X140546670Y-95922587D01*
X140546674Y-95922588D01*
X140546676Y-95922589D01*
X140693045Y-95961808D01*
X140693047Y-95961808D01*
X140844575Y-95961808D01*
X140844577Y-95961808D01*
X140990946Y-95922589D01*
X140990948Y-95922587D01*
X140990950Y-95922587D01*
X141122171Y-95846826D01*
X141122171Y-95846825D01*
X141122176Y-95846823D01*
X141229326Y-95739673D01*
X141305092Y-95608443D01*
X141344311Y-95462074D01*
X141344311Y-95310542D01*
X145973311Y-95310542D01*
X145973311Y-95462074D01*
X146002580Y-95571309D01*
X146012531Y-95608447D01*
X146088292Y-95739668D01*
X146088294Y-95739670D01*
X146088296Y-95739673D01*
X146195446Y-95846823D01*
X146195448Y-95846824D01*
X146195450Y-95846826D01*
X146326672Y-95922587D01*
X146326670Y-95922587D01*
X146326674Y-95922588D01*
X146326676Y-95922589D01*
X146473045Y-95961808D01*
X146473047Y-95961808D01*
X146624575Y-95961808D01*
X146624577Y-95961808D01*
X146770946Y-95922589D01*
X146770948Y-95922587D01*
X146770950Y-95922587D01*
X146902171Y-95846826D01*
X146902171Y-95846825D01*
X146902176Y-95846823D01*
X147009326Y-95739673D01*
X147085092Y-95608443D01*
X147124311Y-95462074D01*
X147124311Y-95310542D01*
X147085092Y-95164173D01*
X147085090Y-95164170D01*
X147085090Y-95164168D01*
X147009329Y-95032947D01*
X147009327Y-95032945D01*
X147009326Y-95032943D01*
X146902176Y-94925793D01*
X146902173Y-94925791D01*
X146902171Y-94925789D01*
X146770949Y-94850028D01*
X146770951Y-94850028D01*
X146714158Y-94834811D01*
X146624577Y-94810808D01*
X146473045Y-94810808D01*
X146383463Y-94834811D01*
X146326671Y-94850028D01*
X146195450Y-94925789D01*
X146088292Y-95032947D01*
X146012531Y-95164168D01*
X146012530Y-95164173D01*
X145973311Y-95310542D01*
X141344311Y-95310542D01*
X141305092Y-95164173D01*
X141305090Y-95164170D01*
X141305090Y-95164168D01*
X141229329Y-95032947D01*
X141229327Y-95032945D01*
X141229326Y-95032943D01*
X141122176Y-94925793D01*
X141122173Y-94925791D01*
X141122171Y-94925789D01*
X140990949Y-94850028D01*
X140990951Y-94850028D01*
X140934158Y-94834811D01*
X140844577Y-94810808D01*
X140693045Y-94810808D01*
X140603463Y-94834811D01*
X140546671Y-94850028D01*
X140415450Y-94925789D01*
X140308292Y-95032947D01*
X140232531Y-95164168D01*
X140232530Y-95164173D01*
X140193311Y-95310542D01*
X138261023Y-95310542D01*
X137758811Y-93971309D01*
X136808811Y-92621308D01*
X136693561Y-92511821D01*
X135808810Y-91671308D01*
X132096222Y-91671308D01*
X132038031Y-91652401D01*
X132002067Y-91602901D01*
X132002067Y-91541715D01*
X132026217Y-91502306D01*
X132090509Y-91438015D01*
X132090512Y-91438010D01*
X132162982Y-91312489D01*
X132162982Y-91312487D01*
X132162984Y-91312485D01*
X132200500Y-91172475D01*
X132200500Y-91027525D01*
X132162984Y-90887515D01*
X132162982Y-90887512D01*
X132162982Y-90887510D01*
X132090512Y-90761989D01*
X132090510Y-90761987D01*
X132090509Y-90761985D01*
X131988015Y-90659491D01*
X131988012Y-90659489D01*
X131988010Y-90659487D01*
X131862488Y-90587017D01*
X131862489Y-90587017D01*
X131810457Y-90573075D01*
X131722475Y-90549500D01*
X131722474Y-90549500D01*
X131706901Y-90549500D01*
X131648710Y-90530593D01*
X131636897Y-90520504D01*
X131013306Y-89896913D01*
X130985529Y-89842396D01*
X130984310Y-89826909D01*
X130984310Y-88392251D01*
X135118958Y-88392251D01*
X135118958Y-88550365D01*
X135159881Y-88703092D01*
X135238938Y-88840024D01*
X135350742Y-88951828D01*
X135487674Y-89030885D01*
X135640401Y-89071808D01*
X135640403Y-89071808D01*
X135798513Y-89071808D01*
X135798515Y-89071808D01*
X135951242Y-89030885D01*
X136088174Y-88951828D01*
X136199978Y-88840024D01*
X136220897Y-88803790D01*
X136240229Y-88770308D01*
X136285698Y-88729367D01*
X136325965Y-88720808D01*
X138061536Y-88720808D01*
X138061538Y-88720808D01*
X138163398Y-88693515D01*
X138254724Y-88640788D01*
X138329291Y-88566221D01*
X138382018Y-88474895D01*
X138400434Y-88406164D01*
X138406194Y-88397293D01*
X138407850Y-88386843D01*
X138422485Y-88372207D01*
X138433757Y-88354851D01*
X138443634Y-88351059D01*
X138451115Y-88343579D01*
X138471555Y-88340341D01*
X138490878Y-88332924D01*
X138501097Y-88335662D01*
X138511547Y-88334007D01*
X138529986Y-88343402D01*
X138549979Y-88348759D01*
X138566063Y-88361784D01*
X138697636Y-88493356D01*
X138723260Y-88537736D01*
X138724164Y-88541109D01*
X138724164Y-88541111D01*
X138761680Y-88681121D01*
X138761681Y-88681123D01*
X138761682Y-88681126D01*
X138834151Y-88806646D01*
X138834153Y-88806648D01*
X138834155Y-88806651D01*
X138936649Y-88909145D01*
X138936651Y-88909146D01*
X138936653Y-88909148D01*
X139062175Y-88981618D01*
X139062176Y-88981618D01*
X139062179Y-88981620D01*
X139202189Y-89019136D01*
X139202190Y-89019136D01*
X139347138Y-89019136D01*
X139347139Y-89019136D01*
X139422906Y-88998834D01*
X141308311Y-88998834D01*
X141308311Y-89143784D01*
X141317486Y-89178024D01*
X141345828Y-89283798D01*
X141420047Y-89412347D01*
X141433311Y-89461847D01*
X141433311Y-89765291D01*
X141433311Y-89877328D01*
X141461112Y-89981083D01*
X141462309Y-89985549D01*
X141482084Y-90019799D01*
X141482084Y-90019800D01*
X141500037Y-90050896D01*
X141500038Y-90050897D01*
X141510597Y-90069185D01*
X141518326Y-90082572D01*
X141518328Y-90082574D01*
X141954314Y-90518558D01*
X141982092Y-90573075D01*
X141983311Y-90588562D01*
X141983311Y-92180770D01*
X141970047Y-92230270D01*
X141895828Y-92358819D01*
X141869918Y-92455518D01*
X141858311Y-92498834D01*
X141858311Y-92643784D01*
X141870753Y-92690216D01*
X141895828Y-92783798D01*
X141968298Y-92909319D01*
X141968300Y-92909321D01*
X141968302Y-92909324D01*
X142070796Y-93011818D01*
X142070798Y-93011819D01*
X142070800Y-93011821D01*
X142196322Y-93084291D01*
X142196323Y-93084291D01*
X142196326Y-93084293D01*
X142336336Y-93121809D01*
X142336337Y-93121809D01*
X142481285Y-93121809D01*
X142481286Y-93121809D01*
X142621296Y-93084293D01*
X142621298Y-93084291D01*
X142621300Y-93084291D01*
X142746821Y-93011821D01*
X142746821Y-93011820D01*
X142746826Y-93011818D01*
X142849320Y-92909324D01*
X142874329Y-92866008D01*
X142921793Y-92783798D01*
X142921793Y-92783796D01*
X142921795Y-92783794D01*
X142959311Y-92643784D01*
X142959311Y-92498834D01*
X142921795Y-92358824D01*
X142921793Y-92358821D01*
X142921793Y-92358819D01*
X142847575Y-92230270D01*
X142834311Y-92180770D01*
X142834311Y-91998834D01*
X144283311Y-91998834D01*
X144283311Y-92143784D01*
X144295831Y-92190510D01*
X144320828Y-92283798D01*
X144393298Y-92409319D01*
X144393300Y-92409321D01*
X144393302Y-92409324D01*
X144495796Y-92511818D01*
X144495798Y-92511819D01*
X144495800Y-92511821D01*
X144621322Y-92584291D01*
X144621323Y-92584291D01*
X144621326Y-92584293D01*
X144761336Y-92621809D01*
X144797850Y-92621809D01*
X144856041Y-92640716D01*
X144892005Y-92690216D01*
X144893476Y-92695185D01*
X144905612Y-92740477D01*
X144905614Y-92740481D01*
X144978084Y-92866003D01*
X144978086Y-92866005D01*
X144978088Y-92866008D01*
X145080582Y-92968502D01*
X145080584Y-92968503D01*
X145080586Y-92968505D01*
X145206108Y-93040975D01*
X145206109Y-93040975D01*
X145206112Y-93040977D01*
X145346122Y-93078493D01*
X145346123Y-93078493D01*
X145491071Y-93078493D01*
X145491072Y-93078493D01*
X145631082Y-93040977D01*
X145631084Y-93040975D01*
X145631086Y-93040975D01*
X145756607Y-92968505D01*
X145756607Y-92968504D01*
X145756612Y-92968502D01*
X145859106Y-92866008D01*
X145860550Y-92863507D01*
X145931579Y-92740482D01*
X145931579Y-92740480D01*
X145931581Y-92740478D01*
X145969097Y-92600468D01*
X145969097Y-92455518D01*
X145931581Y-92315508D01*
X145928801Y-92310693D01*
X145916078Y-92250848D01*
X145940961Y-92194951D01*
X145944512Y-92191207D01*
X147829291Y-90306430D01*
X147829294Y-90306425D01*
X147882016Y-90215109D01*
X147882016Y-90215107D01*
X147882018Y-90215105D01*
X147909311Y-90113244D01*
X147909311Y-90007790D01*
X147909311Y-89240339D01*
X147928218Y-89182148D01*
X147938301Y-89170341D01*
X147949320Y-89159323D01*
X147950493Y-89157291D01*
X148021793Y-89033797D01*
X148021793Y-89033795D01*
X148021795Y-89033793D01*
X148059311Y-88893783D01*
X148059311Y-88748833D01*
X148021795Y-88608823D01*
X148021793Y-88608820D01*
X148021793Y-88608818D01*
X147949323Y-88483297D01*
X147949321Y-88483295D01*
X147949320Y-88483293D01*
X147846826Y-88380799D01*
X147846823Y-88380797D01*
X147846821Y-88380795D01*
X147721299Y-88308325D01*
X147721300Y-88308325D01*
X147620121Y-88281214D01*
X147581286Y-88270808D01*
X147436336Y-88270808D01*
X147418251Y-88275654D01*
X147296324Y-88308324D01*
X147258187Y-88330343D01*
X147198339Y-88343064D01*
X147142443Y-88318177D01*
X147138703Y-88314628D01*
X147136941Y-88312866D01*
X147136938Y-88312864D01*
X147136936Y-88312862D01*
X147011414Y-88240392D01*
X147011415Y-88240392D01*
X146981822Y-88232462D01*
X146871401Y-88202875D01*
X146726451Y-88202875D01*
X146664716Y-88219416D01*
X146586436Y-88240392D01*
X146460915Y-88312862D01*
X146358413Y-88415364D01*
X146285943Y-88540885D01*
X146267739Y-88608823D01*
X146248426Y-88680900D01*
X146248426Y-88825850D01*
X146260919Y-88872474D01*
X146285943Y-88965864D01*
X146358413Y-89091385D01*
X146362366Y-89096536D01*
X146359965Y-89098377D01*
X146382092Y-89141804D01*
X146383311Y-89157291D01*
X146383311Y-89689408D01*
X146364404Y-89747599D01*
X146354315Y-89759412D01*
X144513330Y-91600397D01*
X144502267Y-91619558D01*
X144486536Y-91640058D01*
X144393301Y-91733294D01*
X144320828Y-91858819D01*
X144320827Y-91858824D01*
X144283311Y-91998834D01*
X142834311Y-91998834D01*
X142834311Y-90315291D01*
X142834310Y-90315285D01*
X142833001Y-90310398D01*
X142832015Y-90306718D01*
X142805314Y-90207069D01*
X142766522Y-90139880D01*
X142751144Y-90113244D01*
X142749297Y-90110045D01*
X142749295Y-90110043D01*
X142670074Y-90030821D01*
X142670074Y-90030822D01*
X142670073Y-90030821D01*
X142670073Y-90030820D01*
X142313308Y-89674056D01*
X142309681Y-89666939D01*
X142303218Y-89662243D01*
X142296053Y-89640192D01*
X142285530Y-89619539D01*
X142284311Y-89604052D01*
X142284311Y-89461847D01*
X142297575Y-89412347D01*
X142371793Y-89283798D01*
X142371793Y-89283796D01*
X142371795Y-89283794D01*
X142409311Y-89143784D01*
X142409311Y-88998834D01*
X142371795Y-88858824D01*
X142371793Y-88858821D01*
X142371793Y-88858819D01*
X142299323Y-88733298D01*
X142299321Y-88733296D01*
X142299320Y-88733294D01*
X142196826Y-88630800D01*
X142196823Y-88630798D01*
X142196821Y-88630796D01*
X142071299Y-88558326D01*
X142071300Y-88558326D01*
X142006228Y-88540890D01*
X141931286Y-88520809D01*
X141786336Y-88520809D01*
X141724601Y-88537350D01*
X141646321Y-88558326D01*
X141520800Y-88630796D01*
X141418298Y-88733298D01*
X141345828Y-88858819D01*
X141308311Y-88998834D01*
X139422906Y-88998834D01*
X139487149Y-88981620D01*
X139487151Y-88981618D01*
X139487153Y-88981618D01*
X139612673Y-88909149D01*
X139612674Y-88909147D01*
X139612679Y-88909145D01*
X139715173Y-88806651D01*
X139736156Y-88770308D01*
X139787646Y-88681125D01*
X139787646Y-88681123D01*
X139787648Y-88681121D01*
X139825164Y-88541111D01*
X139825164Y-88396161D01*
X139787648Y-88256151D01*
X139787646Y-88256148D01*
X139787646Y-88256146D01*
X139715176Y-88130625D01*
X139715174Y-88130623D01*
X139715173Y-88130621D01*
X139612679Y-88028127D01*
X139612676Y-88028125D01*
X139612674Y-88028123D01*
X139487152Y-87955653D01*
X139487148Y-87955651D01*
X139343763Y-87917230D01*
X139299383Y-87891608D01*
X139286774Y-87878999D01*
X139263306Y-87855530D01*
X139235530Y-87801015D01*
X139234311Y-87785528D01*
X139234311Y-87214339D01*
X139253218Y-87156148D01*
X139302718Y-87120184D01*
X139363904Y-87120184D01*
X139403312Y-87144333D01*
X139420796Y-87161817D01*
X139420798Y-87161818D01*
X139420800Y-87161820D01*
X139546322Y-87234290D01*
X139546323Y-87234290D01*
X139546326Y-87234292D01*
X139686336Y-87271808D01*
X139686337Y-87271808D01*
X139831285Y-87271808D01*
X139831286Y-87271808D01*
X139971296Y-87234292D01*
X139971298Y-87234290D01*
X139971300Y-87234290D01*
X140096821Y-87161820D01*
X140096821Y-87161819D01*
X140096826Y-87161817D01*
X140199320Y-87059323D01*
X140271795Y-86933793D01*
X140291912Y-86858710D01*
X140317533Y-86814333D01*
X142249295Y-84882573D01*
X142305314Y-84785546D01*
X142334311Y-84677328D01*
X142334311Y-84565291D01*
X142334311Y-78875241D01*
X142347573Y-78825743D01*
X142371794Y-78783793D01*
X142409310Y-78643783D01*
X142409310Y-78498833D01*
X142908311Y-78498833D01*
X142908311Y-78643782D01*
X142945828Y-78783797D01*
X143018298Y-78909318D01*
X143018300Y-78909320D01*
X143018302Y-78909323D01*
X143054315Y-78945336D01*
X143082091Y-78999851D01*
X143083310Y-79015338D01*
X143083310Y-86130771D01*
X143070046Y-86180271D01*
X142995827Y-86308819D01*
X142958310Y-86448834D01*
X142958310Y-86593783D01*
X142995827Y-86733798D01*
X143068297Y-86859319D01*
X143068299Y-86859321D01*
X143068301Y-86859324D01*
X143170795Y-86961818D01*
X143170797Y-86961819D01*
X143170799Y-86961821D01*
X143296321Y-87034291D01*
X143296322Y-87034291D01*
X143296325Y-87034293D01*
X143436335Y-87071809D01*
X143436336Y-87071809D01*
X143581284Y-87071809D01*
X143581285Y-87071809D01*
X143721295Y-87034293D01*
X143721297Y-87034291D01*
X143721299Y-87034291D01*
X143846820Y-86961821D01*
X143846820Y-86961820D01*
X143846825Y-86961818D01*
X143949319Y-86859324D01*
X144021794Y-86733794D01*
X144059310Y-86593784D01*
X144059310Y-86448834D01*
X144021794Y-86308824D01*
X144021792Y-86308821D01*
X144021792Y-86308819D01*
X143947574Y-86180270D01*
X143934310Y-86130770D01*
X143934310Y-83398833D01*
X146258307Y-83398833D01*
X146258307Y-83543783D01*
X146287894Y-83654204D01*
X146295824Y-83683797D01*
X146368294Y-83809318D01*
X146368296Y-83809320D01*
X146368298Y-83809323D01*
X146470792Y-83911817D01*
X146470794Y-83911818D01*
X146470796Y-83911820D01*
X146596318Y-83984290D01*
X146596319Y-83984290D01*
X146596322Y-83984292D01*
X146736332Y-84021808D01*
X146736333Y-84021808D01*
X146881281Y-84021808D01*
X146881282Y-84021808D01*
X147021292Y-83984292D01*
X147109307Y-83933475D01*
X147169156Y-83920754D01*
X147208308Y-83933476D01*
X147296322Y-83984291D01*
X147296323Y-83984291D01*
X147296326Y-83984293D01*
X147436336Y-84021809D01*
X147436337Y-84021809D01*
X147581285Y-84021809D01*
X147581286Y-84021809D01*
X147721296Y-83984293D01*
X147721298Y-83984291D01*
X147721300Y-83984291D01*
X147846821Y-83911821D01*
X147846821Y-83911820D01*
X147846826Y-83911818D01*
X147949320Y-83809324D01*
X147949323Y-83809319D01*
X148021793Y-83683798D01*
X148021793Y-83683796D01*
X148021795Y-83683794D01*
X148059311Y-83543784D01*
X148059311Y-83528208D01*
X148078218Y-83470017D01*
X148088301Y-83458210D01*
X149054721Y-82491790D01*
X149054724Y-82491789D01*
X149129291Y-82417222D01*
X149182018Y-82325896D01*
X149186200Y-82310290D01*
X149209312Y-82224036D01*
X149209312Y-82118582D01*
X149209312Y-82112520D01*
X149209311Y-82112502D01*
X149209311Y-75682023D01*
X149209312Y-75682010D01*
X149209312Y-75568584D01*
X149209312Y-75568582D01*
X149182018Y-75466721D01*
X149141056Y-75395774D01*
X149129291Y-75375396D01*
X149054724Y-75300829D01*
X149054722Y-75300827D01*
X149036440Y-75282545D01*
X149034670Y-75280575D01*
X149023278Y-75254916D01*
X149010530Y-75229895D01*
X149010176Y-75225404D01*
X149009843Y-75224653D01*
X149010043Y-75223714D01*
X149009311Y-75214408D01*
X149009311Y-75198834D01*
X148972597Y-75061818D01*
X148971795Y-75058824D01*
X148971793Y-75058821D01*
X148971793Y-75058819D01*
X148899323Y-74933298D01*
X148899321Y-74933296D01*
X148899320Y-74933294D01*
X148796826Y-74830800D01*
X148796823Y-74830798D01*
X148796821Y-74830796D01*
X148671299Y-74758326D01*
X148671300Y-74758326D01*
X148641707Y-74750396D01*
X148531286Y-74720809D01*
X148386336Y-74720809D01*
X148324601Y-74737350D01*
X148246321Y-74758326D01*
X148120800Y-74830796D01*
X148018298Y-74933298D01*
X147945828Y-75058819D01*
X147918822Y-75159607D01*
X147908311Y-75198834D01*
X147908311Y-75343784D01*
X147919779Y-75386581D01*
X147945827Y-75483795D01*
X147947262Y-75487258D01*
X147947472Y-75489933D01*
X147947507Y-75490062D01*
X147947483Y-75490068D01*
X147952061Y-75548255D01*
X147920091Y-75600423D01*
X147905298Y-75610878D01*
X147870797Y-75630797D01*
X147768297Y-75733297D01*
X147695827Y-75858818D01*
X147658310Y-75998833D01*
X147658310Y-76050864D01*
X147645048Y-76100361D01*
X147635604Y-76116719D01*
X147608310Y-76218583D01*
X147608310Y-81664408D01*
X147589403Y-81722599D01*
X147579314Y-81734412D01*
X146488324Y-82825401D01*
X146488323Y-82825402D01*
X146435602Y-82916718D01*
X146435600Y-82916721D01*
X146434505Y-82920807D01*
X146434505Y-82920809D01*
X146408307Y-83018584D01*
X146408307Y-83018585D01*
X146408307Y-83052276D01*
X146389400Y-83110467D01*
X146379313Y-83122277D01*
X146368299Y-83133291D01*
X146368294Y-83133297D01*
X146295824Y-83258818D01*
X146258307Y-83398833D01*
X143934310Y-83398833D01*
X143934310Y-78875244D01*
X143947574Y-78825743D01*
X143971795Y-78783793D01*
X144009311Y-78643783D01*
X144009311Y-78498833D01*
X143971795Y-78358823D01*
X143971793Y-78358820D01*
X143971793Y-78358818D01*
X143899323Y-78233297D01*
X143899321Y-78233295D01*
X143899320Y-78233293D01*
X143796826Y-78130799D01*
X143796823Y-78130797D01*
X143796821Y-78130795D01*
X143671299Y-78058325D01*
X143671300Y-78058325D01*
X143641707Y-78050395D01*
X143531286Y-78020808D01*
X143386336Y-78020808D01*
X143324601Y-78037349D01*
X143246321Y-78058325D01*
X143120800Y-78130795D01*
X143018298Y-78233297D01*
X142945828Y-78358818D01*
X142908311Y-78498833D01*
X142409310Y-78498833D01*
X142371794Y-78358823D01*
X142371792Y-78358820D01*
X142371792Y-78358818D01*
X142299322Y-78233297D01*
X142299320Y-78233295D01*
X142299319Y-78233293D01*
X142196825Y-78130799D01*
X142196822Y-78130797D01*
X142196820Y-78130795D01*
X142071298Y-78058325D01*
X142071299Y-78058325D01*
X142041706Y-78050395D01*
X141931285Y-78020808D01*
X141786335Y-78020808D01*
X141734418Y-78034719D01*
X141658934Y-78054945D01*
X141597832Y-78051742D01*
X141550283Y-78013237D01*
X141534311Y-77959318D01*
X141534311Y-77311844D01*
X141547575Y-77262344D01*
X141621793Y-77133795D01*
X141621793Y-77133793D01*
X141621795Y-77133791D01*
X141659311Y-76993781D01*
X141659311Y-76848831D01*
X141621795Y-76708821D01*
X141621793Y-76708818D01*
X141621793Y-76708816D01*
X141549323Y-76583295D01*
X141549321Y-76583293D01*
X141549320Y-76583291D01*
X141446826Y-76480797D01*
X141446823Y-76480795D01*
X141446821Y-76480793D01*
X141321299Y-76408323D01*
X141321300Y-76408323D01*
X141280785Y-76397467D01*
X141181286Y-76370806D01*
X141036336Y-76370806D01*
X140989666Y-76383311D01*
X140896324Y-76408322D01*
X140896323Y-76408323D01*
X140887870Y-76413203D01*
X140828021Y-76425920D01*
X140772127Y-76401030D01*
X140768373Y-76397467D01*
X140731795Y-76360890D01*
X140731793Y-76360888D01*
X140594861Y-76281831D01*
X140442134Y-76240908D01*
X140284020Y-76240908D01*
X140131293Y-76281831D01*
X139994361Y-76360888D01*
X139882557Y-76472692D01*
X139803500Y-76609624D01*
X139762577Y-76762352D01*
X139762577Y-76834508D01*
X139743670Y-76892699D01*
X139733581Y-76904512D01*
X139636900Y-77001193D01*
X139636898Y-77001195D01*
X139636897Y-77001194D01*
X139562330Y-77075762D01*
X139509605Y-77167084D01*
X139509605Y-77167085D01*
X139482310Y-77268949D01*
X139482310Y-83265409D01*
X139463403Y-83323600D01*
X139453314Y-83335413D01*
X137688327Y-85100400D01*
X137635605Y-85191717D01*
X137635603Y-85191721D01*
X137624364Y-85233664D01*
X137624365Y-85233665D01*
X137608311Y-85293582D01*
X137608311Y-87820808D01*
X137589404Y-87878999D01*
X137539904Y-87914963D01*
X137509311Y-87919808D01*
X135990434Y-87919808D01*
X135957548Y-87913267D01*
X135957510Y-87913411D01*
X135955316Y-87912823D01*
X135952550Y-87912273D01*
X135951243Y-87911731D01*
X135900333Y-87898090D01*
X135798515Y-87870808D01*
X135640401Y-87870808D01*
X135487674Y-87911731D01*
X135350742Y-87990788D01*
X135238938Y-88102592D01*
X135159881Y-88239524D01*
X135118958Y-88392251D01*
X130984310Y-88392251D01*
X130984310Y-87319031D01*
X131003217Y-87260840D01*
X131013300Y-87249033D01*
X131024319Y-87238015D01*
X131025164Y-87236551D01*
X131096792Y-87112489D01*
X131096792Y-87112487D01*
X131096794Y-87112485D01*
X131134310Y-86972475D01*
X131134310Y-86827525D01*
X131096794Y-86687515D01*
X131096792Y-86687512D01*
X131096792Y-86687510D01*
X131024322Y-86561989D01*
X131024320Y-86561987D01*
X131024319Y-86561985D01*
X130921825Y-86459491D01*
X130921822Y-86459489D01*
X130921820Y-86459487D01*
X130796298Y-86387017D01*
X130796299Y-86387017D01*
X130756657Y-86376395D01*
X130656285Y-86349500D01*
X130511335Y-86349500D01*
X130449600Y-86366041D01*
X130371320Y-86387017D01*
X130245799Y-86459487D01*
X130245792Y-86459493D01*
X130241837Y-86463448D01*
X130187319Y-86491222D01*
X130126888Y-86481647D01*
X130083626Y-86438380D01*
X130074058Y-86377947D01*
X130074316Y-86376395D01*
X130992497Y-81142765D01*
X131021174Y-81088720D01*
X131036538Y-81076556D01*
X135408811Y-78271309D01*
X135407304Y-76240908D01*
X135406639Y-75344847D01*
X135425503Y-75286643D01*
X135474976Y-75250642D01*
X135505639Y-75245774D01*
X135989189Y-75245774D01*
X136047380Y-75264681D01*
X136059193Y-75274770D01*
X136754928Y-75970505D01*
X136754927Y-75970505D01*
X136829495Y-76045072D01*
X136920821Y-76097799D01*
X137022681Y-76125092D01*
X137965193Y-76125092D01*
X138023384Y-76143999D01*
X138035190Y-76154082D01*
X138046209Y-76165101D01*
X138046211Y-76165102D01*
X138046213Y-76165104D01*
X138171735Y-76237574D01*
X138171736Y-76237574D01*
X138171739Y-76237576D01*
X138311749Y-76275092D01*
X138311750Y-76275092D01*
X138456698Y-76275092D01*
X138456699Y-76275092D01*
X138596709Y-76237576D01*
X138596711Y-76237574D01*
X138596713Y-76237574D01*
X138722234Y-76165104D01*
X138722234Y-76165103D01*
X138722239Y-76165101D01*
X138824733Y-76062607D01*
X138861553Y-75998833D01*
X138897206Y-75937081D01*
X138897206Y-75937079D01*
X138897208Y-75937077D01*
X138934724Y-75797067D01*
X138934724Y-75652117D01*
X138897208Y-75512107D01*
X138897206Y-75512104D01*
X138897206Y-75512102D01*
X138824736Y-75386581D01*
X138824734Y-75386579D01*
X138824733Y-75386577D01*
X138722239Y-75284083D01*
X138722236Y-75284081D01*
X138722234Y-75284079D01*
X138596712Y-75211609D01*
X138596713Y-75211609D01*
X138491022Y-75183289D01*
X138456699Y-75174092D01*
X138311749Y-75174092D01*
X138277426Y-75183289D01*
X138171734Y-75211609D01*
X138046213Y-75284079D01*
X138046212Y-75284080D01*
X138046209Y-75284082D01*
X138046209Y-75284083D01*
X138035194Y-75295097D01*
X137980680Y-75322873D01*
X137965193Y-75324092D01*
X137282309Y-75324092D01*
X137274711Y-75321623D01*
X137266822Y-75322873D01*
X137246166Y-75312348D01*
X137224118Y-75305185D01*
X137212305Y-75295096D01*
X137186579Y-75269370D01*
X137158802Y-75214853D01*
X137168373Y-75154421D01*
X137207082Y-75113630D01*
X137296826Y-75061817D01*
X137399320Y-74959323D01*
X137399323Y-74959318D01*
X137471793Y-74833797D01*
X137471793Y-74833795D01*
X137471795Y-74833793D01*
X137509311Y-74693783D01*
X137509311Y-74548833D01*
X137471795Y-74408823D01*
X137471793Y-74408820D01*
X137471793Y-74408818D01*
X137397575Y-74280269D01*
X137384311Y-74230769D01*
X137384311Y-73993219D01*
X137384311Y-73993218D01*
X137355314Y-73884999D01*
X137355312Y-73884996D01*
X137355312Y-73884994D01*
X137299296Y-73787973D01*
X137220074Y-73708750D01*
X137220074Y-73708751D01*
X135456573Y-71945250D01*
X135428796Y-71890733D01*
X135430951Y-71849622D01*
X135459310Y-71743784D01*
X135459311Y-71743782D01*
X135459311Y-71598832D01*
X135421795Y-71458822D01*
X135416973Y-71450470D01*
X135403711Y-71401048D01*
X135400908Y-67623810D01*
X135419771Y-67565610D01*
X135469244Y-67529609D01*
X135499902Y-67524741D01*
X149415174Y-67524182D01*
X149473365Y-67543087D01*
G37*
%TD.AperFunction*%
%TD*%
M02*
