M48
; DRILL file {KiCad 9.0.1} date 2025-08-30T09:45:20+1000
; FORMAT={-:-/ absolute / inch / decimal}
; #@! TF.CreationDate,2025-08-30T09:45:20+10:00
; #@! TF.GenerationSoftware,Kicad,Pcbnew,9.0.1
; #@! TF.FileFunction,Plated,1,2,PTH
FMAT,2
INCH
; #@! TA.AperFunction,Plated,PTH,ViaDrill
T1C0.0118
; #@! TA.AperFunction,Plated,PTH,ComponentDrill
T2C0.0197
; #@! TA.AperFunction,Plated,PTH,ComponentDrill
T3C0.0394
; #@! TA.AperFunction,Plated,PTH,ComponentDrill
T4C0.1260
; #@! TA.AperFunction,Plated,PTH,ComponentDrill
T5C0.3543
%
G90
G05
T1
X4.8311Y-2.7351
X5.2385Y-3.4083
X5.272Y-3.4556
X5.2956Y-2.6682
X5.3114Y-2.8217
X5.3433Y-3.4831
X5.3566Y-3.2154
X5.3792Y-3.3612
X5.3921Y-2.9378
X5.4076Y-3.2191
X5.4275Y-3.4989
X5.4275Y-3.5225
X5.4388Y-3.2199
X5.4694Y-3.3665
X5.4728Y-3.2144
X5.4833Y-3.483
X5.5023Y-3.4142
X5.5259Y-2.8315
X5.5259Y-2.9083
X5.5261Y-3.0253
X5.5309Y-3.1544
X5.5377Y-2.7626
X5.5417Y-3.8119
X5.5417Y-3.8709
X5.5417Y-3.9331
X5.5555Y-3.0284
X5.585Y-3.0934
X5.585Y-3.5067
X5.6066Y-3.6445
X5.6086Y-2.7489
X5.6086Y-2.8315
X5.6086Y-2.9064
X5.6253Y-3.1652
X5.6303Y-3.8119
X5.6303Y-3.8709
X5.6303Y-3.9331
X5.648Y-3.0934
X5.65Y-3.4064
X5.6633Y-3.6249
X5.6854Y-2.7469
X5.6854Y-2.8296
X5.6876Y-2.9064
X5.6992Y-3.8119
X5.6992Y-3.8709
X5.6992Y-3.9331
X5.7021Y-3.6249
X5.7251Y-3.6428
X5.7673Y-3.9331
X5.7681Y-2.9064
X5.7681Y-3.8119
X5.7681Y-3.8709
X5.77Y-2.7508
X5.772Y-2.8335
X5.7795Y-3.4942
X5.7799Y-3.2863
X5.8074Y-3.2863
X5.8074Y-3.4969
X5.835Y-2.9949
X5.8448Y-2.9634
X5.8468Y-2.7272
X5.9291Y-3.0512
X5.9449Y-2.7047
X5.9531Y-2.6682
T2
X5.1303Y-3.7784
X5.1579Y-3.7116
X5.1579Y-3.8452
X5.2248Y-3.6839
X5.2248Y-3.8729
X5.2916Y-3.7116
X5.2916Y-3.8452
X5.3192Y-3.7784
X5.9885Y-3.7804
X6.0162Y-3.7136
X6.0162Y-3.8472
X6.083Y-3.6859
X6.083Y-3.8749
X6.1498Y-3.7136
X6.1498Y-3.8472
X6.1775Y-3.7804
T3
X4.4629Y-3.2154
X4.522Y-3.3926
X4.5417Y-3.0284
X4.7189Y-2.9497
X4.7189Y-3.4831
X4.9059Y-3.0284
X4.9059Y-3.3926
X4.9748Y-3.2154
X6.333Y-3.2154
X6.3921Y-3.3926
X6.4118Y-3.0284
X6.5889Y-2.9497
X6.5889Y-3.4831
X6.7759Y-3.0284
X6.7759Y-3.3926
X6.8448Y-3.2154
T4
X5.2248Y-3.7784
X6.083Y-3.7804
T5
G00X4.7189Y-3.2351
M15
G01X4.7189Y-3.1957
M16
G05
G00X6.5889Y-3.2351
M15
G01X6.5889Y-3.1957
M16
G05
M30
