%TF.GenerationSoftware,KiCad,Pcbnew,9.0.1*%
%TF.CreationDate,2025-08-31T12:24:42+10:00*%
%TF.ProjectId,smart_shunt_v0.0.1,736d6172-745f-4736-9875-6e745f76302e,v0.0.2*%
%TF.SameCoordinates,Original*%
%TF.FileFunction,Copper,L2,Bot*%
%TF.FilePolarity,Positive*%
%FSLAX46Y46*%
G04 Gerber Fmt 4.6, Leading zero omitted, Abs format (unit mm)*
G04 Created by KiCad (PCBNEW 9.0.1) date 2025-08-31 12:24:42*
%MOMM*%
%LPD*%
G01*
G04 APERTURE LIST*
%TA.AperFunction,ComponentPad*%
%ADD10C,2.000000*%
%TD*%
%TA.AperFunction,ComponentPad*%
%ADD11O,17.000000X17.500000*%
%TD*%
%TA.AperFunction,ComponentPad*%
%ADD12C,0.800000*%
%TD*%
%TA.AperFunction,ComponentPad*%
%ADD13C,6.400000*%
%TD*%
%TA.AperFunction,ViaPad*%
%ADD14C,0.500000*%
%TD*%
%TA.AperFunction,ViaPad*%
%ADD15C,0.600000*%
%TD*%
%TA.AperFunction,ViaPad*%
%ADD16C,1.000000*%
%TD*%
%TA.AperFunction,Conductor*%
%ADD17C,0.200000*%
%TD*%
%TA.AperFunction,Conductor*%
%ADD18C,0.250000*%
%TD*%
%TA.AperFunction,Conductor*%
%ADD19C,0.300000*%
%TD*%
G04 APERTURE END LIST*
D10*
%TO.P,J1,1,Pin_1*%
%TO.N,SHUNT+*%
X173858810Y-81671308D03*
X172108810Y-86171308D03*
X172108810Y-76921308D03*
X167358810Y-88471308D03*
D11*
X167358810Y-81671308D03*
D10*
X167358810Y-74921308D03*
X162858810Y-76921308D03*
X162358811Y-86171308D03*
X160858810Y-81671308D03*
%TD*%
D12*
%TO.P,J5,1,Pin_1*%
%TO.N,GND*%
X156908811Y-96021309D03*
X156205867Y-97718365D03*
X156205867Y-94324253D03*
X154508811Y-98421309D03*
D13*
X154508811Y-96021309D03*
D12*
X154508811Y-93621309D03*
X152811755Y-97718365D03*
X152811755Y-94324253D03*
X152108811Y-96021309D03*
%TD*%
D10*
%TO.P,J2,1,Pin_1*%
%TO.N,SHUNT-*%
X126358811Y-81671308D03*
X124608811Y-86171308D03*
X124608811Y-76921308D03*
X119858811Y-88471308D03*
D11*
X119858811Y-81671308D03*
D10*
X119858811Y-74921308D03*
X115358811Y-76921308D03*
X114858812Y-86171308D03*
X113358811Y-81671308D03*
%TD*%
D12*
%TO.P,J3,1,Pin_1*%
%TO.N,Net-(J3-Pin_1)*%
X135108810Y-95971308D03*
X134405866Y-97668364D03*
X134405866Y-94274252D03*
X132708810Y-98371308D03*
D13*
X132708810Y-95971308D03*
D12*
X132708810Y-93571308D03*
X131011754Y-97668364D03*
X131011754Y-94274252D03*
X130308810Y-95971308D03*
%TD*%
D10*
%TO.P,J6,1,Pin_1*%
%TO.N,Net-(J6-Pin_1)*%
X194500000Y-79400000D03*
X196250000Y-74900000D03*
X196250000Y-84150000D03*
X201000000Y-72600000D03*
D11*
X201000000Y-79400000D03*
D10*
X201000000Y-86150000D03*
X205500000Y-84150000D03*
X206000000Y-74900000D03*
X207500000Y-79400000D03*
%TD*%
D14*
%TO.N,USBD-*%
X144833811Y-92071309D03*
X146808807Y-83471308D03*
X146798926Y-88753375D03*
X148208810Y-76071308D03*
%TO.N,USBD+*%
X147508811Y-83471309D03*
X145418597Y-92527993D03*
X148458811Y-75271309D03*
X147508811Y-88821308D03*
%TO.N,LED*%
X143508810Y-86521309D03*
X143458811Y-78571308D03*
%TO.N,Net-(U1-EN{slash}CHIP_PU)*%
X136958811Y-74621308D03*
X134908811Y-71671307D03*
%TO.N,Net-(U1-GPIO9)*%
X148508809Y-69271309D03*
X151208811Y-67771297D03*
D15*
%TO.N,ALERT*%
X135719458Y-88471308D03*
X140363077Y-76841408D03*
D14*
%TO.N,SCL*%
X139758811Y-86721308D03*
X141858810Y-78571308D03*
%TO.N,SDA*%
X139274664Y-88468636D03*
X141108811Y-76921306D03*
%TO.N,GND*%
X146558811Y-69871308D03*
X130000000Y-90600000D03*
X146508811Y-73821309D03*
X173599000Y-99501579D03*
X142458810Y-71921309D03*
X150600000Y-77500000D03*
X144408811Y-71871308D03*
D15*
X137353023Y-81765519D03*
X143008811Y-99901309D03*
D14*
X134508811Y-67771308D03*
D15*
X146508811Y-96821309D03*
D14*
X133908811Y-87771309D03*
D15*
X143847013Y-92071993D03*
X136058811Y-81671307D03*
X138144631Y-81785487D03*
D14*
X140358811Y-73871308D03*
D15*
X144758811Y-96821309D03*
X142883811Y-80396309D03*
D14*
X142458810Y-73821309D03*
X146608811Y-71971309D03*
X136631651Y-85375036D03*
X137858811Y-89471309D03*
X122708811Y-69471309D03*
X140658811Y-70171308D03*
X151000000Y-68700000D03*
X144464473Y-73821308D03*
X133058811Y-86571309D03*
D15*
X144758811Y-99901309D03*
X143008811Y-98321309D03*
X146488811Y-99901308D03*
D14*
X144408811Y-69771309D03*
X140358811Y-71921309D03*
D15*
X140758811Y-98321309D03*
D14*
X137858811Y-88871309D03*
D15*
X146508811Y-98321309D03*
X144758811Y-98321309D03*
X140758811Y-96821309D03*
X140758811Y-99901309D03*
X139008810Y-81646309D03*
D14*
X142458810Y-69821308D03*
D15*
X143008811Y-96821309D03*
D14*
%TO.N,Net-(D1-A)*%
X141858811Y-89071309D03*
X142408811Y-92571309D03*
D15*
%TO.N,Net-(U5-VFB)*%
X138922782Y-85510280D03*
X140483811Y-80121307D03*
D14*
%TO.N,SHUNT+*%
X173600000Y-73600000D03*
X165600000Y-93600000D03*
X173600000Y-68600000D03*
X157600000Y-78600000D03*
X163600000Y-90600000D03*
X174600000Y-71600000D03*
X169700000Y-72600000D03*
X176600000Y-74600000D03*
X175600000Y-88600000D03*
X164600000Y-91600000D03*
X172600000Y-70600000D03*
X166600000Y-98100000D03*
X167600000Y-98100000D03*
X163600000Y-71600000D03*
X163600000Y-91600000D03*
X165600000Y-72600000D03*
X159600000Y-69600000D03*
X165600000Y-95600000D03*
X161600000Y-90600000D03*
X168600000Y-93600000D03*
X176600000Y-90600000D03*
X173600000Y-93600000D03*
X158600000Y-77600000D03*
X161600000Y-71600000D03*
X158600000Y-86600000D03*
X175600000Y-91600000D03*
X162600000Y-92600000D03*
X164600000Y-71600000D03*
X179850000Y-96600000D03*
X168600000Y-91600000D03*
X156600000Y-85600000D03*
X173600000Y-74600000D03*
X175600000Y-74600000D03*
X168600000Y-90600000D03*
X158600000Y-75600000D03*
X176600000Y-73600000D03*
X160600000Y-70600000D03*
X164600000Y-72600000D03*
X175600000Y-90600000D03*
X157600000Y-86600000D03*
X161600000Y-74600000D03*
X170600000Y-93600000D03*
X161600000Y-89600000D03*
X176600000Y-81600000D03*
X167600000Y-92600000D03*
X169600000Y-70600000D03*
X170600000Y-92600000D03*
X176600000Y-68600000D03*
X171600000Y-89600000D03*
X158600000Y-70600000D03*
X176600000Y-88600000D03*
X159600000Y-73600000D03*
X175600000Y-85600000D03*
X176600000Y-71600000D03*
X166600000Y-92600000D03*
X175600000Y-86600000D03*
X165600000Y-90600000D03*
X164600000Y-70600000D03*
X173600000Y-90600000D03*
X167700000Y-71600000D03*
X174600000Y-90600000D03*
X157600000Y-81600000D03*
X172600000Y-73600000D03*
X159600000Y-74600000D03*
X176600000Y-85600000D03*
X156600000Y-82600000D03*
X156600000Y-84600000D03*
X168600000Y-92600000D03*
X175600000Y-76600000D03*
X165600000Y-70600000D03*
X172600000Y-89600000D03*
X166600000Y-71600000D03*
X168700000Y-71600000D03*
X160600000Y-90600000D03*
X174600000Y-69600000D03*
X178600000Y-93600000D03*
X174600000Y-70600000D03*
X163600000Y-72600000D03*
X158600000Y-74600000D03*
X160600000Y-69600000D03*
X161600000Y-91600000D03*
X165600000Y-91600000D03*
X158600000Y-73600000D03*
X166600000Y-93600000D03*
X158600000Y-84600000D03*
X159600000Y-86600000D03*
X160600000Y-73600000D03*
X167600000Y-93600000D03*
X160600000Y-91600000D03*
X165600000Y-94600000D03*
X162600000Y-71600000D03*
X175600000Y-89600000D03*
X176600000Y-69600000D03*
X163600000Y-70600000D03*
X178600000Y-91600000D03*
X177600000Y-93600000D03*
X158600000Y-78600000D03*
X176600000Y-75600000D03*
X165600000Y-98100000D03*
X176600000Y-83600000D03*
X175600000Y-72600000D03*
X175600000Y-70600000D03*
X159600000Y-72600000D03*
X175600000Y-93600000D03*
X171600000Y-98100000D03*
X174600000Y-91600000D03*
X173600000Y-72600000D03*
X177600000Y-90600000D03*
X157600000Y-82600000D03*
X176600000Y-70600000D03*
X162600000Y-90600000D03*
X175600000Y-92600000D03*
X176600000Y-82600000D03*
X160600000Y-92600000D03*
X158600000Y-81600000D03*
X176600000Y-93600000D03*
X178600000Y-92600000D03*
X159600000Y-70600000D03*
X160600000Y-89600000D03*
X176600000Y-87600000D03*
X173600000Y-69600000D03*
X177600000Y-91600000D03*
X179100000Y-97350000D03*
X172600000Y-69600000D03*
X159600000Y-71600000D03*
X174600000Y-93600000D03*
X171600000Y-71600000D03*
X174600000Y-87600000D03*
X161600000Y-73600000D03*
X167700000Y-72600000D03*
X174600000Y-68600000D03*
X161600000Y-70600000D03*
X174600000Y-75600000D03*
X172600000Y-93600000D03*
X168700000Y-72600000D03*
X176600000Y-76600000D03*
X176600000Y-91600000D03*
X157600000Y-85600000D03*
X165600000Y-96600000D03*
X158600000Y-82600000D03*
X174600000Y-88600000D03*
X159600000Y-76600000D03*
X176600000Y-79600000D03*
X172600000Y-71600000D03*
X157600000Y-84600000D03*
X158600000Y-69600000D03*
X170600000Y-90600000D03*
X169600000Y-98100000D03*
X176600000Y-80600000D03*
X169600000Y-93600000D03*
X167600000Y-90600000D03*
X171600000Y-72600000D03*
X156600000Y-83600000D03*
X157600000Y-79600000D03*
X159600000Y-75600000D03*
X175600000Y-77600000D03*
X158600000Y-76600000D03*
X175600000Y-87600000D03*
X163600000Y-69600000D03*
X167600000Y-91600000D03*
X156600000Y-81600000D03*
X166600000Y-91600000D03*
X158600000Y-83600000D03*
X162600000Y-69600000D03*
X176600000Y-78600000D03*
X169700000Y-71600000D03*
X173600000Y-89600000D03*
X158600000Y-85600000D03*
X168599999Y-98100000D03*
X175600000Y-73600000D03*
X173600000Y-88600000D03*
X173600000Y-70600000D03*
X171600000Y-90600000D03*
X170700000Y-72600000D03*
X175600000Y-68600000D03*
X169600000Y-92600000D03*
X174600000Y-89600000D03*
X171600000Y-91600000D03*
X172600000Y-92600000D03*
X158600000Y-79600000D03*
X174600000Y-74600000D03*
X162600000Y-70600000D03*
X176600000Y-86600000D03*
X169600000Y-90600000D03*
X156600000Y-79600000D03*
X176600000Y-84600000D03*
X169600000Y-91600000D03*
X176600000Y-92600000D03*
X170700000Y-71600000D03*
X156600000Y-80600000D03*
X172600000Y-68600000D03*
X164600000Y-92600000D03*
X170600000Y-98100000D03*
X173600000Y-91600000D03*
X166600000Y-90600000D03*
X157600000Y-80600000D03*
X161600000Y-69600000D03*
X173600000Y-71600000D03*
X160600000Y-71600000D03*
X164600000Y-90600000D03*
X165600000Y-71600000D03*
X173600000Y-92600000D03*
X171600000Y-93600000D03*
X162600000Y-72600000D03*
X161600000Y-92600000D03*
X158600000Y-80600000D03*
X172600000Y-90600000D03*
X174600000Y-92600000D03*
X171600000Y-70600000D03*
X158600000Y-71600000D03*
X160600000Y-74600000D03*
X176600000Y-89600000D03*
X176600000Y-77600000D03*
X157600000Y-83600000D03*
X162600000Y-91600000D03*
X162600000Y-73600000D03*
X171600000Y-92600000D03*
X175600000Y-69600000D03*
X170600000Y-91600000D03*
X165600000Y-92600000D03*
X177600000Y-92600000D03*
X163600000Y-92600000D03*
X158600000Y-72600000D03*
X178600000Y-90600000D03*
X176600000Y-72600000D03*
X160600000Y-72600000D03*
X161600000Y-72600000D03*
X175600000Y-75600000D03*
X175600000Y-71600000D03*
X172600000Y-72600000D03*
X160600000Y-75600000D03*
X174600000Y-72600000D03*
X161600000Y-88600000D03*
X172600000Y-91600000D03*
X166600000Y-72600000D03*
X174600000Y-73600000D03*
%TO.N,Net-(J6-Pin_1)*%
X195600000Y-71600000D03*
D16*
X189100000Y-76100000D03*
D14*
X205600000Y-68600000D03*
X193600000Y-71600000D03*
X194600000Y-88600000D03*
D16*
X185100000Y-81600000D03*
D14*
X206600000Y-86600000D03*
D16*
X185100000Y-72100000D03*
D14*
X208600000Y-71600000D03*
D16*
X187100000Y-74100000D03*
D14*
X197600000Y-70600000D03*
X207600000Y-85600000D03*
X193600000Y-69600000D03*
X196600000Y-89600000D03*
D16*
X185100000Y-85600000D03*
D14*
X204600000Y-88600000D03*
X196600000Y-68600000D03*
X193600000Y-68600000D03*
X199600000Y-88600000D03*
X196600000Y-87600000D03*
X206600000Y-87600000D03*
X204600000Y-70600000D03*
X194600000Y-69600000D03*
D16*
X189100000Y-81600000D03*
D14*
X208600000Y-68600000D03*
X193600000Y-70600000D03*
X208600000Y-89600000D03*
X192600000Y-74600000D03*
D16*
X187100000Y-87600000D03*
D14*
X207600000Y-89600000D03*
X206600000Y-89600000D03*
D16*
X189100000Y-70100000D03*
D14*
X180000000Y-95100000D03*
X203600000Y-89600000D03*
X197600000Y-89600000D03*
X193600000Y-85600000D03*
X200600000Y-88600000D03*
D16*
X189100000Y-74100000D03*
X187100000Y-70100000D03*
D14*
X192600000Y-72600000D03*
D16*
X185100000Y-83600000D03*
D14*
X192600000Y-70600000D03*
X196600000Y-88600000D03*
X206600000Y-70600000D03*
D16*
X185100000Y-87600000D03*
D14*
X193600000Y-86600000D03*
X194600000Y-89600000D03*
D16*
X187100000Y-83600000D03*
D14*
X194600000Y-71600000D03*
D16*
X187100000Y-81600000D03*
D14*
X208600000Y-85600000D03*
X192600000Y-87600000D03*
X202600000Y-88600000D03*
X207600000Y-69600000D03*
D16*
X189100000Y-85600000D03*
D14*
X201600000Y-88600000D03*
X208600000Y-73600000D03*
X195600000Y-88600000D03*
D16*
X187100000Y-85600000D03*
D14*
X178350000Y-95100000D03*
X206600000Y-68600000D03*
X193600000Y-73600000D03*
X200600000Y-89600000D03*
X192600000Y-75600000D03*
X192600000Y-69600000D03*
D16*
X187100000Y-76100000D03*
D14*
X197600000Y-88600000D03*
X203600000Y-70600000D03*
X193600000Y-89600000D03*
X192600000Y-73600000D03*
X207600000Y-71600000D03*
X207600000Y-87600000D03*
X208600000Y-69600000D03*
X198600000Y-89600000D03*
X194600000Y-68600000D03*
X192600000Y-84600000D03*
X192600000Y-86600000D03*
X193600000Y-87600000D03*
X205600000Y-87600000D03*
X193600000Y-72600000D03*
X195600000Y-68600000D03*
X195600000Y-70600000D03*
X192600000Y-68600000D03*
D16*
X189100000Y-83600000D03*
D14*
X192600000Y-83600000D03*
D16*
X189100000Y-72100000D03*
X185100000Y-74100000D03*
D14*
X208600000Y-88600000D03*
X192600000Y-88600000D03*
X205600000Y-88600000D03*
X201600000Y-89600000D03*
X206600000Y-69600000D03*
X206600000Y-88600000D03*
X208600000Y-87600000D03*
X208600000Y-86600000D03*
D16*
X189100000Y-87600000D03*
D14*
X192600000Y-85600000D03*
X203600000Y-88600000D03*
X207600000Y-86600000D03*
X207600000Y-72600000D03*
X195600000Y-89600000D03*
X208600000Y-84600000D03*
X206600000Y-71600000D03*
X198600000Y-88600000D03*
X195600000Y-87600000D03*
X196600000Y-70600000D03*
X194600000Y-86600000D03*
X196600000Y-69600000D03*
X192600000Y-89600000D03*
X204600000Y-89600000D03*
X207600000Y-70600000D03*
X194600000Y-87600000D03*
X202600000Y-89600000D03*
D16*
X187100000Y-72100000D03*
D14*
X208600000Y-72600000D03*
X208600000Y-70600000D03*
X205600000Y-70600000D03*
X207600000Y-68600000D03*
X195600000Y-69600000D03*
X205600000Y-69600000D03*
X205600000Y-89600000D03*
X199600000Y-89600000D03*
X192600000Y-71600000D03*
D16*
X185100000Y-76100000D03*
D14*
X193600000Y-88600000D03*
D16*
X185100000Y-70100000D03*
D14*
X194600000Y-70600000D03*
X207600000Y-88600000D03*
%TO.N,LD_DISC*%
X158850000Y-88350000D03*
X159600000Y-90100000D03*
%TO.N,Net-(U1-GPIO3{slash}ADC1_CH3)*%
X138384224Y-75724592D03*
X131650000Y-91100000D03*
X134250000Y-78550000D03*
X130583810Y-86900000D03*
%TD*%
D17*
%TO.N,USBD-*%
X146783811Y-88768490D02*
X146798926Y-88753375D01*
X146808807Y-83471308D02*
X146808807Y-83071311D01*
X146808807Y-83071311D02*
X148008810Y-81871309D01*
X146783811Y-89896309D02*
X146783811Y-88768490D01*
X144833811Y-91846309D02*
X146783811Y-89896309D01*
X148008810Y-81871309D02*
X148008810Y-76271309D01*
X144833811Y-92071309D02*
X144833811Y-91846309D01*
X148008810Y-76271309D02*
X148208810Y-76071308D01*
%TO.N,USBD+*%
X148458811Y-75271309D02*
X148808811Y-75621309D01*
X145418597Y-92527993D02*
X145418597Y-92150731D01*
X148808811Y-82171309D02*
X147508811Y-83471309D01*
X148808811Y-75621309D02*
X148808811Y-82171309D01*
X147508811Y-90060517D02*
X147508811Y-88821308D01*
X145418597Y-92150731D02*
X147508811Y-90060517D01*
D18*
%TO.N,LED*%
X143508811Y-78621309D02*
X143508810Y-86521309D01*
X143458811Y-78571308D02*
X143508811Y-78621309D01*
%TO.N,Net-(U1-EN{slash}CHIP_PU)*%
X136958811Y-74049236D02*
X134908811Y-71999236D01*
X136958811Y-74621308D02*
X136958811Y-74049236D01*
X134908811Y-71999236D02*
X134908811Y-71671307D01*
%TO.N,Net-(U1-GPIO9)*%
X150008820Y-67771296D02*
X148508809Y-69271309D01*
X151208811Y-67771297D02*
X150008820Y-67771296D01*
D17*
%TO.N,ALERT*%
X135870457Y-88320308D02*
X135719458Y-88471308D01*
X139882811Y-77321675D02*
X139882810Y-83420308D01*
X140363077Y-76841408D02*
X139882811Y-77321675D01*
X139882810Y-83420308D02*
X139908811Y-83446309D01*
X138008811Y-85346309D02*
X138008811Y-88320308D01*
X139908811Y-83446309D02*
X138008811Y-85346309D01*
X138008811Y-88320308D02*
X135870457Y-88320308D01*
D18*
%TO.N,SCL*%
X141908811Y-84621309D02*
X139808811Y-86721309D01*
X141908811Y-78621309D02*
X141908811Y-84621309D01*
X141858810Y-78571308D02*
X141908811Y-78621309D01*
X139808811Y-86721309D02*
X139758811Y-86721308D01*
%TO.N,SDA*%
X140558811Y-84771309D02*
X140545637Y-84771308D01*
X138808811Y-88002784D02*
X139274664Y-88468636D01*
X140545637Y-84771308D02*
X138808811Y-86508136D01*
X141108811Y-76921306D02*
X141108811Y-84221309D01*
X138808811Y-86508136D02*
X138808811Y-88002784D01*
X141108811Y-84221309D02*
X140558811Y-84771309D01*
%TO.N,GND*%
X122908811Y-67771309D02*
X122708811Y-67971309D01*
X122708811Y-67971309D02*
X122708811Y-69471309D01*
X134508811Y-67771308D02*
X122908811Y-67771309D01*
%TO.N,Net-(D1-A)*%
X142408811Y-90371307D02*
X141858811Y-89821309D01*
X142408811Y-92571309D02*
X142408811Y-90371307D01*
X141858811Y-89821309D02*
X141858811Y-89071309D01*
D19*
%TO.N,Net-(U5-VFB)*%
X140558811Y-83874251D02*
X138922782Y-85510280D01*
X140558810Y-81171308D02*
X140558811Y-83874251D01*
X140483811Y-80121307D02*
X140483810Y-81096308D01*
X140483810Y-81096308D02*
X140558810Y-81171308D01*
%TO.N,Net-(J6-Pin_1)*%
X178350000Y-95100000D02*
X180000000Y-95100000D01*
D17*
%TO.N,LD_DISC*%
X158850000Y-89350000D02*
X158850000Y-88350000D01*
X159600000Y-90100000D02*
X158850000Y-89350000D01*
%TO.N,Net-(U1-GPIO3{slash}ADC1_CH3)*%
X138384224Y-75724592D02*
X137075408Y-75724592D01*
X130583810Y-86900000D02*
X130583810Y-90033810D01*
X130583810Y-90033810D02*
X131650000Y-91100000D01*
X137075408Y-75724592D02*
X134250000Y-78550000D01*
%TD*%
%TA.AperFunction,Conductor*%
%TO.N,Net-(J6-Pin_1)*%
G36*
X208534107Y-67521808D02*
G01*
X208534108Y-67521809D01*
X208594591Y-67521809D01*
X208605395Y-67522281D01*
X208788799Y-67538326D01*
X208810083Y-67542078D01*
X208982677Y-67588325D01*
X209002981Y-67595716D01*
X209096358Y-67639259D01*
X209164913Y-67671227D01*
X209183632Y-67682034D01*
X209329998Y-67784521D01*
X209346555Y-67798415D01*
X209472891Y-67924751D01*
X209486785Y-67941309D01*
X209589269Y-68087673D01*
X209600076Y-68106392D01*
X209675584Y-68268321D01*
X209682977Y-68288632D01*
X209729221Y-68461221D01*
X209732974Y-68482507D01*
X209749018Y-68665898D01*
X209749490Y-68676705D01*
X209749500Y-89094108D01*
X209749500Y-89154586D01*
X209749028Y-89165394D01*
X209732981Y-89348801D01*
X209729228Y-89370086D01*
X209682984Y-89542672D01*
X209675591Y-89562984D01*
X209600080Y-89724918D01*
X209589273Y-89743636D01*
X209486792Y-89889995D01*
X209472898Y-89906553D01*
X209346555Y-90032896D01*
X209329997Y-90046790D01*
X209183633Y-90149274D01*
X209164915Y-90160081D01*
X209002985Y-90235591D01*
X208982674Y-90242984D01*
X208810085Y-90289229D01*
X208788797Y-90292982D01*
X208605422Y-90309024D01*
X208594568Y-90309496D01*
X182774244Y-90299531D01*
X182774124Y-90299531D01*
X182765966Y-90299519D01*
X182765892Y-90299500D01*
X182751204Y-90299500D01*
X182751170Y-90299490D01*
X182700000Y-90299490D01*
X182667420Y-90299490D01*
X182667162Y-90299489D01*
X182628557Y-90299475D01*
X182628556Y-90299475D01*
X182620604Y-90299472D01*
X182620331Y-90299490D01*
X182569915Y-90299490D01*
X182443953Y-90314784D01*
X182338945Y-90327534D01*
X182270023Y-90316075D01*
X182218237Y-90269171D01*
X182200000Y-90204439D01*
X182200000Y-67645805D01*
X182219685Y-67578766D01*
X182272489Y-67533011D01*
X182323998Y-67521805D01*
X208534107Y-67521808D01*
G37*
%TD.AperFunction*%
%TD*%
%TA.AperFunction,Conductor*%
%TO.N,SHUNT+*%
G36*
X166594973Y-67521803D02*
G01*
X166662009Y-67541488D01*
X166707764Y-67594292D01*
X166717708Y-67663450D01*
X166709531Y-67693255D01*
X166683309Y-67756563D01*
X166683308Y-67756566D01*
X166683308Y-67756567D01*
X166683307Y-67756568D01*
X166658310Y-67882235D01*
X166658310Y-67882238D01*
X166658310Y-68010376D01*
X166658310Y-68010378D01*
X166658309Y-68010378D01*
X166683307Y-68136045D01*
X166683309Y-68136051D01*
X166732343Y-68254431D01*
X166732348Y-68254440D01*
X166803533Y-68360975D01*
X166803536Y-68360979D01*
X166894137Y-68451580D01*
X166894141Y-68451583D01*
X167000676Y-68522768D01*
X167000682Y-68522771D01*
X167000683Y-68522772D01*
X167119066Y-68571808D01*
X167119070Y-68571808D01*
X167119071Y-68571809D01*
X167244738Y-68596807D01*
X167244741Y-68596807D01*
X167372881Y-68596807D01*
X167457425Y-68579989D01*
X167498554Y-68571808D01*
X167616937Y-68522772D01*
X167723479Y-68451583D01*
X167814086Y-68360976D01*
X167885275Y-68254434D01*
X167934311Y-68136051D01*
X167959310Y-68010376D01*
X167959310Y-67882238D01*
X167959310Y-67882235D01*
X167934312Y-67756568D01*
X167934311Y-67756567D01*
X167934311Y-67756563D01*
X167908087Y-67693254D01*
X167900619Y-67623788D01*
X167931893Y-67561309D01*
X167991982Y-67525656D01*
X168022648Y-67521804D01*
X181384816Y-67521805D01*
X181451850Y-67541489D01*
X181497605Y-67594293D01*
X181508811Y-67645804D01*
X181508811Y-90594072D01*
X181489126Y-90661111D01*
X181455253Y-90696121D01*
X181371313Y-90754062D01*
X181176580Y-90926579D01*
X181004057Y-91121319D01*
X180856273Y-91335421D01*
X180856267Y-91335430D01*
X180735369Y-91565782D01*
X180643111Y-91809044D01*
X180580850Y-92061645D01*
X180549490Y-92319915D01*
X180549490Y-92450013D01*
X180549296Y-94332434D01*
X180529605Y-94399471D01*
X180476796Y-94445221D01*
X180407636Y-94455157D01*
X180361115Y-94437329D01*
X180360870Y-94437789D01*
X180357208Y-94435832D01*
X180356410Y-94435526D01*
X180355506Y-94434922D01*
X180355488Y-94434912D01*
X180218917Y-94378343D01*
X180218907Y-94378340D01*
X180073920Y-94349500D01*
X180073918Y-94349500D01*
X179926082Y-94349500D01*
X179926080Y-94349500D01*
X179781092Y-94378340D01*
X179781086Y-94378342D01*
X179638878Y-94437247D01*
X179638520Y-94436385D01*
X179586160Y-94449500D01*
X178763840Y-94449500D01*
X178711479Y-94436385D01*
X178711122Y-94437247D01*
X178705495Y-94434916D01*
X178568913Y-94378342D01*
X178568907Y-94378340D01*
X178423920Y-94349500D01*
X178423918Y-94349500D01*
X178276082Y-94349500D01*
X178276080Y-94349500D01*
X178131092Y-94378340D01*
X178131082Y-94378343D01*
X177994511Y-94434912D01*
X177994498Y-94434919D01*
X177871584Y-94517048D01*
X177871580Y-94517051D01*
X177767051Y-94621580D01*
X177767048Y-94621584D01*
X177684919Y-94744498D01*
X177684912Y-94744511D01*
X177628343Y-94881082D01*
X177628340Y-94881092D01*
X177599500Y-95026079D01*
X177599500Y-95026082D01*
X177599500Y-95173918D01*
X177599500Y-95173920D01*
X177599499Y-95173920D01*
X177628340Y-95318907D01*
X177628343Y-95318917D01*
X177684912Y-95455488D01*
X177684919Y-95455501D01*
X177767048Y-95578415D01*
X177767051Y-95578419D01*
X177871580Y-95682948D01*
X177871584Y-95682951D01*
X177994498Y-95765080D01*
X177994511Y-95765087D01*
X178131082Y-95821656D01*
X178131087Y-95821658D01*
X178131091Y-95821658D01*
X178131092Y-95821659D01*
X178276079Y-95850500D01*
X178276082Y-95850500D01*
X178423920Y-95850500D01*
X178521462Y-95831096D01*
X178568913Y-95821658D01*
X178705495Y-95765084D01*
X178705496Y-95765083D01*
X178711122Y-95762753D01*
X178711479Y-95763614D01*
X178763840Y-95750500D01*
X179586160Y-95750500D01*
X179638520Y-95763614D01*
X179638878Y-95762753D01*
X179644504Y-95765083D01*
X179644505Y-95765084D01*
X179781087Y-95821658D01*
X179781091Y-95821658D01*
X179781092Y-95821659D01*
X179926079Y-95850500D01*
X179926082Y-95850500D01*
X180073920Y-95850500D01*
X180171462Y-95831096D01*
X180218913Y-95821658D01*
X180355495Y-95765084D01*
X180356236Y-95764589D01*
X180356682Y-95764449D01*
X180360870Y-95762211D01*
X180361294Y-95763004D01*
X180422911Y-95743704D01*
X180490293Y-95762182D01*
X180536988Y-95814156D01*
X180549137Y-95867697D01*
X180548862Y-98547321D01*
X180529171Y-98614358D01*
X180476362Y-98660108D01*
X180424862Y-98671308D01*
X160232811Y-98671308D01*
X160165772Y-98651623D01*
X160120017Y-98598819D01*
X160108811Y-98547308D01*
X160108811Y-90703918D01*
X160128496Y-90636879D01*
X160145131Y-90616236D01*
X160182948Y-90578419D01*
X160182951Y-90578416D01*
X160265084Y-90455495D01*
X160321658Y-90318913D01*
X160350500Y-90173918D01*
X160350500Y-90026082D01*
X160350500Y-90026079D01*
X160321659Y-89881092D01*
X160321658Y-89881091D01*
X160321658Y-89881087D01*
X160300713Y-89830520D01*
X160265087Y-89744511D01*
X160265080Y-89744498D01*
X160182951Y-89621584D01*
X160182948Y-89621580D01*
X160145130Y-89583762D01*
X160111645Y-89522439D01*
X160108811Y-89496081D01*
X160108811Y-88086876D01*
X160108810Y-88086875D01*
X156365740Y-86256929D01*
X156314158Y-86209800D01*
X156296203Y-86146103D01*
X156262564Y-78880184D01*
X156281937Y-78813058D01*
X156334529Y-78767059D01*
X156370372Y-78756676D01*
X156546206Y-78733527D01*
X156829482Y-78657624D01*
X157100427Y-78545395D01*
X157354406Y-78398760D01*
X157587072Y-78220229D01*
X157794444Y-78012857D01*
X157972975Y-77780191D01*
X158119610Y-77526212D01*
X158231839Y-77255267D01*
X158307742Y-76971991D01*
X158346022Y-76681231D01*
X158346022Y-76534596D01*
X158346022Y-76468704D01*
X158346022Y-70959383D01*
X158346023Y-70959379D01*
X158346023Y-70761391D01*
X158346022Y-70761377D01*
X158337066Y-70693354D01*
X158307743Y-70470625D01*
X158231840Y-70187349D01*
X158119610Y-69916403D01*
X158072830Y-69835378D01*
X166658309Y-69835378D01*
X166683307Y-69961045D01*
X166683309Y-69961051D01*
X166732343Y-70079431D01*
X166732348Y-70079440D01*
X166803533Y-70185975D01*
X166803536Y-70185979D01*
X166894137Y-70276580D01*
X166894141Y-70276583D01*
X167000676Y-70347768D01*
X167000682Y-70347771D01*
X167000683Y-70347772D01*
X167119066Y-70396808D01*
X167119070Y-70396808D01*
X167119071Y-70396809D01*
X167244738Y-70421807D01*
X167244741Y-70421807D01*
X167372881Y-70421807D01*
X167457425Y-70404989D01*
X167498554Y-70396808D01*
X167616937Y-70347772D01*
X167723479Y-70276583D01*
X167814086Y-70185976D01*
X167885275Y-70079434D01*
X167934311Y-69961051D01*
X167959310Y-69835376D01*
X167959310Y-69707238D01*
X167959310Y-69707235D01*
X167934312Y-69581568D01*
X167934311Y-69581567D01*
X167934311Y-69581563D01*
X167885275Y-69463180D01*
X167885274Y-69463179D01*
X167885271Y-69463173D01*
X167814086Y-69356638D01*
X167814083Y-69356634D01*
X167723482Y-69266033D01*
X167723478Y-69266030D01*
X167616943Y-69194845D01*
X167616934Y-69194840D01*
X167498554Y-69145806D01*
X167498548Y-69145804D01*
X167372881Y-69120807D01*
X167372879Y-69120807D01*
X167244741Y-69120807D01*
X167244739Y-69120807D01*
X167119071Y-69145804D01*
X167119065Y-69145806D01*
X167000685Y-69194840D01*
X167000676Y-69194845D01*
X166894141Y-69266030D01*
X166894137Y-69266033D01*
X166803536Y-69356634D01*
X166803533Y-69356638D01*
X166732348Y-69463173D01*
X166732343Y-69463182D01*
X166683309Y-69581562D01*
X166683307Y-69581568D01*
X166658310Y-69707235D01*
X166658310Y-69707238D01*
X166658310Y-69835376D01*
X166658310Y-69835378D01*
X166658309Y-69835378D01*
X158072830Y-69835378D01*
X157998847Y-69707235D01*
X157972979Y-69662429D01*
X157972978Y-69662427D01*
X157794446Y-69429760D01*
X157794440Y-69429753D01*
X157587077Y-69222390D01*
X157587070Y-69222384D01*
X157354405Y-69043854D01*
X157100431Y-68897222D01*
X157100421Y-68897218D01*
X157021072Y-68864350D01*
X156829482Y-68784991D01*
X156829480Y-68784990D01*
X156829479Y-68784990D01*
X156745321Y-68762440D01*
X156546206Y-68709088D01*
X156322584Y-68679647D01*
X156258688Y-68651380D01*
X156220217Y-68593056D01*
X156214771Y-68557282D01*
X156210554Y-67646371D01*
X156229927Y-67579246D01*
X156282519Y-67533247D01*
X156334548Y-67521802D01*
X166594973Y-67521803D01*
G37*
%TD.AperFunction*%
%TD*%
%TA.AperFunction,Conductor*%
%TO.N,SHUNT-*%
G36*
X119262014Y-67541483D02*
G01*
X119307769Y-67594287D01*
X119317713Y-67663445D01*
X119309536Y-67693248D01*
X119296665Y-67724321D01*
X119283310Y-67756564D01*
X119283308Y-67756570D01*
X119258311Y-67882237D01*
X119258311Y-67882240D01*
X119258311Y-68010378D01*
X119258311Y-68010380D01*
X119258310Y-68010380D01*
X119283308Y-68136047D01*
X119283310Y-68136053D01*
X119332344Y-68254433D01*
X119332349Y-68254442D01*
X119403534Y-68360977D01*
X119403537Y-68360981D01*
X119494138Y-68451582D01*
X119494142Y-68451585D01*
X119600677Y-68522770D01*
X119600683Y-68522773D01*
X119600684Y-68522774D01*
X119719067Y-68571810D01*
X119719071Y-68571810D01*
X119719072Y-68571811D01*
X119844739Y-68596809D01*
X119844742Y-68596809D01*
X119972882Y-68596809D01*
X120057426Y-68579991D01*
X120098555Y-68571810D01*
X120216938Y-68522774D01*
X120323480Y-68451585D01*
X120414087Y-68360978D01*
X120485276Y-68254436D01*
X120534312Y-68136053D01*
X120543937Y-68087667D01*
X120559311Y-68010380D01*
X120559311Y-67882237D01*
X120534313Y-67756570D01*
X120534312Y-67756569D01*
X120534312Y-67756565D01*
X120508085Y-67693249D01*
X120500617Y-67623782D01*
X120531892Y-67561302D01*
X120591981Y-67525650D01*
X120622646Y-67521798D01*
X122032389Y-67521798D01*
X122063860Y-67531039D01*
X122095658Y-67539155D01*
X122097223Y-67540836D01*
X122099426Y-67541483D01*
X122120900Y-67566265D01*
X122143270Y-67590291D01*
X122143678Y-67592552D01*
X122145181Y-67594287D01*
X122149849Y-67626753D01*
X122155677Y-67659051D01*
X122154919Y-67662017D01*
X122155125Y-67663445D01*
X122146949Y-67693249D01*
X122145234Y-67697390D01*
X122121158Y-67755516D01*
X122115634Y-67768852D01*
X122107348Y-67788854D01*
X122107346Y-67788863D01*
X122098584Y-67832913D01*
X122098585Y-67832914D01*
X122088774Y-67882240D01*
X122088773Y-67882242D01*
X122083311Y-67909700D01*
X122083311Y-69018957D01*
X122063626Y-69085996D01*
X122062414Y-69087847D01*
X122043724Y-69115817D01*
X121987154Y-69252391D01*
X121987151Y-69252401D01*
X121958311Y-69397388D01*
X121958311Y-69397391D01*
X121958311Y-69545227D01*
X121958311Y-69545229D01*
X121958310Y-69545229D01*
X121987151Y-69690216D01*
X121987154Y-69690226D01*
X122043723Y-69826797D01*
X122043730Y-69826810D01*
X122125859Y-69949724D01*
X122125862Y-69949728D01*
X122230391Y-70054257D01*
X122230395Y-70054260D01*
X122353309Y-70136389D01*
X122353322Y-70136396D01*
X122476349Y-70187355D01*
X122489898Y-70192967D01*
X122489902Y-70192967D01*
X122489903Y-70192968D01*
X122634890Y-70221809D01*
X122634893Y-70221809D01*
X122782731Y-70221809D01*
X122880273Y-70202405D01*
X122927724Y-70192967D01*
X123064306Y-70136393D01*
X123187227Y-70054260D01*
X123291762Y-69949725D01*
X123373895Y-69826804D01*
X123430469Y-69690222D01*
X123459311Y-69545227D01*
X123459311Y-69397391D01*
X123459311Y-69397388D01*
X123430470Y-69252401D01*
X123430469Y-69252400D01*
X123430469Y-69252396D01*
X123418035Y-69222378D01*
X123373897Y-69115817D01*
X123355208Y-69087847D01*
X123334331Y-69021170D01*
X123334311Y-69018957D01*
X123334311Y-68520808D01*
X123353996Y-68453769D01*
X123406800Y-68408014D01*
X123458311Y-68396808D01*
X134056460Y-68396808D01*
X134123499Y-68416493D01*
X134125266Y-68417649D01*
X134153316Y-68436392D01*
X134289898Y-68492966D01*
X134289902Y-68492966D01*
X134289903Y-68492967D01*
X134434890Y-68521808D01*
X134434893Y-68521808D01*
X134582731Y-68521808D01*
X134680273Y-68502404D01*
X134727724Y-68492966D01*
X134864306Y-68436392D01*
X134987227Y-68354259D01*
X135084807Y-68256678D01*
X135146128Y-68223195D01*
X135215820Y-68228179D01*
X135271754Y-68270050D01*
X135296171Y-68335514D01*
X135296482Y-68345514D01*
X135273386Y-70828682D01*
X135253078Y-70895536D01*
X135199851Y-70940798D01*
X135130603Y-70950097D01*
X135125199Y-70949146D01*
X134982731Y-70920807D01*
X134982729Y-70920807D01*
X134834893Y-70920807D01*
X134834891Y-70920807D01*
X134689903Y-70949647D01*
X134689893Y-70949650D01*
X134553322Y-71006219D01*
X134553309Y-71006226D01*
X134430395Y-71088355D01*
X134430391Y-71088358D01*
X134325862Y-71192887D01*
X134325859Y-71192891D01*
X134243730Y-71315805D01*
X134243723Y-71315818D01*
X134187154Y-71452389D01*
X134187151Y-71452399D01*
X134158311Y-71597386D01*
X134158311Y-71597389D01*
X134158311Y-71745225D01*
X134158311Y-71745227D01*
X134158310Y-71745227D01*
X134187151Y-71890214D01*
X134187154Y-71890224D01*
X134243723Y-72026795D01*
X134243727Y-72026802D01*
X134276746Y-72076218D01*
X134295259Y-72120914D01*
X134307348Y-72181687D01*
X134334967Y-72248367D01*
X134354498Y-72295521D01*
X134354499Y-72295522D01*
X134372063Y-72321807D01*
X134422953Y-72397969D01*
X134510078Y-72485094D01*
X134510081Y-72485096D01*
X134518065Y-72493080D01*
X135214288Y-73189303D01*
X135247773Y-73250626D01*
X135250602Y-73278137D01*
X135218946Y-76681603D01*
X135198638Y-76748457D01*
X135182632Y-76768131D01*
X134171699Y-77779064D01*
X134110376Y-77812549D01*
X134108210Y-77813000D01*
X134031092Y-77828340D01*
X134031084Y-77828342D01*
X133894511Y-77884912D01*
X133894498Y-77884919D01*
X133771584Y-77967048D01*
X133771580Y-77967051D01*
X133667051Y-78071580D01*
X133667048Y-78071584D01*
X133584919Y-78194498D01*
X133584912Y-78194511D01*
X133528343Y-78331082D01*
X133528340Y-78331092D01*
X133499500Y-78476079D01*
X133499500Y-78617642D01*
X133479815Y-78684681D01*
X133434288Y-78726820D01*
X128708811Y-81271308D01*
X128708811Y-91162932D01*
X128689126Y-91229971D01*
X128636322Y-91275726D01*
X128567164Y-91285670D01*
X128503608Y-91256645D01*
X128492023Y-91245190D01*
X128322631Y-91054114D01*
X128127973Y-90881763D01*
X128127969Y-90881759D01*
X127913950Y-90734108D01*
X127683696Y-90613318D01*
X127683694Y-90613317D01*
X127440579Y-90521156D01*
X127188122Y-90458956D01*
X127188120Y-90458955D01*
X127188117Y-90458955D01*
X126930004Y-90427627D01*
X126930001Y-90427627D01*
X126800948Y-90427628D01*
X126800884Y-90427628D01*
X112165485Y-90420223D01*
X112154743Y-90419751D01*
X111977915Y-90404284D01*
X111956628Y-90400531D01*
X111784041Y-90354289D01*
X111763730Y-90346897D01*
X111601791Y-90271386D01*
X111583071Y-90260578D01*
X111436711Y-90158097D01*
X111420153Y-90144204D01*
X111293805Y-90017857D01*
X111279912Y-90001299D01*
X111177431Y-89854943D01*
X111166623Y-89836224D01*
X111120428Y-89737159D01*
X111108810Y-89684754D01*
X111108810Y-76483284D01*
X128871578Y-76483284D01*
X128871578Y-76681232D01*
X128909855Y-76971983D01*
X128909856Y-76971988D01*
X128909857Y-76971994D01*
X128985761Y-77255271D01*
X128985766Y-77255287D01*
X129097985Y-77526210D01*
X129097993Y-77526226D01*
X129244621Y-77780191D01*
X129244625Y-77780198D01*
X129244632Y-77780207D01*
X129423155Y-78012864D01*
X129423161Y-78012871D01*
X129630522Y-78220232D01*
X129630530Y-78220239D01*
X129863192Y-78398769D01*
X129863195Y-78398770D01*
X129863198Y-78398773D01*
X130117178Y-78545408D01*
X130291566Y-78617642D01*
X130388122Y-78657637D01*
X130388123Y-78657637D01*
X130388125Y-78657638D01*
X130671403Y-78733542D01*
X130962165Y-78771822D01*
X130962172Y-78771822D01*
X131255429Y-78771822D01*
X131255436Y-78771822D01*
X131546198Y-78733542D01*
X131829476Y-78657638D01*
X132100423Y-78545408D01*
X132354403Y-78398772D01*
X132587070Y-78220240D01*
X132794443Y-78012865D01*
X132972975Y-77780198D01*
X133119610Y-77526218D01*
X133231840Y-77255270D01*
X133307743Y-76971992D01*
X133346022Y-76681230D01*
X133346022Y-76534595D01*
X133346022Y-76468703D01*
X133346022Y-70842128D01*
X133346022Y-70834018D01*
X133346001Y-70833703D01*
X133346001Y-70828682D01*
X133346002Y-70761391D01*
X133307727Y-70470634D01*
X133307727Y-70470632D01*
X133307726Y-70470630D01*
X133231826Y-70187355D01*
X133231825Y-70187351D01*
X133119602Y-69916414D01*
X133119598Y-69916406D01*
X133119598Y-69916405D01*
X132972965Y-69662424D01*
X132972963Y-69662421D01*
X132972959Y-69662415D01*
X132794437Y-69429759D01*
X132794435Y-69429756D01*
X132587063Y-69222382D01*
X132551179Y-69194847D01*
X132354407Y-69043856D01*
X132354389Y-69043844D01*
X132100426Y-68897218D01*
X132100425Y-68897217D01*
X131829472Y-68784983D01*
X131546191Y-68709078D01*
X131255441Y-68670799D01*
X131255434Y-68670799D01*
X130962164Y-68670799D01*
X130962156Y-68670799D01*
X130671406Y-68709078D01*
X130388126Y-68784984D01*
X130117184Y-68897212D01*
X130117180Y-68897214D01*
X129863202Y-69043850D01*
X129863191Y-69043857D01*
X129630540Y-69222379D01*
X129630539Y-69222380D01*
X129423162Y-69429760D01*
X129244640Y-69662416D01*
X129244633Y-69662427D01*
X129098003Y-69916404D01*
X129097997Y-69916415D01*
X128985774Y-70187352D01*
X128985773Y-70187356D01*
X128909873Y-70470632D01*
X128909872Y-70470634D01*
X128871598Y-70761390D01*
X128871599Y-70842129D01*
X128871599Y-76483213D01*
X128871578Y-76483284D01*
X111108810Y-76483284D01*
X111108810Y-69835380D01*
X119258310Y-69835380D01*
X119283308Y-69961047D01*
X119283310Y-69961053D01*
X119332344Y-70079433D01*
X119332349Y-70079442D01*
X119403534Y-70185977D01*
X119403537Y-70185981D01*
X119494138Y-70276582D01*
X119494142Y-70276585D01*
X119600677Y-70347770D01*
X119600683Y-70347773D01*
X119600684Y-70347774D01*
X119719067Y-70396810D01*
X119719071Y-70396810D01*
X119719072Y-70396811D01*
X119844739Y-70421809D01*
X119844742Y-70421809D01*
X119972882Y-70421809D01*
X120057426Y-70404991D01*
X120098555Y-70396810D01*
X120216938Y-70347774D01*
X120323480Y-70276585D01*
X120414087Y-70185978D01*
X120485276Y-70079436D01*
X120534312Y-69961053D01*
X120543191Y-69916415D01*
X120559311Y-69835380D01*
X120559311Y-69707237D01*
X120534313Y-69581570D01*
X120534312Y-69581569D01*
X120534312Y-69581565D01*
X120485276Y-69463182D01*
X120485275Y-69463181D01*
X120485272Y-69463175D01*
X120414087Y-69356640D01*
X120414084Y-69356636D01*
X120323483Y-69266035D01*
X120323479Y-69266032D01*
X120216944Y-69194847D01*
X120216935Y-69194842D01*
X120098555Y-69145808D01*
X120098549Y-69145806D01*
X119972882Y-69120809D01*
X119972880Y-69120809D01*
X119844742Y-69120809D01*
X119844740Y-69120809D01*
X119719072Y-69145806D01*
X119719066Y-69145808D01*
X119600686Y-69194842D01*
X119600677Y-69194847D01*
X119494142Y-69266032D01*
X119494138Y-69266035D01*
X119403537Y-69356636D01*
X119403534Y-69356640D01*
X119332349Y-69463175D01*
X119332344Y-69463184D01*
X119283310Y-69581564D01*
X119283308Y-69581570D01*
X119258311Y-69707237D01*
X119258311Y-69707240D01*
X119258311Y-69835378D01*
X119258311Y-69835380D01*
X119258310Y-69835380D01*
X111108810Y-69835380D01*
X111108810Y-68257905D01*
X111111249Y-68246901D01*
X111110216Y-68239285D01*
X111120427Y-68205503D01*
X111166650Y-68106376D01*
X111177443Y-68087683D01*
X111279942Y-67941302D01*
X111293819Y-67924764D01*
X111420176Y-67798409D01*
X111436724Y-67784525D01*
X111583093Y-67682038D01*
X111601797Y-67671239D01*
X111763750Y-67595721D01*
X111784039Y-67588337D01*
X111956640Y-67542091D01*
X111977913Y-67538341D01*
X112161643Y-67522269D01*
X112172446Y-67521798D01*
X112232610Y-67521799D01*
X112232613Y-67521798D01*
X119194975Y-67521798D01*
X119262014Y-67541483D01*
G37*
%TD.AperFunction*%
%TD*%
%TA.AperFunction,Conductor*%
%TO.N,GND*%
G36*
X149417560Y-67521801D02*
G01*
X149475749Y-67540708D01*
X149511713Y-67590208D01*
X149511713Y-67651394D01*
X149487562Y-67690804D01*
X148484088Y-68694281D01*
X148439708Y-68719904D01*
X148296324Y-68758324D01*
X148296320Y-68758326D01*
X148170798Y-68830796D01*
X148068296Y-68933298D01*
X147995826Y-69058819D01*
X147958309Y-69198834D01*
X147958309Y-69343783D01*
X147995826Y-69483798D01*
X148068296Y-69609319D01*
X148068298Y-69609321D01*
X148068300Y-69609324D01*
X148170794Y-69711818D01*
X148170796Y-69711819D01*
X148170798Y-69711821D01*
X148296320Y-69784291D01*
X148296321Y-69784291D01*
X148296324Y-69784293D01*
X148436334Y-69821809D01*
X148436335Y-69821809D01*
X148581283Y-69821809D01*
X148581284Y-69821809D01*
X148721294Y-69784293D01*
X148721296Y-69784291D01*
X148721298Y-69784291D01*
X148846819Y-69711821D01*
X148846819Y-69711820D01*
X148846824Y-69711818D01*
X148949318Y-69609324D01*
X148987744Y-69542769D01*
X149021791Y-69483798D01*
X149021791Y-69483796D01*
X149021793Y-69483794D01*
X149059309Y-69343784D01*
X149059309Y-69343781D01*
X149060213Y-69340408D01*
X149085834Y-69296029D01*
X150156071Y-68225791D01*
X150210588Y-68198015D01*
X150226075Y-68196796D01*
X150818271Y-68196796D01*
X150867771Y-68210060D01*
X150996322Y-68284279D01*
X150996323Y-68284279D01*
X150996326Y-68284281D01*
X151136336Y-68321797D01*
X151136337Y-68321797D01*
X151281285Y-68321797D01*
X151281286Y-68321797D01*
X151421296Y-68284281D01*
X151443615Y-68271394D01*
X151503463Y-68258672D01*
X151559359Y-68283557D01*
X151589953Y-68336545D01*
X151592114Y-68357962D01*
X151451331Y-85111274D01*
X151451330Y-85111274D01*
X158002162Y-88211667D01*
X158046671Y-88253650D01*
X158058811Y-88301151D01*
X158058811Y-94600000D01*
X159504311Y-94600000D01*
X159562502Y-94618907D01*
X159598466Y-94668407D01*
X159603311Y-94699000D01*
X159603311Y-98547308D01*
X159614864Y-98654764D01*
X159614865Y-98654772D01*
X159626068Y-98706270D01*
X159660197Y-98808810D01*
X159660197Y-98808811D01*
X159660198Y-98808812D01*
X159737986Y-98929851D01*
X159783741Y-98982655D01*
X159783748Y-98982661D01*
X159783751Y-98982664D01*
X159892473Y-99076874D01*
X159892474Y-99076874D01*
X159892475Y-99076875D01*
X160023352Y-99136646D01*
X160090391Y-99156331D01*
X160090395Y-99156332D01*
X160127522Y-99161670D01*
X160232806Y-99176808D01*
X160232811Y-99176808D01*
X180424853Y-99176808D01*
X180424862Y-99176808D01*
X180439207Y-99175266D01*
X180499081Y-99187843D01*
X180540131Y-99233214D01*
X180548787Y-99273708D01*
X180548757Y-99567133D01*
X180548756Y-99572992D01*
X180548751Y-99573015D01*
X180548751Y-99634577D01*
X180548751Y-99634586D01*
X180548374Y-99643216D01*
X180532040Y-99829884D01*
X180529043Y-99846878D01*
X180481668Y-100023678D01*
X180475766Y-100039894D01*
X180398405Y-100205790D01*
X180389776Y-100220736D01*
X180284782Y-100370676D01*
X180273689Y-100383895D01*
X180144256Y-100513323D01*
X180131037Y-100524415D01*
X179981100Y-100629398D01*
X179966153Y-100638027D01*
X179800248Y-100715383D01*
X179784033Y-100721284D01*
X179607235Y-100768652D01*
X179590239Y-100771649D01*
X179403597Y-100787971D01*
X179394908Y-100788347D01*
X140331424Y-100763175D01*
X140329881Y-100763074D01*
X140258358Y-100763126D01*
X140258359Y-100763127D01*
X140257618Y-100763127D01*
X140193242Y-100763087D01*
X140192900Y-100763177D01*
X140186152Y-100763183D01*
X140186151Y-100763182D01*
X140186150Y-100763183D01*
X138415436Y-100764521D01*
X138357231Y-100745658D01*
X138321230Y-100696185D01*
X138316364Y-100664699D01*
X138358811Y-95571309D01*
X138261023Y-95310542D01*
X140193311Y-95310542D01*
X140193311Y-95462074D01*
X140222580Y-95571309D01*
X140232531Y-95608447D01*
X140308292Y-95739668D01*
X140308294Y-95739670D01*
X140308296Y-95739673D01*
X140415446Y-95846823D01*
X140415448Y-95846824D01*
X140415450Y-95846826D01*
X140546672Y-95922587D01*
X140546670Y-95922587D01*
X140546674Y-95922588D01*
X140546676Y-95922589D01*
X140693045Y-95961808D01*
X140693047Y-95961808D01*
X140844575Y-95961808D01*
X140844577Y-95961808D01*
X140990946Y-95922589D01*
X140990948Y-95922587D01*
X140990950Y-95922587D01*
X141122171Y-95846826D01*
X141122171Y-95846825D01*
X141122176Y-95846823D01*
X141229326Y-95739673D01*
X141305092Y-95608443D01*
X141344311Y-95462074D01*
X141344311Y-95310542D01*
X145973311Y-95310542D01*
X145973311Y-95462074D01*
X146002580Y-95571309D01*
X146012531Y-95608447D01*
X146088292Y-95739668D01*
X146088294Y-95739670D01*
X146088296Y-95739673D01*
X146195446Y-95846823D01*
X146195448Y-95846824D01*
X146195450Y-95846826D01*
X146326672Y-95922587D01*
X146326670Y-95922587D01*
X146326674Y-95922588D01*
X146326676Y-95922589D01*
X146473045Y-95961808D01*
X146473047Y-95961808D01*
X146624575Y-95961808D01*
X146624577Y-95961808D01*
X146770946Y-95922589D01*
X146770948Y-95922587D01*
X146770950Y-95922587D01*
X146902171Y-95846826D01*
X146902171Y-95846825D01*
X146902176Y-95846823D01*
X147009326Y-95739673D01*
X147085092Y-95608443D01*
X147124311Y-95462074D01*
X147124311Y-95310542D01*
X147085092Y-95164173D01*
X147085090Y-95164170D01*
X147085090Y-95164168D01*
X147009329Y-95032947D01*
X147009327Y-95032945D01*
X147009326Y-95032943D01*
X146902176Y-94925793D01*
X146902173Y-94925791D01*
X146902171Y-94925789D01*
X146770949Y-94850028D01*
X146770951Y-94850028D01*
X146714158Y-94834811D01*
X146624577Y-94810808D01*
X146473045Y-94810808D01*
X146383463Y-94834811D01*
X146326671Y-94850028D01*
X146195450Y-94925789D01*
X146088292Y-95032947D01*
X146012531Y-95164168D01*
X146012530Y-95164173D01*
X145973311Y-95310542D01*
X141344311Y-95310542D01*
X141305092Y-95164173D01*
X141305090Y-95164170D01*
X141305090Y-95164168D01*
X141229329Y-95032947D01*
X141229327Y-95032945D01*
X141229326Y-95032943D01*
X141122176Y-94925793D01*
X141122173Y-94925791D01*
X141122171Y-94925789D01*
X140990949Y-94850028D01*
X140990951Y-94850028D01*
X140934158Y-94834811D01*
X140844577Y-94810808D01*
X140693045Y-94810808D01*
X140603463Y-94834811D01*
X140546671Y-94850028D01*
X140415450Y-94925789D01*
X140308292Y-95032947D01*
X140232531Y-95164168D01*
X140232530Y-95164173D01*
X140193311Y-95310542D01*
X138261023Y-95310542D01*
X137758811Y-93971309D01*
X136808811Y-92621308D01*
X136693561Y-92511821D01*
X135808810Y-91671308D01*
X132096222Y-91671308D01*
X132038031Y-91652401D01*
X132002067Y-91602901D01*
X132002067Y-91541715D01*
X132026217Y-91502306D01*
X132090509Y-91438015D01*
X132129885Y-91369814D01*
X132162982Y-91312489D01*
X132162982Y-91312487D01*
X132162984Y-91312485D01*
X132200500Y-91172475D01*
X132200500Y-91027525D01*
X132162984Y-90887515D01*
X132162982Y-90887512D01*
X132162982Y-90887510D01*
X132090512Y-90761989D01*
X132090510Y-90761987D01*
X132090509Y-90761985D01*
X131988015Y-90659491D01*
X131988012Y-90659489D01*
X131988010Y-90659487D01*
X131862488Y-90587017D01*
X131862489Y-90587017D01*
X131807117Y-90572180D01*
X131722475Y-90549500D01*
X131722474Y-90549500D01*
X131706901Y-90549500D01*
X131648710Y-90530593D01*
X131636897Y-90520504D01*
X131013306Y-89896913D01*
X130985529Y-89842396D01*
X130984310Y-89826909D01*
X130984310Y-88392251D01*
X135118958Y-88392251D01*
X135118958Y-88550365D01*
X135159881Y-88703092D01*
X135238938Y-88840024D01*
X135350742Y-88951828D01*
X135487674Y-89030885D01*
X135640401Y-89071808D01*
X135640403Y-89071808D01*
X135798513Y-89071808D01*
X135798515Y-89071808D01*
X135951242Y-89030885D01*
X136088174Y-88951828D01*
X136199978Y-88840024D01*
X136220897Y-88803790D01*
X136240229Y-88770308D01*
X136285698Y-88729367D01*
X136325965Y-88720808D01*
X138061536Y-88720808D01*
X138061538Y-88720808D01*
X138163398Y-88693515D01*
X138254724Y-88640788D01*
X138329291Y-88566221D01*
X138382018Y-88474895D01*
X138400434Y-88406164D01*
X138406194Y-88397293D01*
X138407850Y-88386843D01*
X138422485Y-88372207D01*
X138433757Y-88354851D01*
X138443634Y-88351059D01*
X138451115Y-88343579D01*
X138471555Y-88340341D01*
X138490878Y-88332924D01*
X138501097Y-88335662D01*
X138511547Y-88334007D01*
X138529986Y-88343402D01*
X138549979Y-88348759D01*
X138566063Y-88361784D01*
X138697636Y-88493356D01*
X138723260Y-88537736D01*
X138724164Y-88541109D01*
X138724164Y-88541111D01*
X138761680Y-88681121D01*
X138761681Y-88681123D01*
X138761682Y-88681126D01*
X138834151Y-88806646D01*
X138834153Y-88806648D01*
X138834155Y-88806651D01*
X138936649Y-88909145D01*
X138936651Y-88909146D01*
X138936653Y-88909148D01*
X139062175Y-88981618D01*
X139062176Y-88981618D01*
X139062179Y-88981620D01*
X139202189Y-89019136D01*
X139202190Y-89019136D01*
X139347138Y-89019136D01*
X139347139Y-89019136D01*
X139422906Y-88998834D01*
X141308311Y-88998834D01*
X141308311Y-89143784D01*
X141318591Y-89182148D01*
X141345828Y-89283798D01*
X141420047Y-89412347D01*
X141433311Y-89461847D01*
X141433311Y-89765291D01*
X141433311Y-89877328D01*
X141462308Y-89985547D01*
X141487130Y-90028539D01*
X141500038Y-90050897D01*
X141518327Y-90082573D01*
X141845831Y-90410076D01*
X141954314Y-90518558D01*
X141982092Y-90573075D01*
X141983311Y-90588562D01*
X141983311Y-92180770D01*
X141970047Y-92230270D01*
X141895828Y-92358819D01*
X141895827Y-92358824D01*
X141858311Y-92498834D01*
X141858311Y-92643784D01*
X141870753Y-92690216D01*
X141895828Y-92783798D01*
X141968298Y-92909319D01*
X141968300Y-92909321D01*
X141968302Y-92909324D01*
X142070796Y-93011818D01*
X142070798Y-93011819D01*
X142070800Y-93011821D01*
X142196322Y-93084291D01*
X142196323Y-93084291D01*
X142196326Y-93084293D01*
X142336336Y-93121809D01*
X142336337Y-93121809D01*
X142481285Y-93121809D01*
X142481286Y-93121809D01*
X142621296Y-93084293D01*
X142621298Y-93084291D01*
X142621300Y-93084291D01*
X142746821Y-93011821D01*
X142746821Y-93011820D01*
X142746826Y-93011818D01*
X142849320Y-92909324D01*
X142874329Y-92866008D01*
X142921793Y-92783798D01*
X142921793Y-92783796D01*
X142921795Y-92783794D01*
X142959311Y-92643784D01*
X142959311Y-92498834D01*
X142921795Y-92358824D01*
X142921793Y-92358821D01*
X142921793Y-92358819D01*
X142847575Y-92230270D01*
X142834311Y-92180770D01*
X142834311Y-91998834D01*
X144283311Y-91998834D01*
X144283311Y-92143784D01*
X144296013Y-92191187D01*
X144320828Y-92283798D01*
X144393298Y-92409319D01*
X144393300Y-92409321D01*
X144393302Y-92409324D01*
X144495796Y-92511818D01*
X144495798Y-92511819D01*
X144495800Y-92511821D01*
X144621322Y-92584291D01*
X144621323Y-92584291D01*
X144621326Y-92584293D01*
X144761336Y-92621809D01*
X144797850Y-92621809D01*
X144856041Y-92640716D01*
X144892005Y-92690216D01*
X144893476Y-92695185D01*
X144905612Y-92740477D01*
X144905614Y-92740481D01*
X144978084Y-92866003D01*
X144978086Y-92866005D01*
X144978088Y-92866008D01*
X145080582Y-92968502D01*
X145080584Y-92968503D01*
X145080586Y-92968505D01*
X145206108Y-93040975D01*
X145206109Y-93040975D01*
X145206112Y-93040977D01*
X145346122Y-93078493D01*
X145346123Y-93078493D01*
X145491071Y-93078493D01*
X145491072Y-93078493D01*
X145631082Y-93040977D01*
X145631084Y-93040975D01*
X145631086Y-93040975D01*
X145756607Y-92968505D01*
X145756607Y-92968504D01*
X145756612Y-92968502D01*
X145859106Y-92866008D01*
X145859109Y-92866003D01*
X145931579Y-92740482D01*
X145931579Y-92740480D01*
X145931581Y-92740478D01*
X145969097Y-92600468D01*
X145969097Y-92455518D01*
X145931581Y-92315508D01*
X145928801Y-92310693D01*
X145916078Y-92250848D01*
X145940961Y-92194951D01*
X145944512Y-92191207D01*
X147829291Y-90306430D01*
X147829294Y-90306425D01*
X147882016Y-90215109D01*
X147882016Y-90215107D01*
X147882018Y-90215105D01*
X147909311Y-90113244D01*
X147909311Y-90007790D01*
X147909311Y-89240339D01*
X147928218Y-89182148D01*
X147938301Y-89170341D01*
X147949320Y-89159323D01*
X147950493Y-89157291D01*
X148021793Y-89033797D01*
X148021793Y-89033795D01*
X148021795Y-89033793D01*
X148059311Y-88893783D01*
X148059311Y-88748833D01*
X148021795Y-88608823D01*
X148021793Y-88608820D01*
X148021793Y-88608818D01*
X147949323Y-88483297D01*
X147949321Y-88483295D01*
X147949320Y-88483293D01*
X147846826Y-88380799D01*
X147846823Y-88380797D01*
X147846821Y-88380795D01*
X147721299Y-88308325D01*
X147721300Y-88308325D01*
X147691707Y-88300395D01*
X147581286Y-88270808D01*
X147436336Y-88270808D01*
X147389666Y-88283313D01*
X147296324Y-88308324D01*
X147258187Y-88330343D01*
X147198339Y-88343064D01*
X147142443Y-88318177D01*
X147138703Y-88314628D01*
X147136941Y-88312866D01*
X147136938Y-88312864D01*
X147136936Y-88312862D01*
X147011414Y-88240392D01*
X147011415Y-88240392D01*
X146981822Y-88232462D01*
X146871401Y-88202875D01*
X146726451Y-88202875D01*
X146664716Y-88219416D01*
X146586436Y-88240392D01*
X146460915Y-88312862D01*
X146358413Y-88415364D01*
X146285943Y-88540885D01*
X146267739Y-88608823D01*
X146248426Y-88680900D01*
X146248426Y-88825850D01*
X146266629Y-88893782D01*
X146285943Y-88965864D01*
X146358413Y-89091385D01*
X146362366Y-89096536D01*
X146359965Y-89098377D01*
X146382092Y-89141804D01*
X146383311Y-89157291D01*
X146383311Y-89689408D01*
X146364404Y-89747599D01*
X146354315Y-89759412D01*
X144513330Y-91600397D01*
X144502267Y-91619558D01*
X144486536Y-91640058D01*
X144393301Y-91733294D01*
X144320828Y-91858819D01*
X144320827Y-91858824D01*
X144283311Y-91998834D01*
X142834311Y-91998834D01*
X142834311Y-90315288D01*
X142831937Y-90306425D01*
X142831937Y-90306424D01*
X142805314Y-90207069D01*
X142805314Y-90207068D01*
X142757427Y-90124127D01*
X142757427Y-90124126D01*
X142749299Y-90110048D01*
X142749295Y-90110043D01*
X142670074Y-90030821D01*
X142670074Y-90030822D01*
X142670073Y-90030821D01*
X142670073Y-90030820D01*
X142313308Y-89674056D01*
X142309681Y-89666939D01*
X142303218Y-89662243D01*
X142296053Y-89640192D01*
X142285530Y-89619539D01*
X142284311Y-89604052D01*
X142284311Y-89461847D01*
X142297575Y-89412347D01*
X142371793Y-89283798D01*
X142371793Y-89283796D01*
X142371795Y-89283794D01*
X142409311Y-89143784D01*
X142409311Y-88998834D01*
X142371795Y-88858824D01*
X142371793Y-88858821D01*
X142371793Y-88858819D01*
X142299323Y-88733298D01*
X142299321Y-88733296D01*
X142299320Y-88733294D01*
X142196826Y-88630800D01*
X142196823Y-88630798D01*
X142196821Y-88630796D01*
X142071299Y-88558326D01*
X142071300Y-88558326D01*
X142006228Y-88540890D01*
X141931286Y-88520809D01*
X141786336Y-88520809D01*
X141724601Y-88537350D01*
X141646321Y-88558326D01*
X141520800Y-88630796D01*
X141418298Y-88733298D01*
X141345828Y-88858819D01*
X141308311Y-88998834D01*
X139422906Y-88998834D01*
X139487149Y-88981620D01*
X139487151Y-88981618D01*
X139487153Y-88981618D01*
X139612673Y-88909149D01*
X139612674Y-88909147D01*
X139612679Y-88909145D01*
X139715173Y-88806651D01*
X139736156Y-88770308D01*
X139787646Y-88681125D01*
X139787646Y-88681123D01*
X139787648Y-88681121D01*
X139825164Y-88541111D01*
X139825164Y-88396161D01*
X139787648Y-88256151D01*
X139787646Y-88256148D01*
X139787646Y-88256146D01*
X139715176Y-88130625D01*
X139715174Y-88130623D01*
X139715173Y-88130621D01*
X139612679Y-88028127D01*
X139612676Y-88028125D01*
X139612674Y-88028123D01*
X139487152Y-87955653D01*
X139487148Y-87955651D01*
X139343763Y-87917230D01*
X139299383Y-87891608D01*
X139286774Y-87878999D01*
X139263306Y-87855530D01*
X139235530Y-87801015D01*
X139234311Y-87785528D01*
X139234311Y-87214339D01*
X139253218Y-87156148D01*
X139302718Y-87120184D01*
X139363904Y-87120184D01*
X139403312Y-87144333D01*
X139420796Y-87161817D01*
X139420798Y-87161818D01*
X139420800Y-87161820D01*
X139546322Y-87234290D01*
X139546323Y-87234290D01*
X139546326Y-87234292D01*
X139686336Y-87271808D01*
X139686337Y-87271808D01*
X139831285Y-87271808D01*
X139831286Y-87271808D01*
X139971296Y-87234292D01*
X139971298Y-87234290D01*
X139971300Y-87234290D01*
X140096821Y-87161820D01*
X140096821Y-87161819D01*
X140096826Y-87161817D01*
X140199320Y-87059323D01*
X140271795Y-86933793D01*
X140291912Y-86858710D01*
X140317533Y-86814333D01*
X142249295Y-84882573D01*
X142305314Y-84785546D01*
X142334311Y-84677328D01*
X142334311Y-84565291D01*
X142334311Y-78875241D01*
X142347573Y-78825743D01*
X142371794Y-78783793D01*
X142409310Y-78643783D01*
X142409310Y-78498833D01*
X142908311Y-78498833D01*
X142908311Y-78643782D01*
X142945828Y-78783797D01*
X143018298Y-78909318D01*
X143018300Y-78909320D01*
X143018302Y-78909323D01*
X143054315Y-78945336D01*
X143082091Y-78999851D01*
X143083310Y-79015338D01*
X143083310Y-86130771D01*
X143070046Y-86180271D01*
X142995827Y-86308819D01*
X142958310Y-86448834D01*
X142958310Y-86593783D01*
X142995827Y-86733798D01*
X143068297Y-86859319D01*
X143068299Y-86859321D01*
X143068301Y-86859324D01*
X143170795Y-86961818D01*
X143170797Y-86961819D01*
X143170799Y-86961821D01*
X143296321Y-87034291D01*
X143296322Y-87034291D01*
X143296325Y-87034293D01*
X143436335Y-87071809D01*
X143436336Y-87071809D01*
X143581284Y-87071809D01*
X143581285Y-87071809D01*
X143721295Y-87034293D01*
X143721297Y-87034291D01*
X143721299Y-87034291D01*
X143846820Y-86961821D01*
X143846820Y-86961820D01*
X143846825Y-86961818D01*
X143949319Y-86859324D01*
X144021794Y-86733794D01*
X144059310Y-86593784D01*
X144059310Y-86448834D01*
X144021794Y-86308824D01*
X144021792Y-86308821D01*
X144021792Y-86308819D01*
X143947574Y-86180270D01*
X143934310Y-86130770D01*
X143934310Y-83398833D01*
X146258307Y-83398833D01*
X146258307Y-83543783D01*
X146287894Y-83654204D01*
X146295824Y-83683797D01*
X146368294Y-83809318D01*
X146368296Y-83809320D01*
X146368298Y-83809323D01*
X146470792Y-83911817D01*
X146470794Y-83911818D01*
X146470796Y-83911820D01*
X146596318Y-83984290D01*
X146596319Y-83984290D01*
X146596322Y-83984292D01*
X146736332Y-84021808D01*
X146736333Y-84021808D01*
X146881281Y-84021808D01*
X146881282Y-84021808D01*
X147021292Y-83984292D01*
X147109307Y-83933475D01*
X147169156Y-83920754D01*
X147208308Y-83933476D01*
X147296322Y-83984291D01*
X147296323Y-83984291D01*
X147296326Y-83984293D01*
X147436336Y-84021809D01*
X147436337Y-84021809D01*
X147581285Y-84021809D01*
X147581286Y-84021809D01*
X147721296Y-83984293D01*
X147721298Y-83984291D01*
X147721300Y-83984291D01*
X147846821Y-83911821D01*
X147846821Y-83911820D01*
X147846826Y-83911818D01*
X147949320Y-83809324D01*
X147949323Y-83809319D01*
X148021793Y-83683798D01*
X148021793Y-83683796D01*
X148021795Y-83683794D01*
X148059311Y-83543784D01*
X148059311Y-83528208D01*
X148078218Y-83470017D01*
X148088301Y-83458210D01*
X149054721Y-82491790D01*
X149054724Y-82491789D01*
X149129291Y-82417222D01*
X149182018Y-82325896D01*
X149182689Y-82323390D01*
X149182691Y-82323390D01*
X149182691Y-82323381D01*
X149209312Y-82224036D01*
X149209312Y-82118582D01*
X149209312Y-82112520D01*
X149209311Y-82112502D01*
X149209311Y-75682023D01*
X149209312Y-75682010D01*
X149209312Y-75568584D01*
X149209312Y-75568582D01*
X149182018Y-75466721D01*
X149144726Y-75402131D01*
X149129291Y-75375396D01*
X149054724Y-75300829D01*
X149054722Y-75300827D01*
X149036157Y-75282262D01*
X149034128Y-75279966D01*
X149023100Y-75254567D01*
X149010530Y-75229895D01*
X149010118Y-75224665D01*
X149009761Y-75223842D01*
X149009977Y-75222870D01*
X149009311Y-75214408D01*
X149009311Y-75198834D01*
X148994886Y-75144999D01*
X148971795Y-75058824D01*
X148971793Y-75058821D01*
X148971793Y-75058819D01*
X148899323Y-74933298D01*
X148899321Y-74933296D01*
X148899320Y-74933294D01*
X148796826Y-74830800D01*
X148796823Y-74830798D01*
X148796821Y-74830796D01*
X148671299Y-74758326D01*
X148671300Y-74758326D01*
X148641707Y-74750396D01*
X148531286Y-74720809D01*
X148386336Y-74720809D01*
X148324601Y-74737350D01*
X148246321Y-74758326D01*
X148120800Y-74830796D01*
X148018298Y-74933298D01*
X147945828Y-75058819D01*
X147914941Y-75174092D01*
X147908311Y-75198834D01*
X147908311Y-75343784D01*
X147919779Y-75386581D01*
X147945827Y-75483795D01*
X147947262Y-75487258D01*
X147947472Y-75489933D01*
X147947507Y-75490062D01*
X147947483Y-75490068D01*
X147952061Y-75548255D01*
X147920091Y-75600423D01*
X147905298Y-75610878D01*
X147870797Y-75630797D01*
X147768297Y-75733297D01*
X147695827Y-75858818D01*
X147658310Y-75998833D01*
X147658310Y-76050864D01*
X147645048Y-76100361D01*
X147635604Y-76116719D01*
X147608310Y-76218583D01*
X147608310Y-81664408D01*
X147589403Y-81722599D01*
X147579314Y-81734412D01*
X146488324Y-82825401D01*
X146488323Y-82825402D01*
X146435602Y-82916718D01*
X146435600Y-82916721D01*
X146434505Y-82920807D01*
X146434505Y-82920809D01*
X146408307Y-83018584D01*
X146408307Y-83018585D01*
X146408307Y-83052276D01*
X146389400Y-83110467D01*
X146379313Y-83122277D01*
X146368299Y-83133291D01*
X146368294Y-83133297D01*
X146295824Y-83258818D01*
X146258307Y-83398833D01*
X143934310Y-83398833D01*
X143934310Y-78875244D01*
X143947574Y-78825743D01*
X143971795Y-78783793D01*
X144009311Y-78643783D01*
X144009311Y-78498833D01*
X143971795Y-78358823D01*
X143971793Y-78358820D01*
X143971793Y-78358818D01*
X143899323Y-78233297D01*
X143899321Y-78233295D01*
X143899320Y-78233293D01*
X143796826Y-78130799D01*
X143796823Y-78130797D01*
X143796821Y-78130795D01*
X143671299Y-78058325D01*
X143671300Y-78058325D01*
X143641707Y-78050395D01*
X143531286Y-78020808D01*
X143386336Y-78020808D01*
X143324601Y-78037349D01*
X143246321Y-78058325D01*
X143120800Y-78130795D01*
X143018298Y-78233297D01*
X142945828Y-78358818D01*
X142908311Y-78498833D01*
X142409310Y-78498833D01*
X142371794Y-78358823D01*
X142371792Y-78358820D01*
X142371792Y-78358818D01*
X142299322Y-78233297D01*
X142299320Y-78233295D01*
X142299319Y-78233293D01*
X142196825Y-78130799D01*
X142196822Y-78130797D01*
X142196820Y-78130795D01*
X142071298Y-78058325D01*
X142071299Y-78058325D01*
X142041706Y-78050395D01*
X141931285Y-78020808D01*
X141786335Y-78020808D01*
X141734418Y-78034719D01*
X141658934Y-78054945D01*
X141597832Y-78051742D01*
X141550283Y-78013237D01*
X141534311Y-77959318D01*
X141534311Y-77311844D01*
X141547575Y-77262344D01*
X141621793Y-77133795D01*
X141621793Y-77133793D01*
X141621795Y-77133791D01*
X141659311Y-76993781D01*
X141659311Y-76848831D01*
X141621795Y-76708821D01*
X141621793Y-76708818D01*
X141621793Y-76708816D01*
X141549323Y-76583295D01*
X141549321Y-76583293D01*
X141549320Y-76583291D01*
X141446826Y-76480797D01*
X141446823Y-76480795D01*
X141446821Y-76480793D01*
X141321299Y-76408323D01*
X141321300Y-76408323D01*
X141280785Y-76397467D01*
X141181286Y-76370806D01*
X141036336Y-76370806D01*
X140989666Y-76383311D01*
X140896324Y-76408322D01*
X140896323Y-76408323D01*
X140887870Y-76413203D01*
X140828021Y-76425920D01*
X140772127Y-76401030D01*
X140768373Y-76397467D01*
X140731795Y-76360890D01*
X140731793Y-76360888D01*
X140594861Y-76281831D01*
X140442134Y-76240908D01*
X140284020Y-76240908D01*
X140131293Y-76281831D01*
X139994361Y-76360888D01*
X139882557Y-76472692D01*
X139803500Y-76609624D01*
X139766084Y-76749265D01*
X139762577Y-76762352D01*
X139762577Y-76834508D01*
X139743670Y-76892699D01*
X139733581Y-76904512D01*
X139636900Y-77001193D01*
X139636898Y-77001195D01*
X139636897Y-77001194D01*
X139562330Y-77075762D01*
X139509605Y-77167084D01*
X139509605Y-77167085D01*
X139482310Y-77268949D01*
X139482310Y-83265409D01*
X139463403Y-83323600D01*
X139453314Y-83335413D01*
X137688327Y-85100400D01*
X137635604Y-85191720D01*
X137635603Y-85191720D01*
X137635604Y-85191721D01*
X137608311Y-85293582D01*
X137608311Y-87820808D01*
X137589404Y-87878999D01*
X137539904Y-87914963D01*
X137509311Y-87919808D01*
X135990434Y-87919808D01*
X135957548Y-87913267D01*
X135957510Y-87913411D01*
X135955316Y-87912823D01*
X135952550Y-87912273D01*
X135951243Y-87911731D01*
X135900333Y-87898090D01*
X135798515Y-87870808D01*
X135640401Y-87870808D01*
X135487674Y-87911731D01*
X135350742Y-87990788D01*
X135238938Y-88102592D01*
X135159881Y-88239524D01*
X135118958Y-88392251D01*
X130984310Y-88392251D01*
X130984310Y-87319031D01*
X131003217Y-87260840D01*
X131013300Y-87249033D01*
X131024319Y-87238015D01*
X131024322Y-87238010D01*
X131096792Y-87112489D01*
X131096792Y-87112487D01*
X131096794Y-87112485D01*
X131134310Y-86972475D01*
X131134310Y-86827525D01*
X131096794Y-86687515D01*
X131096792Y-86687512D01*
X131096792Y-86687510D01*
X131024322Y-86561989D01*
X131024320Y-86561987D01*
X131024319Y-86561985D01*
X130921825Y-86459491D01*
X130921822Y-86459489D01*
X130921820Y-86459487D01*
X130796298Y-86387017D01*
X130796299Y-86387017D01*
X130766706Y-86379087D01*
X130656285Y-86349500D01*
X130511335Y-86349500D01*
X130449600Y-86366041D01*
X130371320Y-86387017D01*
X130245799Y-86459487D01*
X130143297Y-86561989D01*
X130070827Y-86687510D01*
X130033310Y-86827525D01*
X130033310Y-86972474D01*
X130070827Y-87112489D01*
X130143297Y-87238010D01*
X130143299Y-87238012D01*
X130143301Y-87238015D01*
X130154315Y-87249029D01*
X130182091Y-87303544D01*
X130183310Y-87319031D01*
X130183310Y-89981083D01*
X130183310Y-90086537D01*
X130190466Y-90113244D01*
X130210604Y-90188402D01*
X130263326Y-90279718D01*
X130263328Y-90279720D01*
X130263330Y-90279723D01*
X131070505Y-91086898D01*
X131098281Y-91141413D01*
X131099500Y-91156900D01*
X131099500Y-91172475D01*
X131124665Y-91266392D01*
X131137017Y-91312489D01*
X131209487Y-91438010D01*
X131209489Y-91438012D01*
X131209491Y-91438015D01*
X131273782Y-91502306D01*
X131301558Y-91556821D01*
X131291987Y-91617253D01*
X131248722Y-91660518D01*
X131203777Y-91671308D01*
X129558297Y-91671308D01*
X129500106Y-91652401D01*
X129464142Y-91602901D01*
X129459298Y-91571827D01*
X129508523Y-81529905D01*
X129527716Y-81471810D01*
X129560319Y-81443371D01*
X133946010Y-79064691D01*
X134006171Y-79053570D01*
X134030904Y-79061979D01*
X134031517Y-79060500D01*
X134037510Y-79062982D01*
X134037512Y-79062982D01*
X134037515Y-79062984D01*
X134177525Y-79100500D01*
X134177526Y-79100500D01*
X134322474Y-79100500D01*
X134322475Y-79100500D01*
X134462485Y-79062984D01*
X134462487Y-79062982D01*
X134462489Y-79062982D01*
X134588010Y-78990512D01*
X134588010Y-78990511D01*
X134588015Y-78990509D01*
X134690509Y-78888015D01*
X134726464Y-78825739D01*
X134762982Y-78762489D01*
X134762982Y-78762487D01*
X134762984Y-78762485D01*
X134796143Y-78638734D01*
X134829465Y-78587424D01*
X134844557Y-78577344D01*
X135408811Y-78271309D01*
X135408608Y-77998862D01*
X135427472Y-77940660D01*
X135437592Y-77928800D01*
X137212305Y-76154088D01*
X137266822Y-76126311D01*
X137282309Y-76125092D01*
X137965193Y-76125092D01*
X138023384Y-76143999D01*
X138035190Y-76154082D01*
X138046209Y-76165101D01*
X138046211Y-76165102D01*
X138046213Y-76165104D01*
X138171735Y-76237574D01*
X138171736Y-76237574D01*
X138171739Y-76237576D01*
X138311749Y-76275092D01*
X138311750Y-76275092D01*
X138456698Y-76275092D01*
X138456699Y-76275092D01*
X138596709Y-76237576D01*
X138596711Y-76237574D01*
X138596713Y-76237574D01*
X138722234Y-76165104D01*
X138722234Y-76165103D01*
X138722239Y-76165101D01*
X138824733Y-76062607D01*
X138897208Y-75937077D01*
X138934724Y-75797067D01*
X138934724Y-75652117D01*
X138897208Y-75512107D01*
X138897206Y-75512104D01*
X138897206Y-75512102D01*
X138824736Y-75386581D01*
X138824734Y-75386579D01*
X138824733Y-75386577D01*
X138722239Y-75284083D01*
X138722236Y-75284081D01*
X138722234Y-75284079D01*
X138596712Y-75211609D01*
X138596713Y-75211609D01*
X138549036Y-75198834D01*
X138456699Y-75174092D01*
X138311749Y-75174092D01*
X138268025Y-75185808D01*
X138171734Y-75211609D01*
X138046213Y-75284079D01*
X138046212Y-75284080D01*
X138046209Y-75284082D01*
X138046209Y-75284083D01*
X138035194Y-75295097D01*
X137980680Y-75322873D01*
X137965193Y-75324092D01*
X137210785Y-75324092D01*
X137152594Y-75305185D01*
X137116630Y-75255685D01*
X137116630Y-75194499D01*
X137152594Y-75144999D01*
X137165736Y-75137639D01*
X137165677Y-75137537D01*
X137296821Y-75061820D01*
X137296821Y-75061819D01*
X137296826Y-75061817D01*
X137399320Y-74959323D01*
X137471795Y-74833793D01*
X137509311Y-74693783D01*
X137509311Y-74548833D01*
X137471795Y-74408823D01*
X137471793Y-74408820D01*
X137471793Y-74408818D01*
X137397575Y-74280269D01*
X137384311Y-74230769D01*
X137384311Y-73993219D01*
X137384311Y-73993218D01*
X137355314Y-73884999D01*
X137355312Y-73884996D01*
X137355312Y-73884994D01*
X137299296Y-73787973D01*
X137220074Y-73708750D01*
X137220074Y-73708751D01*
X135456573Y-71945250D01*
X135428796Y-71890733D01*
X135430951Y-71849622D01*
X135459310Y-71743784D01*
X135459311Y-71743782D01*
X135459311Y-71598831D01*
X135459310Y-71598829D01*
X135425442Y-71472433D01*
X135428643Y-71411334D01*
X135467148Y-71363783D01*
X135468159Y-71363135D01*
X135527317Y-71325890D01*
X135580544Y-71280628D01*
X135675769Y-71172777D01*
X135736755Y-71042461D01*
X135757063Y-70975607D01*
X135757064Y-70975603D01*
X135778864Y-70833383D01*
X135801960Y-68350215D01*
X135801738Y-68329801D01*
X135801427Y-68319801D01*
X135800383Y-68299451D01*
X135769799Y-68158859D01*
X135745994Y-68095035D01*
X135745556Y-68093795D01*
X135745387Y-68093410D01*
X135745382Y-68093395D01*
X135745381Y-68093392D01*
X135676425Y-67967112D01*
X135574686Y-67865374D01*
X135518752Y-67823503D01*
X135518748Y-67823501D01*
X135518746Y-67823499D01*
X135452519Y-67787337D01*
X135437556Y-67771495D01*
X135419914Y-67758697D01*
X135416989Y-67749718D01*
X135410507Y-67742855D01*
X135400965Y-67700525D01*
X135400906Y-67620869D01*
X135419769Y-67562669D01*
X135469243Y-67526668D01*
X135499902Y-67521800D01*
X149417560Y-67521801D01*
G37*
%TD.AperFunction*%
%TD*%
M02*
